<?xml version="1.0" encoding="utf-8" standalone="no"?>
<!DOCTYPE svg PUBLIC "-//W3C//DTD SVG 1.1//EN"
  "http://www.w3.org/Graphics/SVG/1.1/DTD/svg11.dtd">
<svg xmlns:xlink="http://www.w3.org/1999/xlink" width="747.109219pt" height="297.774437pt" viewBox="0 0 747.109219 297.774437" xmlns="http://www.w3.org/2000/svg" version="1.1">
<style>
.draw-line{stroke-dasharray:3000;stroke-dashoffset:3000;animation:draw 3s ease-out forwards}
@keyframes draw{to{stroke-dashoffset:0}}
</style>
 <metadata>
  <rdf:RDF xmlns:dc="http://purl.org/dc/elements/1.1/" xmlns:cc="http://creativecommons.org/ns#" xmlns:rdf="http://www.w3.org/1999/02/22-rdf-syntax-ns#">
   <cc:Work>
    <dc:type rdf:resource="http://purl.org/dc/dcmitype/StillImage"/>
    <dc:date>2026-07-16T10:12:35.270314</dc:date>
    <dc:format>image/svg+xml</dc:format>
    <dc:creator>
     <cc:Agent>
      <dc:title>Matplotlib v3.11.0, https://matplotlib.org/</dc:title>
     </cc:Agent>
    </dc:creator>
   </cc:Work>
  </rdf:RDF>
 </metadata>
 <defs>
  <style type="text/css">*{stroke-linejoin: round; stroke-linecap: butt}</style>
 </defs>
 <g id="figure_1">
  <g id="patch_1">
   <path d="M 0 297.774437 
L 747.109219 297.774437 
L 747.109219 0 
L 0 0 
L 0 297.774437 
z
" style="fill: none"/>
  </g>
  <g id="axes_1">
   <g id="patch_2">
    <path d="M 45.471094 237.870437 
L 725.509219 237.870437 
L 725.509219 39.198438 
L 45.471094 39.198438 
L 45.471094 237.870437 
z
" style="fill: none"/>
   </g>
   <g id="matplotlib.axis_1">
    <g id="xtick_1">
     <g id="line2d_1">
      <path d="M 58.54875 237.870437 
L 58.54875 39.198438 
" clip-path="url(#pb74829154c)" style="fill: none; stroke-dasharray: 0.7,1.155; stroke-dashoffset: 0; stroke: #283d58; stroke-width: 0.7"/>
     </g>
     <g id="line2d_2">
      <defs>
       <path id="m3f858c52da" d="M 0 0 
L 0 3.5 
" style="stroke: #58a6ff; stroke-width: 0.8"/>
      </defs>
      <g>
       <use xlink:href="#m3f858c52da" x="58.54875" y="237.870437" style="fill: #58a6ff; stroke: #58a6ff; stroke-width: 0.8"/>
      </g>
     </g>
     <g id="text_1">
      <!-- 16 -->
      <g style="fill: #58a6ff" transform="translate(53.678281 248.688797) scale(0.07 -0.07)">
       <defs>
        <path id="DejaVuSans-Bold-14" d="M 750 831 
L 1813 831 
L 1813 3847 
L 722 3622 
L 722 4441 
L 1806 4666 
L 2950 4666 
L 2950 831 
L 4013 831 
L 4013 0 
L 750 0 
L 750 831 
z
" transform="scale(0.015625)"/>
        <path id="DejaVuSans-Bold-19" d="M 2316 2303 
Q 2000 2303 1842 2098 
Q 1684 1894 1684 1484 
Q 1684 1075 1842 870 
Q 2000 666 2316 666 
Q 2634 666 2792 870 
Q 2950 1075 2950 1484 
Q 2950 1894 2792 2098 
Q 2634 2303 2316 2303 
z
M 3803 4544 
L 3803 3681 
Q 3506 3822 3243 3889 
Q 2981 3956 2731 3956 
Q 2194 3956 1894 3657 
Q 1594 3359 1544 2772 
Q 1750 2925 1990 3001 
Q 2231 3078 2516 3078 
Q 3231 3078 3670 2659 
Q 4109 2241 4109 1563 
Q 4109 813 3618 361 
Q 3128 -91 2303 -91 
Q 1394 -91 895 523 
Q 397 1138 397 2266 
Q 397 3422 980 4083 
Q 1563 4744 2578 4744 
Q 2900 4744 3203 4694 
Q 3506 4644 3803 4544 
z
" transform="scale(0.015625)"/>
       </defs>
       <use xlink:href="#DejaVuSans-Bold-14"/>
       <use xlink:href="#DejaVuSans-Bold-19" transform="translate(69.578125 0)"/>
      </g>
     </g>
    </g>
    <g id="xtick_2">
     <g id="line2d_3">
      <path d="M 80.344844 237.870437 
L 80.344844 39.198438 
" clip-path="url(#pb74829154c)" style="fill: none; stroke-dasharray: 0.7,1.155; stroke-dashoffset: 0; stroke: #283d58; stroke-width: 0.7"/>
     </g>
     <g id="line2d_4">
      <g>
       <use xlink:href="#m3f858c52da" x="80.344844" y="237.870437" style="fill: #58a6ff; stroke: #58a6ff; stroke-width: 0.8"/>
      </g>
     </g>
     <g id="text_2">
      <!-- 17 -->
      <g style="fill: #58a6ff" transform="translate(75.474375 248.688797) scale(0.07 -0.07)">
       <defs>
        <path id="DejaVuSans-Bold-1a" d="M 428 4666 
L 3944 4666 
L 3944 3988 
L 2125 0 
L 953 0 
L 2675 3781 
L 428 3781 
L 428 4666 
z
" transform="scale(0.015625)"/>
       </defs>
       <use xlink:href="#DejaVuSans-Bold-14"/>
       <use xlink:href="#DejaVuSans-Bold-1a" transform="translate(69.578125 0)"/>
      </g>
     </g>
    </g>
    <g id="xtick_3">
     <g id="line2d_5">
      <path d="M 102.140937 237.870437 
L 102.140937 39.198438 
" clip-path="url(#pb74829154c)" style="fill: none; stroke-dasharray: 0.7,1.155; stroke-dashoffset: 0; stroke: #283d58; stroke-width: 0.7"/>
     </g>
     <g id="line2d_6">
      <g>
       <use xlink:href="#m3f858c52da" x="102.140937" y="237.870437" style="fill: #58a6ff; stroke: #58a6ff; stroke-width: 0.8"/>
      </g>
     </g>
     <g id="text_3">
      <!-- 18 -->
      <g style="fill: #58a6ff" transform="translate(97.270469 248.688797) scale(0.07 -0.07)">
       <defs>
        <path id="DejaVuSans-Bold-1b" d="M 2228 2088 
Q 1891 2088 1709 1903 
Q 1528 1719 1528 1375 
Q 1528 1031 1709 848 
Q 1891 666 2228 666 
Q 2563 666 2741 848 
Q 2919 1031 2919 1375 
Q 2919 1722 2741 1905 
Q 2563 2088 2228 2088 
z
M 1350 2484 
Q 925 2613 709 2878 
Q 494 3144 494 3541 
Q 494 4131 934 4440 
Q 1375 4750 2228 4750 
Q 3075 4750 3515 4442 
Q 3956 4134 3956 3541 
Q 3956 3144 3739 2878 
Q 3522 2613 3097 2484 
Q 3572 2353 3814 2058 
Q 4056 1763 4056 1313 
Q 4056 619 3595 264 
Q 3134 -91 2228 -91 
Q 1319 -91 855 264 
Q 391 619 391 1313 
Q 391 1763 633 2058 
Q 875 2353 1350 2484 
z
M 1631 3419 
Q 1631 3141 1786 2991 
Q 1941 2841 2228 2841 
Q 2509 2841 2662 2991 
Q 2816 3141 2816 3419 
Q 2816 3697 2662 3845 
Q 2509 3994 2228 3994 
Q 1941 3994 1786 3844 
Q 1631 3694 1631 3419 
z
" transform="scale(0.015625)"/>
       </defs>
       <use xlink:href="#DejaVuSans-Bold-14"/>
       <use xlink:href="#DejaVuSans-Bold-1b" transform="translate(69.578125 0)"/>
      </g>
     </g>
    </g>
    <g id="xtick_4">
     <g id="line2d_7">
      <path d="M 123.937031 237.870437 
L 123.937031 39.198438 
" clip-path="url(#pb74829154c)" style="fill: none; stroke-dasharray: 0.7,1.155; stroke-dashoffset: 0; stroke: #283d58; stroke-width: 0.7"/>
     </g>
     <g id="line2d_8">
      <g>
       <use xlink:href="#m3f858c52da" x="123.937031" y="237.870437" style="fill: #58a6ff; stroke: #58a6ff; stroke-width: 0.8"/>
      </g>
     </g>
     <g id="text_4">
      <!-- 19 -->
      <g style="fill: #58a6ff" transform="translate(119.066562 248.688797) scale(0.07 -0.07)">
       <defs>
        <path id="DejaVuSans-Bold-1c" d="M 641 103 
L 641 966 
Q 928 831 1190 764 
Q 1453 697 1709 697 
Q 2247 697 2547 995 
Q 2847 1294 2900 1881 
Q 2688 1725 2447 1647 
Q 2206 1569 1925 1569 
Q 1209 1569 770 1986 
Q 331 2403 331 3084 
Q 331 3838 820 4291 
Q 1309 4744 2131 4744 
Q 3044 4744 3544 4128 
Q 4044 3513 4044 2388 
Q 4044 1231 3459 570 
Q 2875 -91 1856 -91 
Q 1528 -91 1228 -42 
Q 928 6 641 103 
z
M 2125 2350 
Q 2441 2350 2600 2554 
Q 2759 2759 2759 3169 
Q 2759 3575 2600 3781 
Q 2441 3988 2125 3988 
Q 1809 3988 1650 3781 
Q 1491 3575 1491 3169 
Q 1491 2759 1650 2554 
Q 1809 2350 2125 2350 
z
" transform="scale(0.015625)"/>
       </defs>
       <use xlink:href="#DejaVuSans-Bold-14"/>
       <use xlink:href="#DejaVuSans-Bold-1c" transform="translate(69.578125 0)"/>
      </g>
     </g>
    </g>
    <g id="xtick_5">
     <g id="line2d_9">
      <path d="M 145.733125 237.870437 
L 145.733125 39.198438 
" clip-path="url(#pb74829154c)" style="fill: none; stroke-dasharray: 0.7,1.155; stroke-dashoffset: 0; stroke: #283d58; stroke-width: 0.7"/>
     </g>
     <g id="line2d_10">
      <g>
       <use xlink:href="#m3f858c52da" x="145.733125" y="237.870437" style="fill: #58a6ff; stroke: #58a6ff; stroke-width: 0.8"/>
      </g>
     </g>
     <g id="text_5">
      <!-- 20 -->
      <g style="fill: #58a6ff" transform="translate(140.862656 248.688797) scale(0.07 -0.07)">
       <defs>
        <path id="DejaVuSans-Bold-15" d="M 1844 884 
L 3897 884 
L 3897 0 
L 506 0 
L 506 884 
L 2209 2388 
Q 2438 2594 2547 2791 
Q 2656 2988 2656 3200 
Q 2656 3528 2436 3728 
Q 2216 3928 1850 3928 
Q 1569 3928 1234 3808 
Q 900 3688 519 3450 
L 519 4475 
Q 925 4609 1322 4679 
Q 1719 4750 2100 4750 
Q 2938 4750 3402 4381 
Q 3866 4013 3866 3353 
Q 3866 2972 3669 2642 
Q 3472 2313 2841 1759 
L 1844 884 
z
" transform="scale(0.015625)"/>
        <path id="DejaVuSans-Bold-13" d="M 2944 2338 
Q 2944 3213 2780 3570 
Q 2616 3928 2228 3928 
Q 1841 3928 1675 3570 
Q 1509 3213 1509 2338 
Q 1509 1453 1675 1090 
Q 1841 728 2228 728 
Q 2613 728 2778 1090 
Q 2944 1453 2944 2338 
z
M 4147 2328 
Q 4147 1169 3647 539 
Q 3147 -91 2228 -91 
Q 1306 -91 806 539 
Q 306 1169 306 2328 
Q 306 3491 806 4120 
Q 1306 4750 2228 4750 
Q 3147 4750 3647 4120 
Q 4147 3491 4147 2328 
z
" transform="scale(0.015625)"/>
       </defs>
       <use xlink:href="#DejaVuSans-Bold-15"/>
       <use xlink:href="#DejaVuSans-Bold-13" transform="translate(69.578125 0)"/>
      </g>
     </g>
    </g>
    <g id="xtick_6">
     <g id="line2d_11">
      <path d="M 167.529219 237.870437 
L 167.529219 39.198438 
" clip-path="url(#pb74829154c)" style="fill: none; stroke-dasharray: 0.7,1.155; stroke-dashoffset: 0; stroke: #283d58; stroke-width: 0.7"/>
     </g>
     <g id="line2d_12">
      <g>
       <use xlink:href="#m3f858c52da" x="167.529219" y="237.870437" style="fill: #58a6ff; stroke: #58a6ff; stroke-width: 0.8"/>
      </g>
     </g>
     <g id="text_6">
      <!-- 21 -->
      <g style="fill: #58a6ff" transform="translate(162.65875 248.688797) scale(0.07 -0.07)">
       <use xlink:href="#DejaVuSans-Bold-15"/>
       <use xlink:href="#DejaVuSans-Bold-14" transform="translate(69.578125 0)"/>
      </g>
     </g>
    </g>
    <g id="xtick_7">
     <g id="line2d_13">
      <path d="M 189.325312 237.870437 
L 189.325312 39.198438 
" clip-path="url(#pb74829154c)" style="fill: none; stroke-dasharray: 0.7,1.155; stroke-dashoffset: 0; stroke: #283d58; stroke-width: 0.7"/>
     </g>
     <g id="line2d_14">
      <g>
       <use xlink:href="#m3f858c52da" x="189.325312" y="237.870437" style="fill: #58a6ff; stroke: #58a6ff; stroke-width: 0.8"/>
      </g>
     </g>
     <g id="text_7">
      <!-- 22 -->
      <g style="fill: #58a6ff" transform="translate(184.454844 248.688797) scale(0.07 -0.07)">
       <use xlink:href="#DejaVuSans-Bold-15"/>
       <use xlink:href="#DejaVuSans-Bold-15" transform="translate(69.578125 0)"/>
      </g>
     </g>
    </g>
    <g id="xtick_8">
     <g id="line2d_15">
      <path d="M 211.121406 237.870437 
L 211.121406 39.198438 
" clip-path="url(#pb74829154c)" style="fill: none; stroke-dasharray: 0.7,1.155; stroke-dashoffset: 0; stroke: #283d58; stroke-width: 0.7"/>
     </g>
     <g id="line2d_16">
      <g>
       <use xlink:href="#m3f858c52da" x="211.121406" y="237.870437" style="fill: #58a6ff; stroke: #58a6ff; stroke-width: 0.8"/>
      </g>
     </g>
     <g id="text_8">
      <!-- 23 -->
      <g style="fill: #58a6ff" transform="translate(206.250937 248.688797) scale(0.07 -0.07)">
       <defs>
        <path id="DejaVuSans-Bold-16" d="M 2981 2516 
Q 3453 2394 3698 2092 
Q 3944 1791 3944 1325 
Q 3944 631 3412 270 
Q 2881 -91 1863 -91 
Q 1503 -91 1142 -33 
Q 781 25 428 141 
L 428 1069 
Q 766 900 1098 814 
Q 1431 728 1753 728 
Q 2231 728 2486 893 
Q 2741 1059 2741 1369 
Q 2741 1688 2480 1852 
Q 2219 2016 1709 2016 
L 1228 2016 
L 1228 2791 
L 1734 2791 
Q 2188 2791 2409 2933 
Q 2631 3075 2631 3366 
Q 2631 3634 2415 3781 
Q 2200 3928 1806 3928 
Q 1516 3928 1219 3862 
Q 922 3797 628 3669 
L 628 4550 
Q 984 4650 1334 4700 
Q 1684 4750 2022 4750 
Q 2931 4750 3382 4451 
Q 3834 4153 3834 3553 
Q 3834 3144 3618 2883 
Q 3403 2622 2981 2516 
z
" transform="scale(0.015625)"/>
       </defs>
       <use xlink:href="#DejaVuSans-Bold-15"/>
       <use xlink:href="#DejaVuSans-Bold-16" transform="translate(69.578125 0)"/>
      </g>
     </g>
    </g>
    <g id="xtick_9">
     <g id="line2d_17">
      <path d="M 232.9175 237.870437 
L 232.9175 39.198438 
" clip-path="url(#pb74829154c)" style="fill: none; stroke-dasharray: 0.7,1.155; stroke-dashoffset: 0; stroke: #283d58; stroke-width: 0.7"/>
     </g>
     <g id="line2d_18">
      <g>
       <use xlink:href="#m3f858c52da" x="232.9175" y="237.870437" style="fill: #58a6ff; stroke: #58a6ff; stroke-width: 0.8"/>
      </g>
     </g>
     <g id="text_9">
      <!-- 24 -->
      <g style="fill: #58a6ff" transform="translate(228.047031 248.688797) scale(0.07 -0.07)">
       <defs>
        <path id="DejaVuSans-Bold-17" d="M 2356 3675 
L 1038 1722 
L 2356 1722 
L 2356 3675 
z
M 2156 4666 
L 3494 4666 
L 3494 1722 
L 4159 1722 
L 4159 850 
L 3494 850 
L 3494 0 
L 2356 0 
L 2356 850 
L 288 850 
L 288 1881 
L 2156 4666 
z
" transform="scale(0.015625)"/>
       </defs>
       <use xlink:href="#DejaVuSans-Bold-15"/>
       <use xlink:href="#DejaVuSans-Bold-17" transform="translate(69.578125 0)"/>
      </g>
     </g>
    </g>
    <g id="xtick_10">
     <g id="line2d_19">
      <path d="M 254.713594 237.870437 
L 254.713594 39.198438 
" clip-path="url(#pb74829154c)" style="fill: none; stroke-dasharray: 0.7,1.155; stroke-dashoffset: 0; stroke: #283d58; stroke-width: 0.7"/>
     </g>
     <g id="line2d_20">
      <g>
       <use xlink:href="#m3f858c52da" x="254.713594" y="237.870437" style="fill: #58a6ff; stroke: #58a6ff; stroke-width: 0.8"/>
      </g>
     </g>
     <g id="text_10">
      <!-- 25 -->
      <g style="fill: #58a6ff" transform="translate(249.843125 248.688797) scale(0.07 -0.07)">
       <defs>
        <path id="DejaVuSans-Bold-18" d="M 678 4666 
L 3669 4666 
L 3669 3781 
L 1638 3781 
L 1638 3059 
Q 1775 3097 1914 3117 
Q 2053 3138 2203 3138 
Q 3056 3138 3531 2711 
Q 4006 2284 4006 1522 
Q 4006 766 3489 337 
Q 2972 -91 2053 -91 
Q 1656 -91 1267 -14 
Q 878 63 494 219 
L 494 1166 
Q 875 947 1217 837 
Q 1559 728 1863 728 
Q 2300 728 2551 942 
Q 2803 1156 2803 1522 
Q 2803 1891 2551 2103 
Q 2300 2316 1863 2316 
Q 1603 2316 1309 2248 
Q 1016 2181 678 2041 
L 678 4666 
z
" transform="scale(0.015625)"/>
       </defs>
       <use xlink:href="#DejaVuSans-Bold-15"/>
       <use xlink:href="#DejaVuSans-Bold-18" transform="translate(69.578125 0)"/>
      </g>
     </g>
    </g>
    <g id="xtick_11">
     <g id="line2d_21">
      <path d="M 276.509687 237.870437 
L 276.509687 39.198438 
" clip-path="url(#pb74829154c)" style="fill: none; stroke-dasharray: 0.7,1.155; stroke-dashoffset: 0; stroke: #283d58; stroke-width: 0.7"/>
     </g>
     <g id="line2d_22">
      <g>
       <use xlink:href="#m3f858c52da" x="276.509687" y="237.870437" style="fill: #58a6ff; stroke: #58a6ff; stroke-width: 0.8"/>
      </g>
     </g>
     <g id="text_11">
      <!-- 26 -->
      <g style="fill: #58a6ff" transform="translate(271.639219 248.688797) scale(0.07 -0.07)">
       <use xlink:href="#DejaVuSans-Bold-15"/>
       <use xlink:href="#DejaVuSans-Bold-19" transform="translate(69.578125 0)"/>
      </g>
     </g>
    </g>
    <g id="xtick_12">
     <g id="line2d_23">
      <path d="M 298.305781 237.870437 
L 298.305781 39.198438 
" clip-path="url(#pb74829154c)" style="fill: none; stroke-dasharray: 0.7,1.155; stroke-dashoffset: 0; stroke: #283d58; stroke-width: 0.7"/>
     </g>
     <g id="line2d_24">
      <g>
       <use xlink:href="#m3f858c52da" x="298.305781" y="237.870437" style="fill: #58a6ff; stroke: #58a6ff; stroke-width: 0.8"/>
      </g>
     </g>
     <g id="text_12">
      <!-- 27 -->
      <g style="fill: #58a6ff" transform="translate(293.435312 248.688797) scale(0.07 -0.07)">
       <use xlink:href="#DejaVuSans-Bold-15"/>
       <use xlink:href="#DejaVuSans-Bold-1a" transform="translate(69.578125 0)"/>
      </g>
     </g>
    </g>
    <g id="xtick_13">
     <g id="line2d_25">
      <path d="M 320.101875 237.870437 
L 320.101875 39.198438 
" clip-path="url(#pb74829154c)" style="fill: none; stroke-dasharray: 0.7,1.155; stroke-dashoffset: 0; stroke: #283d58; stroke-width: 0.7"/>
     </g>
     <g id="line2d_26">
      <g>
       <use xlink:href="#m3f858c52da" x="320.101875" y="237.870437" style="fill: #58a6ff; stroke: #58a6ff; stroke-width: 0.8"/>
      </g>
     </g>
     <g id="text_13">
      <!-- 28 -->
      <g style="fill: #58a6ff" transform="translate(315.231406 248.688797) scale(0.07 -0.07)">
       <use xlink:href="#DejaVuSans-Bold-15"/>
       <use xlink:href="#DejaVuSans-Bold-1b" transform="translate(69.578125 0)"/>
      </g>
     </g>
    </g>
    <g id="xtick_14">
     <g id="line2d_27">
      <path d="M 341.897969 237.870437 
L 341.897969 39.198438 
" clip-path="url(#pb74829154c)" style="fill: none; stroke-dasharray: 0.7,1.155; stroke-dashoffset: 0; stroke: #283d58; stroke-width: 0.7"/>
     </g>
     <g id="line2d_28">
      <g>
       <use xlink:href="#m3f858c52da" x="341.897969" y="237.870437" style="fill: #58a6ff; stroke: #58a6ff; stroke-width: 0.8"/>
      </g>
     </g>
     <g id="text_14">
      <!-- 29 -->
      <g style="fill: #58a6ff" transform="translate(337.0275 248.688797) scale(0.07 -0.07)">
       <use xlink:href="#DejaVuSans-Bold-15"/>
       <use xlink:href="#DejaVuSans-Bold-1c" transform="translate(69.578125 0)"/>
      </g>
     </g>
    </g>
    <g id="xtick_15">
     <g id="line2d_29">
      <path d="M 363.694062 237.870437 
L 363.694062 39.198438 
" clip-path="url(#pb74829154c)" style="fill: none; stroke-dasharray: 0.7,1.155; stroke-dashoffset: 0; stroke: #283d58; stroke-width: 0.7"/>
     </g>
     <g id="line2d_30">
      <g>
       <use xlink:href="#m3f858c52da" x="363.694062" y="237.870437" style="fill: #58a6ff; stroke: #58a6ff; stroke-width: 0.8"/>
      </g>
     </g>
     <g id="text_15">
      <!-- 30 -->
      <g style="fill: #58a6ff" transform="translate(358.823594 248.688797) scale(0.07 -0.07)">
       <use xlink:href="#DejaVuSans-Bold-16"/>
       <use xlink:href="#DejaVuSans-Bold-13" transform="translate(69.578125 0)"/>
      </g>
     </g>
    </g>
    <g id="xtick_16">
     <g id="line2d_31">
      <path d="M 385.490156 237.870437 
L 385.490156 39.198438 
" clip-path="url(#pb74829154c)" style="fill: none; stroke-dasharray: 0.7,1.155; stroke-dashoffset: 0; stroke: #283d58; stroke-width: 0.7"/>
     </g>
     <g id="line2d_32">
      <g>
       <use xlink:href="#m3f858c52da" x="385.490156" y="237.870437" style="fill: #58a6ff; stroke: #58a6ff; stroke-width: 0.8"/>
      </g>
     </g>
     <g id="text_16">
      <!-- 01 -->
      <g style="fill: #58a6ff" transform="translate(380.619687 248.688797) scale(0.07 -0.07)">
       <use xlink:href="#DejaVuSans-Bold-13"/>
       <use xlink:href="#DejaVuSans-Bold-14" transform="translate(69.578125 0)"/>
      </g>
     </g>
    </g>
    <g id="xtick_17">
     <g id="line2d_33">
      <path d="M 407.28625 237.870437 
L 407.28625 39.198438 
" clip-path="url(#pb74829154c)" style="fill: none; stroke-dasharray: 0.7,1.155; stroke-dashoffset: 0; stroke: #283d58; stroke-width: 0.7"/>
     </g>
     <g id="line2d_34">
      <g>
       <use xlink:href="#m3f858c52da" x="407.28625" y="237.870437" style="fill: #58a6ff; stroke: #58a6ff; stroke-width: 0.8"/>
      </g>
     </g>
     <g id="text_17">
      <!-- 02 -->
      <g style="fill: #58a6ff" transform="translate(402.415781 248.688797) scale(0.07 -0.07)">
       <use xlink:href="#DejaVuSans-Bold-13"/>
       <use xlink:href="#DejaVuSans-Bold-15" transform="translate(69.578125 0)"/>
      </g>
     </g>
    </g>
    <g id="xtick_18">
     <g id="line2d_35">
      <path d="M 429.082344 237.870437 
L 429.082344 39.198438 
" clip-path="url(#pb74829154c)" style="fill: none; stroke-dasharray: 0.7,1.155; stroke-dashoffset: 0; stroke: #283d58; stroke-width: 0.7"/>
     </g>
     <g id="line2d_36">
      <g>
       <use xlink:href="#m3f858c52da" x="429.082344" y="237.870437" style="fill: #58a6ff; stroke: #58a6ff; stroke-width: 0.8"/>
      </g>
     </g>
     <g id="text_18">
      <!-- 03 -->
      <g style="fill: #58a6ff" transform="translate(424.211875 248.688797) scale(0.07 -0.07)">
       <use xlink:href="#DejaVuSans-Bold-13"/>
       <use xlink:href="#DejaVuSans-Bold-16" transform="translate(69.578125 0)"/>
      </g>
     </g>
    </g>
    <g id="xtick_19">
     <g id="line2d_37">
      <path d="M 450.878437 237.870437 
L 450.878437 39.198438 
" clip-path="url(#pb74829154c)" style="fill: none; stroke-dasharray: 0.7,1.155; stroke-dashoffset: 0; stroke: #283d58; stroke-width: 0.7"/>
     </g>
     <g id="line2d_38">
      <g>
       <use xlink:href="#m3f858c52da" x="450.878437" y="237.870437" style="fill: #58a6ff; stroke: #58a6ff; stroke-width: 0.8"/>
      </g>
     </g>
     <g id="text_19">
      <!-- 04 -->
      <g style="fill: #58a6ff" transform="translate(446.007969 248.688797) scale(0.07 -0.07)">
       <use xlink:href="#DejaVuSans-Bold-13"/>
       <use xlink:href="#DejaVuSans-Bold-17" transform="translate(69.578125 0)"/>
      </g>
     </g>
    </g>
    <g id="xtick_20">
     <g id="line2d_39">
      <path d="M 472.674531 237.870437 
L 472.674531 39.198438 
" clip-path="url(#pb74829154c)" style="fill: none; stroke-dasharray: 0.7,1.155; stroke-dashoffset: 0; stroke: #283d58; stroke-width: 0.7"/>
     </g>
     <g id="line2d_40">
      <g>
       <use xlink:href="#m3f858c52da" x="472.674531" y="237.870437" style="fill: #58a6ff; stroke: #58a6ff; stroke-width: 0.8"/>
      </g>
     </g>
     <g id="text_20">
      <!-- 05 -->
      <g style="fill: #58a6ff" transform="translate(467.804062 248.688797) scale(0.07 -0.07)">
       <use xlink:href="#DejaVuSans-Bold-13"/>
       <use xlink:href="#DejaVuSans-Bold-18" transform="translate(69.578125 0)"/>
      </g>
     </g>
    </g>
    <g id="xtick_21">
     <g id="line2d_41">
      <path d="M 494.470625 237.870437 
L 494.470625 39.198438 
" clip-path="url(#pb74829154c)" style="fill: none; stroke-dasharray: 0.7,1.155; stroke-dashoffset: 0; stroke: #283d58; stroke-width: 0.7"/>
     </g>
     <g id="line2d_42">
      <g>
       <use xlink:href="#m3f858c52da" x="494.470625" y="237.870437" style="fill: #58a6ff; stroke: #58a6ff; stroke-width: 0.8"/>
      </g>
     </g>
     <g id="text_21">
      <!-- 06 -->
      <g style="fill: #58a6ff" transform="translate(489.600156 248.688797) scale(0.07 -0.07)">
       <use xlink:href="#DejaVuSans-Bold-13"/>
       <use xlink:href="#DejaVuSans-Bold-19" transform="translate(69.578125 0)"/>
      </g>
     </g>
    </g>
    <g id="xtick_22">
     <g id="line2d_43">
      <path d="M 516.266719 237.870437 
L 516.266719 39.198438 
" clip-path="url(#pb74829154c)" style="fill: none; stroke-dasharray: 0.7,1.155; stroke-dashoffset: 0; stroke: #283d58; stroke-width: 0.7"/>
     </g>
     <g id="line2d_44">
      <g>
       <use xlink:href="#m3f858c52da" x="516.266719" y="237.870437" style="fill: #58a6ff; stroke: #58a6ff; stroke-width: 0.8"/>
      </g>
     </g>
     <g id="text_22">
      <!-- 07 -->
      <g style="fill: #58a6ff" transform="translate(511.39625 248.688797) scale(0.07 -0.07)">
       <use xlink:href="#DejaVuSans-Bold-13"/>
       <use xlink:href="#DejaVuSans-Bold-1a" transform="translate(69.578125 0)"/>
      </g>
     </g>
    </g>
    <g id="xtick_23">
     <g id="line2d_45">
      <path d="M 538.062812 237.870437 
L 538.062812 39.198438 
" clip-path="url(#pb74829154c)" style="fill: none; stroke-dasharray: 0.7,1.155; stroke-dashoffset: 0; stroke: #283d58; stroke-width: 0.7"/>
     </g>
     <g id="line2d_46">
      <g>
       <use xlink:href="#m3f858c52da" x="538.062812" y="237.870437" style="fill: #58a6ff; stroke: #58a6ff; stroke-width: 0.8"/>
      </g>
     </g>
     <g id="text_23">
      <!-- 08 -->
      <g style="fill: #58a6ff" transform="translate(533.192344 248.688797) scale(0.07 -0.07)">
       <use xlink:href="#DejaVuSans-Bold-13"/>
       <use xlink:href="#DejaVuSans-Bold-1b" transform="translate(69.578125 0)"/>
      </g>
     </g>
    </g>
    <g id="xtick_24">
     <g id="line2d_47">
      <path d="M 559.858906 237.870437 
L 559.858906 39.198438 
" clip-path="url(#pb74829154c)" style="fill: none; stroke-dasharray: 0.7,1.155; stroke-dashoffset: 0; stroke: #283d58; stroke-width: 0.7"/>
     </g>
     <g id="line2d_48">
      <g>
       <use xlink:href="#m3f858c52da" x="559.858906" y="237.870437" style="fill: #58a6ff; stroke: #58a6ff; stroke-width: 0.8"/>
      </g>
     </g>
     <g id="text_24">
      <!-- 09 -->
      <g style="fill: #58a6ff" transform="translate(554.988437 248.688797) scale(0.07 -0.07)">
       <use xlink:href="#DejaVuSans-Bold-13"/>
       <use xlink:href="#DejaVuSans-Bold-1c" transform="translate(69.578125 0)"/>
      </g>
     </g>
    </g>
    <g id="xtick_25">
     <g id="line2d_49">
      <path d="M 581.655 237.870437 
L 581.655 39.198438 
" clip-path="url(#pb74829154c)" style="fill: none; stroke-dasharray: 0.7,1.155; stroke-dashoffset: 0; stroke: #283d58; stroke-width: 0.7"/>
     </g>
     <g id="line2d_50">
      <g>
       <use xlink:href="#m3f858c52da" x="581.655" y="237.870437" style="fill: #58a6ff; stroke: #58a6ff; stroke-width: 0.8"/>
      </g>
     </g>
     <g id="text_25">
      <!-- 10 -->
      <g style="fill: #58a6ff" transform="translate(576.784531 248.688797) scale(0.07 -0.07)">
       <use xlink:href="#DejaVuSans-Bold-14"/>
       <use xlink:href="#DejaVuSans-Bold-13" transform="translate(69.578125 0)"/>
      </g>
     </g>
    </g>
    <g id="xtick_26">
     <g id="line2d_51">
      <path d="M 603.451094 237.870437 
L 603.451094 39.198438 
" clip-path="url(#pb74829154c)" style="fill: none; stroke-dasharray: 0.7,1.155; stroke-dashoffset: 0; stroke: #283d58; stroke-width: 0.7"/>
     </g>
     <g id="line2d_52">
      <g>
       <use xlink:href="#m3f858c52da" x="603.451094" y="237.870437" style="fill: #58a6ff; stroke: #58a6ff; stroke-width: 0.8"/>
      </g>
     </g>
     <g id="text_26">
      <!-- 11 -->
      <g style="fill: #58a6ff" transform="translate(598.580625 248.688797) scale(0.07 -0.07)">
       <use xlink:href="#DejaVuSans-Bold-14"/>
       <use xlink:href="#DejaVuSans-Bold-14" transform="translate(69.578125 0)"/>
      </g>
     </g>
    </g>
    <g id="xtick_27">
     <g id="line2d_53">
      <path d="M 625.247188 237.870437 
L 625.247188 39.198438 
" clip-path="url(#pb74829154c)" style="fill: none; stroke-dasharray: 0.7,1.155; stroke-dashoffset: 0; stroke: #283d58; stroke-width: 0.7"/>
     </g>
     <g id="line2d_54">
      <g>
       <use xlink:href="#m3f858c52da" x="625.247188" y="237.870437" style="fill: #58a6ff; stroke: #58a6ff; stroke-width: 0.8"/>
      </g>
     </g>
     <g id="text_27">
      <!-- 12 -->
      <g style="fill: #58a6ff" transform="translate(620.376719 248.688797) scale(0.07 -0.07)">
       <use xlink:href="#DejaVuSans-Bold-14"/>
       <use xlink:href="#DejaVuSans-Bold-15" transform="translate(69.578125 0)"/>
      </g>
     </g>
    </g>
    <g id="xtick_28">
     <g id="line2d_55">
      <path d="M 647.043281 237.870437 
L 647.043281 39.198438 
" clip-path="url(#pb74829154c)" style="fill: none; stroke-dasharray: 0.7,1.155; stroke-dashoffset: 0; stroke: #283d58; stroke-width: 0.7"/>
     </g>
     <g id="line2d_56">
      <g>
       <use xlink:href="#m3f858c52da" x="647.043281" y="237.870437" style="fill: #58a6ff; stroke: #58a6ff; stroke-width: 0.8"/>
      </g>
     </g>
     <g id="text_28">
      <!-- 13 -->
      <g style="fill: #58a6ff" transform="translate(642.172812 248.688797) scale(0.07 -0.07)">
       <use xlink:href="#DejaVuSans-Bold-14"/>
       <use xlink:href="#DejaVuSans-Bold-16" transform="translate(69.578125 0)"/>
      </g>
     </g>
    </g>
    <g id="xtick_29">
     <g id="line2d_57">
      <path d="M 668.839375 237.870437 
L 668.839375 39.198438 
" clip-path="url(#pb74829154c)" style="fill: none; stroke-dasharray: 0.7,1.155; stroke-dashoffset: 0; stroke: #283d58; stroke-width: 0.7"/>
     </g>
     <g id="line2d_58">
      <g>
       <use xlink:href="#m3f858c52da" x="668.839375" y="237.870437" style="fill: #58a6ff; stroke: #58a6ff; stroke-width: 0.8"/>
      </g>
     </g>
     <g id="text_29">
      <!-- 14 -->
      <g style="fill: #58a6ff" transform="translate(663.968906 248.688797) scale(0.07 -0.07)">
       <use xlink:href="#DejaVuSans-Bold-14"/>
       <use xlink:href="#DejaVuSans-Bold-17" transform="translate(69.578125 0)"/>
      </g>
     </g>
    </g>
    <g id="xtick_30">
     <g id="line2d_59">
      <path d="M 690.635469 237.870437 
L 690.635469 39.198438 
" clip-path="url(#pb74829154c)" style="fill: none; stroke-dasharray: 0.7,1.155; stroke-dashoffset: 0; stroke: #283d58; stroke-width: 0.7"/>
     </g>
     <g id="line2d_60">
      <g>
       <use xlink:href="#m3f858c52da" x="690.635469" y="237.870437" style="fill: #58a6ff; stroke: #58a6ff; stroke-width: 0.8"/>
      </g>
     </g>
     <g id="text_30">
      <!-- 15 -->
      <g style="fill: #58a6ff" transform="translate(685.765 248.688797) scale(0.07 -0.07)">
       <use xlink:href="#DejaVuSans-Bold-14"/>
       <use xlink:href="#DejaVuSans-Bold-18" transform="translate(69.578125 0)"/>
      </g>
     </g>
    </g>
    <g id="xtick_31">
     <g id="line2d_61">
      <path d="M 712.431563 237.870437 
L 712.431563 39.198438 
" clip-path="url(#pb74829154c)" style="fill: none; stroke-dasharray: 0.7,1.155; stroke-dashoffset: 0; stroke: #283d58; stroke-width: 0.7"/>
     </g>
     <g id="line2d_62">
      <g>
       <use xlink:href="#m3f858c52da" x="712.431563" y="237.870437" style="fill: #58a6ff; stroke: #58a6ff; stroke-width: 0.8"/>
      </g>
     </g>
     <g id="text_31">
      <!-- 16 -->
      <g style="fill: #58a6ff" transform="translate(707.561094 248.688797) scale(0.07 -0.07)">
       <use xlink:href="#DejaVuSans-Bold-14"/>
       <use xlink:href="#DejaVuSans-Bold-19" transform="translate(69.578125 0)"/>
      </g>
     </g>
    </g>
    <g id="text_32">
     <!-- Last Month -->
     <g style="fill: #58a6ff" transform="translate(360.221406 266.449187) scale(0.08 -0.08)">
      <defs>
       <path id="DejaVuSans-Bold-2f" d="M 588 4666 
L 1791 4666 
L 1791 909 
L 3903 909 
L 3903 0 
L 588 0 
L 588 4666 
z
" transform="scale(0.015625)"/>
       <path id="DejaVuSans-Bold-44" d="M 2106 1575 
Q 1756 1575 1579 1456 
Q 1403 1338 1403 1106 
Q 1403 894 1545 773 
Q 1688 653 1941 653 
Q 2256 653 2472 879 
Q 2688 1106 2688 1447 
L 2688 1575 
L 2106 1575 
z
M 3816 1997 
L 3816 0 
L 2688 0 
L 2688 519 
Q 2463 200 2181 54 
Q 1900 -91 1497 -91 
Q 953 -91 614 226 
Q 275 544 275 1050 
Q 275 1666 698 1953 
Q 1122 2241 2028 2241 
L 2688 2241 
L 2688 2328 
Q 2688 2594 2478 2717 
Q 2269 2841 1825 2841 
Q 1466 2841 1156 2769 
Q 847 2697 581 2553 
L 581 3406 
Q 941 3494 1303 3539 
Q 1666 3584 2028 3584 
Q 2975 3584 3395 3211 
Q 3816 2838 3816 1997 
z
" transform="scale(0.015625)"/>
       <path id="DejaVuSans-Bold-56" d="M 3272 3391 
L 3272 2541 
Q 2913 2691 2578 2766 
Q 2244 2841 1947 2841 
Q 1628 2841 1473 2761 
Q 1319 2681 1319 2516 
Q 1319 2381 1436 2309 
Q 1553 2238 1856 2203 
L 2053 2175 
Q 2913 2066 3209 1816 
Q 3506 1566 3506 1031 
Q 3506 472 3093 190 
Q 2681 -91 1863 -91 
Q 1516 -91 1145 -36 
Q 775 19 384 128 
L 384 978 
Q 719 816 1070 734 
Q 1422 653 1784 653 
Q 2113 653 2278 743 
Q 2444 834 2444 1013 
Q 2444 1163 2330 1236 
Q 2216 1309 1875 1350 
L 1678 1375 
Q 931 1469 631 1722 
Q 331 1975 331 2491 
Q 331 3047 712 3315 
Q 1094 3584 1881 3584 
Q 2191 3584 2531 3537 
Q 2872 3491 3272 3391 
z
" transform="scale(0.015625)"/>
       <path id="DejaVuSans-Bold-57" d="M 1759 4494 
L 1759 3500 
L 2913 3500 
L 2913 2700 
L 1759 2700 
L 1759 1216 
Q 1759 972 1856 886 
Q 1953 800 2241 800 
L 2816 800 
L 2816 0 
L 1856 0 
Q 1194 0 917 276 
Q 641 553 641 1216 
L 641 2700 
L 84 2700 
L 84 3500 
L 641 3500 
L 641 4494 
L 1759 4494 
z
" transform="scale(0.015625)"/>
       <path id="DejaVuSans-Bold-3" transform="scale(0.015625)"/>
       <path id="DejaVuSans-Bold-30" d="M 588 4666 
L 2119 4666 
L 3181 2169 
L 4250 4666 
L 5778 4666 
L 5778 0 
L 4641 0 
L 4641 3413 
L 3566 897 
L 2803 897 
L 1728 3413 
L 1728 0 
L 588 0 
L 588 4666 
z
" transform="scale(0.015625)"/>
       <path id="DejaVuSans-Bold-52" d="M 2203 2784 
Q 1831 2784 1636 2517 
Q 1441 2250 1441 1747 
Q 1441 1244 1636 976 
Q 1831 709 2203 709 
Q 2569 709 2762 976 
Q 2956 1244 2956 1747 
Q 2956 2250 2762 2517 
Q 2569 2784 2203 2784 
z
M 2203 3584 
Q 3106 3584 3614 3096 
Q 4122 2609 4122 1747 
Q 4122 884 3614 396 
Q 3106 -91 2203 -91 
Q 1297 -91 786 396 
Q 275 884 275 1747 
Q 275 2609 786 3096 
Q 1297 3584 2203 3584 
z
" transform="scale(0.015625)"/>
       <path id="DejaVuSans-Bold-51" d="M 4056 2131 
L 4056 0 
L 2931 0 
L 2931 347 
L 2931 1631 
Q 2931 2084 2911 2256 
Q 2891 2428 2841 2509 
Q 2775 2619 2662 2680 
Q 2550 2741 2406 2741 
Q 2056 2741 1856 2470 
Q 1656 2200 1656 1722 
L 1656 0 
L 538 0 
L 538 3500 
L 1656 3500 
L 1656 2988 
Q 1909 3294 2193 3439 
Q 2478 3584 2822 3584 
Q 3428 3584 3742 3212 
Q 4056 2841 4056 2131 
z
" transform="scale(0.015625)"/>
       <path id="DejaVuSans-Bold-4b" d="M 4056 2131 
L 4056 0 
L 2931 0 
L 2931 347 
L 2931 1625 
Q 2931 2084 2911 2256 
Q 2891 2428 2841 2509 
Q 2775 2619 2662 2680 
Q 2550 2741 2406 2741 
Q 2056 2741 1856 2470 
Q 1656 2200 1656 1722 
L 1656 0 
L 538 0 
L 538 4863 
L 1656 4863 
L 1656 2988 
Q 1909 3294 2193 3439 
Q 2478 3584 2822 3584 
Q 3428 3584 3742 3212 
Q 4056 2841 4056 2131 
z
" transform="scale(0.015625)"/>
      </defs>
      <use xlink:href="#DejaVuSans-Bold-2f"/>
      <use xlink:href="#DejaVuSans-Bold-44" transform="translate(63.71875 0)"/>
      <use xlink:href="#DejaVuSans-Bold-56" transform="translate(131.203125 0)"/>
      <use xlink:href="#DejaVuSans-Bold-57" transform="translate(190.71875 0)"/>
      <use xlink:href="#DejaVuSans-Bold-3" transform="translate(238.515625 0)"/>
      <use xlink:href="#DejaVuSans-Bold-30" transform="translate(273.328125 0)"/>
      <use xlink:href="#DejaVuSans-Bold-52" transform="translate(372.84375 0)"/>
      <use xlink:href="#DejaVuSans-Bold-51" transform="translate(441.546875 0)"/>
      <use xlink:href="#DejaVuSans-Bold-57" transform="translate(512.734375 0)"/>
      <use xlink:href="#DejaVuSans-Bold-4b" transform="translate(560.53125 0)"/>
     </g>
    </g>
   </g>
   <g id="matplotlib.axis_2">
    <g id="ytick_1">
     <g id="line2d_63">
      <path d="M 45.471094 237.870437 
L 725.509219 237.870437 
" clip-path="url(#pb74829154c)" style="fill: none; stroke-dasharray: 0.7,1.155; stroke-dashoffset: 0; stroke: #283d58; stroke-width: 0.7"/>
     </g>
     <g id="line2d_64">
      <defs>
       <path id="mf3fd796234" d="M 0 0 
L -3.5 0 
" style="stroke: #58a6ff; stroke-width: 0.8"/>
      </defs>
      <g>
       <use xlink:href="#mf3fd796234" x="45.471094" y="237.870437" style="fill: #58a6ff; stroke: #58a6ff; stroke-width: 0.8"/>
      </g>
     </g>
     <g id="text_33">
      <!-- 0 -->
      <g style="fill: #58a6ff" transform="translate(33.600625 240.529617) scale(0.07 -0.07)">
       <use xlink:href="#DejaVuSans-Bold-13"/>
      </g>
     </g>
    </g>
    <g id="ytick_2">
     <g id="line2d_65">
      <path d="M 45.471094 211.380837 
L 725.509219 211.380837 
" clip-path="url(#pb74829154c)" style="fill: none; stroke-dasharray: 0.7,1.155; stroke-dashoffset: 0; stroke: #283d58; stroke-width: 0.7"/>
     </g>
     <g id="line2d_66">
      <g>
       <use xlink:href="#mf3fd796234" x="45.471094" y="211.380837" style="fill: #58a6ff; stroke: #58a6ff; stroke-width: 0.8"/>
      </g>
     </g>
     <g id="text_34">
      <!-- 1 -->
      <g style="fill: #58a6ff" transform="translate(33.600625 214.040017) scale(0.07 -0.07)">
       <use xlink:href="#DejaVuSans-Bold-14"/>
      </g>
     </g>
    </g>
    <g id="ytick_3">
     <g id="line2d_67">
      <path d="M 45.471094 184.891237 
L 725.509219 184.891237 
" clip-path="url(#pb74829154c)" style="fill: none; stroke-dasharray: 0.7,1.155; stroke-dashoffset: 0; stroke: #283d58; stroke-width: 0.7"/>
     </g>
     <g id="line2d_68">
      <g>
       <use xlink:href="#mf3fd796234" x="45.471094" y="184.891237" style="fill: #58a6ff; stroke: #58a6ff; stroke-width: 0.8"/>
      </g>
     </g>
     <g id="text_35">
      <!-- 2 -->
      <g style="fill: #58a6ff" transform="translate(33.600625 187.550417) scale(0.07 -0.07)">
       <use xlink:href="#DejaVuSans-Bold-15"/>
      </g>
     </g>
    </g>
    <g id="ytick_4">
     <g id="line2d_69">
      <path d="M 45.471094 158.401637 
L 725.509219 158.401637 
" clip-path="url(#pb74829154c)" style="fill: none; stroke-dasharray: 0.7,1.155; stroke-dashoffset: 0; stroke: #283d58; stroke-width: 0.7"/>
     </g>
     <g id="line2d_70">
      <g>
       <use xlink:href="#mf3fd796234" x="45.471094" y="158.401637" style="fill: #58a6ff; stroke: #58a6ff; stroke-width: 0.8"/>
      </g>
     </g>
     <g id="text_36">
      <!-- 3 -->
      <g style="fill: #58a6ff" transform="translate(33.600625 161.060817) scale(0.07 -0.07)">
       <use xlink:href="#DejaVuSans-Bold-16"/>
      </g>
     </g>
    </g>
    <g id="ytick_5">
     <g id="line2d_71">
      <path d="M 45.471094 131.912037 
L 725.509219 131.912037 
" clip-path="url(#pb74829154c)" style="fill: none; stroke-dasharray: 0.7,1.155; stroke-dashoffset: 0; stroke: #283d58; stroke-width: 0.7"/>
     </g>
     <g id="line2d_72">
      <g>
       <use xlink:href="#mf3fd796234" x="45.471094" y="131.912037" style="fill: #58a6ff; stroke: #58a6ff; stroke-width: 0.8"/>
      </g>
     </g>
     <g id="text_37">
      <!-- 4 -->
      <g style="fill: #58a6ff" transform="translate(33.600625 134.571217) scale(0.07 -0.07)">
       <use xlink:href="#DejaVuSans-Bold-17"/>
      </g>
     </g>
    </g>
    <g id="ytick_6">
     <g id="line2d_73">
      <path d="M 45.471094 105.422437 
L 725.509219 105.422437 
" clip-path="url(#pb74829154c)" style="fill: none; stroke-dasharray: 0.7,1.155; stroke-dashoffset: 0; stroke: #283d58; stroke-width: 0.7"/>
     </g>
     <g id="line2d_74">
      <g>
       <use xlink:href="#mf3fd796234" x="45.471094" y="105.422437" style="fill: #58a6ff; stroke: #58a6ff; stroke-width: 0.8"/>
      </g>
     </g>
     <g id="text_38">
      <!-- 5 -->
      <g style="fill: #58a6ff" transform="translate(33.600625 108.081617) scale(0.07 -0.07)">
       <use xlink:href="#DejaVuSans-Bold-18"/>
      </g>
     </g>
    </g>
    <g id="ytick_7">
     <g id="line2d_75">
      <path d="M 45.471094 78.932838 
L 725.509219 78.932838 
" clip-path="url(#pb74829154c)" style="fill: none; stroke-dasharray: 0.7,1.155; stroke-dashoffset: 0; stroke: #283d58; stroke-width: 0.7"/>
     </g>
     <g id="line2d_76">
      <g>
       <use xlink:href="#mf3fd796234" x="45.471094" y="78.932838" style="fill: #58a6ff; stroke: #58a6ff; stroke-width: 0.8"/>
      </g>
     </g>
     <g id="text_39">
      <!-- 6 -->
      <g style="fill: #58a6ff" transform="translate(33.600625 81.592017) scale(0.07 -0.07)">
       <use xlink:href="#DejaVuSans-Bold-19"/>
      </g>
     </g>
    </g>
    <g id="ytick_8">
     <g id="line2d_77">
      <path d="M 45.471094 52.443238 
L 725.509219 52.443238 
" clip-path="url(#pb74829154c)" style="fill: none; stroke-dasharray: 0.7,1.155; stroke-dashoffset: 0; stroke: #283d58; stroke-width: 0.7"/>
     </g>
     <g id="line2d_78">
      <g>
       <use xlink:href="#mf3fd796234" x="45.471094" y="52.443238" style="fill: #58a6ff; stroke: #58a6ff; stroke-width: 0.8"/>
      </g>
     </g>
     <g id="text_40">
      <!-- 7 -->
      <g style="fill: #58a6ff" transform="translate(33.600625 55.102417) scale(0.07 -0.07)">
       <use xlink:href="#DejaVuSans-Bold-1a"/>
      </g>
     </g>
    </g>
    <g id="text_41">
     <!-- New Followers -->
     <g style="fill: #58a6ff" transform="translate(27.67875 171.254437) rotate(-90) scale(0.08 -0.08)">
      <defs>
       <path id="DejaVuSans-Bold-31" d="M 588 4666 
L 1931 4666 
L 3628 1466 
L 3628 4666 
L 4769 4666 
L 4769 0 
L 3425 0 
L 1728 3200 
L 1728 0 
L 588 0 
L 588 4666 
z
" transform="scale(0.015625)"/>
       <path id="DejaVuSans-Bold-48" d="M 4031 1759 
L 4031 1441 
L 1416 1441 
Q 1456 1047 1700 850 
Q 1944 653 2381 653 
Q 2734 653 3104 758 
Q 3475 863 3866 1075 
L 3866 213 
Q 3469 63 3072 -14 
Q 2675 -91 2278 -91 
Q 1328 -91 801 392 
Q 275 875 275 1747 
Q 275 2603 792 3093 
Q 1309 3584 2216 3584 
Q 3041 3584 3536 3087 
Q 4031 2591 4031 1759 
z
M 2881 2131 
Q 2881 2450 2695 2645 
Q 2509 2841 2209 2841 
Q 1884 2841 1681 2658 
Q 1478 2475 1428 2131 
L 2881 2131 
z
" transform="scale(0.015625)"/>
       <path id="DejaVuSans-Bold-5a" d="M 225 3500 
L 1313 3500 
L 1900 1088 
L 2491 3500 
L 3425 3500 
L 4013 1113 
L 4603 3500 
L 5691 3500 
L 4769 0 
L 3547 0 
L 2956 2406 
L 2369 0 
L 1147 0 
L 225 3500 
z
" transform="scale(0.015625)"/>
       <path id="DejaVuSans-Bold-29" d="M 588 4666 
L 3834 4666 
L 3834 3756 
L 1791 3756 
L 1791 2888 
L 3713 2888 
L 3713 1978 
L 1791 1978 
L 1791 0 
L 588 0 
L 588 4666 
z
" transform="scale(0.015625)"/>
       <path id="DejaVuSans-Bold-4f" d="M 538 4863 
L 1656 4863 
L 1656 0 
L 538 0 
L 538 4863 
z
" transform="scale(0.015625)"/>
       <path id="DejaVuSans-Bold-55" d="M 3138 2547 
Q 2991 2616 2845 2648 
Q 2700 2681 2553 2681 
Q 2122 2681 1889 2404 
Q 1656 2128 1656 1613 
L 1656 0 
L 538 0 
L 538 3500 
L 1656 3500 
L 1656 2925 
Q 1872 3269 2151 3426 
Q 2431 3584 2822 3584 
Q 2878 3584 2943 3579 
Q 3009 3575 3134 3559 
L 3138 2547 
z
" transform="scale(0.015625)"/>
      </defs>
      <use xlink:href="#DejaVuSans-Bold-31"/>
      <use xlink:href="#DejaVuSans-Bold-48" transform="translate(83.6875 0)"/>
      <use xlink:href="#DejaVuSans-Bold-5a" transform="translate(151.515625 0)"/>
      <use xlink:href="#DejaVuSans-Bold-3" transform="translate(243.90625 0)"/>
      <use xlink:href="#DejaVuSans-Bold-29" transform="translate(278.71875 0)"/>
      <use xlink:href="#DejaVuSans-Bold-52" transform="translate(342.984375 0)"/>
      <use xlink:href="#DejaVuSans-Bold-4f" transform="translate(411.6875 0)"/>
      <use xlink:href="#DejaVuSans-Bold-4f" transform="translate(445.96875 0)"/>
      <use xlink:href="#DejaVuSans-Bold-52" transform="translate(480.25 0)"/>
      <use xlink:href="#DejaVuSans-Bold-5a" transform="translate(548.953125 0)"/>
      <use xlink:href="#DejaVuSans-Bold-48" transform="translate(641.34375 0)"/>
      <use xlink:href="#DejaVuSans-Bold-55" transform="translate(709.171875 0)"/>
      <use xlink:href="#DejaVuSans-Bold-56" transform="translate(758.484375 0)"/>
     </g>
    </g>
   </g>
   <g id="FillBetweenPolyCollection_1">
    <defs>
     <path id="m9f932d6b3a" d="M 58.54875 -59.904 
L 58.54875 -59.904 
L 60.735649 -59.904 
L 62.922548 -59.904 
L 65.109447 -59.904 
L 67.296346 -59.904 
L 69.483245 -59.904 
L 71.670144 -59.904 
L 73.857043 -59.904 
L 76.043942 -59.904 
L 78.230841 -59.904 
L 80.41774 -59.904 
L 82.604639 -59.904 
L 84.791538 -59.904 
L 86.978437 -59.904 
L 89.165337 -59.904 
L 91.352236 -59.904 
L 93.539135 -59.904 
L 95.726034 -59.904 
L 97.912933 -59.904 
L 100.099832 -59.904 
L 102.286731 -59.904 
L 104.47363 -59.904 
L 106.660529 -59.904 
L 108.847428 -59.904 
L 111.034327 -59.904 
L 113.221226 -59.904 
L 115.408125 -59.904 
L 117.595024 -59.904 
L 119.781923 -59.904 
L 121.968822 -59.904 
L 124.155721 -59.904 
L 126.34262 -59.904 
L 128.529519 -59.904 
L 130.716418 -59.904 
L 132.903317 -59.904 
L 135.090216 -59.904 
L 137.277115 -59.904 
L 139.464014 -59.904 
L 141.650913 -59.904 
L 143.837812 -59.904 
L 146.024712 -59.904 
L 148.211611 -59.904 
L 150.39851 -59.904 
L 152.585409 -59.904 
L 154.772308 -59.904 
L 156.959207 -59.904 
L 159.146106 -59.904 
L 161.333005 -59.904 
L 163.519904 -59.904 
L 165.706803 -59.904 
L 167.893702 -59.904 
L 170.080601 -59.904 
L 172.2675 -59.904 
L 174.454399 -59.904 
L 176.641298 -59.904 
L 178.828197 -59.904 
L 181.015096 -59.904 
L 183.201995 -59.904 
L 185.388894 -59.904 
L 187.575793 -59.904 
L 189.762692 -59.904 
L 191.949591 -59.904 
L 194.13649 -59.904 
L 196.323389 -59.904 
L 198.510288 -59.904 
L 200.697188 -59.904 
L 202.884087 -59.904 
L 205.070986 -59.904 
L 207.257885 -59.904 
L 209.444784 -59.904 
L 211.631683 -59.904 
L 213.818582 -59.904 
L 216.005481 -59.904 
L 218.19238 -59.904 
L 220.379279 -59.904 
L 222.566178 -59.904 
L 224.753077 -59.904 
L 226.939976 -59.904 
L 229.126875 -59.904 
L 231.313774 -59.904 
L 233.500673 -59.904 
L 235.687572 -59.904 
L 237.874471 -59.904 
L 240.06137 -59.904 
L 242.248269 -59.904 
L 244.435168 -59.904 
L 246.622067 -59.904 
L 248.808966 -59.904 
L 250.995865 -59.904 
L 253.182764 -59.904 
L 255.369663 -59.974556 
L 257.556562 -61.138454 
L 259.743462 -63.484979 
L 261.930361 -66.693056 
L 264.11726 -70.44161 
L 266.304159 -74.409565 
L 268.491058 -78.275846 
L 270.677957 -81.719378 
L 272.864856 -84.419086 
L 275.051755 -86.053894 
L 277.238654 -86.306692 
L 279.425553 -85.0982 
L 281.612452 -82.717784 
L 283.799351 -79.486518 
L 285.98625 -75.725478 
L 288.173149 -71.755739 
L 290.360048 -67.898377 
L 292.546947 -64.474466 
L 294.733846 -61.805082 
L 296.920745 -60.2113 
L 299.107644 -59.904 
L 301.294543 -59.904 
L 303.481442 -59.904 
L 305.668341 -59.904 
L 307.85524 -59.904 
L 310.042139 -59.904 
L 312.229038 -59.904 
L 314.415938 -59.904 
L 316.602837 -59.904 
L 318.789736 -59.904 
L 320.976635 -59.904 
L 323.163534 -59.904 
L 325.350433 -59.904 
L 327.537332 -59.904 
L 329.724231 -59.904 
L 331.91113 -59.904 
L 334.098029 -59.904 
L 336.284928 -59.904 
L 338.471827 -59.904 
L 340.658726 -59.904 
L 342.845625 -59.904 
L 345.032524 -59.904 
L 347.219423 -59.904 
L 349.406322 -59.904 
L 351.593221 -59.904 
L 353.78012 -59.904 
L 355.967019 -59.904 
L 358.153918 -59.904 
L 360.340817 -59.904 
L 362.527716 -59.904 
L 364.714615 -59.904 
L 366.901514 -59.904 
L 369.088413 -59.904 
L 371.275312 -59.904 
L 373.462212 -59.904 
L 375.649111 -59.904 
L 377.83601 -59.904 
L 380.022909 -59.904 
L 382.209808 -59.904 
L 384.396707 -59.904 
L 386.583606 -59.904 
L 388.770505 -59.904 
L 390.957404 -59.904 
L 393.144303 -59.904 
L 395.331202 -59.904 
L 397.518101 -59.904 
L 399.705 -59.904 
L 401.891899 -59.904 
L 404.078798 -59.904 
L 406.265697 -59.904 
L 408.452596 -59.904 
L 410.639495 -59.904 
L 412.826394 -59.904 
L 415.013293 -59.904 
L 417.200192 -59.904 
L 419.387091 -59.904 
L 421.57399 -59.904 
L 423.760889 -59.904 
L 425.947788 -59.904 
L 428.134688 -59.904 
L 430.321587 -59.904 
L 432.508486 -59.904 
L 434.695385 -59.904 
L 436.882284 -59.904 
L 439.069183 -59.904 
L 441.256082 -59.904 
L 443.442981 -59.904 
L 445.62988 -59.904 
L 447.816779 -59.904 
L 450.003678 -59.904 
L 452.190577 -59.904 
L 454.377476 -59.904 
L 456.564375 -59.904 
L 458.751274 -59.904 
L 460.938173 -59.904 
L 463.125072 -59.904 
L 465.311971 -59.904 
L 467.49887 -59.904 
L 469.685769 -59.904 
L 471.872668 -59.904 
L 474.059567 -60.2113 
L 476.246466 -61.805082 
L 478.433365 -64.474466 
L 480.620264 -67.898377 
L 482.807163 -71.755739 
L 484.994062 -75.725478 
L 487.180962 -79.486518 
L 489.367861 -82.717784 
L 491.55476 -85.0982 
L 493.741659 -86.306692 
L 495.928558 -86.053894 
L 498.115457 -84.419086 
L 500.302356 -81.719378 
L 502.489255 -78.275846 
L 504.676154 -74.409565 
L 506.863053 -70.44161 
L 509.049952 -66.693056 
L 511.236851 -63.484979 
L 513.42375 -61.138454 
L 515.610649 -59.974556 
L 517.797548 -59.904 
L 519.984447 -59.904 
L 522.171346 -59.904 
L 524.358245 -59.904 
L 526.545144 -59.904 
L 528.732043 -59.904 
L 530.918942 -59.904 
L 533.105841 -59.904 
L 535.29274 -59.904 
L 537.479639 -59.904 
L 539.666538 -59.904 
L 541.853438 -59.904 
L 544.040337 -59.904 
L 546.227236 -59.904 
L 548.414135 -59.904 
L 550.601034 -59.904 
L 552.787933 -59.904 
L 554.974832 -59.904 
L 557.161731 -59.904 
L 559.34863 -59.904 
L 561.535529 -59.904 
L 563.722428 -59.904 
L 565.909327 -59.904 
L 568.096226 -59.904 
L 570.283125 -59.904 
L 572.470024 -59.904 
L 574.656923 -59.904 
L 576.843822 -59.904 
L 579.030721 -59.904 
L 581.21762 -59.904 
L 583.404519 -59.904 
L 585.591418 -59.904 
L 587.778317 -59.904 
L 589.965216 -59.904 
L 592.152115 -59.904 
L 594.339014 -59.904 
L 596.525913 -59.904 
L 598.712813 -59.904 
L 600.899712 -59.904 
L 603.086611 -59.904 
L 605.27351 -59.904 
L 607.460409 -59.904 
L 609.647308 -59.904 
L 611.834207 -59.904 
L 614.021106 -59.904 
L 616.208005 -59.904 
L 618.394904 -59.904 
L 620.581803 -59.904 
L 622.768702 -59.904 
L 624.955601 -59.904 
L 627.1425 -59.904 
L 629.329399 -59.904 
L 631.516298 -59.904 
L 633.703197 -59.904 
L 635.890096 -59.904 
L 638.076995 -59.904 
L 640.263894 -59.904 
L 642.450793 -59.904 
L 644.637692 -59.904 
L 646.824591 -59.904 
L 649.01149 -59.904 
L 651.198389 -59.904 
L 653.385288 -59.904 
L 655.572188 -59.904 
L 657.759087 -59.904 
L 659.945986 -59.904 
L 662.132885 -59.904 
L 664.319784 -59.904 
L 666.506683 -59.904 
L 668.693582 -59.904 
L 670.880481 -59.904 
L 673.06738 -59.904 
L 675.254279 -59.904 
L 677.441178 -59.904 
L 679.628077 -59.904 
L 681.814976 -59.904 
L 684.001875 -59.904 
L 686.188774 -59.904 
L 688.375673 -59.904 
L 690.562572 -59.904 
L 692.749471 -59.904 
L 694.93637 -59.904 
L 697.123269 -59.904 
L 699.310168 -59.904 
L 701.497067 -59.904 
L 703.683966 -59.904 
L 705.870865 -59.904 
L 708.057764 -59.904 
L 710.244663 -59.904 
L 712.431563 -59.904 
L 712.431563 -59.904 
L 712.431563 -59.904 
L 710.244663 -59.904 
L 708.057764 -59.904 
L 705.870865 -59.904 
L 703.683966 -59.904 
L 701.497067 -59.904 
L 699.310168 -59.904 
L 697.123269 -59.904 
L 694.93637 -59.904 
L 692.749471 -59.904 
L 690.562572 -59.904 
L 688.375673 -59.904 
L 686.188774 -59.904 
L 684.001875 -59.904 
L 681.814976 -59.904 
L 679.628077 -59.904 
L 677.441178 -59.904 
L 675.254279 -59.904 
L 673.06738 -59.904 
L 670.880481 -59.904 
L 668.693582 -59.904 
L 666.506683 -59.904 
L 664.319784 -59.904 
L 662.132885 -59.904 
L 659.945986 -59.904 
L 657.759087 -59.904 
L 655.572188 -59.904 
L 653.385288 -59.904 
L 651.198389 -59.904 
L 649.01149 -59.904 
L 646.824591 -59.904 
L 644.637692 -59.904 
L 642.450793 -59.904 
L 640.263894 -59.904 
L 638.076995 -59.904 
L 635.890096 -59.904 
L 633.703197 -59.904 
L 631.516298 -59.904 
L 629.329399 -59.904 
L 627.1425 -59.904 
L 624.955601 -59.904 
L 622.768702 -59.904 
L 620.581803 -59.904 
L 618.394904 -59.904 
L 616.208005 -59.904 
L 614.021106 -59.904 
L 611.834207 -59.904 
L 609.647308 -59.904 
L 607.460409 -59.904 
L 605.27351 -59.904 
L 603.086611 -59.904 
L 600.899712 -59.904 
L 598.712813 -59.904 
L 596.525913 -59.904 
L 594.339014 -59.904 
L 592.152115 -59.904 
L 589.965216 -59.904 
L 587.778317 -59.904 
L 585.591418 -59.904 
L 583.404519 -59.904 
L 581.21762 -59.904 
L 579.030721 -59.904 
L 576.843822 -59.904 
L 574.656923 -59.904 
L 572.470024 -59.904 
L 570.283125 -59.904 
L 568.096226 -59.904 
L 565.909327 -59.904 
L 563.722428 -59.904 
L 561.535529 -59.904 
L 559.34863 -59.904 
L 557.161731 -59.904 
L 554.974832 -59.904 
L 552.787933 -59.904 
L 550.601034 -59.904 
L 548.414135 -59.904 
L 546.227236 -59.904 
L 544.040337 -59.904 
L 541.853438 -59.904 
L 539.666538 -59.904 
L 537.479639 -59.904 
L 535.29274 -59.904 
L 533.105841 -59.904 
L 530.918942 -59.904 
L 528.732043 -59.904 
L 526.545144 -59.904 
L 524.358245 -59.904 
L 522.171346 -59.904 
L 519.984447 -59.904 
L 517.797548 -59.904 
L 515.610649 -59.904 
L 513.42375 -59.904 
L 511.236851 -59.904 
L 509.049952 -59.904 
L 506.863053 -59.904 
L 504.676154 -59.904 
L 502.489255 -59.904 
L 500.302356 -59.904 
L 498.115457 -59.904 
L 495.928558 -59.904 
L 493.741659 -59.904 
L 491.55476 -59.904 
L 489.367861 -59.904 
L 487.180962 -59.904 
L 484.994062 -59.904 
L 482.807163 -59.904 
L 480.620264 -59.904 
L 478.433365 -59.904 
L 476.246466 -59.904 
L 474.059567 -59.904 
L 471.872668 -59.904 
L 469.685769 -59.904 
L 467.49887 -59.904 
L 465.311971 -59.904 
L 463.125072 -59.904 
L 460.938173 -59.904 
L 458.751274 -59.904 
L 456.564375 -59.904 
L 454.377476 -59.904 
L 452.190577 -59.904 
L 450.003678 -59.904 
L 447.816779 -59.904 
L 445.62988 -59.904 
L 443.442981 -59.904 
L 441.256082 -59.904 
L 439.069183 -59.904 
L 436.882284 -59.904 
L 434.695385 -59.904 
L 432.508486 -59.904 
L 430.321587 -59.904 
L 428.134688 -59.904 
L 425.947788 -59.904 
L 423.760889 -59.904 
L 421.57399 -59.904 
L 419.387091 -59.904 
L 417.200192 -59.904 
L 415.013293 -59.904 
L 412.826394 -59.904 
L 410.639495 -59.904 
L 408.452596 -59.904 
L 406.265697 -59.904 
L 404.078798 -59.904 
L 401.891899 -59.904 
L 399.705 -59.904 
L 397.518101 -59.904 
L 395.331202 -59.904 
L 393.144303 -59.904 
L 390.957404 -59.904 
L 388.770505 -59.904 
L 386.583606 -59.904 
L 384.396707 -59.904 
L 382.209808 -59.904 
L 380.022909 -59.904 
L 377.83601 -59.904 
L 375.649111 -59.904 
L 373.462212 -59.904 
L 371.275312 -59.904 
L 369.088413 -59.904 
L 366.901514 -59.904 
L 364.714615 -59.904 
L 362.527716 -59.904 
L 360.340817 -59.904 
L 358.153918 -59.904 
L 355.967019 -59.904 
L 353.78012 -59.904 
L 351.593221 -59.904 
L 349.406322 -59.904 
L 347.219423 -59.904 
L 345.032524 -59.904 
L 342.845625 -59.904 
L 340.658726 -59.904 
L 338.471827 -59.904 
L 336.284928 -59.904 
L 334.098029 -59.904 
L 331.91113 -59.904 
L 329.724231 -59.904 
L 327.537332 -59.904 
L 325.350433 -59.904 
L 323.163534 -59.904 
L 320.976635 -59.904 
L 318.789736 -59.904 
L 316.602837 -59.904 
L 314.415938 -59.904 
L 312.229038 -59.904 
L 310.042139 -59.904 
L 307.85524 -59.904 
L 305.668341 -59.904 
L 303.481442 -59.904 
L 301.294543 -59.904 
L 299.107644 -59.904 
L 296.920745 -59.904 
L 294.733846 -59.904 
L 292.546947 -59.904 
L 290.360048 -59.904 
L 288.173149 -59.904 
L 285.98625 -59.904 
L 283.799351 -59.904 
L 281.612452 -59.904 
L 279.425553 -59.904 
L 277.238654 -59.904 
L 275.051755 -59.904 
L 272.864856 -59.904 
L 270.677957 -59.904 
L 268.491058 -59.904 
L 266.304159 -59.904 
L 264.11726 -59.904 
L 261.930361 -59.904 
L 259.743462 -59.904 
L 257.556562 -59.904 
L 255.369663 -59.904 
L 253.182764 -59.904 
L 250.995865 -59.904 
L 248.808966 -59.904 
L 246.622067 -59.904 
L 244.435168 -59.904 
L 242.248269 -59.904 
L 240.06137 -59.904 
L 237.874471 -59.904 
L 235.687572 -59.904 
L 233.500673 -59.904 
L 231.313774 -59.904 
L 229.126875 -59.904 
L 226.939976 -59.904 
L 224.753077 -59.904 
L 222.566178 -59.904 
L 220.379279 -59.904 
L 218.19238 -59.904 
L 216.005481 -59.904 
L 213.818582 -59.904 
L 211.631683 -59.904 
L 209.444784 -59.904 
L 207.257885 -59.904 
L 205.070986 -59.904 
L 202.884087 -59.904 
L 200.697188 -59.904 
L 198.510288 -59.904 
L 196.323389 -59.904 
L 194.13649 -59.904 
L 191.949591 -59.904 
L 189.762692 -59.904 
L 187.575793 -59.904 
L 185.388894 -59.904 
L 183.201995 -59.904 
L 181.015096 -59.904 
L 178.828197 -59.904 
L 176.641298 -59.904 
L 174.454399 -59.904 
L 172.2675 -59.904 
L 170.080601 -59.904 
L 167.893702 -59.904 
L 165.706803 -59.904 
L 163.519904 -59.904 
L 161.333005 -59.904 
L 159.146106 -59.904 
L 156.959207 -59.904 
L 154.772308 -59.904 
L 152.585409 -59.904 
L 150.39851 -59.904 
L 148.211611 -59.904 
L 146.024712 -59.904 
L 143.837812 -59.904 
L 141.650913 -59.904 
L 139.464014 -59.904 
L 137.277115 -59.904 
L 135.090216 -59.904 
L 132.903317 -59.904 
L 130.716418 -59.904 
L 128.529519 -59.904 
L 126.34262 -59.904 
L 124.155721 -59.904 
L 121.968822 -59.904 
L 119.781923 -59.904 
L 117.595024 -59.904 
L 115.408125 -59.904 
L 113.221226 -59.904 
L 111.034327 -59.904 
L 108.847428 -59.904 
L 106.660529 -59.904 
L 104.47363 -59.904 
L 102.286731 -59.904 
L 100.099832 -59.904 
L 97.912933 -59.904 
L 95.726034 -59.904 
L 93.539135 -59.904 
L 91.352236 -59.904 
L 89.165337 -59.904 
L 86.978437 -59.904 
L 84.791538 -59.904 
L 82.604639 -59.904 
L 80.41774 -59.904 
L 78.230841 -59.904 
L 76.043942 -59.904 
L 73.857043 -59.904 
L 71.670144 -59.904 
L 69.483245 -59.904 
L 67.296346 -59.904 
L 65.109447 -59.904 
L 62.922548 -59.904 
L 60.735649 -59.904 
L 58.54875 -59.904 
z
" style="stroke: #1f6feb; stroke-opacity: 0.15"/>
    </defs>
    <g clip-path="url(#pb74829154c)">
     <use xlink:href="#m9f932d6b3a" x="0" y="297.774437" style="fill: #1f6feb; fill-opacity: 0.15; stroke: #1f6feb; stroke-opacity: 0.15"/>
    </g>
   </g>
   <g id="patch_3">
    <path d="M 45.471094 237.870437 
L 45.471094 39.198438 
" style="fill: none; stroke: #283d58; stroke-width: 0.8; stroke-linejoin: miter; stroke-linecap: square"/>
   </g>
   <g id="patch_4">
    <path d="M 725.509219 237.870437 
L 725.509219 39.198438 
" style="fill: none; stroke: #283d58; stroke-width: 0.8; stroke-linejoin: miter; stroke-linecap: square"/>
   </g>
   <g id="patch_5">
    <path d="M 45.471094 237.870437 
L 725.509219 237.870437 
" style="fill: none; stroke: #283d58; stroke-width: 0.8; stroke-linejoin: miter; stroke-linecap: square"/>
   </g>
   <g id="patch_6">
    <path d="M 45.471094 39.198438 
L 725.509219 39.198438 
" style="fill: none; stroke: #283d58; stroke-width: 0.8; stroke-linejoin: miter; stroke-linecap: square"/>
   </g>
   <g id="line2d_79">
    <path d="M 58.54875 237.870437 
L 255.369663 237.799881 
L 257.556562 236.635983 
L 259.743462 234.289458 
L 261.930361 231.081381 
L 266.304159 223.364873 
L 268.491058 219.498591 
L 270.677957 216.055059 
L 272.864856 213.355351 
L 275.051755 211.720543 
L 277.238654 211.467746 
L 279.425553 212.676237 
L 281.612452 215.056654 
L 283.799351 218.28792 
L 288.173149 226.018698 
L 290.360048 229.876061 
L 292.546947 233.299972 
L 294.733846 235.969356 
L 296.920745 237.563138 
L 299.107644 237.870437 
L 471.872668 237.870437 
L 474.059567 237.563138 
L 476.246466 235.969356 
L 478.433365 233.299972 
L 480.620264 229.876061 
L 487.180962 218.28792 
L 489.367861 215.056654 
L 491.55476 212.676237 
L 493.741659 211.467746 
L 495.928558 211.720543 
L 498.115457 213.355351 
L 500.302356 216.055059 
L 502.489255 219.498591 
L 509.049952 231.081381 
L 511.236851 234.289458 
L 513.42375 236.635983 
L 515.610649 237.799881 
L 519.984447 237.870437 
L 712.431563 237.870437 
L 712.431563 237.870437 
" clip-path="url(#pb74829154c)" style="fill: none; stroke: #1f6feb; stroke-width: 2.5; stroke-linecap: square"/>
   </g>
   <g id="text_42">
    <!-- Marcin Grygiel aka FirstEver — Daily Follower Growth -->
    <g style="fill: #58a6ff" transform="translate(234.684687 29.198438) scale(0.1 -0.1)">
     <defs>
      <path id="DejaVuSans-Bold-46" d="M 3366 3391 
L 3366 2478 
Q 3138 2634 2908 2709 
Q 2678 2784 2431 2784 
Q 1963 2784 1702 2511 
Q 1441 2238 1441 1747 
Q 1441 1256 1702 982 
Q 1963 709 2431 709 
Q 2694 709 2930 787 
Q 3166 866 3366 1019 
L 3366 103 
Q 3103 6 2833 -42 
Q 2563 -91 2291 -91 
Q 1344 -91 809 395 
Q 275 881 275 1747 
Q 275 2613 809 3098 
Q 1344 3584 2291 3584 
Q 2566 3584 2833 3536 
Q 3100 3488 3366 3391 
z
" transform="scale(0.015625)"/>
      <path id="DejaVuSans-Bold-4c" d="M 538 3500 
L 1656 3500 
L 1656 0 
L 538 0 
L 538 3500 
z
M 538 4863 
L 1656 4863 
L 1656 3950 
L 538 3950 
L 538 4863 
z
" transform="scale(0.015625)"/>
      <path id="DejaVuSans-Bold-2a" d="M 4781 347 
Q 4331 128 3847 18 
Q 3363 -91 2847 -91 
Q 1681 -91 1000 561 
Q 319 1213 319 2328 
Q 319 3456 1012 4103 
Q 1706 4750 2913 4750 
Q 3378 4750 3804 4662 
Q 4231 4575 4609 4403 
L 4609 3438 
Q 4219 3659 3833 3768 
Q 3447 3878 3059 3878 
Q 2341 3878 1952 3476 
Q 1563 3075 1563 2328 
Q 1563 1588 1938 1184 
Q 2313 781 3003 781 
Q 3191 781 3352 804 
Q 3513 828 3641 878 
L 3641 1784 
L 2906 1784 
L 2906 2591 
L 4781 2591 
L 4781 347 
z
" transform="scale(0.015625)"/>
      <path id="DejaVuSans-Bold-5c" d="M 78 3500 
L 1197 3500 
L 2138 1125 
L 2938 3500 
L 4056 3500 
L 2584 -331 
Q 2363 -916 2067 -1148 
Q 1772 -1381 1288 -1381 
L 641 -1381 
L 641 -647 
L 991 -647 
Q 1275 -647 1404 -556 
Q 1534 -466 1606 -231 
L 1638 -134 
L 78 3500 
z
" transform="scale(0.015625)"/>
      <path id="DejaVuSans-Bold-4a" d="M 2919 594 
Q 2688 288 2409 144 
Q 2131 0 1766 0 
Q 1125 0 706 504 
Q 288 1009 288 1791 
Q 288 2575 706 3076 
Q 1125 3578 1766 3578 
Q 2131 3578 2409 3434 
Q 2688 3291 2919 2981 
L 2919 3500 
L 4044 3500 
L 4044 353 
Q 4044 -491 3511 -936 
Q 2978 -1381 1966 -1381 
Q 1638 -1381 1331 -1331 
Q 1025 -1281 716 -1178 
L 716 -306 
Q 1009 -475 1290 -558 
Q 1572 -641 1856 -641 
Q 2406 -641 2662 -400 
Q 2919 -159 2919 353 
L 2919 594 
z
M 2181 2772 
Q 1834 2772 1640 2515 
Q 1447 2259 1447 1791 
Q 1447 1309 1634 1061 
Q 1822 813 2181 813 
Q 2531 813 2725 1069 
Q 2919 1325 2919 1791 
Q 2919 2259 2725 2515 
Q 2531 2772 2181 2772 
z
" transform="scale(0.015625)"/>
      <path id="DejaVuSans-Bold-4e" d="M 538 4863 
L 1656 4863 
L 1656 2216 
L 2944 3500 
L 4244 3500 
L 2534 1894 
L 4378 0 
L 3022 0 
L 1656 1459 
L 1656 0 
L 538 0 
L 538 4863 
z
" transform="scale(0.015625)"/>
      <path id="DejaVuSans-Bold-28" d="M 588 4666 
L 3834 4666 
L 3834 3756 
L 1791 3756 
L 1791 2888 
L 3713 2888 
L 3713 1978 
L 1791 1978 
L 1791 909 
L 3903 909 
L 3903 0 
L 588 0 
L 588 4666 
z
" transform="scale(0.015625)"/>
      <path id="DejaVuSans-Bold-59" d="M 97 3500 
L 1216 3500 
L 2088 1081 
L 2956 3500 
L 4078 3500 
L 2700 0 
L 1472 0 
L 97 3500 
z
" transform="scale(0.015625)"/>
      <path id="DejaVuSans-Bold-af6" d="M 344 2156 
L 6056 2156 
L 6056 1350 
L 344 1350 
L 344 2156 
z
" transform="scale(0.015625)"/>
      <path id="DejaVuSans-Bold-27" d="M 1791 3756 
L 1791 909 
L 2222 909 
Q 2959 909 3348 1275 
Q 3738 1641 3738 2338 
Q 3738 3031 3350 3393 
Q 2963 3756 2222 3756 
L 1791 3756 
z
M 588 4666 
L 1856 4666 
Q 2919 4666 3439 4514 
Q 3959 4363 4331 4000 
Q 4659 3684 4818 3271 
Q 4978 2859 4978 2338 
Q 4978 1809 4818 1395 
Q 4659 981 4331 666 
Q 3956 303 3431 151 
Q 2906 0 1856 0 
L 588 0 
L 588 4666 
z
" transform="scale(0.015625)"/>
     </defs>
     <use xlink:href="#DejaVuSans-Bold-30"/>
     <use xlink:href="#DejaVuSans-Bold-44" transform="translate(99.515625 0)"/>
     <use xlink:href="#DejaVuSans-Bold-55" transform="translate(167 0)"/>
     <use xlink:href="#DejaVuSans-Bold-46" transform="translate(216.3125 0)"/>
     <use xlink:href="#DejaVuSans-Bold-4c" transform="translate(275.59375 0)"/>
     <use xlink:href="#DejaVuSans-Bold-51" transform="translate(309.875 0)"/>
     <use xlink:href="#DejaVuSans-Bold-3" transform="translate(381.0625 0)"/>
     <use xlink:href="#DejaVuSans-Bold-2a" transform="translate(415.875 0)"/>
     <use xlink:href="#DejaVuSans-Bold-55" transform="translate(497.953125 0)"/>
     <use xlink:href="#DejaVuSans-Bold-5c" transform="translate(547.265625 0)"/>
     <use xlink:href="#DejaVuSans-Bold-4a" transform="translate(612.453125 0)"/>
     <use xlink:href="#DejaVuSans-Bold-4c" transform="translate(684.03125 0)"/>
     <use xlink:href="#DejaVuSans-Bold-48" transform="translate(718.3125 0)"/>
     <use xlink:href="#DejaVuSans-Bold-4f" transform="translate(786.140625 0)"/>
     <use xlink:href="#DejaVuSans-Bold-3" transform="translate(820.421875 0)"/>
     <use xlink:href="#DejaVuSans-Bold-44" transform="translate(855.234375 0)"/>
     <use xlink:href="#DejaVuSans-Bold-4e" transform="translate(922.71875 0)"/>
     <use xlink:href="#DejaVuSans-Bold-44" transform="translate(989.21875 0)"/>
     <use xlink:href="#DejaVuSans-Bold-3" transform="translate(1056.703125 0)"/>
     <use xlink:href="#DejaVuSans-Bold-29" transform="translate(1091.515625 0)"/>
     <use xlink:href="#DejaVuSans-Bold-4c" transform="translate(1159.828125 0)"/>
     <use xlink:href="#DejaVuSans-Bold-55" transform="translate(1194.109375 0)"/>
     <use xlink:href="#DejaVuSans-Bold-56" transform="translate(1243.421875 0)"/>
     <use xlink:href="#DejaVuSans-Bold-57" transform="translate(1302.9375 0)"/>
     <use xlink:href="#DejaVuSans-Bold-28" transform="translate(1350.734375 0)"/>
     <use xlink:href="#DejaVuSans-Bold-59" transform="translate(1419.046875 0)"/>
     <use xlink:href="#DejaVuSans-Bold-48" transform="translate(1484.234375 0)"/>
     <use xlink:href="#DejaVuSans-Bold-55" transform="translate(1552.0625 0)"/>
     <use xlink:href="#DejaVuSans-Bold-3" transform="translate(1601.375 0)"/>
     <use xlink:href="#DejaVuSans-Bold-af6" transform="translate(1636.1875 0)"/>
     <use xlink:href="#DejaVuSans-Bold-3" transform="translate(1736.1875 0)"/>
     <use xlink:href="#DejaVuSans-Bold-27" transform="translate(1771 0)"/>
     <use xlink:href="#DejaVuSans-Bold-44" transform="translate(1854.015625 0)"/>
     <use xlink:href="#DejaVuSans-Bold-4c" transform="translate(1921.5 0)"/>
     <use xlink:href="#DejaVuSans-Bold-4f" transform="translate(1955.78125 0)"/>
     <use xlink:href="#DejaVuSans-Bold-5c" transform="translate(1990.0625 0)"/>
     <use xlink:href="#DejaVuSans-Bold-3" transform="translate(2055.25 0)"/>
     <use xlink:href="#DejaVuSans-Bold-29" transform="translate(2090.0625 0)"/>
     <use xlink:href="#DejaVuSans-Bold-52" transform="translate(2154.328125 0)"/>
     <use xlink:href="#DejaVuSans-Bold-4f" transform="translate(2223.03125 0)"/>
     <use xlink:href="#DejaVuSans-Bold-4f" transform="translate(2257.3125 0)"/>
     <use xlink:href="#DejaVuSans-Bold-52" transform="translate(2291.59375 0)"/>
     <use xlink:href="#DejaVuSans-Bold-5a" transform="translate(2360.296875 0)"/>
     <use xlink:href="#DejaVuSans-Bold-48" transform="translate(2452.6875 0)"/>
     <use xlink:href="#DejaVuSans-Bold-55" transform="translate(2520.515625 0)"/>
     <use xlink:href="#DejaVuSans-Bold-3" transform="translate(2569.828125 0)"/>
     <use xlink:href="#DejaVuSans-Bold-2a" transform="translate(2604.640625 0)"/>
     <use xlink:href="#DejaVuSans-Bold-55" transform="translate(2686.71875 0)"/>
     <use xlink:href="#DejaVuSans-Bold-52" transform="translate(2736.03125 0)"/>
     <use xlink:href="#DejaVuSans-Bold-5a" transform="translate(2804.734375 0)"/>
     <use xlink:href="#DejaVuSans-Bold-57" transform="translate(2897.125 0)"/>
     <use xlink:href="#DejaVuSans-Bold-4b" transform="translate(2944.921875 0)"/>
    </g>
   </g>
   <g id="PathCollection_1">
    <defs>
     <path id="m1d58741406" d="M 0 2.738613 
C 0.726289 2.738613 1.422928 2.450055 1.936492 1.936492 
C 2.450055 1.422928 2.738613 0.726289 2.738613 0 
C 2.738613 -0.726289 2.450055 -1.422928 1.936492 -1.936492 
C 1.422928 -2.450055 0.726289 -2.738613 0 -2.738613 
C -0.726289 -2.738613 -1.422928 -2.450055 -1.936492 -1.936492 
C -2.450055 -1.422928 -2.738613 -0.726289 -2.738613 0 
C -2.738613 0.726289 -2.450055 1.422928 -1.936492 1.936492 
C -1.422928 2.450055 -0.726289 2.738613 0 2.738613 
z
"/>
    </defs>
    <g clip-path="url(#pb74829154c)">
     <use xlink:href="#m1d58741406" x="58.54875" y="237.870437" style="fill: #58a6ff"/>
     <use xlink:href="#m1d58741406" x="80.344844" y="237.870437" style="fill: #58a6ff"/>
     <use xlink:href="#m1d58741406" x="102.140937" y="237.870437" style="fill: #58a6ff"/>
     <use xlink:href="#m1d58741406" x="123.937031" y="237.870437" style="fill: #58a6ff"/>
     <use xlink:href="#m1d58741406" x="145.733125" y="237.870437" style="fill: #58a6ff"/>
     <use xlink:href="#m1d58741406" x="167.529219" y="237.870437" style="fill: #58a6ff"/>
     <use xlink:href="#m1d58741406" x="189.325312" y="237.870437" style="fill: #58a6ff"/>
     <use xlink:href="#m1d58741406" x="211.121406" y="237.870437" style="fill: #58a6ff"/>
     <use xlink:href="#m1d58741406" x="232.9175" y="237.870437" style="fill: #58a6ff"/>
     <use xlink:href="#m1d58741406" x="254.713594" y="237.870437" style="fill: #58a6ff"/>
     <use xlink:href="#m1d58741406" x="276.509687" y="211.380837" style="fill: #58a6ff"/>
     <use xlink:href="#m1d58741406" x="298.305781" y="237.870437" style="fill: #58a6ff"/>
     <use xlink:href="#m1d58741406" x="320.101875" y="237.870437" style="fill: #58a6ff"/>
     <use xlink:href="#m1d58741406" x="341.897969" y="237.870437" style="fill: #58a6ff"/>
     <use xlink:href="#m1d58741406" x="363.694062" y="237.870437" style="fill: #58a6ff"/>
     <use xlink:href="#m1d58741406" x="385.490156" y="237.870437" style="fill: #58a6ff"/>
     <use xlink:href="#m1d58741406" x="407.28625" y="237.870437" style="fill: #58a6ff"/>
     <use xlink:href="#m1d58741406" x="429.082344" y="237.870437" style="fill: #58a6ff"/>
     <use xlink:href="#m1d58741406" x="450.878437" y="237.870437" style="fill: #58a6ff"/>
     <use xlink:href="#m1d58741406" x="472.674531" y="237.870437" style="fill: #58a6ff"/>
     <use xlink:href="#m1d58741406" x="494.470625" y="211.380837" style="fill: #58a6ff"/>
     <use xlink:href="#m1d58741406" x="516.266719" y="237.870437" style="fill: #58a6ff"/>
     <use xlink:href="#m1d58741406" x="538.062812" y="237.870437" style="fill: #58a6ff"/>
     <use xlink:href="#m1d58741406" x="559.858906" y="237.870437" style="fill: #58a6ff"/>
     <use xlink:href="#m1d58741406" x="581.655" y="237.870437" style="fill: #58a6ff"/>
     <use xlink:href="#m1d58741406" x="603.451094" y="237.870437" style="fill: #58a6ff"/>
     <use xlink:href="#m1d58741406" x="625.247188" y="237.870437" style="fill: #58a6ff"/>
     <use xlink:href="#m1d58741406" x="647.043281" y="237.870437" style="fill: #58a6ff"/>
     <use xlink:href="#m1d58741406" x="668.839375" y="237.870437" style="fill: #58a6ff"/>
     <use xlink:href="#m1d58741406" x="690.635469" y="237.870437" style="fill: #58a6ff"/>
     <use xlink:href="#m1d58741406" x="712.431563" y="237.870437" style="fill: #58a6ff"/>
    </g>
   </g>
  </g>
  <g id="text_43">
   <!-- ▲ vs yesterday: +0 / day   │   ⌀ last 7 days: 0.0 / day   │   ⌀ last 31 days: 0.1 / day   │   vs last month: +2 / month   │   Peak (all-time): 1 / day -->
   <g style="fill: #58a6ff" transform="translate(81.521328 274.299437) scale(0.075 -0.075)">
    <defs>
     <path id="DejaVuSans-Bold-e89" d="M 19 -788 
L 2459 4113 
L 4903 -788 
L 19 -788 
z
" transform="scale(0.015625)"/>
     <path id="DejaVuSans-Bold-47" d="M 2919 2988 
L 2919 4863 
L 4044 4863 
L 4044 0 
L 2919 0 
L 2919 506 
Q 2688 197 2409 53 
Q 2131 -91 1766 -91 
Q 1119 -91 703 423 
Q 288 938 288 1747 
Q 288 2556 703 3070 
Q 1119 3584 1766 3584 
Q 2128 3584 2408 3439 
Q 2688 3294 2919 2988 
z
M 2181 722 
Q 2541 722 2730 984 
Q 2919 1247 2919 1747 
Q 2919 2247 2730 2509 
Q 2541 2772 2181 2772 
Q 1825 2772 1636 2509 
Q 1447 2247 1447 1747 
Q 1447 1247 1636 984 
Q 1825 722 2181 722 
z
" transform="scale(0.015625)"/>
     <path id="DejaVuSans-Bold-1d" d="M 716 3500 
L 1844 3500 
L 1844 2291 
L 716 2291 
L 716 3500 
z
M 716 1209 
L 1844 1209 
L 1844 0 
L 716 0 
L 716 1209 
z
" transform="scale(0.015625)"/>
     <path id="DejaVuSans-Bold-e" d="M 3053 4013 
L 3053 2375 
L 4684 2375 
L 4684 1638 
L 3053 1638 
L 3053 0 
L 2309 0 
L 2309 1638 
L 678 1638 
L 678 2375 
L 2309 2375 
L 2309 4013 
L 3053 4013 
z
" transform="scale(0.015625)"/>
     <path id="DejaVuSans-Bold-12" d="M 1644 4666 
L 2338 4666 
L 691 -594 
L 0 -594 
L 1644 4666 
z
" transform="scale(0.015625)"/>
     <path id="DejaVuSans-Bold-dd9" d="M 1675 -1600 
L 1675 6003 
L 2175 6003 
L 2175 -1600 
L 1675 -1600 
z
" transform="scale(0.015625)"/>
     <path id="DejaVuSans-Bold-d8a" d="M 1925 3272 
Q 2484 3272 2916 2947 
L 3288 3319 
L 3659 2947 
L 3288 2572 
Q 3603 2147 3603 1588 
Q 3603 897 3113 403 
Q 2616 -91 1925 -91 
Q 1375 -91 944 228 
L 572 -144 
L 200 228 
L 572 600 
Q 250 1028 250 1588 
Q 250 2284 741 2778 
Q 1238 3272 1925 3272 
z
M 2531 2559 
Q 2263 2731 1978 2731 
Q 1459 2731 1122 2397 
Q 788 2063 788 1588 
Q 788 1253 959 988 
L 2531 2559 
z
M 1331 616 
Q 1597 450 1878 450 
Q 2394 450 2731 784 
Q 3066 1119 3066 1588 
Q 3066 1922 2900 2184 
L 1331 616 
z
" transform="scale(0.015625)"/>
     <path id="DejaVuSans-Bold-11" d="M 653 1209 
L 1778 1209 
L 1778 0 
L 653 0 
L 653 1209 
z
" transform="scale(0.015625)"/>
     <path id="DejaVuSans-Bold-50" d="M 3781 2919 
Q 3994 3244 4286 3414 
Q 4578 3584 4928 3584 
Q 5531 3584 5847 3212 
Q 6163 2841 6163 2131 
L 6163 0 
L 5038 0 
L 5038 1825 
Q 5041 1866 5042 1909 
Q 5044 1953 5044 2034 
Q 5044 2406 4934 2573 
Q 4825 2741 4581 2741 
Q 4263 2741 4089 2478 
Q 3916 2216 3909 1719 
L 3909 0 
L 2784 0 
L 2784 1825 
Q 2784 2406 2684 2573 
Q 2584 2741 2328 2741 
Q 2006 2741 1831 2477 
Q 1656 2213 1656 1722 
L 1656 0 
L 531 0 
L 531 3500 
L 1656 3500 
L 1656 2988 
Q 1863 3284 2130 3434 
Q 2397 3584 2719 3584 
Q 3081 3584 3359 3409 
Q 3638 3234 3781 2919 
z
" transform="scale(0.015625)"/>
     <path id="DejaVuSans-Bold-33" d="M 588 4666 
L 2584 4666 
Q 3475 4666 3951 4270 
Q 4428 3875 4428 3144 
Q 4428 2409 3951 2014 
Q 3475 1619 2584 1619 
L 1791 1619 
L 1791 0 
L 588 0 
L 588 4666 
z
M 1791 3794 
L 1791 2491 
L 2456 2491 
Q 2806 2491 2997 2661 
Q 3188 2831 3188 3144 
Q 3188 3456 2997 3625 
Q 2806 3794 2456 3794 
L 1791 3794 
z
" transform="scale(0.015625)"/>
     <path id="DejaVuSans-Bold-b" d="M 2413 -844 
L 1484 -844 
Q 1006 -72 778 623 
Q 550 1319 550 2003 
Q 550 2688 779 3389 
Q 1009 4091 1484 4856 
L 2413 4856 
Q 2013 4116 1813 3408 
Q 1613 2700 1613 2009 
Q 1613 1319 1811 609 
Q 2009 -100 2413 -844 
z
" transform="scale(0.015625)"/>
     <path id="DejaVuSans-Bold-10" d="M 347 2297 
L 2309 2297 
L 2309 1388 
L 347 1388 
L 347 2297 
z
" transform="scale(0.015625)"/>
     <path id="DejaVuSans-Bold-c" d="M 513 -844 
Q 913 -100 1113 609 
Q 1313 1319 1313 2009 
Q 1313 2700 1113 3408 
Q 913 4116 513 4856 
L 1441 4856 
Q 1916 4091 2145 3389 
Q 2375 2688 2375 2003 
Q 2375 1319 2147 623 
Q 1919 -72 1441 -844 
L 513 -844 
z
" transform="scale(0.015625)"/>
    </defs>
    <use xlink:href="#DejaVuSans-Bold-e89"/>
    <use xlink:href="#DejaVuSans-Bold-3" transform="translate(76.90625 0)"/>
    <use xlink:href="#DejaVuSans-Bold-59" transform="translate(111.71875 0)"/>
    <use xlink:href="#DejaVuSans-Bold-56" transform="translate(176.90625 0)"/>
    <use xlink:href="#DejaVuSans-Bold-3" transform="translate(236.421875 0)"/>
    <use xlink:href="#DejaVuSans-Bold-5c" transform="translate(271.234375 0)"/>
    <use xlink:href="#DejaVuSans-Bold-48" transform="translate(336.421875 0)"/>
    <use xlink:href="#DejaVuSans-Bold-56" transform="translate(404.25 0)"/>
    <use xlink:href="#DejaVuSans-Bold-57" transform="translate(463.765625 0)"/>
    <use xlink:href="#DejaVuSans-Bold-48" transform="translate(511.5625 0)"/>
    <use xlink:href="#DejaVuSans-Bold-55" transform="translate(579.390625 0)"/>
    <use xlink:href="#DejaVuSans-Bold-47" transform="translate(628.703125 0)"/>
    <use xlink:href="#DejaVuSans-Bold-44" transform="translate(700.28125 0)"/>
    <use xlink:href="#DejaVuSans-Bold-5c" transform="translate(764.6875 0)"/>
    <use xlink:href="#DejaVuSans-Bold-1d" transform="translate(829.875 0)"/>
    <use xlink:href="#DejaVuSans-Bold-3" transform="translate(869.859375 0)"/>
    <use xlink:href="#DejaVuSans-Bold-e" transform="translate(904.671875 0)"/>
    <use xlink:href="#DejaVuSans-Bold-13" transform="translate(988.46875 0)"/>
    <use xlink:href="#DejaVuSans-Bold-3" transform="translate(1058.046875 0)"/>
    <use xlink:href="#DejaVuSans-Bold-12" transform="translate(1092.859375 0)"/>
    <use xlink:href="#DejaVuSans-Bold-3" transform="translate(1129.390625 0)"/>
    <use xlink:href="#DejaVuSans-Bold-47" transform="translate(1164.203125 0)"/>
    <use xlink:href="#DejaVuSans-Bold-44" transform="translate(1235.78125 0)"/>
    <use xlink:href="#DejaVuSans-Bold-5c" transform="translate(1300.1875 0)"/>
    <use xlink:href="#DejaVuSans-Bold-3" transform="translate(1365.375 0)"/>
    <use xlink:href="#DejaVuSans-Bold-3" transform="translate(1400.1875 0)"/>
    <use xlink:href="#DejaVuSans-Bold-3" transform="translate(1435 0)"/>
    <use xlink:href="#DejaVuSans-Bold-dd9" transform="translate(1469.8125 0)"/>
    <use xlink:href="#DejaVuSans-Bold-3" transform="translate(1530.015625 0)"/>
    <use xlink:href="#DejaVuSans-Bold-3" transform="translate(1564.828125 0)"/>
    <use xlink:href="#DejaVuSans-Bold-3" transform="translate(1599.640625 0)"/>
    <use xlink:href="#DejaVuSans-Bold-d8a" transform="translate(1634.453125 0)"/>
    <use xlink:href="#DejaVuSans-Bold-3" transform="translate(1694.65625 0)"/>
    <use xlink:href="#DejaVuSans-Bold-4f" transform="translate(1729.46875 0)"/>
    <use xlink:href="#DejaVuSans-Bold-44" transform="translate(1763.75 0)"/>
    <use xlink:href="#DejaVuSans-Bold-56" transform="translate(1831.234375 0)"/>
    <use xlink:href="#DejaVuSans-Bold-57" transform="translate(1890.75 0)"/>
    <use xlink:href="#DejaVuSans-Bold-3" transform="translate(1938.546875 0)"/>
    <use xlink:href="#DejaVuSans-Bold-1a" transform="translate(1973.359375 0)"/>
    <use xlink:href="#DejaVuSans-Bold-3" transform="translate(2042.9375 0)"/>
    <use xlink:href="#DejaVuSans-Bold-47" transform="translate(2077.75 0)"/>
    <use xlink:href="#DejaVuSans-Bold-44" transform="translate(2149.328125 0)"/>
    <use xlink:href="#DejaVuSans-Bold-5c" transform="translate(2213.734375 0)"/>
    <use xlink:href="#DejaVuSans-Bold-56" transform="translate(2278.921875 0)"/>
    <use xlink:href="#DejaVuSans-Bold-1d" transform="translate(2338.4375 0)"/>
    <use xlink:href="#DejaVuSans-Bold-3" transform="translate(2378.421875 0)"/>
    <use xlink:href="#DejaVuSans-Bold-13" transform="translate(2413.234375 0)"/>
    <use xlink:href="#DejaVuSans-Bold-11" transform="translate(2482.8125 0)"/>
    <use xlink:href="#DejaVuSans-Bold-13" transform="translate(2520.796875 0)"/>
    <use xlink:href="#DejaVuSans-Bold-3" transform="translate(2590.375 0)"/>
    <use xlink:href="#DejaVuSans-Bold-12" transform="translate(2625.1875 0)"/>
    <use xlink:href="#DejaVuSans-Bold-3" transform="translate(2661.71875 0)"/>
    <use xlink:href="#DejaVuSans-Bold-47" transform="translate(2696.53125 0)"/>
    <use xlink:href="#DejaVuSans-Bold-44" transform="translate(2768.109375 0)"/>
    <use xlink:href="#DejaVuSans-Bold-5c" transform="translate(2832.515625 0)"/>
    <use xlink:href="#DejaVuSans-Bold-3" transform="translate(2897.703125 0)"/>
    <use xlink:href="#DejaVuSans-Bold-3" transform="translate(2932.515625 0)"/>
    <use xlink:href="#DejaVuSans-Bold-3" transform="translate(2967.328125 0)"/>
    <use xlink:href="#DejaVuSans-Bold-dd9" transform="translate(3002.140625 0)"/>
    <use xlink:href="#DejaVuSans-Bold-3" transform="translate(3062.34375 0)"/>
    <use xlink:href="#DejaVuSans-Bold-3" transform="translate(3097.15625 0)"/>
    <use xlink:href="#DejaVuSans-Bold-3" transform="translate(3131.96875 0)"/>
    <use xlink:href="#DejaVuSans-Bold-d8a" transform="translate(3166.78125 0)"/>
    <use xlink:href="#DejaVuSans-Bold-3" transform="translate(3226.984375 0)"/>
    <use xlink:href="#DejaVuSans-Bold-4f" transform="translate(3261.796875 0)"/>
    <use xlink:href="#DejaVuSans-Bold-44" transform="translate(3296.078125 0)"/>
    <use xlink:href="#DejaVuSans-Bold-56" transform="translate(3363.5625 0)"/>
    <use xlink:href="#DejaVuSans-Bold-57" transform="translate(3423.078125 0)"/>
    <use xlink:href="#DejaVuSans-Bold-3" transform="translate(3470.875 0)"/>
    <use xlink:href="#DejaVuSans-Bold-16" transform="translate(3505.6875 0)"/>
    <use xlink:href="#DejaVuSans-Bold-14" transform="translate(3575.265625 0)"/>
    <use xlink:href="#DejaVuSans-Bold-3" transform="translate(3644.84375 0)"/>
    <use xlink:href="#DejaVuSans-Bold-47" transform="translate(3679.65625 0)"/>
    <use xlink:href="#DejaVuSans-Bold-44" transform="translate(3751.234375 0)"/>
    <use xlink:href="#DejaVuSans-Bold-5c" transform="translate(3815.640625 0)"/>
    <use xlink:href="#DejaVuSans-Bold-56" transform="translate(3880.828125 0)"/>
    <use xlink:href="#DejaVuSans-Bold-1d" transform="translate(3940.34375 0)"/>
    <use xlink:href="#DejaVuSans-Bold-3" transform="translate(3980.328125 0)"/>
    <use xlink:href="#DejaVuSans-Bold-13" transform="translate(4015.140625 0)"/>
    <use xlink:href="#DejaVuSans-Bold-11" transform="translate(4084.71875 0)"/>
    <use xlink:href="#DejaVuSans-Bold-14" transform="translate(4122.703125 0)"/>
    <use xlink:href="#DejaVuSans-Bold-3" transform="translate(4192.28125 0)"/>
    <use xlink:href="#DejaVuSans-Bold-12" transform="translate(4227.09375 0)"/>
    <use xlink:href="#DejaVuSans-Bold-3" transform="translate(4263.625 0)"/>
    <use xlink:href="#DejaVuSans-Bold-47" transform="translate(4298.4375 0)"/>
    <use xlink:href="#DejaVuSans-Bold-44" transform="translate(4370.015625 0)"/>
    <use xlink:href="#DejaVuSans-Bold-5c" transform="translate(4434.421875 0)"/>
    <use xlink:href="#DejaVuSans-Bold-3" transform="translate(4499.609375 0)"/>
    <use xlink:href="#DejaVuSans-Bold-3" transform="translate(4534.421875 0)"/>
    <use xlink:href="#DejaVuSans-Bold-3" transform="translate(4569.234375 0)"/>
    <use xlink:href="#DejaVuSans-Bold-dd9" transform="translate(4604.046875 0)"/>
    <use xlink:href="#DejaVuSans-Bold-3" transform="translate(4664.25 0)"/>
    <use xlink:href="#DejaVuSans-Bold-3" transform="translate(4699.0625 0)"/>
    <use xlink:href="#DejaVuSans-Bold-3" transform="translate(4733.875 0)"/>
    <use xlink:href="#DejaVuSans-Bold-59" transform="translate(4768.6875 0)"/>
    <use xlink:href="#DejaVuSans-Bold-56" transform="translate(4833.875 0)"/>
    <use xlink:href="#DejaVuSans-Bold-3" transform="translate(4893.390625 0)"/>
    <use xlink:href="#DejaVuSans-Bold-4f" transform="translate(4928.203125 0)"/>
    <use xlink:href="#DejaVuSans-Bold-44" transform="translate(4962.484375 0)"/>
    <use xlink:href="#DejaVuSans-Bold-56" transform="translate(5029.96875 0)"/>
    <use xlink:href="#DejaVuSans-Bold-57" transform="translate(5089.484375 0)"/>
    <use xlink:href="#DejaVuSans-Bold-3" transform="translate(5137.28125 0)"/>
    <use xlink:href="#DejaVuSans-Bold-50" transform="translate(5172.09375 0)"/>
    <use xlink:href="#DejaVuSans-Bold-52" transform="translate(5276.296875 0)"/>
    <use xlink:href="#DejaVuSans-Bold-51" transform="translate(5345 0)"/>
    <use xlink:href="#DejaVuSans-Bold-57" transform="translate(5416.1875 0)"/>
    <use xlink:href="#DejaVuSans-Bold-4b" transform="translate(5463.984375 0)"/>
    <use xlink:href="#DejaVuSans-Bold-1d" transform="translate(5535.171875 0)"/>
    <use xlink:href="#DejaVuSans-Bold-3" transform="translate(5575.15625 0)"/>
    <use xlink:href="#DejaVuSans-Bold-e" transform="translate(5609.96875 0)"/>
    <use xlink:href="#DejaVuSans-Bold-15" transform="translate(5693.765625 0)"/>
    <use xlink:href="#DejaVuSans-Bold-3" transform="translate(5763.34375 0)"/>
    <use xlink:href="#DejaVuSans-Bold-12" transform="translate(5798.15625 0)"/>
    <use xlink:href="#DejaVuSans-Bold-3" transform="translate(5834.6875 0)"/>
    <use xlink:href="#DejaVuSans-Bold-50" transform="translate(5869.5 0)"/>
    <use xlink:href="#DejaVuSans-Bold-52" transform="translate(5973.703125 0)"/>
    <use xlink:href="#DejaVuSans-Bold-51" transform="translate(6042.40625 0)"/>
    <use xlink:href="#DejaVuSans-Bold-57" transform="translate(6113.59375 0)"/>
    <use xlink:href="#DejaVuSans-Bold-4b" transform="translate(6161.390625 0)"/>
    <use xlink:href="#DejaVuSans-Bold-3" transform="translate(6232.578125 0)"/>
    <use xlink:href="#DejaVuSans-Bold-3" transform="translate(6267.390625 0)"/>
    <use xlink:href="#DejaVuSans-Bold-3" transform="translate(6302.203125 0)"/>
    <use xlink:href="#DejaVuSans-Bold-dd9" transform="translate(6337.015625 0)"/>
    <use xlink:href="#DejaVuSans-Bold-3" transform="translate(6397.21875 0)"/>
    <use xlink:href="#DejaVuSans-Bold-3" transform="translate(6432.03125 0)"/>
    <use xlink:href="#DejaVuSans-Bold-3" transform="translate(6466.84375 0)"/>
    <use xlink:href="#DejaVuSans-Bold-33" transform="translate(6501.65625 0)"/>
    <use xlink:href="#DejaVuSans-Bold-48" transform="translate(6574.953125 0)"/>
    <use xlink:href="#DejaVuSans-Bold-44" transform="translate(6642.78125 0)"/>
    <use xlink:href="#DejaVuSans-Bold-4e" transform="translate(6710.265625 0)"/>
    <use xlink:href="#DejaVuSans-Bold-3" transform="translate(6776.765625 0)"/>
    <use xlink:href="#DejaVuSans-Bold-b" transform="translate(6811.578125 0)"/>
    <use xlink:href="#DejaVuSans-Bold-44" transform="translate(6857.28125 0)"/>
    <use xlink:href="#DejaVuSans-Bold-4f" transform="translate(6924.765625 0)"/>
    <use xlink:href="#DejaVuSans-Bold-4f" transform="translate(6959.046875 0)"/>
    <use xlink:href="#DejaVuSans-Bold-10" transform="translate(6993.328125 0)"/>
    <use xlink:href="#DejaVuSans-Bold-57" transform="translate(7034.828125 0)"/>
    <use xlink:href="#DejaVuSans-Bold-4c" transform="translate(7082.625 0)"/>
    <use xlink:href="#DejaVuSans-Bold-50" transform="translate(7116.90625 0)"/>
    <use xlink:href="#DejaVuSans-Bold-48" transform="translate(7221.109375 0)"/>
    <use xlink:href="#DejaVuSans-Bold-c" transform="translate(7288.9375 0)"/>
    <use xlink:href="#DejaVuSans-Bold-1d" transform="translate(7334.640625 0)"/>
    <use xlink:href="#DejaVuSans-Bold-3" transform="translate(7374.625 0)"/>
    <use xlink:href="#DejaVuSans-Bold-14" transform="translate(7409.4375 0)"/>
    <use xlink:href="#DejaVuSans-Bold-3" transform="translate(7479.015625 0)"/>
    <use xlink:href="#DejaVuSans-Bold-12" transform="translate(7513.828125 0)"/>
    <use xlink:href="#DejaVuSans-Bold-3" transform="translate(7550.359375 0)"/>
    <use xlink:href="#DejaVuSans-Bold-47" transform="translate(7585.171875 0)"/>
    <use xlink:href="#DejaVuSans-Bold-44" transform="translate(7656.75 0)"/>
    <use xlink:href="#DejaVuSans-Bold-5c" transform="translate(7721.15625 0)"/>
   </g>
  </g>
 </g>
 <defs>
  <clipPath id="pb74829154c">
   <rect x="45.471094" y="39.198438" width="680.038125" height="198.672"/>
  </clipPath>
 </defs>
</svg>
