<?xml version="1.0" encoding="utf-8" standalone="no"?>
<!DOCTYPE svg PUBLIC "-//W3C//DTD SVG 1.1//EN"
  "http://www.w3.org/Graphics/SVG/1.1/DTD/svg11.dtd">
<svg xmlns:xlink="http://www.w3.org/1999/xlink" width="747.250156pt" height="313.758437pt" viewBox="0 0 747.250156 313.758437" xmlns="http://www.w3.org/2000/svg" version="1.1">
<style>
.draw-line{stroke-dasharray:3000;stroke-dashoffset:3000;animation:draw 3s ease-out forwards}
@keyframes draw{to{stroke-dashoffset:0}}
</style>
 <metadata>
  <rdf:RDF xmlns:dc="http://purl.org/dc/elements/1.1/" xmlns:cc="http://creativecommons.org/ns#" xmlns:rdf="http://www.w3.org/1999/02/22-rdf-syntax-ns#">
   <cc:Work>
    <dc:type rdf:resource="http://purl.org/dc/dcmitype/StillImage"/>
    <dc:date>2026-06-30T17:59:30.736609</dc:date>
    <dc:format>image/svg+xml</dc:format>
    <dc:creator>
     <cc:Agent>
      <dc:title>Matplotlib v3.11.0, https://matplotlib.org/</dc:title>
     </cc:Agent>
    </dc:creator>
   </cc:Work>
  </rdf:RDF>
 </metadata>
 <defs>
  <style type="text/css">*{stroke-linejoin: round; stroke-linecap: butt}</style>
 </defs>
 <g id="figure_1">
  <g id="patch_1">
   <path d="M 0 313.758437 
L 747.250156 313.758437 
L 747.250156 0 
L 0 0 
L 0 313.758437 
z
" style="fill: none"/>
  </g>
  <g id="axes_1">
   <g id="patch_2">
    <path d="M 55.212031 236.430437 
L 725.650156 236.430437 
L 725.650156 39.198438 
L 55.212031 39.198438 
L 55.212031 236.430437 
z
" style="fill: none"/>
   </g>
   <g id="matplotlib.axis_1">
    <g id="xtick_1">
     <g id="line2d_1">
      <path d="M 68.105072 236.430437 
L 68.105072 39.198438 
" clip-path="url(#p20f2d4c892)" style="fill: none; stroke-dasharray: 0.7,1.155; stroke-dashoffset: 0; stroke: #283d58; stroke-width: 0.7"/>
     </g>
     <g id="line2d_2">
      <defs>
       <path id="m8daf120c07" d="M 0 0 
L 0 3.5 
" style="stroke: #58a6ff; stroke-width: 0.8"/>
      </defs>
      <g>
       <use xlink:href="#m8daf120c07" x="68.105072" y="236.430437" style="fill: #58a6ff; stroke: #58a6ff; stroke-width: 0.8"/>
      </g>
     </g>
     <g id="text_1">
      <!-- 31 -->
      <g style="fill: #58a6ff" transform="translate(63.234603 247.248797) scale(0.07 -0.07)">
       <defs>
        <path id="DejaVuSans-Bold-16" d="M 2981 2516 
Q 3453 2394 3698 2092 
Q 3944 1791 3944 1325 
Q 3944 631 3412 270 
Q 2881 -91 1863 -91 
Q 1503 -91 1142 -33 
Q 781 25 428 141 
L 428 1069 
Q 766 900 1098 814 
Q 1431 728 1753 728 
Q 2231 728 2486 893 
Q 2741 1059 2741 1369 
Q 2741 1688 2480 1852 
Q 2219 2016 1709 2016 
L 1228 2016 
L 1228 2791 
L 1734 2791 
Q 2188 2791 2409 2933 
Q 2631 3075 2631 3366 
Q 2631 3634 2415 3781 
Q 2200 3928 1806 3928 
Q 1516 3928 1219 3862 
Q 922 3797 628 3669 
L 628 4550 
Q 984 4650 1334 4700 
Q 1684 4750 2022 4750 
Q 2931 4750 3382 4451 
Q 3834 4153 3834 3553 
Q 3834 3144 3618 2883 
Q 3403 2622 2981 2516 
z
" transform="scale(0.015625)"/>
        <path id="DejaVuSans-Bold-14" d="M 750 831 
L 1813 831 
L 1813 3847 
L 722 3622 
L 722 4441 
L 1806 4666 
L 2950 4666 
L 2950 831 
L 4013 831 
L 4013 0 
L 750 0 
L 750 831 
z
" transform="scale(0.015625)"/>
       </defs>
       <use xlink:href="#DejaVuSans-Bold-16"/>
       <use xlink:href="#DejaVuSans-Bold-14" transform="translate(69.578125 0)"/>
      </g>
     </g>
    </g>
    <g id="xtick_2">
     <g id="line2d_3">
      <path d="M 89.593474 236.430437 
L 89.593474 39.198438 
" clip-path="url(#p20f2d4c892)" style="fill: none; stroke-dasharray: 0.7,1.155; stroke-dashoffset: 0; stroke: #283d58; stroke-width: 0.7"/>
     </g>
     <g id="line2d_4">
      <g>
       <use xlink:href="#m8daf120c07" x="89.593474" y="236.430437" style="fill: #58a6ff; stroke: #58a6ff; stroke-width: 0.8"/>
      </g>
     </g>
     <g id="text_2">
      <!-- 01 -->
      <g style="fill: #58a6ff" transform="translate(84.723005 247.248797) scale(0.07 -0.07)">
       <defs>
        <path id="DejaVuSans-Bold-13" d="M 2944 2338 
Q 2944 3213 2780 3570 
Q 2616 3928 2228 3928 
Q 1841 3928 1675 3570 
Q 1509 3213 1509 2338 
Q 1509 1453 1675 1090 
Q 1841 728 2228 728 
Q 2613 728 2778 1090 
Q 2944 1453 2944 2338 
z
M 4147 2328 
Q 4147 1169 3647 539 
Q 3147 -91 2228 -91 
Q 1306 -91 806 539 
Q 306 1169 306 2328 
Q 306 3491 806 4120 
Q 1306 4750 2228 4750 
Q 3147 4750 3647 4120 
Q 4147 3491 4147 2328 
z
" transform="scale(0.015625)"/>
       </defs>
       <use xlink:href="#DejaVuSans-Bold-13"/>
       <use xlink:href="#DejaVuSans-Bold-14" transform="translate(69.578125 0)"/>
      </g>
     </g>
    </g>
    <g id="xtick_3">
     <g id="line2d_5">
      <path d="M 111.081875 236.430437 
L 111.081875 39.198438 
" clip-path="url(#p20f2d4c892)" style="fill: none; stroke-dasharray: 0.7,1.155; stroke-dashoffset: 0; stroke: #283d58; stroke-width: 0.7"/>
     </g>
     <g id="line2d_6">
      <g>
       <use xlink:href="#m8daf120c07" x="111.081875" y="236.430437" style="fill: #58a6ff; stroke: #58a6ff; stroke-width: 0.8"/>
      </g>
     </g>
     <g id="text_3">
      <!-- 02 -->
      <g style="fill: #58a6ff" transform="translate(106.211406 247.248797) scale(0.07 -0.07)">
       <defs>
        <path id="DejaVuSans-Bold-15" d="M 1844 884 
L 3897 884 
L 3897 0 
L 506 0 
L 506 884 
L 2209 2388 
Q 2438 2594 2547 2791 
Q 2656 2988 2656 3200 
Q 2656 3528 2436 3728 
Q 2216 3928 1850 3928 
Q 1569 3928 1234 3808 
Q 900 3688 519 3450 
L 519 4475 
Q 925 4609 1322 4679 
Q 1719 4750 2100 4750 
Q 2938 4750 3402 4381 
Q 3866 4013 3866 3353 
Q 3866 2972 3669 2642 
Q 3472 2313 2841 1759 
L 1844 884 
z
" transform="scale(0.015625)"/>
       </defs>
       <use xlink:href="#DejaVuSans-Bold-13"/>
       <use xlink:href="#DejaVuSans-Bold-15" transform="translate(69.578125 0)"/>
      </g>
     </g>
    </g>
    <g id="xtick_4">
     <g id="line2d_7">
      <path d="M 132.570276 236.430437 
L 132.570276 39.198438 
" clip-path="url(#p20f2d4c892)" style="fill: none; stroke-dasharray: 0.7,1.155; stroke-dashoffset: 0; stroke: #283d58; stroke-width: 0.7"/>
     </g>
     <g id="line2d_8">
      <g>
       <use xlink:href="#m8daf120c07" x="132.570276" y="236.430437" style="fill: #58a6ff; stroke: #58a6ff; stroke-width: 0.8"/>
      </g>
     </g>
     <g id="text_4">
      <!-- 03 -->
      <g style="fill: #58a6ff" transform="translate(127.699808 247.248797) scale(0.07 -0.07)">
       <use xlink:href="#DejaVuSans-Bold-13"/>
       <use xlink:href="#DejaVuSans-Bold-16" transform="translate(69.578125 0)"/>
      </g>
     </g>
    </g>
    <g id="xtick_5">
     <g id="line2d_9">
      <path d="M 154.058678 236.430437 
L 154.058678 39.198438 
" clip-path="url(#p20f2d4c892)" style="fill: none; stroke-dasharray: 0.7,1.155; stroke-dashoffset: 0; stroke: #283d58; stroke-width: 0.7"/>
     </g>
     <g id="line2d_10">
      <g>
       <use xlink:href="#m8daf120c07" x="154.058678" y="236.430437" style="fill: #58a6ff; stroke: #58a6ff; stroke-width: 0.8"/>
      </g>
     </g>
     <g id="text_5">
      <!-- 04 -->
      <g style="fill: #58a6ff" transform="translate(149.188209 247.248797) scale(0.07 -0.07)">
       <defs>
        <path id="DejaVuSans-Bold-17" d="M 2356 3675 
L 1038 1722 
L 2356 1722 
L 2356 3675 
z
M 2156 4666 
L 3494 4666 
L 3494 1722 
L 4159 1722 
L 4159 850 
L 3494 850 
L 3494 0 
L 2356 0 
L 2356 850 
L 288 850 
L 288 1881 
L 2156 4666 
z
" transform="scale(0.015625)"/>
       </defs>
       <use xlink:href="#DejaVuSans-Bold-13"/>
       <use xlink:href="#DejaVuSans-Bold-17" transform="translate(69.578125 0)"/>
      </g>
     </g>
    </g>
    <g id="xtick_6">
     <g id="line2d_11">
      <path d="M 175.547079 236.430437 
L 175.547079 39.198438 
" clip-path="url(#p20f2d4c892)" style="fill: none; stroke-dasharray: 0.7,1.155; stroke-dashoffset: 0; stroke: #283d58; stroke-width: 0.7"/>
     </g>
     <g id="line2d_12">
      <g>
       <use xlink:href="#m8daf120c07" x="175.547079" y="236.430437" style="fill: #58a6ff; stroke: #58a6ff; stroke-width: 0.8"/>
      </g>
     </g>
     <g id="text_6">
      <!-- 05 -->
      <g style="fill: #58a6ff" transform="translate(170.676611 247.248797) scale(0.07 -0.07)">
       <defs>
        <path id="DejaVuSans-Bold-18" d="M 678 4666 
L 3669 4666 
L 3669 3781 
L 1638 3781 
L 1638 3059 
Q 1775 3097 1914 3117 
Q 2053 3138 2203 3138 
Q 3056 3138 3531 2711 
Q 4006 2284 4006 1522 
Q 4006 766 3489 337 
Q 2972 -91 2053 -91 
Q 1656 -91 1267 -14 
Q 878 63 494 219 
L 494 1166 
Q 875 947 1217 837 
Q 1559 728 1863 728 
Q 2300 728 2551 942 
Q 2803 1156 2803 1522 
Q 2803 1891 2551 2103 
Q 2300 2316 1863 2316 
Q 1603 2316 1309 2248 
Q 1016 2181 678 2041 
L 678 4666 
z
" transform="scale(0.015625)"/>
       </defs>
       <use xlink:href="#DejaVuSans-Bold-13"/>
       <use xlink:href="#DejaVuSans-Bold-18" transform="translate(69.578125 0)"/>
      </g>
     </g>
    </g>
    <g id="xtick_7">
     <g id="line2d_13">
      <path d="M 197.035481 236.430437 
L 197.035481 39.198438 
" clip-path="url(#p20f2d4c892)" style="fill: none; stroke-dasharray: 0.7,1.155; stroke-dashoffset: 0; stroke: #283d58; stroke-width: 0.7"/>
     </g>
     <g id="line2d_14">
      <g>
       <use xlink:href="#m8daf120c07" x="197.035481" y="236.430437" style="fill: #58a6ff; stroke: #58a6ff; stroke-width: 0.8"/>
      </g>
     </g>
     <g id="text_7">
      <!-- 06 -->
      <g style="fill: #58a6ff" transform="translate(192.165012 247.248797) scale(0.07 -0.07)">
       <defs>
        <path id="DejaVuSans-Bold-19" d="M 2316 2303 
Q 2000 2303 1842 2098 
Q 1684 1894 1684 1484 
Q 1684 1075 1842 870 
Q 2000 666 2316 666 
Q 2634 666 2792 870 
Q 2950 1075 2950 1484 
Q 2950 1894 2792 2098 
Q 2634 2303 2316 2303 
z
M 3803 4544 
L 3803 3681 
Q 3506 3822 3243 3889 
Q 2981 3956 2731 3956 
Q 2194 3956 1894 3657 
Q 1594 3359 1544 2772 
Q 1750 2925 1990 3001 
Q 2231 3078 2516 3078 
Q 3231 3078 3670 2659 
Q 4109 2241 4109 1563 
Q 4109 813 3618 361 
Q 3128 -91 2303 -91 
Q 1394 -91 895 523 
Q 397 1138 397 2266 
Q 397 3422 980 4083 
Q 1563 4744 2578 4744 
Q 2900 4744 3203 4694 
Q 3506 4644 3803 4544 
z
" transform="scale(0.015625)"/>
       </defs>
       <use xlink:href="#DejaVuSans-Bold-13"/>
       <use xlink:href="#DejaVuSans-Bold-19" transform="translate(69.578125 0)"/>
      </g>
     </g>
    </g>
    <g id="xtick_8">
     <g id="line2d_15">
      <path d="M 218.523882 236.430437 
L 218.523882 39.198438 
" clip-path="url(#p20f2d4c892)" style="fill: none; stroke-dasharray: 0.7,1.155; stroke-dashoffset: 0; stroke: #283d58; stroke-width: 0.7"/>
     </g>
     <g id="line2d_16">
      <g>
       <use xlink:href="#m8daf120c07" x="218.523882" y="236.430437" style="fill: #58a6ff; stroke: #58a6ff; stroke-width: 0.8"/>
      </g>
     </g>
     <g id="text_8">
      <!-- 07 -->
      <g style="fill: #58a6ff" transform="translate(213.653413 247.248797) scale(0.07 -0.07)">
       <defs>
        <path id="DejaVuSans-Bold-1a" d="M 428 4666 
L 3944 4666 
L 3944 3988 
L 2125 0 
L 953 0 
L 2675 3781 
L 428 3781 
L 428 4666 
z
" transform="scale(0.015625)"/>
       </defs>
       <use xlink:href="#DejaVuSans-Bold-13"/>
       <use xlink:href="#DejaVuSans-Bold-1a" transform="translate(69.578125 0)"/>
      </g>
     </g>
    </g>
    <g id="xtick_9">
     <g id="line2d_17">
      <path d="M 240.012284 236.430437 
L 240.012284 39.198438 
" clip-path="url(#p20f2d4c892)" style="fill: none; stroke-dasharray: 0.7,1.155; stroke-dashoffset: 0; stroke: #283d58; stroke-width: 0.7"/>
     </g>
     <g id="line2d_18">
      <g>
       <use xlink:href="#m8daf120c07" x="240.012284" y="236.430437" style="fill: #58a6ff; stroke: #58a6ff; stroke-width: 0.8"/>
      </g>
     </g>
     <g id="text_9">
      <!-- 08 -->
      <g style="fill: #58a6ff" transform="translate(235.141815 247.248797) scale(0.07 -0.07)">
       <defs>
        <path id="DejaVuSans-Bold-1b" d="M 2228 2088 
Q 1891 2088 1709 1903 
Q 1528 1719 1528 1375 
Q 1528 1031 1709 848 
Q 1891 666 2228 666 
Q 2563 666 2741 848 
Q 2919 1031 2919 1375 
Q 2919 1722 2741 1905 
Q 2563 2088 2228 2088 
z
M 1350 2484 
Q 925 2613 709 2878 
Q 494 3144 494 3541 
Q 494 4131 934 4440 
Q 1375 4750 2228 4750 
Q 3075 4750 3515 4442 
Q 3956 4134 3956 3541 
Q 3956 3144 3739 2878 
Q 3522 2613 3097 2484 
Q 3572 2353 3814 2058 
Q 4056 1763 4056 1313 
Q 4056 619 3595 264 
Q 3134 -91 2228 -91 
Q 1319 -91 855 264 
Q 391 619 391 1313 
Q 391 1763 633 2058 
Q 875 2353 1350 2484 
z
M 1631 3419 
Q 1631 3141 1786 2991 
Q 1941 2841 2228 2841 
Q 2509 2841 2662 2991 
Q 2816 3141 2816 3419 
Q 2816 3697 2662 3845 
Q 2509 3994 2228 3994 
Q 1941 3994 1786 3844 
Q 1631 3694 1631 3419 
z
" transform="scale(0.015625)"/>
       </defs>
       <use xlink:href="#DejaVuSans-Bold-13"/>
       <use xlink:href="#DejaVuSans-Bold-1b" transform="translate(69.578125 0)"/>
      </g>
     </g>
    </g>
    <g id="xtick_10">
     <g id="line2d_19">
      <path d="M 261.500685 236.430437 
L 261.500685 39.198438 
" clip-path="url(#p20f2d4c892)" style="fill: none; stroke-dasharray: 0.7,1.155; stroke-dashoffset: 0; stroke: #283d58; stroke-width: 0.7"/>
     </g>
     <g id="line2d_20">
      <g>
       <use xlink:href="#m8daf120c07" x="261.500685" y="236.430437" style="fill: #58a6ff; stroke: #58a6ff; stroke-width: 0.8"/>
      </g>
     </g>
     <g id="text_10">
      <!-- 09 -->
      <g style="fill: #58a6ff" transform="translate(256.630216 247.248797) scale(0.07 -0.07)">
       <defs>
        <path id="DejaVuSans-Bold-1c" d="M 641 103 
L 641 966 
Q 928 831 1190 764 
Q 1453 697 1709 697 
Q 2247 697 2547 995 
Q 2847 1294 2900 1881 
Q 2688 1725 2447 1647 
Q 2206 1569 1925 1569 
Q 1209 1569 770 1986 
Q 331 2403 331 3084 
Q 331 3838 820 4291 
Q 1309 4744 2131 4744 
Q 3044 4744 3544 4128 
Q 4044 3513 4044 2388 
Q 4044 1231 3459 570 
Q 2875 -91 1856 -91 
Q 1528 -91 1228 -42 
Q 928 6 641 103 
z
M 2125 2350 
Q 2441 2350 2600 2554 
Q 2759 2759 2759 3169 
Q 2759 3575 2600 3781 
Q 2441 3988 2125 3988 
Q 1809 3988 1650 3781 
Q 1491 3575 1491 3169 
Q 1491 2759 1650 2554 
Q 1809 2350 2125 2350 
z
" transform="scale(0.015625)"/>
       </defs>
       <use xlink:href="#DejaVuSans-Bold-13"/>
       <use xlink:href="#DejaVuSans-Bold-1c" transform="translate(69.578125 0)"/>
      </g>
     </g>
    </g>
    <g id="xtick_11">
     <g id="line2d_21">
      <path d="M 282.989087 236.430437 
L 282.989087 39.198438 
" clip-path="url(#p20f2d4c892)" style="fill: none; stroke-dasharray: 0.7,1.155; stroke-dashoffset: 0; stroke: #283d58; stroke-width: 0.7"/>
     </g>
     <g id="line2d_22">
      <g>
       <use xlink:href="#m8daf120c07" x="282.989087" y="236.430437" style="fill: #58a6ff; stroke: #58a6ff; stroke-width: 0.8"/>
      </g>
     </g>
     <g id="text_11">
      <!-- 10 -->
      <g style="fill: #58a6ff" transform="translate(278.118618 247.248797) scale(0.07 -0.07)">
       <use xlink:href="#DejaVuSans-Bold-14"/>
       <use xlink:href="#DejaVuSans-Bold-13" transform="translate(69.578125 0)"/>
      </g>
     </g>
    </g>
    <g id="xtick_12">
     <g id="line2d_23">
      <path d="M 304.477488 236.430437 
L 304.477488 39.198438 
" clip-path="url(#p20f2d4c892)" style="fill: none; stroke-dasharray: 0.7,1.155; stroke-dashoffset: 0; stroke: #283d58; stroke-width: 0.7"/>
     </g>
     <g id="line2d_24">
      <g>
       <use xlink:href="#m8daf120c07" x="304.477488" y="236.430437" style="fill: #58a6ff; stroke: #58a6ff; stroke-width: 0.8"/>
      </g>
     </g>
     <g id="text_12">
      <!-- 11 -->
      <g style="fill: #58a6ff" transform="translate(299.607019 247.248797) scale(0.07 -0.07)">
       <use xlink:href="#DejaVuSans-Bold-14"/>
       <use xlink:href="#DejaVuSans-Bold-14" transform="translate(69.578125 0)"/>
      </g>
     </g>
    </g>
    <g id="xtick_13">
     <g id="line2d_25">
      <path d="M 325.965889 236.430437 
L 325.965889 39.198438 
" clip-path="url(#p20f2d4c892)" style="fill: none; stroke-dasharray: 0.7,1.155; stroke-dashoffset: 0; stroke: #283d58; stroke-width: 0.7"/>
     </g>
     <g id="line2d_26">
      <g>
       <use xlink:href="#m8daf120c07" x="325.965889" y="236.430437" style="fill: #58a6ff; stroke: #58a6ff; stroke-width: 0.8"/>
      </g>
     </g>
     <g id="text_13">
      <!-- 12 -->
      <g style="fill: #58a6ff" transform="translate(321.095421 247.248797) scale(0.07 -0.07)">
       <use xlink:href="#DejaVuSans-Bold-14"/>
       <use xlink:href="#DejaVuSans-Bold-15" transform="translate(69.578125 0)"/>
      </g>
     </g>
    </g>
    <g id="xtick_14">
     <g id="line2d_27">
      <path d="M 347.454291 236.430437 
L 347.454291 39.198438 
" clip-path="url(#p20f2d4c892)" style="fill: none; stroke-dasharray: 0.7,1.155; stroke-dashoffset: 0; stroke: #283d58; stroke-width: 0.7"/>
     </g>
     <g id="line2d_28">
      <g>
       <use xlink:href="#m8daf120c07" x="347.454291" y="236.430437" style="fill: #58a6ff; stroke: #58a6ff; stroke-width: 0.8"/>
      </g>
     </g>
     <g id="text_14">
      <!-- 13 -->
      <g style="fill: #58a6ff" transform="translate(342.583822 247.248797) scale(0.07 -0.07)">
       <use xlink:href="#DejaVuSans-Bold-14"/>
       <use xlink:href="#DejaVuSans-Bold-16" transform="translate(69.578125 0)"/>
      </g>
     </g>
    </g>
    <g id="xtick_15">
     <g id="line2d_29">
      <path d="M 368.942692 236.430437 
L 368.942692 39.198438 
" clip-path="url(#p20f2d4c892)" style="fill: none; stroke-dasharray: 0.7,1.155; stroke-dashoffset: 0; stroke: #283d58; stroke-width: 0.7"/>
     </g>
     <g id="line2d_30">
      <g>
       <use xlink:href="#m8daf120c07" x="368.942692" y="236.430437" style="fill: #58a6ff; stroke: #58a6ff; stroke-width: 0.8"/>
      </g>
     </g>
     <g id="text_15">
      <!-- 14 -->
      <g style="fill: #58a6ff" transform="translate(364.072224 247.248797) scale(0.07 -0.07)">
       <use xlink:href="#DejaVuSans-Bold-14"/>
       <use xlink:href="#DejaVuSans-Bold-17" transform="translate(69.578125 0)"/>
      </g>
     </g>
    </g>
    <g id="xtick_16">
     <g id="line2d_31">
      <path d="M 390.431094 236.430437 
L 390.431094 39.198438 
" clip-path="url(#p20f2d4c892)" style="fill: none; stroke-dasharray: 0.7,1.155; stroke-dashoffset: 0; stroke: #283d58; stroke-width: 0.7"/>
     </g>
     <g id="line2d_32">
      <g>
       <use xlink:href="#m8daf120c07" x="390.431094" y="236.430437" style="fill: #58a6ff; stroke: #58a6ff; stroke-width: 0.8"/>
      </g>
     </g>
     <g id="text_16">
      <!-- 15 -->
      <g style="fill: #58a6ff" transform="translate(385.560625 247.248797) scale(0.07 -0.07)">
       <use xlink:href="#DejaVuSans-Bold-14"/>
       <use xlink:href="#DejaVuSans-Bold-18" transform="translate(69.578125 0)"/>
      </g>
     </g>
    </g>
    <g id="xtick_17">
     <g id="line2d_33">
      <path d="M 411.919495 236.430437 
L 411.919495 39.198438 
" clip-path="url(#p20f2d4c892)" style="fill: none; stroke-dasharray: 0.7,1.155; stroke-dashoffset: 0; stroke: #283d58; stroke-width: 0.7"/>
     </g>
     <g id="line2d_34">
      <g>
       <use xlink:href="#m8daf120c07" x="411.919495" y="236.430437" style="fill: #58a6ff; stroke: #58a6ff; stroke-width: 0.8"/>
      </g>
     </g>
     <g id="text_17">
      <!-- 16 -->
      <g style="fill: #58a6ff" transform="translate(407.049026 247.248797) scale(0.07 -0.07)">
       <use xlink:href="#DejaVuSans-Bold-14"/>
       <use xlink:href="#DejaVuSans-Bold-19" transform="translate(69.578125 0)"/>
      </g>
     </g>
    </g>
    <g id="xtick_18">
     <g id="line2d_35">
      <path d="M 433.407897 236.430437 
L 433.407897 39.198438 
" clip-path="url(#p20f2d4c892)" style="fill: none; stroke-dasharray: 0.7,1.155; stroke-dashoffset: 0; stroke: #283d58; stroke-width: 0.7"/>
     </g>
     <g id="line2d_36">
      <g>
       <use xlink:href="#m8daf120c07" x="433.407897" y="236.430437" style="fill: #58a6ff; stroke: #58a6ff; stroke-width: 0.8"/>
      </g>
     </g>
     <g id="text_18">
      <!-- 17 -->
      <g style="fill: #58a6ff" transform="translate(428.537428 247.248797) scale(0.07 -0.07)">
       <use xlink:href="#DejaVuSans-Bold-14"/>
       <use xlink:href="#DejaVuSans-Bold-1a" transform="translate(69.578125 0)"/>
      </g>
     </g>
    </g>
    <g id="xtick_19">
     <g id="line2d_37">
      <path d="M 454.896298 236.430437 
L 454.896298 39.198438 
" clip-path="url(#p20f2d4c892)" style="fill: none; stroke-dasharray: 0.7,1.155; stroke-dashoffset: 0; stroke: #283d58; stroke-width: 0.7"/>
     </g>
     <g id="line2d_38">
      <g>
       <use xlink:href="#m8daf120c07" x="454.896298" y="236.430437" style="fill: #58a6ff; stroke: #58a6ff; stroke-width: 0.8"/>
      </g>
     </g>
     <g id="text_19">
      <!-- 18 -->
      <g style="fill: #58a6ff" transform="translate(450.025829 247.248797) scale(0.07 -0.07)">
       <use xlink:href="#DejaVuSans-Bold-14"/>
       <use xlink:href="#DejaVuSans-Bold-1b" transform="translate(69.578125 0)"/>
      </g>
     </g>
    </g>
    <g id="xtick_20">
     <g id="line2d_39">
      <path d="M 476.3847 236.430437 
L 476.3847 39.198438 
" clip-path="url(#p20f2d4c892)" style="fill: none; stroke-dasharray: 0.7,1.155; stroke-dashoffset: 0; stroke: #283d58; stroke-width: 0.7"/>
     </g>
     <g id="line2d_40">
      <g>
       <use xlink:href="#m8daf120c07" x="476.3847" y="236.430437" style="fill: #58a6ff; stroke: #58a6ff; stroke-width: 0.8"/>
      </g>
     </g>
     <g id="text_20">
      <!-- 19 -->
      <g style="fill: #58a6ff" transform="translate(471.514231 247.248797) scale(0.07 -0.07)">
       <use xlink:href="#DejaVuSans-Bold-14"/>
       <use xlink:href="#DejaVuSans-Bold-1c" transform="translate(69.578125 0)"/>
      </g>
     </g>
    </g>
    <g id="xtick_21">
     <g id="line2d_41">
      <path d="M 497.873101 236.430437 
L 497.873101 39.198438 
" clip-path="url(#p20f2d4c892)" style="fill: none; stroke-dasharray: 0.7,1.155; stroke-dashoffset: 0; stroke: #283d58; stroke-width: 0.7"/>
     </g>
     <g id="line2d_42">
      <g>
       <use xlink:href="#m8daf120c07" x="497.873101" y="236.430437" style="fill: #58a6ff; stroke: #58a6ff; stroke-width: 0.8"/>
      </g>
     </g>
     <g id="text_21">
      <!-- 20 -->
      <g style="fill: #58a6ff" transform="translate(493.002632 247.248797) scale(0.07 -0.07)">
       <use xlink:href="#DejaVuSans-Bold-15"/>
       <use xlink:href="#DejaVuSans-Bold-13" transform="translate(69.578125 0)"/>
      </g>
     </g>
    </g>
    <g id="xtick_22">
     <g id="line2d_43">
      <path d="M 519.361502 236.430437 
L 519.361502 39.198438 
" clip-path="url(#p20f2d4c892)" style="fill: none; stroke-dasharray: 0.7,1.155; stroke-dashoffset: 0; stroke: #283d58; stroke-width: 0.7"/>
     </g>
     <g id="line2d_44">
      <g>
       <use xlink:href="#m8daf120c07" x="519.361502" y="236.430437" style="fill: #58a6ff; stroke: #58a6ff; stroke-width: 0.8"/>
      </g>
     </g>
     <g id="text_22">
      <!-- 21 -->
      <g style="fill: #58a6ff" transform="translate(514.491034 247.248797) scale(0.07 -0.07)">
       <use xlink:href="#DejaVuSans-Bold-15"/>
       <use xlink:href="#DejaVuSans-Bold-14" transform="translate(69.578125 0)"/>
      </g>
     </g>
    </g>
    <g id="xtick_23">
     <g id="line2d_45">
      <path d="M 540.849904 236.430437 
L 540.849904 39.198438 
" clip-path="url(#p20f2d4c892)" style="fill: none; stroke-dasharray: 0.7,1.155; stroke-dashoffset: 0; stroke: #283d58; stroke-width: 0.7"/>
     </g>
     <g id="line2d_46">
      <g>
       <use xlink:href="#m8daf120c07" x="540.849904" y="236.430437" style="fill: #58a6ff; stroke: #58a6ff; stroke-width: 0.8"/>
      </g>
     </g>
     <g id="text_23">
      <!-- 22 -->
      <g style="fill: #3fb950" transform="translate(535.283654 248.008562) scale(0.08 -0.08)">
       <use xlink:href="#DejaVuSans-Bold-15"/>
       <use xlink:href="#DejaVuSans-Bold-15" transform="translate(69.578125 0)"/>
      </g>
     </g>
    </g>
    <g id="xtick_24">
     <g id="line2d_47">
      <path d="M 562.338305 236.430437 
L 562.338305 39.198438 
" clip-path="url(#p20f2d4c892)" style="fill: none; stroke-dasharray: 0.7,1.155; stroke-dashoffset: 0; stroke: #283d58; stroke-width: 0.7"/>
     </g>
     <g id="line2d_48">
      <g>
       <use xlink:href="#m8daf120c07" x="562.338305" y="236.430437" style="fill: #58a6ff; stroke: #58a6ff; stroke-width: 0.8"/>
      </g>
     </g>
     <g id="text_24">
      <!-- 23 -->
      <g style="fill: #58a6ff" transform="translate(557.467837 247.248797) scale(0.07 -0.07)">
       <use xlink:href="#DejaVuSans-Bold-15"/>
       <use xlink:href="#DejaVuSans-Bold-16" transform="translate(69.578125 0)"/>
      </g>
     </g>
    </g>
    <g id="xtick_25">
     <g id="line2d_49">
      <path d="M 583.826707 236.430437 
L 583.826707 39.198438 
" clip-path="url(#p20f2d4c892)" style="fill: none; stroke-dasharray: 0.7,1.155; stroke-dashoffset: 0; stroke: #283d58; stroke-width: 0.7"/>
     </g>
     <g id="line2d_50">
      <g>
       <use xlink:href="#m8daf120c07" x="583.826707" y="236.430437" style="fill: #58a6ff; stroke: #58a6ff; stroke-width: 0.8"/>
      </g>
     </g>
     <g id="text_25">
      <!-- 24 -->
      <g style="fill: #1a73e8" transform="translate(578.260457 248.008562) scale(0.08 -0.08)">
       <use xlink:href="#DejaVuSans-Bold-15"/>
       <use xlink:href="#DejaVuSans-Bold-17" transform="translate(69.578125 0)"/>
      </g>
     </g>
    </g>
    <g id="xtick_26">
     <g id="line2d_51">
      <path d="M 605.315108 236.430437 
L 605.315108 39.198438 
" clip-path="url(#p20f2d4c892)" style="fill: none; stroke-dasharray: 0.7,1.155; stroke-dashoffset: 0; stroke: #283d58; stroke-width: 0.7"/>
     </g>
     <g id="line2d_52">
      <g>
       <use xlink:href="#m8daf120c07" x="605.315108" y="236.430437" style="fill: #58a6ff; stroke: #58a6ff; stroke-width: 0.8"/>
      </g>
     </g>
     <g id="text_26">
      <!-- 25 -->
      <g style="fill: #58a6ff" transform="translate(600.444639 247.248797) scale(0.07 -0.07)">
       <use xlink:href="#DejaVuSans-Bold-15"/>
       <use xlink:href="#DejaVuSans-Bold-18" transform="translate(69.578125 0)"/>
      </g>
     </g>
    </g>
    <g id="xtick_27">
     <g id="line2d_53">
      <path d="M 626.80351 236.430437 
L 626.80351 39.198438 
" clip-path="url(#p20f2d4c892)" style="fill: none; stroke-dasharray: 0.7,1.155; stroke-dashoffset: 0; stroke: #283d58; stroke-width: 0.7"/>
     </g>
     <g id="line2d_54">
      <g>
       <use xlink:href="#m8daf120c07" x="626.80351" y="236.430437" style="fill: #58a6ff; stroke: #58a6ff; stroke-width: 0.8"/>
      </g>
     </g>
     <g id="text_27">
      <!-- 26 -->
      <g style="fill: #58a6ff" transform="translate(621.933041 247.248797) scale(0.07 -0.07)">
       <use xlink:href="#DejaVuSans-Bold-15"/>
       <use xlink:href="#DejaVuSans-Bold-19" transform="translate(69.578125 0)"/>
      </g>
     </g>
    </g>
    <g id="xtick_28">
     <g id="line2d_55">
      <path d="M 648.291911 236.430437 
L 648.291911 39.198438 
" clip-path="url(#p20f2d4c892)" style="fill: none; stroke-dasharray: 0.7,1.155; stroke-dashoffset: 0; stroke: #283d58; stroke-width: 0.7"/>
     </g>
     <g id="line2d_56">
      <g>
       <use xlink:href="#m8daf120c07" x="648.291911" y="236.430437" style="fill: #58a6ff; stroke: #58a6ff; stroke-width: 0.8"/>
      </g>
     </g>
     <g id="text_28">
      <!-- 27 -->
      <g style="fill: #3fb950" transform="translate(642.725661 248.008562) scale(0.08 -0.08)">
       <use xlink:href="#DejaVuSans-Bold-15"/>
       <use xlink:href="#DejaVuSans-Bold-1a" transform="translate(69.578125 0)"/>
      </g>
     </g>
    </g>
    <g id="xtick_29">
     <g id="line2d_57">
      <path d="M 669.780312 236.430437 
L 669.780312 39.198438 
" clip-path="url(#p20f2d4c892)" style="fill: none; stroke-dasharray: 0.7,1.155; stroke-dashoffset: 0; stroke: #283d58; stroke-width: 0.7"/>
     </g>
     <g id="line2d_58">
      <g>
       <use xlink:href="#m8daf120c07" x="669.780312" y="236.430437" style="fill: #58a6ff; stroke: #58a6ff; stroke-width: 0.8"/>
      </g>
     </g>
     <g id="text_29">
      <!-- 28 -->
      <g style="fill: #58a6ff" transform="translate(664.909844 247.248797) scale(0.07 -0.07)">
       <use xlink:href="#DejaVuSans-Bold-15"/>
       <use xlink:href="#DejaVuSans-Bold-1b" transform="translate(69.578125 0)"/>
      </g>
     </g>
    </g>
    <g id="xtick_30">
     <g id="line2d_59">
      <path d="M 691.268714 236.430437 
L 691.268714 39.198438 
" clip-path="url(#p20f2d4c892)" style="fill: none; stroke-dasharray: 0.7,1.155; stroke-dashoffset: 0; stroke: #283d58; stroke-width: 0.7"/>
     </g>
     <g id="line2d_60">
      <g>
       <use xlink:href="#m8daf120c07" x="691.268714" y="236.430437" style="fill: #58a6ff; stroke: #58a6ff; stroke-width: 0.8"/>
      </g>
     </g>
     <g id="text_30">
      <!-- 29 -->
      <g style="fill: #58a6ff" transform="translate(686.398245 247.248797) scale(0.07 -0.07)">
       <use xlink:href="#DejaVuSans-Bold-15"/>
       <use xlink:href="#DejaVuSans-Bold-1c" transform="translate(69.578125 0)"/>
      </g>
     </g>
    </g>
    <g id="xtick_31">
     <g id="line2d_61">
      <path d="M 712.757115 236.430437 
L 712.757115 39.198438 
" clip-path="url(#p20f2d4c892)" style="fill: none; stroke-dasharray: 0.7,1.155; stroke-dashoffset: 0; stroke: #283d58; stroke-width: 0.7"/>
     </g>
     <g id="line2d_62">
      <g>
       <use xlink:href="#m8daf120c07" x="712.757115" y="236.430437" style="fill: #58a6ff; stroke: #58a6ff; stroke-width: 0.8"/>
      </g>
     </g>
     <g id="text_31">
      <!-- 30 -->
      <g style="fill: #58a6ff" transform="translate(707.886647 247.248797) scale(0.07 -0.07)">
       <use xlink:href="#DejaVuSans-Bold-16"/>
       <use xlink:href="#DejaVuSans-Bold-13" transform="translate(69.578125 0)"/>
      </g>
     </g>
    </g>
    <g id="text_32">
     <!-- Last Month -->
     <g style="fill: #58a6ff" transform="translate(365.162344 276.009187) scale(0.08 -0.08)">
      <defs>
       <path id="DejaVuSans-Bold-2f" d="M 588 4666 
L 1791 4666 
L 1791 909 
L 3903 909 
L 3903 0 
L 588 0 
L 588 4666 
z
" transform="scale(0.015625)"/>
       <path id="DejaVuSans-Bold-44" d="M 2106 1575 
Q 1756 1575 1579 1456 
Q 1403 1338 1403 1106 
Q 1403 894 1545 773 
Q 1688 653 1941 653 
Q 2256 653 2472 879 
Q 2688 1106 2688 1447 
L 2688 1575 
L 2106 1575 
z
M 3816 1997 
L 3816 0 
L 2688 0 
L 2688 519 
Q 2463 200 2181 54 
Q 1900 -91 1497 -91 
Q 953 -91 614 226 
Q 275 544 275 1050 
Q 275 1666 698 1953 
Q 1122 2241 2028 2241 
L 2688 2241 
L 2688 2328 
Q 2688 2594 2478 2717 
Q 2269 2841 1825 2841 
Q 1466 2841 1156 2769 
Q 847 2697 581 2553 
L 581 3406 
Q 941 3494 1303 3539 
Q 1666 3584 2028 3584 
Q 2975 3584 3395 3211 
Q 3816 2838 3816 1997 
z
" transform="scale(0.015625)"/>
       <path id="DejaVuSans-Bold-56" d="M 3272 3391 
L 3272 2541 
Q 2913 2691 2578 2766 
Q 2244 2841 1947 2841 
Q 1628 2841 1473 2761 
Q 1319 2681 1319 2516 
Q 1319 2381 1436 2309 
Q 1553 2238 1856 2203 
L 2053 2175 
Q 2913 2066 3209 1816 
Q 3506 1566 3506 1031 
Q 3506 472 3093 190 
Q 2681 -91 1863 -91 
Q 1516 -91 1145 -36 
Q 775 19 384 128 
L 384 978 
Q 719 816 1070 734 
Q 1422 653 1784 653 
Q 2113 653 2278 743 
Q 2444 834 2444 1013 
Q 2444 1163 2330 1236 
Q 2216 1309 1875 1350 
L 1678 1375 
Q 931 1469 631 1722 
Q 331 1975 331 2491 
Q 331 3047 712 3315 
Q 1094 3584 1881 3584 
Q 2191 3584 2531 3537 
Q 2872 3491 3272 3391 
z
" transform="scale(0.015625)"/>
       <path id="DejaVuSans-Bold-57" d="M 1759 4494 
L 1759 3500 
L 2913 3500 
L 2913 2700 
L 1759 2700 
L 1759 1216 
Q 1759 972 1856 886 
Q 1953 800 2241 800 
L 2816 800 
L 2816 0 
L 1856 0 
Q 1194 0 917 276 
Q 641 553 641 1216 
L 641 2700 
L 84 2700 
L 84 3500 
L 641 3500 
L 641 4494 
L 1759 4494 
z
" transform="scale(0.015625)"/>
       <path id="DejaVuSans-Bold-3" transform="scale(0.015625)"/>
       <path id="DejaVuSans-Bold-30" d="M 588 4666 
L 2119 4666 
L 3181 2169 
L 4250 4666 
L 5778 4666 
L 5778 0 
L 4641 0 
L 4641 3413 
L 3566 897 
L 2803 897 
L 1728 3413 
L 1728 0 
L 588 0 
L 588 4666 
z
" transform="scale(0.015625)"/>
       <path id="DejaVuSans-Bold-52" d="M 2203 2784 
Q 1831 2784 1636 2517 
Q 1441 2250 1441 1747 
Q 1441 1244 1636 976 
Q 1831 709 2203 709 
Q 2569 709 2762 976 
Q 2956 1244 2956 1747 
Q 2956 2250 2762 2517 
Q 2569 2784 2203 2784 
z
M 2203 3584 
Q 3106 3584 3614 3096 
Q 4122 2609 4122 1747 
Q 4122 884 3614 396 
Q 3106 -91 2203 -91 
Q 1297 -91 786 396 
Q 275 884 275 1747 
Q 275 2609 786 3096 
Q 1297 3584 2203 3584 
z
" transform="scale(0.015625)"/>
       <path id="DejaVuSans-Bold-51" d="M 4056 2131 
L 4056 0 
L 2931 0 
L 2931 347 
L 2931 1631 
Q 2931 2084 2911 2256 
Q 2891 2428 2841 2509 
Q 2775 2619 2662 2680 
Q 2550 2741 2406 2741 
Q 2056 2741 1856 2470 
Q 1656 2200 1656 1722 
L 1656 0 
L 538 0 
L 538 3500 
L 1656 3500 
L 1656 2988 
Q 1909 3294 2193 3439 
Q 2478 3584 2822 3584 
Q 3428 3584 3742 3212 
Q 4056 2841 4056 2131 
z
" transform="scale(0.015625)"/>
       <path id="DejaVuSans-Bold-4b" d="M 4056 2131 
L 4056 0 
L 2931 0 
L 2931 347 
L 2931 1625 
Q 2931 2084 2911 2256 
Q 2891 2428 2841 2509 
Q 2775 2619 2662 2680 
Q 2550 2741 2406 2741 
Q 2056 2741 1856 2470 
Q 1656 2200 1656 1722 
L 1656 0 
L 538 0 
L 538 4863 
L 1656 4863 
L 1656 2988 
Q 1909 3294 2193 3439 
Q 2478 3584 2822 3584 
Q 3428 3584 3742 3212 
Q 4056 2841 4056 2131 
z
" transform="scale(0.015625)"/>
      </defs>
      <use xlink:href="#DejaVuSans-Bold-2f"/>
      <use xlink:href="#DejaVuSans-Bold-44" transform="translate(63.71875 0)"/>
      <use xlink:href="#DejaVuSans-Bold-56" transform="translate(131.203125 0)"/>
      <use xlink:href="#DejaVuSans-Bold-57" transform="translate(190.71875 0)"/>
      <use xlink:href="#DejaVuSans-Bold-3" transform="translate(238.515625 0)"/>
      <use xlink:href="#DejaVuSans-Bold-30" transform="translate(273.328125 0)"/>
      <use xlink:href="#DejaVuSans-Bold-52" transform="translate(372.84375 0)"/>
      <use xlink:href="#DejaVuSans-Bold-51" transform="translate(441.546875 0)"/>
      <use xlink:href="#DejaVuSans-Bold-57" transform="translate(512.734375 0)"/>
      <use xlink:href="#DejaVuSans-Bold-4b" transform="translate(560.53125 0)"/>
     </g>
    </g>
   </g>
   <g id="matplotlib.axis_2">
    <g id="ytick_1">
     <g id="line2d_63">
      <path d="M 55.212031 236.430437 
L 725.650156 236.430437 
" clip-path="url(#p20f2d4c892)" style="fill: none; stroke-dasharray: 0.7,1.155; stroke-dashoffset: 0; stroke: #283d58; stroke-width: 0.7"/>
     </g>
     <g id="line2d_64">
      <defs>
       <path id="mdf34df801e" d="M 0 0 
L -3.5 0 
" style="stroke: #58a6ff; stroke-width: 0.8"/>
      </defs>
      <g>
       <use xlink:href="#mdf34df801e" x="55.212031" y="236.430437" style="fill: #58a6ff; stroke: #58a6ff; stroke-width: 0.8"/>
      </g>
     </g>
     <g id="text_33">
      <!-- 0 -->
      <g style="fill: #58a6ff" transform="translate(43.341563 239.089617) scale(0.07 -0.07)">
       <use xlink:href="#DejaVuSans-Bold-13"/>
      </g>
     </g>
    </g>
    <g id="ytick_2">
     <g id="line2d_65">
      <path d="M 55.212031 210.132837 
L 725.650156 210.132837 
" clip-path="url(#p20f2d4c892)" style="fill: none; stroke-dasharray: 0.7,1.155; stroke-dashoffset: 0; stroke: #283d58; stroke-width: 0.7"/>
     </g>
     <g id="line2d_66">
      <g>
       <use xlink:href="#mdf34df801e" x="55.212031" y="210.132837" style="fill: #58a6ff; stroke: #58a6ff; stroke-width: 0.8"/>
      </g>
     </g>
     <g id="text_34">
      <!-- 127 -->
      <g style="fill: #58a6ff" transform="translate(33.600625 212.792017) scale(0.07 -0.07)">
       <use xlink:href="#DejaVuSans-Bold-14"/>
       <use xlink:href="#DejaVuSans-Bold-15" transform="translate(69.578125 0)"/>
       <use xlink:href="#DejaVuSans-Bold-1a" transform="translate(139.15625 0)"/>
      </g>
     </g>
    </g>
    <g id="ytick_3">
     <g id="line2d_67">
      <path d="M 55.212031 183.835237 
L 725.650156 183.835237 
" clip-path="url(#p20f2d4c892)" style="fill: none; stroke-dasharray: 0.7,1.155; stroke-dashoffset: 0; stroke: #283d58; stroke-width: 0.7"/>
     </g>
     <g id="line2d_68">
      <g>
       <use xlink:href="#mdf34df801e" x="55.212031" y="183.835237" style="fill: #58a6ff; stroke: #58a6ff; stroke-width: 0.8"/>
      </g>
     </g>
     <g id="text_35">
      <!-- 254 -->
      <g style="fill: #58a6ff" transform="translate(33.600625 186.494417) scale(0.07 -0.07)">
       <use xlink:href="#DejaVuSans-Bold-15"/>
       <use xlink:href="#DejaVuSans-Bold-18" transform="translate(69.578125 0)"/>
       <use xlink:href="#DejaVuSans-Bold-17" transform="translate(139.15625 0)"/>
      </g>
     </g>
    </g>
    <g id="ytick_4">
     <g id="line2d_69">
      <path d="M 55.212031 157.537637 
L 725.650156 157.537637 
" clip-path="url(#p20f2d4c892)" style="fill: none; stroke-dasharray: 0.7,1.155; stroke-dashoffset: 0; stroke: #283d58; stroke-width: 0.7"/>
     </g>
     <g id="line2d_70">
      <g>
       <use xlink:href="#mdf34df801e" x="55.212031" y="157.537637" style="fill: #58a6ff; stroke: #58a6ff; stroke-width: 0.8"/>
      </g>
     </g>
     <g id="text_36">
      <!-- 381 -->
      <g style="fill: #58a6ff" transform="translate(33.600625 160.196817) scale(0.07 -0.07)">
       <use xlink:href="#DejaVuSans-Bold-16"/>
       <use xlink:href="#DejaVuSans-Bold-1b" transform="translate(69.578125 0)"/>
       <use xlink:href="#DejaVuSans-Bold-14" transform="translate(139.15625 0)"/>
      </g>
     </g>
    </g>
    <g id="ytick_5">
     <g id="line2d_71">
      <path d="M 55.212031 131.240037 
L 725.650156 131.240037 
" clip-path="url(#p20f2d4c892)" style="fill: none; stroke-dasharray: 0.7,1.155; stroke-dashoffset: 0; stroke: #283d58; stroke-width: 0.7"/>
     </g>
     <g id="line2d_72">
      <g>
       <use xlink:href="#mdf34df801e" x="55.212031" y="131.240037" style="fill: #58a6ff; stroke: #58a6ff; stroke-width: 0.8"/>
      </g>
     </g>
     <g id="text_37">
      <!-- 508 -->
      <g style="fill: #58a6ff" transform="translate(33.600625 133.899217) scale(0.07 -0.07)">
       <use xlink:href="#DejaVuSans-Bold-18"/>
       <use xlink:href="#DejaVuSans-Bold-13" transform="translate(69.578125 0)"/>
       <use xlink:href="#DejaVuSans-Bold-1b" transform="translate(139.15625 0)"/>
      </g>
     </g>
    </g>
    <g id="ytick_6">
     <g id="line2d_73">
      <path d="M 55.212031 104.942437 
L 725.650156 104.942437 
" clip-path="url(#p20f2d4c892)" style="fill: none; stroke-dasharray: 0.7,1.155; stroke-dashoffset: 0; stroke: #283d58; stroke-width: 0.7"/>
     </g>
     <g id="line2d_74">
      <g>
       <use xlink:href="#mdf34df801e" x="55.212031" y="104.942437" style="fill: #58a6ff; stroke: #58a6ff; stroke-width: 0.8"/>
      </g>
     </g>
     <g id="text_38">
      <!-- 635 -->
      <g style="fill: #58a6ff" transform="translate(33.600625 107.601617) scale(0.07 -0.07)">
       <use xlink:href="#DejaVuSans-Bold-19"/>
       <use xlink:href="#DejaVuSans-Bold-16" transform="translate(69.578125 0)"/>
       <use xlink:href="#DejaVuSans-Bold-18" transform="translate(139.15625 0)"/>
      </g>
     </g>
    </g>
    <g id="ytick_7">
     <g id="line2d_75">
      <path d="M 55.212031 78.644837 
L 725.650156 78.644837 
" clip-path="url(#p20f2d4c892)" style="fill: none; stroke-dasharray: 0.7,1.155; stroke-dashoffset: 0; stroke: #283d58; stroke-width: 0.7"/>
     </g>
     <g id="line2d_76">
      <g>
       <use xlink:href="#mdf34df801e" x="55.212031" y="78.644837" style="fill: #58a6ff; stroke: #58a6ff; stroke-width: 0.8"/>
      </g>
     </g>
     <g id="text_39">
      <!-- 762 -->
      <g style="fill: #58a6ff" transform="translate(33.600625 81.304017) scale(0.07 -0.07)">
       <use xlink:href="#DejaVuSans-Bold-1a"/>
       <use xlink:href="#DejaVuSans-Bold-19" transform="translate(69.578125 0)"/>
       <use xlink:href="#DejaVuSans-Bold-15" transform="translate(139.15625 0)"/>
      </g>
     </g>
    </g>
    <g id="ytick_8">
     <g id="line2d_77">
      <path d="M 55.212031 52.347238 
L 725.650156 52.347238 
" clip-path="url(#p20f2d4c892)" style="fill: none; stroke-dasharray: 0.7,1.155; stroke-dashoffset: 0; stroke: #283d58; stroke-width: 0.7"/>
     </g>
     <g id="line2d_78">
      <g>
       <use xlink:href="#mdf34df801e" x="55.212031" y="52.347238" style="fill: #58a6ff; stroke: #58a6ff; stroke-width: 0.8"/>
      </g>
     </g>
     <g id="text_40">
      <!-- 889 -->
      <g style="fill: #58a6ff" transform="translate(33.600625 55.006417) scale(0.07 -0.07)">
       <use xlink:href="#DejaVuSans-Bold-1b"/>
       <use xlink:href="#DejaVuSans-Bold-1b" transform="translate(69.578125 0)"/>
       <use xlink:href="#DejaVuSans-Bold-1c" transform="translate(139.15625 0)"/>
      </g>
     </g>
    </g>
    <g id="text_41">
     <!-- Downloads / day -->
     <g style="fill: #58a6ff" transform="translate(27.67875 174.781937) rotate(-90) scale(0.08 -0.08)">
      <defs>
       <path id="DejaVuSans-Bold-27" d="M 1791 3756 
L 1791 909 
L 2222 909 
Q 2959 909 3348 1275 
Q 3738 1641 3738 2338 
Q 3738 3031 3350 3393 
Q 2963 3756 2222 3756 
L 1791 3756 
z
M 588 4666 
L 1856 4666 
Q 2919 4666 3439 4514 
Q 3959 4363 4331 4000 
Q 4659 3684 4818 3271 
Q 4978 2859 4978 2338 
Q 4978 1809 4818 1395 
Q 4659 981 4331 666 
Q 3956 303 3431 151 
Q 2906 0 1856 0 
L 588 0 
L 588 4666 
z
" transform="scale(0.015625)"/>
       <path id="DejaVuSans-Bold-5a" d="M 225 3500 
L 1313 3500 
L 1900 1088 
L 2491 3500 
L 3425 3500 
L 4013 1113 
L 4603 3500 
L 5691 3500 
L 4769 0 
L 3547 0 
L 2956 2406 
L 2369 0 
L 1147 0 
L 225 3500 
z
" transform="scale(0.015625)"/>
       <path id="DejaVuSans-Bold-4f" d="M 538 4863 
L 1656 4863 
L 1656 0 
L 538 0 
L 538 4863 
z
" transform="scale(0.015625)"/>
       <path id="DejaVuSans-Bold-47" d="M 2919 2988 
L 2919 4863 
L 4044 4863 
L 4044 0 
L 2919 0 
L 2919 506 
Q 2688 197 2409 53 
Q 2131 -91 1766 -91 
Q 1119 -91 703 423 
Q 288 938 288 1747 
Q 288 2556 703 3070 
Q 1119 3584 1766 3584 
Q 2128 3584 2408 3439 
Q 2688 3294 2919 2988 
z
M 2181 722 
Q 2541 722 2730 984 
Q 2919 1247 2919 1747 
Q 2919 2247 2730 2509 
Q 2541 2772 2181 2772 
Q 1825 2772 1636 2509 
Q 1447 2247 1447 1747 
Q 1447 1247 1636 984 
Q 1825 722 2181 722 
z
" transform="scale(0.015625)"/>
       <path id="DejaVuSans-Bold-12" d="M 1644 4666 
L 2338 4666 
L 691 -594 
L 0 -594 
L 1644 4666 
z
" transform="scale(0.015625)"/>
       <path id="DejaVuSans-Bold-5c" d="M 78 3500 
L 1197 3500 
L 2138 1125 
L 2938 3500 
L 4056 3500 
L 2584 -331 
Q 2363 -916 2067 -1148 
Q 1772 -1381 1288 -1381 
L 641 -1381 
L 641 -647 
L 991 -647 
Q 1275 -647 1404 -556 
Q 1534 -466 1606 -231 
L 1638 -134 
L 78 3500 
z
" transform="scale(0.015625)"/>
      </defs>
      <use xlink:href="#DejaVuSans-Bold-27"/>
      <use xlink:href="#DejaVuSans-Bold-52" transform="translate(83.015625 0)"/>
      <use xlink:href="#DejaVuSans-Bold-5a" transform="translate(151.71875 0)"/>
      <use xlink:href="#DejaVuSans-Bold-51" transform="translate(244.109375 0)"/>
      <use xlink:href="#DejaVuSans-Bold-4f" transform="translate(315.296875 0)"/>
      <use xlink:href="#DejaVuSans-Bold-52" transform="translate(349.578125 0)"/>
      <use xlink:href="#DejaVuSans-Bold-44" transform="translate(418.28125 0)"/>
      <use xlink:href="#DejaVuSans-Bold-47" transform="translate(485.765625 0)"/>
      <use xlink:href="#DejaVuSans-Bold-56" transform="translate(557.34375 0)"/>
      <use xlink:href="#DejaVuSans-Bold-3" transform="translate(616.859375 0)"/>
      <use xlink:href="#DejaVuSans-Bold-12" transform="translate(651.671875 0)"/>
      <use xlink:href="#DejaVuSans-Bold-3" transform="translate(688.203125 0)"/>
      <use xlink:href="#DejaVuSans-Bold-47" transform="translate(723.015625 0)"/>
      <use xlink:href="#DejaVuSans-Bold-44" transform="translate(794.59375 0)"/>
      <use xlink:href="#DejaVuSans-Bold-5c" transform="translate(859 0)"/>
     </g>
    </g>
   </g>
   <g id="line2d_79">
    <path d="M 55.212031 212.286342 
L 725.650156 212.286342 
" clip-path="url(#p20f2d4c892)" style="fill: none; stroke-dasharray: 1.5,2.475; stroke-dashoffset: 0; stroke: #ff6b6b; stroke-width: 1.5"/>
   </g>
   <g id="patch_3">
    <path d="M 55.212031 236.430437 
L 55.212031 39.198438 
" style="fill: none; stroke: #283d58; stroke-width: 0.8; stroke-linejoin: miter; stroke-linecap: square"/>
   </g>
   <g id="patch_4">
    <path d="M 725.650156 236.430437 
L 725.650156 39.198438 
" style="fill: none; stroke: #283d58; stroke-width: 0.8; stroke-linejoin: miter; stroke-linecap: square"/>
   </g>
   <g id="patch_5">
    <path d="M 55.212031 236.430437 
L 725.650156 236.430437 
" style="fill: none; stroke: #283d58; stroke-width: 0.8; stroke-linejoin: miter; stroke-linecap: square"/>
   </g>
   <g id="patch_6">
    <path d="M 55.212031 39.198438 
L 725.650156 39.198438 
" style="fill: none; stroke: #283d58; stroke-width: 0.8; stroke-linejoin: miter; stroke-linecap: square"/>
   </g>
   <g id="line2d_80">
    <path d="M 68.105072 236.430437 
L 561.835232 236.430437 
L 563.991259 235.344157 
L 566.147286 231.058699 
L 568.303313 224.228628 
L 570.45934 215.616042 
L 576.927421 186.704176 
L 579.083448 178.582512 
L 581.239474 172.488824 
L 583.395501 169.185211 
L 585.551528 168.206858 
L 589.863582 166.625294 
L 594.175636 165.380447 
L 598.48769 164.505361 
L 602.799743 164.033078 
L 604.95577 163.958314 
L 607.111797 164.457027 
L 609.267824 166.206614 
L 611.423851 168.920727 
L 613.579878 172.293168 
L 620.047959 183.298468 
L 622.203986 186.24223 
L 624.360012 188.313326 
L 626.516039 189.205556 
L 628.672066 188.926956 
L 630.828093 187.960396 
L 632.98412 186.477565 
L 635.140147 184.644111 
L 641.608228 178.696498 
L 643.764255 177.117038 
L 645.920281 176.015199 
L 648.076308 175.556629 
L 650.232335 175.795315 
L 652.388362 176.557562 
L 654.544389 177.71448 
L 656.700416 179.138066 
L 663.168497 183.728829 
L 665.324524 184.93908 
L 667.48055 185.775995 
L 669.636577 186.111571 
L 671.792604 186.038353 
L 673.948631 185.802335 
L 676.104658 185.419901 
L 678.260685 184.906418 
L 682.572739 183.547772 
L 686.884793 181.849326 
L 691.196846 179.93401 
L 693.352873 178.761695 
L 695.5089 177.224796 
L 697.664927 175.355414 
L 699.820954 173.185855 
L 701.976981 170.748427 
L 704.133008 168.075439 
L 708.445062 162.15201 
L 712.757115 155.674028 
L 712.757115 155.674028 
" clip-path="url(#p20f2d4c892)" style="fill: none; stroke: #1a73e8; stroke-width: 2; stroke-linecap: square"/>
   </g>
   <g id="line2d_81">
    <path d="M 68.105072 236.430437 
L 561.835232 236.430437 
L 563.991259 235.436569 
L 566.147286 231.525066 
L 568.303313 225.312679 
L 570.45934 217.514708 
L 576.927421 191.760303 
L 579.083448 184.773007 
L 581.239474 179.776631 
L 583.395501 177.486476 
L 585.551528 177.669945 
L 587.707555 178.610231 
L 589.863582 180.085822 
L 592.019609 181.928558 
L 598.48769 187.978057 
L 600.643717 189.607793 
L 602.799743 190.763882 
L 604.95577 191.278166 
L 607.111797 190.842695 
L 609.267824 189.279539 
L 611.423851 186.854635 
L 613.579878 183.841552 
L 620.047959 174.008948 
L 622.203986 171.378865 
L 624.360012 169.52846 
L 626.516039 168.731304 
L 628.672066 168.956414 
L 630.828093 169.743122 
L 632.98412 170.954241 
L 635.140147 172.45859 
L 641.608228 177.419209 
L 643.764255 178.784673 
L 645.920281 179.787465 
L 648.076308 180.296405 
L 656.700416 180.820463 
L 665.324524 181.10398 
L 671.792604 181.103087 
L 676.104658 180.758203 
L 680.416712 180.089625 
L 684.728766 179.13254 
L 689.040819 177.922134 
L 691.196846 177.232932 
L 693.352873 176.098726 
L 695.5089 174.126695 
L 697.664927 171.402321 
L 699.820954 168.011573 
L 701.976981 164.040418 
L 704.133008 159.574823 
L 706.289035 154.700758 
L 710.601088 144.071082 
L 712.757115 138.487408 
L 712.757115 138.487408 
" clip-path="url(#p20f2d4c892)" style="fill: none; stroke: #3fb950; stroke-width: 2; stroke-linecap: square"/>
   </g>
   <g id="line2d_82">
    <path d="M 68.105072 236.430437 
L 561.835232 236.430437 
L 563.991259 236.301409 
L 566.147286 235.7936 
L 568.303313 234.987079 
L 572.615367 232.849359 
L 576.927421 230.631157 
L 579.083448 229.724034 
L 581.239474 229.075382 
L 583.395501 228.778064 
L 585.551528 228.852272 
L 587.707555 229.161022 
L 589.863582 229.645544 
L 594.175636 230.921039 
L 598.48769 232.237025 
L 600.643717 232.772162 
L 602.799743 233.151773 
L 604.95577 233.320643 
L 609.267824 233.158447 
L 613.579878 232.709439 
L 622.203986 231.68041 
L 626.516039 231.461804 
L 630.828093 231.65151 
L 635.140147 232.153977 
L 643.764255 233.294443 
L 648.076308 233.530868 
L 654.544389 233.411645 
L 667.48055 232.800335 
L 693.352873 231.806799 
L 712.757115 231.253745 
L 712.757115 231.253745 
" clip-path="url(#p20f2d4c892)" style="fill: none; stroke: #f78166; stroke-width: 2; stroke-linecap: square"/>
   </g>
   <g id="line2d_83">
    <path d="M 68.105072 236.430437 
L 561.835232 236.430437 
L 563.991259 234.170694 
L 566.147286 225.277172 
L 568.303313 211.152165 
L 570.45934 193.422042 
L 576.927421 134.864659 
L 579.083448 118.977753 
L 581.239474 107.617572 
L 583.395501 102.410483 
L 585.551528 102.487541 
L 587.707555 103.367299 
L 589.863582 104.751986 
L 592.019609 106.48792 
L 598.48769 112.266394 
L 600.643717 113.870504 
L 602.799743 115.057454 
L 604.95577 115.673563 
L 611.423851 116.09996 
L 620.047959 116.44986 
L 628.672066 116.53823 
L 648.076308 116.53823 
L 650.232335 116.781016 
L 652.388362 117.543263 
L 654.544389 118.70018 
L 656.700416 120.123767 
L 663.168497 124.71453 
L 665.324524 125.924781 
L 667.48055 126.761696 
L 669.636577 127.097272 
L 671.792604 126.976758 
L 673.948631 126.587723 
L 676.104658 125.950527 
L 678.260685 125.084753 
L 680.416712 124.009983 
L 682.572739 122.745803 
L 684.728766 121.311796 
L 689.040819 118.012633 
L 691.196846 116.186645 
L 693.352873 113.729119 
L 695.5089 110.104327 
L 697.664927 105.424055 
L 699.820954 99.800751 
L 701.976981 93.346863 
L 704.133008 86.174838 
L 706.289035 78.397122 
L 710.601088 61.474408 
L 712.757115 52.554305 
L 712.757115 52.554305 
" clip-path="url(#p20f2d4c892)" style="fill: none; stroke-dasharray: 9.25,4; stroke-dashoffset: 0; stroke: #e3b341; stroke-width: 2.5"/>
   </g>
   <g id="text_42">
    <!-- M1 -->
    <g style="fill: #1a73e8" transform="translate(293.681415 258.989031) scale(0.06 -0.06)">
     <use xlink:href="#DejaVuSans-Bold-30"/>
     <use xlink:href="#DejaVuSans-Bold-14" transform="translate(99.515625 0)"/>
    </g>
   </g>
   <g id="text_43">
    <!-- M2 -->
    <g style="fill: #3fb950" transform="translate(305.127936 258.989031) scale(0.06 -0.06)">
     <use xlink:href="#DejaVuSans-Bold-30"/>
     <use xlink:href="#DejaVuSans-Bold-15" transform="translate(99.515625 0)"/>
    </g>
   </g>
   <g id="text_44">
    <!-- M2 -->
    <g style="fill: #3fb950" transform="translate(535.777091 258.989031) scale(0.06 -0.06)">
     <use xlink:href="#DejaVuSans-Bold-30"/>
     <use xlink:href="#DejaVuSans-Bold-15" transform="translate(99.515625 0)"/>
    </g>
   </g>
   <g id="text_45">
    <!-- M1 -->
    <g style="fill: #1a73e8" transform="translate(578.753894 258.989031) scale(0.06 -0.06)">
     <use xlink:href="#DejaVuSans-Bold-30"/>
     <use xlink:href="#DejaVuSans-Bold-14" transform="translate(99.515625 0)"/>
    </g>
   </g>
   <g id="text_46">
    <!-- M2 -->
    <g style="fill: #3fb950" transform="translate(643.219099 258.989031) scale(0.06 -0.06)">
     <use xlink:href="#DejaVuSans-Bold-30"/>
     <use xlink:href="#DejaVuSans-Bold-15" transform="translate(99.515625 0)"/>
    </g>
   </g>
   <g id="text_47">
    <!-- M1 -->
    <g style="fill: #1a73e8" transform="translate(680.472641 258.989031) scale(0.06 -0.06)">
     <use xlink:href="#DejaVuSans-Bold-30"/>
     <use xlink:href="#DejaVuSans-Bold-14" transform="translate(99.515625 0)"/>
    </g>
   </g>
   <g id="text_48">
    <!-- M2 -->
    <g style="fill: #3fb950" transform="translate(691.919162 258.989031) scale(0.06 -0.06)">
     <use xlink:href="#DejaVuSans-Bold-30"/>
     <use xlink:href="#DejaVuSans-Bold-15" transform="translate(99.515625 0)"/>
    </g>
   </g>
   <g id="text_49">
    <!-- Marcin Grygiel aka FirstEver — GitHub Downloads / day -->
    <g style="fill: #58a6ff" transform="translate(234.400625 29.198438) scale(0.1 -0.1)">
     <defs>
      <path id="DejaVuSans-Bold-55" d="M 3138 2547 
Q 2991 2616 2845 2648 
Q 2700 2681 2553 2681 
Q 2122 2681 1889 2404 
Q 1656 2128 1656 1613 
L 1656 0 
L 538 0 
L 538 3500 
L 1656 3500 
L 1656 2925 
Q 1872 3269 2151 3426 
Q 2431 3584 2822 3584 
Q 2878 3584 2943 3579 
Q 3009 3575 3134 3559 
L 3138 2547 
z
" transform="scale(0.015625)"/>
      <path id="DejaVuSans-Bold-46" d="M 3366 3391 
L 3366 2478 
Q 3138 2634 2908 2709 
Q 2678 2784 2431 2784 
Q 1963 2784 1702 2511 
Q 1441 2238 1441 1747 
Q 1441 1256 1702 982 
Q 1963 709 2431 709 
Q 2694 709 2930 787 
Q 3166 866 3366 1019 
L 3366 103 
Q 3103 6 2833 -42 
Q 2563 -91 2291 -91 
Q 1344 -91 809 395 
Q 275 881 275 1747 
Q 275 2613 809 3098 
Q 1344 3584 2291 3584 
Q 2566 3584 2833 3536 
Q 3100 3488 3366 3391 
z
" transform="scale(0.015625)"/>
      <path id="DejaVuSans-Bold-4c" d="M 538 3500 
L 1656 3500 
L 1656 0 
L 538 0 
L 538 3500 
z
M 538 4863 
L 1656 4863 
L 1656 3950 
L 538 3950 
L 538 4863 
z
" transform="scale(0.015625)"/>
      <path id="DejaVuSans-Bold-2a" d="M 4781 347 
Q 4331 128 3847 18 
Q 3363 -91 2847 -91 
Q 1681 -91 1000 561 
Q 319 1213 319 2328 
Q 319 3456 1012 4103 
Q 1706 4750 2913 4750 
Q 3378 4750 3804 4662 
Q 4231 4575 4609 4403 
L 4609 3438 
Q 4219 3659 3833 3768 
Q 3447 3878 3059 3878 
Q 2341 3878 1952 3476 
Q 1563 3075 1563 2328 
Q 1563 1588 1938 1184 
Q 2313 781 3003 781 
Q 3191 781 3352 804 
Q 3513 828 3641 878 
L 3641 1784 
L 2906 1784 
L 2906 2591 
L 4781 2591 
L 4781 347 
z
" transform="scale(0.015625)"/>
      <path id="DejaVuSans-Bold-4a" d="M 2919 594 
Q 2688 288 2409 144 
Q 2131 0 1766 0 
Q 1125 0 706 504 
Q 288 1009 288 1791 
Q 288 2575 706 3076 
Q 1125 3578 1766 3578 
Q 2131 3578 2409 3434 
Q 2688 3291 2919 2981 
L 2919 3500 
L 4044 3500 
L 4044 353 
Q 4044 -491 3511 -936 
Q 2978 -1381 1966 -1381 
Q 1638 -1381 1331 -1331 
Q 1025 -1281 716 -1178 
L 716 -306 
Q 1009 -475 1290 -558 
Q 1572 -641 1856 -641 
Q 2406 -641 2662 -400 
Q 2919 -159 2919 353 
L 2919 594 
z
M 2181 2772 
Q 1834 2772 1640 2515 
Q 1447 2259 1447 1791 
Q 1447 1309 1634 1061 
Q 1822 813 2181 813 
Q 2531 813 2725 1069 
Q 2919 1325 2919 1791 
Q 2919 2259 2725 2515 
Q 2531 2772 2181 2772 
z
" transform="scale(0.015625)"/>
      <path id="DejaVuSans-Bold-48" d="M 4031 1759 
L 4031 1441 
L 1416 1441 
Q 1456 1047 1700 850 
Q 1944 653 2381 653 
Q 2734 653 3104 758 
Q 3475 863 3866 1075 
L 3866 213 
Q 3469 63 3072 -14 
Q 2675 -91 2278 -91 
Q 1328 -91 801 392 
Q 275 875 275 1747 
Q 275 2603 792 3093 
Q 1309 3584 2216 3584 
Q 3041 3584 3536 3087 
Q 4031 2591 4031 1759 
z
M 2881 2131 
Q 2881 2450 2695 2645 
Q 2509 2841 2209 2841 
Q 1884 2841 1681 2658 
Q 1478 2475 1428 2131 
L 2881 2131 
z
" transform="scale(0.015625)"/>
      <path id="DejaVuSans-Bold-4e" d="M 538 4863 
L 1656 4863 
L 1656 2216 
L 2944 3500 
L 4244 3500 
L 2534 1894 
L 4378 0 
L 3022 0 
L 1656 1459 
L 1656 0 
L 538 0 
L 538 4863 
z
" transform="scale(0.015625)"/>
      <path id="DejaVuSans-Bold-29" d="M 588 4666 
L 3834 4666 
L 3834 3756 
L 1791 3756 
L 1791 2888 
L 3713 2888 
L 3713 1978 
L 1791 1978 
L 1791 0 
L 588 0 
L 588 4666 
z
" transform="scale(0.015625)"/>
      <path id="DejaVuSans-Bold-28" d="M 588 4666 
L 3834 4666 
L 3834 3756 
L 1791 3756 
L 1791 2888 
L 3713 2888 
L 3713 1978 
L 1791 1978 
L 1791 909 
L 3903 909 
L 3903 0 
L 588 0 
L 588 4666 
z
" transform="scale(0.015625)"/>
      <path id="DejaVuSans-Bold-59" d="M 97 3500 
L 1216 3500 
L 2088 1081 
L 2956 3500 
L 4078 3500 
L 2700 0 
L 1472 0 
L 97 3500 
z
" transform="scale(0.015625)"/>
      <path id="DejaVuSans-Bold-af6" d="M 344 2156 
L 6056 2156 
L 6056 1350 
L 344 1350 
L 344 2156 
z
" transform="scale(0.015625)"/>
      <path id="DejaVuSans-Bold-2b" d="M 588 4666 
L 1791 4666 
L 1791 2888 
L 3566 2888 
L 3566 4666 
L 4769 4666 
L 4769 0 
L 3566 0 
L 3566 1978 
L 1791 1978 
L 1791 0 
L 588 0 
L 588 4666 
z
" transform="scale(0.015625)"/>
      <path id="DejaVuSans-Bold-58" d="M 500 1363 
L 500 3500 
L 1625 3500 
L 1625 3150 
Q 1625 2866 1622 2436 
Q 1619 2006 1619 1863 
Q 1619 1441 1641 1255 
Q 1663 1069 1716 984 
Q 1784 875 1895 815 
Q 2006 756 2150 756 
Q 2500 756 2700 1025 
Q 2900 1294 2900 1772 
L 2900 3500 
L 4019 3500 
L 4019 0 
L 2900 0 
L 2900 506 
Q 2647 200 2364 54 
Q 2081 -91 1741 -91 
Q 1134 -91 817 281 
Q 500 653 500 1363 
z
" transform="scale(0.015625)"/>
      <path id="DejaVuSans-Bold-45" d="M 2400 722 
Q 2759 722 2948 984 
Q 3138 1247 3138 1747 
Q 3138 2247 2948 2509 
Q 2759 2772 2400 2772 
Q 2041 2772 1848 2508 
Q 1656 2244 1656 1747 
Q 1656 1250 1848 986 
Q 2041 722 2400 722 
z
M 1656 2988 
Q 1888 3294 2169 3439 
Q 2450 3584 2816 3584 
Q 3463 3584 3878 3070 
Q 4294 2556 4294 1747 
Q 4294 938 3878 423 
Q 3463 -91 2816 -91 
Q 2450 -91 2169 54 
Q 1888 200 1656 506 
L 1656 0 
L 538 0 
L 538 4863 
L 1656 4863 
L 1656 2988 
z
" transform="scale(0.015625)"/>
     </defs>
     <use xlink:href="#DejaVuSans-Bold-30"/>
     <use xlink:href="#DejaVuSans-Bold-44" transform="translate(99.515625 0)"/>
     <use xlink:href="#DejaVuSans-Bold-55" transform="translate(167 0)"/>
     <use xlink:href="#DejaVuSans-Bold-46" transform="translate(216.3125 0)"/>
     <use xlink:href="#DejaVuSans-Bold-4c" transform="translate(275.59375 0)"/>
     <use xlink:href="#DejaVuSans-Bold-51" transform="translate(309.875 0)"/>
     <use xlink:href="#DejaVuSans-Bold-3" transform="translate(381.0625 0)"/>
     <use xlink:href="#DejaVuSans-Bold-2a" transform="translate(415.875 0)"/>
     <use xlink:href="#DejaVuSans-Bold-55" transform="translate(497.953125 0)"/>
     <use xlink:href="#DejaVuSans-Bold-5c" transform="translate(547.265625 0)"/>
     <use xlink:href="#DejaVuSans-Bold-4a" transform="translate(612.453125 0)"/>
     <use xlink:href="#DejaVuSans-Bold-4c" transform="translate(684.03125 0)"/>
     <use xlink:href="#DejaVuSans-Bold-48" transform="translate(718.3125 0)"/>
     <use xlink:href="#DejaVuSans-Bold-4f" transform="translate(786.140625 0)"/>
     <use xlink:href="#DejaVuSans-Bold-3" transform="translate(820.421875 0)"/>
     <use xlink:href="#DejaVuSans-Bold-44" transform="translate(855.234375 0)"/>
     <use xlink:href="#DejaVuSans-Bold-4e" transform="translate(922.71875 0)"/>
     <use xlink:href="#DejaVuSans-Bold-44" transform="translate(989.21875 0)"/>
     <use xlink:href="#DejaVuSans-Bold-3" transform="translate(1056.703125 0)"/>
     <use xlink:href="#DejaVuSans-Bold-29" transform="translate(1091.515625 0)"/>
     <use xlink:href="#DejaVuSans-Bold-4c" transform="translate(1159.828125 0)"/>
     <use xlink:href="#DejaVuSans-Bold-55" transform="translate(1194.109375 0)"/>
     <use xlink:href="#DejaVuSans-Bold-56" transform="translate(1243.421875 0)"/>
     <use xlink:href="#DejaVuSans-Bold-57" transform="translate(1302.9375 0)"/>
     <use xlink:href="#DejaVuSans-Bold-28" transform="translate(1350.734375 0)"/>
     <use xlink:href="#DejaVuSans-Bold-59" transform="translate(1419.046875 0)"/>
     <use xlink:href="#DejaVuSans-Bold-48" transform="translate(1484.234375 0)"/>
     <use xlink:href="#DejaVuSans-Bold-55" transform="translate(1552.0625 0)"/>
     <use xlink:href="#DejaVuSans-Bold-3" transform="translate(1601.375 0)"/>
     <use xlink:href="#DejaVuSans-Bold-af6" transform="translate(1636.1875 0)"/>
     <use xlink:href="#DejaVuSans-Bold-3" transform="translate(1736.1875 0)"/>
     <use xlink:href="#DejaVuSans-Bold-2a" transform="translate(1771 0)"/>
     <use xlink:href="#DejaVuSans-Bold-4c" transform="translate(1853.078125 0)"/>
     <use xlink:href="#DejaVuSans-Bold-57" transform="translate(1887.359375 0)"/>
     <use xlink:href="#DejaVuSans-Bold-2b" transform="translate(1935.15625 0)"/>
     <use xlink:href="#DejaVuSans-Bold-58" transform="translate(2018.84375 0)"/>
     <use xlink:href="#DejaVuSans-Bold-45" transform="translate(2090.03125 0)"/>
     <use xlink:href="#DejaVuSans-Bold-3" transform="translate(2161.609375 0)"/>
     <use xlink:href="#DejaVuSans-Bold-27" transform="translate(2196.421875 0)"/>
     <use xlink:href="#DejaVuSans-Bold-52" transform="translate(2279.4375 0)"/>
     <use xlink:href="#DejaVuSans-Bold-5a" transform="translate(2348.140625 0)"/>
     <use xlink:href="#DejaVuSans-Bold-51" transform="translate(2440.53125 0)"/>
     <use xlink:href="#DejaVuSans-Bold-4f" transform="translate(2511.71875 0)"/>
     <use xlink:href="#DejaVuSans-Bold-52" transform="translate(2546 0)"/>
     <use xlink:href="#DejaVuSans-Bold-44" transform="translate(2614.703125 0)"/>
     <use xlink:href="#DejaVuSans-Bold-47" transform="translate(2682.1875 0)"/>
     <use xlink:href="#DejaVuSans-Bold-56" transform="translate(2753.765625 0)"/>
     <use xlink:href="#DejaVuSans-Bold-3" transform="translate(2813.28125 0)"/>
     <use xlink:href="#DejaVuSans-Bold-12" transform="translate(2848.09375 0)"/>
     <use xlink:href="#DejaVuSans-Bold-3" transform="translate(2884.625 0)"/>
     <use xlink:href="#DejaVuSans-Bold-47" transform="translate(2919.4375 0)"/>
     <use xlink:href="#DejaVuSans-Bold-44" transform="translate(2991.015625 0)"/>
     <use xlink:href="#DejaVuSans-Bold-5c" transform="translate(3055.421875 0)"/>
    </g>
   </g>
   <g id="PathCollection_1">
    <defs>
     <path id="mc8ea7349e5" d="M 0 2.12132 
C 0.562581 2.12132 1.102195 1.897805 1.5 1.5 
C 1.897805 1.102195 2.12132 0.562581 2.12132 0 
C 2.12132 -0.562581 1.897805 -1.102195 1.5 -1.5 
C 1.102195 -1.897805 0.562581 -2.12132 0 -2.12132 
C -0.562581 -2.12132 -1.102195 -1.897805 -1.5 -1.5 
C -1.897805 -1.102195 -2.12132 -0.562581 -2.12132 0 
C -2.12132 0.562581 -1.897805 1.102195 -1.5 1.5 
C -1.102195 1.897805 -0.562581 2.12132 0 2.12132 
z
"/>
    </defs>
    <g clip-path="url(#p20f2d4c892)">
     <use xlink:href="#mc8ea7349e5" x="68.105072" y="236.430437" style="fill: #1a73e8"/>
     <use xlink:href="#mc8ea7349e5" x="89.593474" y="236.430437" style="fill: #1a73e8"/>
     <use xlink:href="#mc8ea7349e5" x="111.081875" y="236.430437" style="fill: #1a73e8"/>
     <use xlink:href="#mc8ea7349e5" x="132.570276" y="236.430437" style="fill: #1a73e8"/>
     <use xlink:href="#mc8ea7349e5" x="154.058678" y="236.430437" style="fill: #1a73e8"/>
     <use xlink:href="#mc8ea7349e5" x="175.547079" y="236.430437" style="fill: #1a73e8"/>
     <use xlink:href="#mc8ea7349e5" x="197.035481" y="236.430437" style="fill: #1a73e8"/>
     <use xlink:href="#mc8ea7349e5" x="218.523882" y="236.430437" style="fill: #1a73e8"/>
     <use xlink:href="#mc8ea7349e5" x="240.012284" y="236.430437" style="fill: #1a73e8"/>
     <use xlink:href="#mc8ea7349e5" x="261.500685" y="236.430437" style="fill: #1a73e8"/>
     <use xlink:href="#mc8ea7349e5" x="282.989087" y="236.430437" style="fill: #1a73e8"/>
     <use xlink:href="#mc8ea7349e5" x="304.477488" y="236.430437" style="fill: #1a73e8"/>
     <use xlink:href="#mc8ea7349e5" x="325.965889" y="236.430437" style="fill: #1a73e8"/>
     <use xlink:href="#mc8ea7349e5" x="347.454291" y="236.430437" style="fill: #1a73e8"/>
     <use xlink:href="#mc8ea7349e5" x="368.942692" y="236.430437" style="fill: #1a73e8"/>
     <use xlink:href="#mc8ea7349e5" x="390.431094" y="236.430437" style="fill: #1a73e8"/>
     <use xlink:href="#mc8ea7349e5" x="411.919495" y="236.430437" style="fill: #1a73e8"/>
     <use xlink:href="#mc8ea7349e5" x="433.407897" y="236.430437" style="fill: #1a73e8"/>
     <use xlink:href="#mc8ea7349e5" x="454.896298" y="236.430437" style="fill: #1a73e8"/>
     <use xlink:href="#mc8ea7349e5" x="476.3847" y="236.430437" style="fill: #1a73e8"/>
     <use xlink:href="#mc8ea7349e5" x="497.873101" y="236.430437" style="fill: #1a73e8"/>
     <use xlink:href="#mc8ea7349e5" x="519.361502" y="236.430437" style="fill: #1a73e8"/>
     <use xlink:href="#mc8ea7349e5" x="540.849904" y="236.430437" style="fill: #1a73e8"/>
     <use xlink:href="#mc8ea7349e5" x="562.338305" y="236.430437" style="fill: #1a73e8"/>
     <use xlink:href="#mc8ea7349e5" x="583.826707" y="168.926362" style="fill: #1a73e8"/>
     <use xlink:href="#mc8ea7349e5" x="605.315108" y="163.956737" style="fill: #1a73e8"/>
     <use xlink:href="#mc8ea7349e5" x="626.80351" y="189.218998" style="fill: #1a73e8"/>
     <use xlink:href="#mc8ea7349e5" x="648.291911" y="175.552529" style="fill: #1a73e8"/>
     <use xlink:href="#mc8ea7349e5" x="669.780312" y="186.112982" style="fill: #1a73e8"/>
     <use xlink:href="#mc8ea7349e5" x="691.268714" y="179.900951" style="fill: #1a73e8"/>
     <use xlink:href="#mc8ea7349e5" x="712.757115" y="155.674028" style="fill: #1a73e8"/>
    </g>
   </g>
   <g id="PathCollection_2">
    <defs>
     <path id="m54ffdf085b" d="M 0 2.12132 
C 0.562581 2.12132 1.102195 1.897805 1.5 1.5 
C 1.897805 1.102195 2.12132 0.562581 2.12132 0 
C 2.12132 -0.562581 1.897805 -1.102195 1.5 -1.5 
C 1.102195 -1.897805 0.562581 -2.12132 0 -2.12132 
C -0.562581 -2.12132 -1.102195 -1.897805 -1.5 -1.5 
C -1.897805 -1.102195 -2.12132 -0.562581 -2.12132 0 
C -2.12132 0.562581 -1.897805 1.102195 -1.5 1.5 
C -1.102195 1.897805 -0.562581 2.12132 0 2.12132 
z
"/>
    </defs>
    <g clip-path="url(#p20f2d4c892)">
     <use xlink:href="#m54ffdf085b" x="68.105072" y="236.430437" style="fill: #3fb950"/>
     <use xlink:href="#m54ffdf085b" x="89.593474" y="236.430437" style="fill: #3fb950"/>
     <use xlink:href="#m54ffdf085b" x="111.081875" y="236.430437" style="fill: #3fb950"/>
     <use xlink:href="#m54ffdf085b" x="132.570276" y="236.430437" style="fill: #3fb950"/>
     <use xlink:href="#m54ffdf085b" x="154.058678" y="236.430437" style="fill: #3fb950"/>
     <use xlink:href="#m54ffdf085b" x="175.547079" y="236.430437" style="fill: #3fb950"/>
     <use xlink:href="#m54ffdf085b" x="197.035481" y="236.430437" style="fill: #3fb950"/>
     <use xlink:href="#m54ffdf085b" x="218.523882" y="236.430437" style="fill: #3fb950"/>
     <use xlink:href="#m54ffdf085b" x="240.012284" y="236.430437" style="fill: #3fb950"/>
     <use xlink:href="#m54ffdf085b" x="261.500685" y="236.430437" style="fill: #3fb950"/>
     <use xlink:href="#m54ffdf085b" x="282.989087" y="236.430437" style="fill: #3fb950"/>
     <use xlink:href="#m54ffdf085b" x="304.477488" y="236.430437" style="fill: #3fb950"/>
     <use xlink:href="#m54ffdf085b" x="325.965889" y="236.430437" style="fill: #3fb950"/>
     <use xlink:href="#m54ffdf085b" x="347.454291" y="236.430437" style="fill: #3fb950"/>
     <use xlink:href="#m54ffdf085b" x="368.942692" y="236.430437" style="fill: #3fb950"/>
     <use xlink:href="#m54ffdf085b" x="390.431094" y="236.430437" style="fill: #3fb950"/>
     <use xlink:href="#m54ffdf085b" x="411.919495" y="236.430437" style="fill: #3fb950"/>
     <use xlink:href="#m54ffdf085b" x="433.407897" y="236.430437" style="fill: #3fb950"/>
     <use xlink:href="#m54ffdf085b" x="454.896298" y="236.430437" style="fill: #3fb950"/>
     <use xlink:href="#m54ffdf085b" x="476.3847" y="236.430437" style="fill: #3fb950"/>
     <use xlink:href="#m54ffdf085b" x="497.873101" y="236.430437" style="fill: #3fb950"/>
     <use xlink:href="#m54ffdf085b" x="519.361502" y="236.430437" style="fill: #3fb950"/>
     <use xlink:href="#m54ffdf085b" x="540.849904" y="236.430437" style="fill: #3fb950"/>
     <use xlink:href="#m54ffdf085b" x="562.338305" y="236.430437" style="fill: #3fb950"/>
     <use xlink:href="#m54ffdf085b" x="583.826707" y="177.416138" style="fill: #3fb950"/>
     <use xlink:href="#m54ffdf085b" x="605.315108" y="191.289675" style="fill: #3fb950"/>
     <use xlink:href="#m54ffdf085b" x="626.80351" y="168.719294" style="fill: #3fb950"/>
     <use xlink:href="#m54ffdf085b" x="648.291911" y="180.315086" style="fill: #3fb950"/>
     <use xlink:href="#m54ffdf085b" x="669.780312" y="181.143357" style="fill: #3fb950"/>
     <use xlink:href="#m54ffdf085b" x="691.268714" y="177.209071" style="fill: #3fb950"/>
     <use xlink:href="#m54ffdf085b" x="712.757115" y="138.487408" style="fill: #3fb950"/>
    </g>
   </g>
   <g id="PathCollection_3">
    <defs>
     <path id="m00a6f2bb49" d="M 0 2.12132 
C 0.562581 2.12132 1.102195 1.897805 1.5 1.5 
C 1.897805 1.102195 2.12132 0.562581 2.12132 0 
C 2.12132 -0.562581 1.897805 -1.102195 1.5 -1.5 
C 1.102195 -1.897805 0.562581 -2.12132 0 -2.12132 
C -0.562581 -2.12132 -1.102195 -1.897805 -1.5 -1.5 
C -1.897805 -1.102195 -2.12132 -0.562581 -2.12132 0 
C -2.12132 0.562581 -1.897805 1.102195 -1.5 1.5 
C -1.102195 1.897805 -0.562581 2.12132 0 2.12132 
z
"/>
    </defs>
    <g clip-path="url(#p20f2d4c892)">
     <use xlink:href="#m00a6f2bb49" x="68.105072" y="236.430437" style="fill: #f78166"/>
     <use xlink:href="#m00a6f2bb49" x="89.593474" y="236.430437" style="fill: #f78166"/>
     <use xlink:href="#m00a6f2bb49" x="111.081875" y="236.430437" style="fill: #f78166"/>
     <use xlink:href="#m00a6f2bb49" x="132.570276" y="236.430437" style="fill: #f78166"/>
     <use xlink:href="#m00a6f2bb49" x="154.058678" y="236.430437" style="fill: #f78166"/>
     <use xlink:href="#m00a6f2bb49" x="175.547079" y="236.430437" style="fill: #f78166"/>
     <use xlink:href="#m00a6f2bb49" x="197.035481" y="236.430437" style="fill: #f78166"/>
     <use xlink:href="#m00a6f2bb49" x="218.523882" y="236.430437" style="fill: #f78166"/>
     <use xlink:href="#m00a6f2bb49" x="240.012284" y="236.430437" style="fill: #f78166"/>
     <use xlink:href="#m00a6f2bb49" x="261.500685" y="236.430437" style="fill: #f78166"/>
     <use xlink:href="#m00a6f2bb49" x="282.989087" y="236.430437" style="fill: #f78166"/>
     <use xlink:href="#m00a6f2bb49" x="304.477488" y="236.430437" style="fill: #f78166"/>
     <use xlink:href="#m00a6f2bb49" x="325.965889" y="236.430437" style="fill: #f78166"/>
     <use xlink:href="#m00a6f2bb49" x="347.454291" y="236.430437" style="fill: #f78166"/>
     <use xlink:href="#m00a6f2bb49" x="368.942692" y="236.430437" style="fill: #f78166"/>
     <use xlink:href="#m00a6f2bb49" x="390.431094" y="236.430437" style="fill: #f78166"/>
     <use xlink:href="#m00a6f2bb49" x="411.919495" y="236.430437" style="fill: #f78166"/>
     <use xlink:href="#m00a6f2bb49" x="433.407897" y="236.430437" style="fill: #f78166"/>
     <use xlink:href="#m00a6f2bb49" x="454.896298" y="236.430437" style="fill: #f78166"/>
     <use xlink:href="#m00a6f2bb49" x="476.3847" y="236.430437" style="fill: #f78166"/>
     <use xlink:href="#m00a6f2bb49" x="497.873101" y="236.430437" style="fill: #f78166"/>
     <use xlink:href="#m00a6f2bb49" x="519.361502" y="236.430437" style="fill: #f78166"/>
     <use xlink:href="#m00a6f2bb49" x="540.849904" y="236.430437" style="fill: #f78166"/>
     <use xlink:href="#m00a6f2bb49" x="562.338305" y="236.430437" style="fill: #f78166"/>
     <use xlink:href="#m00a6f2bb49" x="583.826707" y="228.768932" style="fill: #f78166"/>
     <use xlink:href="#m00a6f2bb49" x="605.315108" y="233.324422" style="fill: #f78166"/>
     <use xlink:href="#m00a6f2bb49" x="626.80351" y="231.460812" style="fill: #f78166"/>
     <use xlink:href="#m00a6f2bb49" x="648.291911" y="233.531489" style="fill: #f78166"/>
     <use xlink:href="#m00a6f2bb49" x="669.780312" y="232.703219" style="fill: #f78166"/>
     <use xlink:href="#m00a6f2bb49" x="691.268714" y="231.874948" style="fill: #f78166"/>
     <use xlink:href="#m00a6f2bb49" x="712.757115" y="231.253745" style="fill: #f78166"/>
    </g>
   </g>
   <g id="PathCollection_4">
    <defs>
     <path id="mfb09460b01" d="M -0 3.316625 
L 3.316625 0 
L 0 -3.316625 
L -3.316625 -0 
z
"/>
    </defs>
    <g clip-path="url(#p20f2d4c892)">
     <use xlink:href="#mfb09460b01" x="68.105072" y="236.430437" style="fill: #e3b341"/>
     <use xlink:href="#mfb09460b01" x="89.593474" y="236.430437" style="fill: #e3b341"/>
     <use xlink:href="#mfb09460b01" x="111.081875" y="236.430437" style="fill: #e3b341"/>
     <use xlink:href="#mfb09460b01" x="132.570276" y="236.430437" style="fill: #e3b341"/>
     <use xlink:href="#mfb09460b01" x="154.058678" y="236.430437" style="fill: #e3b341"/>
     <use xlink:href="#mfb09460b01" x="175.547079" y="236.430437" style="fill: #e3b341"/>
     <use xlink:href="#mfb09460b01" x="197.035481" y="236.430437" style="fill: #e3b341"/>
     <use xlink:href="#mfb09460b01" x="218.523882" y="236.430437" style="fill: #e3b341"/>
     <use xlink:href="#mfb09460b01" x="240.012284" y="236.430437" style="fill: #e3b341"/>
     <use xlink:href="#mfb09460b01" x="261.500685" y="236.430437" style="fill: #e3b341"/>
     <use xlink:href="#mfb09460b01" x="282.989087" y="236.430437" style="fill: #e3b341"/>
     <use xlink:href="#mfb09460b01" x="304.477488" y="236.430437" style="fill: #e3b341"/>
     <use xlink:href="#mfb09460b01" x="325.965889" y="236.430437" style="fill: #e3b341"/>
     <use xlink:href="#mfb09460b01" x="347.454291" y="236.430437" style="fill: #e3b341"/>
     <use xlink:href="#mfb09460b01" x="368.942692" y="236.430437" style="fill: #e3b341"/>
     <use xlink:href="#mfb09460b01" x="390.431094" y="236.430437" style="fill: #e3b341"/>
     <use xlink:href="#mfb09460b01" x="411.919495" y="236.430437" style="fill: #e3b341"/>
     <use xlink:href="#mfb09460b01" x="433.407897" y="236.430437" style="fill: #e3b341"/>
     <use xlink:href="#mfb09460b01" x="454.896298" y="236.430437" style="fill: #e3b341"/>
     <use xlink:href="#mfb09460b01" x="476.3847" y="236.430437" style="fill: #e3b341"/>
     <use xlink:href="#mfb09460b01" x="497.873101" y="236.430437" style="fill: #e3b341"/>
     <use xlink:href="#mfb09460b01" x="519.361502" y="236.430437" style="fill: #e3b341"/>
     <use xlink:href="#mfb09460b01" x="540.849904" y="236.430437" style="fill: #e3b341"/>
     <use xlink:href="#mfb09460b01" x="562.338305" y="236.430437" style="fill: #e3b341"/>
     <use xlink:href="#mfb09460b01" x="583.826707" y="102.250557" style="fill: #e3b341"/>
     <use xlink:href="#mfb09460b01" x="605.315108" y="115.709959" style="fill: #e3b341"/>
     <use xlink:href="#mfb09460b01" x="626.80351" y="116.53823" style="fill: #e3b341"/>
     <use xlink:href="#mfb09460b01" x="648.291911" y="116.53823" style="fill: #e3b341"/>
     <use xlink:href="#mfb09460b01" x="669.780312" y="127.098683" style="fill: #e3b341"/>
     <use xlink:href="#mfb09460b01" x="691.268714" y="116.124094" style="fill: #e3b341"/>
     <use xlink:href="#mfb09460b01" x="712.757115" y="52.554305" style="fill: #e3b341"/>
    </g>
   </g>
   <g id="legend_1">
    <g id="patch_7">
     <path d="M 60.112031 55.298984 
L 315.271875 55.298984 
Q 316.671875 55.298984 316.671875 53.898984 
L 316.671875 44.098437 
Q 316.671875 42.698437 315.271875 42.698437 
L 60.112031 42.698437 
Q 58.712031 42.698437 58.712031 44.098437 
L 58.712031 53.898984 
Q 58.712031 55.298984 60.112031 55.298984 
L 60.112031 55.298984 
z
" style="fill: none; opacity: 0"/>
    </g>
    <g id="line2d_84">
     <path d="M 61.512031 48.367344 
L 68.512031 48.367344 
L 75.512031 48.367344 
" style="fill: none; stroke: #1a73e8; stroke-width: 2; stroke-linecap: square"/>
    </g>
    <g id="text_50">
     <!-- Rep1 -->
     <g style="fill: #1a73e8" transform="translate(81.112031 50.817344) scale(0.07 -0.07)">
      <defs>
       <path id="DejaVuSans-35" d="M 2841 2188 
Q 3044 2119 3236 1894 
Q 3428 1669 3622 1275 
L 4263 0 
L 3584 0 
L 2988 1197 
Q 2756 1666 2539 1819 
Q 2322 1972 1947 1972 
L 1259 1972 
L 1259 0 
L 628 0 
L 628 4666 
L 2053 4666 
Q 2853 4666 3247 4331 
Q 3641 3997 3641 3322 
Q 3641 2881 3436 2590 
Q 3231 2300 2841 2188 
z
M 1259 4147 
L 1259 2491 
L 2053 2491 
Q 2509 2491 2742 2702 
Q 2975 2913 2975 3322 
Q 2975 3731 2742 3939 
Q 2509 4147 2053 4147 
L 1259 4147 
z
" transform="scale(0.015625)"/>
       <path id="DejaVuSans-48" d="M 3597 1894 
L 3597 1613 
L 953 1613 
Q 991 1019 1311 708 
Q 1631 397 2203 397 
Q 2534 397 2845 478 
Q 3156 559 3463 722 
L 3463 178 
Q 3153 47 2828 -22 
Q 2503 -91 2169 -91 
Q 1331 -91 842 396 
Q 353 884 353 1716 
Q 353 2575 817 3079 
Q 1281 3584 2069 3584 
Q 2775 3584 3186 3129 
Q 3597 2675 3597 1894 
z
M 3022 2063 
Q 3016 2534 2758 2815 
Q 2500 3097 2075 3097 
Q 1594 3097 1305 2825 
Q 1016 2553 972 2059 
L 3022 2063 
z
" transform="scale(0.015625)"/>
       <path id="DejaVuSans-53" d="M 1159 525 
L 1159 -1331 
L 581 -1331 
L 581 3500 
L 1159 3500 
L 1159 2969 
Q 1341 3281 1617 3432 
Q 1894 3584 2278 3584 
Q 2916 3584 3314 3078 
Q 3713 2572 3713 1747 
Q 3713 922 3314 415 
Q 2916 -91 2278 -91 
Q 1894 -91 1617 61 
Q 1341 213 1159 525 
z
M 3116 1747 
Q 3116 2381 2855 2742 
Q 2594 3103 2138 3103 
Q 1681 3103 1420 2742 
Q 1159 2381 1159 1747 
Q 1159 1113 1420 752 
Q 1681 391 2138 391 
Q 2594 391 2855 752 
Q 3116 1113 3116 1747 
z
" transform="scale(0.015625)"/>
       <path id="DejaVuSans-14" d="M 794 531 
L 1825 531 
L 1825 4091 
L 703 3866 
L 703 4441 
L 1819 4666 
L 2450 4666 
L 2450 531 
L 3481 531 
L 3481 0 
L 794 0 
L 794 531 
z
" transform="scale(0.015625)"/>
      </defs>
      <use xlink:href="#DejaVuSans-35"/>
      <use xlink:href="#DejaVuSans-48" transform="translate(65 0)"/>
      <use xlink:href="#DejaVuSans-53" transform="translate(126.53125 0)"/>
      <use xlink:href="#DejaVuSans-14" transform="translate(190.015625 0)"/>
     </g>
    </g>
    <g id="line2d_85">
     <path d="M 112.866875 48.367344 
L 119.866875 48.367344 
L 126.866875 48.367344 
" style="fill: none; stroke: #3fb950; stroke-width: 2; stroke-linecap: square"/>
    </g>
    <g id="text_51">
     <!-- Rep2 -->
     <g style="fill: #3fb950" transform="translate(132.466875 50.817344) scale(0.07 -0.07)">
      <defs>
       <path id="DejaVuSans-15" d="M 1228 531 
L 3431 531 
L 3431 0 
L 469 0 
L 469 531 
Q 828 903 1448 1529 
Q 2069 2156 2228 2338 
Q 2531 2678 2651 2914 
Q 2772 3150 2772 3378 
Q 2772 3750 2511 3984 
Q 2250 4219 1831 4219 
Q 1534 4219 1204 4116 
Q 875 4013 500 3803 
L 500 4441 
Q 881 4594 1212 4672 
Q 1544 4750 1819 4750 
Q 2544 4750 2975 4387 
Q 3406 4025 3406 3419 
Q 3406 3131 3298 2873 
Q 3191 2616 2906 2266 
Q 2828 2175 2409 1742 
Q 1991 1309 1228 531 
z
" transform="scale(0.015625)"/>
      </defs>
      <use xlink:href="#DejaVuSans-35"/>
      <use xlink:href="#DejaVuSans-48" transform="translate(65 0)"/>
      <use xlink:href="#DejaVuSans-53" transform="translate(126.53125 0)"/>
      <use xlink:href="#DejaVuSans-15" transform="translate(190.015625 0)"/>
     </g>
    </g>
    <g id="line2d_86">
     <path d="M 164.221719 48.367344 
L 171.221719 48.367344 
L 178.221719 48.367344 
" style="fill: none; stroke: #f78166; stroke-width: 2; stroke-linecap: square"/>
    </g>
    <g id="text_52">
     <!-- Rep3 -->
     <g style="fill: #f78166" transform="translate(183.821719 50.817344) scale(0.07 -0.07)">
      <defs>
       <path id="DejaVuSans-16" d="M 2597 2516 
Q 3050 2419 3304 2112 
Q 3559 1806 3559 1356 
Q 3559 666 3084 287 
Q 2609 -91 1734 -91 
Q 1441 -91 1130 -33 
Q 819 25 488 141 
L 488 750 
Q 750 597 1062 519 
Q 1375 441 1716 441 
Q 2309 441 2620 675 
Q 2931 909 2931 1356 
Q 2931 1769 2642 2001 
Q 2353 2234 1838 2234 
L 1294 2234 
L 1294 2753 
L 1863 2753 
Q 2328 2753 2575 2939 
Q 2822 3125 2822 3475 
Q 2822 3834 2567 4026 
Q 2313 4219 1838 4219 
Q 1578 4219 1281 4162 
Q 984 4106 628 3988 
L 628 4550 
Q 988 4650 1302 4700 
Q 1616 4750 1894 4750 
Q 2613 4750 3031 4423 
Q 3450 4097 3450 3541 
Q 3450 3153 3228 2886 
Q 3006 2619 2597 2516 
z
" transform="scale(0.015625)"/>
      </defs>
      <use xlink:href="#DejaVuSans-35"/>
      <use xlink:href="#DejaVuSans-48" transform="translate(65 0)"/>
      <use xlink:href="#DejaVuSans-53" transform="translate(126.53125 0)"/>
      <use xlink:href="#DejaVuSans-16" transform="translate(190.015625 0)"/>
     </g>
    </g>
    <g id="line2d_87">
     <path d="M 215.576563 48.367344 
L 222.576563 48.367344 
L 229.576563 48.367344 
" style="fill: none; stroke-dasharray: 9.25,4; stroke-dashoffset: 0; stroke: #e3b341; stroke-width: 2.5"/>
    </g>
    <g id="text_53">
     <!-- Total -->
     <g style="fill: #e3b341" transform="translate(235.176563 50.817344) scale(0.07 -0.07)">
      <defs>
       <path id="DejaVuSans-37" d="M -19 4666 
L 3928 4666 
L 3928 4134 
L 2272 4134 
L 2272 0 
L 1638 0 
L 1638 4134 
L -19 4134 
L -19 4666 
z
" transform="scale(0.015625)"/>
       <path id="DejaVuSans-52" d="M 1959 3097 
Q 1497 3097 1228 2736 
Q 959 2375 959 1747 
Q 959 1119 1226 758 
Q 1494 397 1959 397 
Q 2419 397 2687 759 
Q 2956 1122 2956 1747 
Q 2956 2369 2687 2733 
Q 2419 3097 1959 3097 
z
M 1959 3584 
Q 2709 3584 3137 3096 
Q 3566 2609 3566 1747 
Q 3566 888 3137 398 
Q 2709 -91 1959 -91 
Q 1206 -91 779 398 
Q 353 888 353 1747 
Q 353 2609 779 3096 
Q 1206 3584 1959 3584 
z
" transform="scale(0.015625)"/>
       <path id="DejaVuSans-57" d="M 1172 4494 
L 1172 3500 
L 2356 3500 
L 2356 3053 
L 1172 3053 
L 1172 1153 
Q 1172 725 1289 603 
Q 1406 481 1766 481 
L 2356 481 
L 2356 0 
L 1766 0 
Q 1100 0 847 248 
Q 594 497 594 1153 
L 594 3053 
L 172 3053 
L 172 3500 
L 594 3500 
L 594 4494 
L 1172 4494 
z
" transform="scale(0.015625)"/>
       <path id="DejaVuSans-44" d="M 2194 1759 
Q 1497 1759 1228 1600 
Q 959 1441 959 1056 
Q 959 750 1161 570 
Q 1363 391 1709 391 
Q 2188 391 2477 730 
Q 2766 1069 2766 1631 
L 2766 1759 
L 2194 1759 
z
M 3341 1997 
L 3341 0 
L 2766 0 
L 2766 531 
Q 2569 213 2275 61 
Q 1981 -91 1556 -91 
Q 1019 -91 701 211 
Q 384 513 384 1019 
Q 384 1609 779 1909 
Q 1175 2209 1959 2209 
L 2766 2209 
L 2766 2266 
Q 2766 2663 2505 2880 
Q 2244 3097 1772 3097 
Q 1472 3097 1187 3025 
Q 903 2953 641 2809 
L 641 3341 
Q 956 3463 1253 3523 
Q 1550 3584 1831 3584 
Q 2591 3584 2966 3190 
Q 3341 2797 3341 1997 
z
" transform="scale(0.015625)"/>
       <path id="DejaVuSans-4f" d="M 603 4863 
L 1178 4863 
L 1178 0 
L 603 0 
L 603 4863 
z
" transform="scale(0.015625)"/>
      </defs>
      <use xlink:href="#DejaVuSans-37"/>
      <use xlink:href="#DejaVuSans-52" transform="translate(44.09375 0)"/>
      <use xlink:href="#DejaVuSans-57" transform="translate(105.28125 0)"/>
      <use xlink:href="#DejaVuSans-44" transform="translate(144.484375 0)"/>
      <use xlink:href="#DejaVuSans-4f" transform="translate(205.765625 0)"/>
     </g>
    </g>
    <g id="line2d_88">
     <path d="M 265.524844 48.367344 
L 272.524844 48.367344 
L 279.524844 48.367344 
" style="fill: none; stroke-dasharray: 1.5,2.475; stroke-dashoffset: 0; stroke: #ff6b6b; stroke-width: 1.5"/>
    </g>
    <g id="text_54">
     <!-- Average -->
     <g style="fill: #ff6b6b" transform="translate(285.124844 50.817344) scale(0.07 -0.07)">
      <defs>
       <path id="DejaVuSans-24" d="M 2188 4044 
L 1331 1722 
L 3047 1722 
L 2188 4044 
z
M 1831 4666 
L 2547 4666 
L 4325 0 
L 3669 0 
L 3244 1197 
L 1141 1197 
L 716 0 
L 50 0 
L 1831 4666 
z
" transform="scale(0.015625)"/>
       <path id="DejaVuSans-59" d="M 191 3500 
L 800 3500 
L 1894 563 
L 2988 3500 
L 3597 3500 
L 2284 0 
L 1503 0 
L 191 3500 
z
" transform="scale(0.015625)"/>
       <path id="DejaVuSans-55" d="M 2631 2963 
Q 2534 3019 2420 3045 
Q 2306 3072 2169 3072 
Q 1681 3072 1420 2755 
Q 1159 2438 1159 1844 
L 1159 0 
L 581 0 
L 581 3500 
L 1159 3500 
L 1159 2956 
Q 1341 3275 1631 3429 
Q 1922 3584 2338 3584 
Q 2397 3584 2469 3576 
Q 2541 3569 2628 3553 
L 2631 2963 
z
" transform="scale(0.015625)"/>
       <path id="DejaVuSans-4a" d="M 2906 1791 
Q 2906 2416 2648 2759 
Q 2391 3103 1925 3103 
Q 1463 3103 1205 2759 
Q 947 2416 947 1791 
Q 947 1169 1205 825 
Q 1463 481 1925 481 
Q 2391 481 2648 825 
Q 2906 1169 2906 1791 
z
M 3481 434 
Q 3481 -459 3084 -895 
Q 2688 -1331 1869 -1331 
Q 1566 -1331 1297 -1286 
Q 1028 -1241 775 -1147 
L 775 -588 
Q 1028 -725 1275 -790 
Q 1522 -856 1778 -856 
Q 2344 -856 2625 -561 
Q 2906 -266 2906 331 
L 2906 616 
Q 2728 306 2450 153 
Q 2172 0 1784 0 
Q 1141 0 747 490 
Q 353 981 353 1791 
Q 353 2603 747 3093 
Q 1141 3584 1784 3584 
Q 2172 3584 2450 3431 
Q 2728 3278 2906 2969 
L 2906 3500 
L 3481 3500 
L 3481 434 
z
" transform="scale(0.015625)"/>
      </defs>
      <use xlink:href="#DejaVuSans-24"/>
      <use xlink:href="#DejaVuSans-59" transform="translate(62.546875 0)"/>
      <use xlink:href="#DejaVuSans-48" transform="translate(121.734375 0)"/>
      <use xlink:href="#DejaVuSans-55" transform="translate(183.265625 0)"/>
      <use xlink:href="#DejaVuSans-44" transform="translate(224.375 0)"/>
      <use xlink:href="#DejaVuSans-4a" transform="translate(285.65625 0)"/>
      <use xlink:href="#DejaVuSans-48" transform="translate(349.140625 0)"/>
     </g>
    </g>
   </g>
   <g id="line2d_89">
    <defs>
     <path id="m07aa693448" d="M 0 -2.5 
L -0.561285 -0.772542 
L -2.377641 -0.772542 
L -0.908178 0.295085 
L -1.469463 2.022542 
L -0 0.954915 
L 1.469463 2.022542 
L 0.908178 0.295085 
L 2.377641 -0.772542 
L 0.561285 -0.772542 
z
" style="stroke: #1a73e8; stroke-linejoin: bevel"/>
    </defs>
    <g>
     <use xlink:href="#m07aa693448" x="301.254228" y="236.430437" style="fill: #1a73e8; stroke: #1a73e8; stroke-linejoin: bevel"/>
    </g>
   </g>
   <g id="line2d_90">
    <defs>
     <path id="m9569aa23e4" d="M 0 -2.5 
L -0.561285 -0.772542 
L -2.377641 -0.772542 
L -0.908178 0.295085 
L -1.469463 2.022542 
L -0 0.954915 
L 1.469463 2.022542 
L 0.908178 0.295085 
L 2.377641 -0.772542 
L 0.561285 -0.772542 
z
" style="stroke: #3fb950; stroke-linejoin: bevel"/>
    </defs>
    <g>
     <use xlink:href="#m9569aa23e4" x="307.700748" y="236.430437" style="fill: #3fb950; stroke: #3fb950; stroke-linejoin: bevel"/>
    </g>
   </g>
   <g id="line2d_91">
    <g>
     <use xlink:href="#m9569aa23e4" x="540.849904" y="236.430437" style="fill: #3fb950; stroke: #3fb950; stroke-linejoin: bevel"/>
    </g>
   </g>
   <g id="line2d_92">
    <g>
     <use xlink:href="#m07aa693448" x="583.826707" y="236.430437" style="fill: #1a73e8; stroke: #1a73e8; stroke-linejoin: bevel"/>
    </g>
   </g>
   <g id="line2d_93">
    <g>
     <use xlink:href="#m9569aa23e4" x="648.291911" y="236.430437" style="fill: #3fb950; stroke: #3fb950; stroke-linejoin: bevel"/>
    </g>
   </g>
   <g id="line2d_94">
    <g>
     <use xlink:href="#m07aa693448" x="688.045454" y="236.430437" style="fill: #1a73e8; stroke: #1a73e8; stroke-linejoin: bevel"/>
    </g>
   </g>
   <g id="line2d_95">
    <g>
     <use xlink:href="#m9569aa23e4" x="694.491974" y="236.430437" style="fill: #3fb950; stroke: #3fb950; stroke-linejoin: bevel"/>
    </g>
   </g>
  </g>
  <g id="text_55">
   <!-- ▲ vs yesterday: +53 / day   │   ⌀ last 7 days: 499.7 / day   │   ⌀ last 31 days: 116.6 / day   │   vs last month: +3498 / month -->
   <g style="fill: #58a6ff" transform="translate(119.055039 290.283437) scale(0.075 -0.075)">
    <defs>
     <path id="DejaVuSans-Bold-e89" d="M 19 -788 
L 2459 4113 
L 4903 -788 
L 19 -788 
z
" transform="scale(0.015625)"/>
     <path id="DejaVuSans-Bold-1d" d="M 716 3500 
L 1844 3500 
L 1844 2291 
L 716 2291 
L 716 3500 
z
M 716 1209 
L 1844 1209 
L 1844 0 
L 716 0 
L 716 1209 
z
" transform="scale(0.015625)"/>
     <path id="DejaVuSans-Bold-e" d="M 3053 4013 
L 3053 2375 
L 4684 2375 
L 4684 1638 
L 3053 1638 
L 3053 0 
L 2309 0 
L 2309 1638 
L 678 1638 
L 678 2375 
L 2309 2375 
L 2309 4013 
L 3053 4013 
z
" transform="scale(0.015625)"/>
     <path id="DejaVuSans-Bold-dd9" d="M 1675 -1600 
L 1675 6003 
L 2175 6003 
L 2175 -1600 
L 1675 -1600 
z
" transform="scale(0.015625)"/>
     <path id="DejaVuSans-Bold-d8a" d="M 1925 3272 
Q 2484 3272 2916 2947 
L 3288 3319 
L 3659 2947 
L 3288 2572 
Q 3603 2147 3603 1588 
Q 3603 897 3113 403 
Q 2616 -91 1925 -91 
Q 1375 -91 944 228 
L 572 -144 
L 200 228 
L 572 600 
Q 250 1028 250 1588 
Q 250 2284 741 2778 
Q 1238 3272 1925 3272 
z
M 2531 2559 
Q 2263 2731 1978 2731 
Q 1459 2731 1122 2397 
Q 788 2063 788 1588 
Q 788 1253 959 988 
L 2531 2559 
z
M 1331 616 
Q 1597 450 1878 450 
Q 2394 450 2731 784 
Q 3066 1119 3066 1588 
Q 3066 1922 2900 2184 
L 1331 616 
z
" transform="scale(0.015625)"/>
     <path id="DejaVuSans-Bold-11" d="M 653 1209 
L 1778 1209 
L 1778 0 
L 653 0 
L 653 1209 
z
" transform="scale(0.015625)"/>
     <path id="DejaVuSans-Bold-50" d="M 3781 2919 
Q 3994 3244 4286 3414 
Q 4578 3584 4928 3584 
Q 5531 3584 5847 3212 
Q 6163 2841 6163 2131 
L 6163 0 
L 5038 0 
L 5038 1825 
Q 5041 1866 5042 1909 
Q 5044 1953 5044 2034 
Q 5044 2406 4934 2573 
Q 4825 2741 4581 2741 
Q 4263 2741 4089 2478 
Q 3916 2216 3909 1719 
L 3909 0 
L 2784 0 
L 2784 1825 
Q 2784 2406 2684 2573 
Q 2584 2741 2328 2741 
Q 2006 2741 1831 2477 
Q 1656 2213 1656 1722 
L 1656 0 
L 531 0 
L 531 3500 
L 1656 3500 
L 1656 2988 
Q 1863 3284 2130 3434 
Q 2397 3584 2719 3584 
Q 3081 3584 3359 3409 
Q 3638 3234 3781 2919 
z
" transform="scale(0.015625)"/>
    </defs>
    <use xlink:href="#DejaVuSans-Bold-e89"/>
    <use xlink:href="#DejaVuSans-Bold-3" transform="translate(76.90625 0)"/>
    <use xlink:href="#DejaVuSans-Bold-59" transform="translate(111.71875 0)"/>
    <use xlink:href="#DejaVuSans-Bold-56" transform="translate(176.90625 0)"/>
    <use xlink:href="#DejaVuSans-Bold-3" transform="translate(236.421875 0)"/>
    <use xlink:href="#DejaVuSans-Bold-5c" transform="translate(271.234375 0)"/>
    <use xlink:href="#DejaVuSans-Bold-48" transform="translate(336.421875 0)"/>
    <use xlink:href="#DejaVuSans-Bold-56" transform="translate(404.25 0)"/>
    <use xlink:href="#DejaVuSans-Bold-57" transform="translate(463.765625 0)"/>
    <use xlink:href="#DejaVuSans-Bold-48" transform="translate(511.5625 0)"/>
    <use xlink:href="#DejaVuSans-Bold-55" transform="translate(579.390625 0)"/>
    <use xlink:href="#DejaVuSans-Bold-47" transform="translate(628.703125 0)"/>
    <use xlink:href="#DejaVuSans-Bold-44" transform="translate(700.28125 0)"/>
    <use xlink:href="#DejaVuSans-Bold-5c" transform="translate(764.6875 0)"/>
    <use xlink:href="#DejaVuSans-Bold-1d" transform="translate(829.875 0)"/>
    <use xlink:href="#DejaVuSans-Bold-3" transform="translate(869.859375 0)"/>
    <use xlink:href="#DejaVuSans-Bold-e" transform="translate(904.671875 0)"/>
    <use xlink:href="#DejaVuSans-Bold-18" transform="translate(988.46875 0)"/>
    <use xlink:href="#DejaVuSans-Bold-16" transform="translate(1058.046875 0)"/>
    <use xlink:href="#DejaVuSans-Bold-3" transform="translate(1127.625 0)"/>
    <use xlink:href="#DejaVuSans-Bold-12" transform="translate(1162.4375 0)"/>
    <use xlink:href="#DejaVuSans-Bold-3" transform="translate(1198.96875 0)"/>
    <use xlink:href="#DejaVuSans-Bold-47" transform="translate(1233.78125 0)"/>
    <use xlink:href="#DejaVuSans-Bold-44" transform="translate(1305.359375 0)"/>
    <use xlink:href="#DejaVuSans-Bold-5c" transform="translate(1369.765625 0)"/>
    <use xlink:href="#DejaVuSans-Bold-3" transform="translate(1434.953125 0)"/>
    <use xlink:href="#DejaVuSans-Bold-3" transform="translate(1469.765625 0)"/>
    <use xlink:href="#DejaVuSans-Bold-3" transform="translate(1504.578125 0)"/>
    <use xlink:href="#DejaVuSans-Bold-dd9" transform="translate(1539.390625 0)"/>
    <use xlink:href="#DejaVuSans-Bold-3" transform="translate(1599.59375 0)"/>
    <use xlink:href="#DejaVuSans-Bold-3" transform="translate(1634.40625 0)"/>
    <use xlink:href="#DejaVuSans-Bold-3" transform="translate(1669.21875 0)"/>
    <use xlink:href="#DejaVuSans-Bold-d8a" transform="translate(1704.03125 0)"/>
    <use xlink:href="#DejaVuSans-Bold-3" transform="translate(1764.234375 0)"/>
    <use xlink:href="#DejaVuSans-Bold-4f" transform="translate(1799.046875 0)"/>
    <use xlink:href="#DejaVuSans-Bold-44" transform="translate(1833.328125 0)"/>
    <use xlink:href="#DejaVuSans-Bold-56" transform="translate(1900.8125 0)"/>
    <use xlink:href="#DejaVuSans-Bold-57" transform="translate(1960.328125 0)"/>
    <use xlink:href="#DejaVuSans-Bold-3" transform="translate(2008.125 0)"/>
    <use xlink:href="#DejaVuSans-Bold-1a" transform="translate(2042.9375 0)"/>
    <use xlink:href="#DejaVuSans-Bold-3" transform="translate(2112.515625 0)"/>
    <use xlink:href="#DejaVuSans-Bold-47" transform="translate(2147.328125 0)"/>
    <use xlink:href="#DejaVuSans-Bold-44" transform="translate(2218.90625 0)"/>
    <use xlink:href="#DejaVuSans-Bold-5c" transform="translate(2283.3125 0)"/>
    <use xlink:href="#DejaVuSans-Bold-56" transform="translate(2348.5 0)"/>
    <use xlink:href="#DejaVuSans-Bold-1d" transform="translate(2408.015625 0)"/>
    <use xlink:href="#DejaVuSans-Bold-3" transform="translate(2448 0)"/>
    <use xlink:href="#DejaVuSans-Bold-17" transform="translate(2482.8125 0)"/>
    <use xlink:href="#DejaVuSans-Bold-1c" transform="translate(2552.390625 0)"/>
    <use xlink:href="#DejaVuSans-Bold-1c" transform="translate(2621.96875 0)"/>
    <use xlink:href="#DejaVuSans-Bold-11" transform="translate(2691.546875 0)"/>
    <use xlink:href="#DejaVuSans-Bold-1a" transform="translate(2729.53125 0)"/>
    <use xlink:href="#DejaVuSans-Bold-3" transform="translate(2799.109375 0)"/>
    <use xlink:href="#DejaVuSans-Bold-12" transform="translate(2833.921875 0)"/>
    <use xlink:href="#DejaVuSans-Bold-3" transform="translate(2870.453125 0)"/>
    <use xlink:href="#DejaVuSans-Bold-47" transform="translate(2905.265625 0)"/>
    <use xlink:href="#DejaVuSans-Bold-44" transform="translate(2976.84375 0)"/>
    <use xlink:href="#DejaVuSans-Bold-5c" transform="translate(3041.25 0)"/>
    <use xlink:href="#DejaVuSans-Bold-3" transform="translate(3106.4375 0)"/>
    <use xlink:href="#DejaVuSans-Bold-3" transform="translate(3141.25 0)"/>
    <use xlink:href="#DejaVuSans-Bold-3" transform="translate(3176.0625 0)"/>
    <use xlink:href="#DejaVuSans-Bold-dd9" transform="translate(3210.875 0)"/>
    <use xlink:href="#DejaVuSans-Bold-3" transform="translate(3271.078125 0)"/>
    <use xlink:href="#DejaVuSans-Bold-3" transform="translate(3305.890625 0)"/>
    <use xlink:href="#DejaVuSans-Bold-3" transform="translate(3340.703125 0)"/>
    <use xlink:href="#DejaVuSans-Bold-d8a" transform="translate(3375.515625 0)"/>
    <use xlink:href="#DejaVuSans-Bold-3" transform="translate(3435.71875 0)"/>
    <use xlink:href="#DejaVuSans-Bold-4f" transform="translate(3470.53125 0)"/>
    <use xlink:href="#DejaVuSans-Bold-44" transform="translate(3504.8125 0)"/>
    <use xlink:href="#DejaVuSans-Bold-56" transform="translate(3572.296875 0)"/>
    <use xlink:href="#DejaVuSans-Bold-57" transform="translate(3631.8125 0)"/>
    <use xlink:href="#DejaVuSans-Bold-3" transform="translate(3679.609375 0)"/>
    <use xlink:href="#DejaVuSans-Bold-16" transform="translate(3714.421875 0)"/>
    <use xlink:href="#DejaVuSans-Bold-14" transform="translate(3784 0)"/>
    <use xlink:href="#DejaVuSans-Bold-3" transform="translate(3853.578125 0)"/>
    <use xlink:href="#DejaVuSans-Bold-47" transform="translate(3888.390625 0)"/>
    <use xlink:href="#DejaVuSans-Bold-44" transform="translate(3959.96875 0)"/>
    <use xlink:href="#DejaVuSans-Bold-5c" transform="translate(4024.375 0)"/>
    <use xlink:href="#DejaVuSans-Bold-56" transform="translate(4089.5625 0)"/>
    <use xlink:href="#DejaVuSans-Bold-1d" transform="translate(4149.078125 0)"/>
    <use xlink:href="#DejaVuSans-Bold-3" transform="translate(4189.0625 0)"/>
    <use xlink:href="#DejaVuSans-Bold-14" transform="translate(4223.875 0)"/>
    <use xlink:href="#DejaVuSans-Bold-14" transform="translate(4293.453125 0)"/>
    <use xlink:href="#DejaVuSans-Bold-19" transform="translate(4363.03125 0)"/>
    <use xlink:href="#DejaVuSans-Bold-11" transform="translate(4432.609375 0)"/>
    <use xlink:href="#DejaVuSans-Bold-19" transform="translate(4470.59375 0)"/>
    <use xlink:href="#DejaVuSans-Bold-3" transform="translate(4540.171875 0)"/>
    <use xlink:href="#DejaVuSans-Bold-12" transform="translate(4574.984375 0)"/>
    <use xlink:href="#DejaVuSans-Bold-3" transform="translate(4611.515625 0)"/>
    <use xlink:href="#DejaVuSans-Bold-47" transform="translate(4646.328125 0)"/>
    <use xlink:href="#DejaVuSans-Bold-44" transform="translate(4717.90625 0)"/>
    <use xlink:href="#DejaVuSans-Bold-5c" transform="translate(4782.3125 0)"/>
    <use xlink:href="#DejaVuSans-Bold-3" transform="translate(4847.5 0)"/>
    <use xlink:href="#DejaVuSans-Bold-3" transform="translate(4882.3125 0)"/>
    <use xlink:href="#DejaVuSans-Bold-3" transform="translate(4917.125 0)"/>
    <use xlink:href="#DejaVuSans-Bold-dd9" transform="translate(4951.9375 0)"/>
    <use xlink:href="#DejaVuSans-Bold-3" transform="translate(5012.140625 0)"/>
    <use xlink:href="#DejaVuSans-Bold-3" transform="translate(5046.953125 0)"/>
    <use xlink:href="#DejaVuSans-Bold-3" transform="translate(5081.765625 0)"/>
    <use xlink:href="#DejaVuSans-Bold-59" transform="translate(5116.578125 0)"/>
    <use xlink:href="#DejaVuSans-Bold-56" transform="translate(5181.765625 0)"/>
    <use xlink:href="#DejaVuSans-Bold-3" transform="translate(5241.28125 0)"/>
    <use xlink:href="#DejaVuSans-Bold-4f" transform="translate(5276.09375 0)"/>
    <use xlink:href="#DejaVuSans-Bold-44" transform="translate(5310.375 0)"/>
    <use xlink:href="#DejaVuSans-Bold-56" transform="translate(5377.859375 0)"/>
    <use xlink:href="#DejaVuSans-Bold-57" transform="translate(5437.375 0)"/>
    <use xlink:href="#DejaVuSans-Bold-3" transform="translate(5485.171875 0)"/>
    <use xlink:href="#DejaVuSans-Bold-50" transform="translate(5519.984375 0)"/>
    <use xlink:href="#DejaVuSans-Bold-52" transform="translate(5624.1875 0)"/>
    <use xlink:href="#DejaVuSans-Bold-51" transform="translate(5692.890625 0)"/>
    <use xlink:href="#DejaVuSans-Bold-57" transform="translate(5764.078125 0)"/>
    <use xlink:href="#DejaVuSans-Bold-4b" transform="translate(5811.875 0)"/>
    <use xlink:href="#DejaVuSans-Bold-1d" transform="translate(5883.0625 0)"/>
    <use xlink:href="#DejaVuSans-Bold-3" transform="translate(5923.046875 0)"/>
    <use xlink:href="#DejaVuSans-Bold-e" transform="translate(5957.859375 0)"/>
    <use xlink:href="#DejaVuSans-Bold-16" transform="translate(6041.65625 0)"/>
    <use xlink:href="#DejaVuSans-Bold-17" transform="translate(6111.234375 0)"/>
    <use xlink:href="#DejaVuSans-Bold-1c" transform="translate(6180.8125 0)"/>
    <use xlink:href="#DejaVuSans-Bold-1b" transform="translate(6250.390625 0)"/>
    <use xlink:href="#DejaVuSans-Bold-3" transform="translate(6319.96875 0)"/>
    <use xlink:href="#DejaVuSans-Bold-12" transform="translate(6354.78125 0)"/>
    <use xlink:href="#DejaVuSans-Bold-3" transform="translate(6391.3125 0)"/>
    <use xlink:href="#DejaVuSans-Bold-50" transform="translate(6426.125 0)"/>
    <use xlink:href="#DejaVuSans-Bold-52" transform="translate(6530.328125 0)"/>
    <use xlink:href="#DejaVuSans-Bold-51" transform="translate(6599.03125 0)"/>
    <use xlink:href="#DejaVuSans-Bold-57" transform="translate(6670.21875 0)"/>
    <use xlink:href="#DejaVuSans-Bold-4b" transform="translate(6718.015625 0)"/>
   </g>
  </g>
 </g>
 <defs>
  <clipPath id="p20f2d4c892">
   <rect x="55.212031" y="39.198438" width="670.438125" height="197.232"/>
  </clipPath>
 </defs>
</svg>
