<?xml version="1.0" encoding="utf-8" standalone="no"?>
<!DOCTYPE svg PUBLIC "-//W3C//DTD SVG 1.1//EN"
  "http://www.w3.org/Graphics/SVG/1.1/DTD/svg11.dtd">
<svg xmlns:xlink="http://www.w3.org/1999/xlink" width="747.179688pt" height="297.774437pt" viewBox="0 0 747.179688 297.774437" xmlns="http://www.w3.org/2000/svg" version="1.1">
<style>
.draw-line{stroke-dasharray:3000;stroke-dashoffset:3000;animation:draw 3s ease-out forwards}
@keyframes draw{to{stroke-dashoffset:0}}
</style>
 <metadata>
  <rdf:RDF xmlns:dc="http://purl.org/dc/elements/1.1/" xmlns:cc="http://creativecommons.org/ns#" xmlns:rdf="http://www.w3.org/1999/02/22-rdf-syntax-ns#">
   <cc:Work>
    <dc:type rdf:resource="http://purl.org/dc/dcmitype/StillImage"/>
    <dc:date>2026-07-15T14:54:42.277475</dc:date>
    <dc:format>image/svg+xml</dc:format>
    <dc:creator>
     <cc:Agent>
      <dc:title>Matplotlib v3.11.0, https://matplotlib.org/</dc:title>
     </cc:Agent>
    </dc:creator>
   </cc:Work>
  </rdf:RDF>
 </metadata>
 <defs>
  <style type="text/css">*{stroke-linejoin: round; stroke-linecap: butt}</style>
 </defs>
 <g id="figure_1">
  <g id="patch_1">
   <path d="M 0 297.774437 
L 747.179688 297.774437 
L 747.179688 0 
L 0 0 
L 0 297.774437 
z
" style="fill: none"/>
  </g>
  <g id="axes_1">
   <g id="patch_2">
    <path d="M 50.341563 237.870437 
L 725.579687 237.870437 
L 725.579687 39.198438 
L 50.341563 39.198438 
L 50.341563 237.870437 
z
" style="fill: none"/>
   </g>
   <g id="matplotlib.axis_1">
    <g id="xtick_1">
     <g id="line2d_1">
      <path d="M 63.326911 237.870437 
L 63.326911 39.198438 
" clip-path="url(#p5814af09e3)" style="fill: none; stroke-dasharray: 0.7,1.155; stroke-dashoffset: 0; stroke: #283d58; stroke-width: 0.7"/>
     </g>
     <g id="line2d_2">
      <defs>
       <path id="m67c42c6f60" d="M 0 0 
L 0 3.5 
" style="stroke: #58a6ff; stroke-width: 0.8"/>
      </defs>
      <g>
       <use xlink:href="#m67c42c6f60" x="63.326911" y="237.870437" style="fill: #58a6ff; stroke: #58a6ff; stroke-width: 0.8"/>
      </g>
     </g>
     <g id="text_1">
      <!-- 15 -->
      <g style="fill: #58a6ff" transform="translate(58.456442 248.688797) scale(0.07 -0.07)">
       <defs>
        <path id="DejaVuSans-Bold-14" d="M 750 831 
L 1813 831 
L 1813 3847 
L 722 3622 
L 722 4441 
L 1806 4666 
L 2950 4666 
L 2950 831 
L 4013 831 
L 4013 0 
L 750 0 
L 750 831 
z
" transform="scale(0.015625)"/>
        <path id="DejaVuSans-Bold-18" d="M 678 4666 
L 3669 4666 
L 3669 3781 
L 1638 3781 
L 1638 3059 
Q 1775 3097 1914 3117 
Q 2053 3138 2203 3138 
Q 3056 3138 3531 2711 
Q 4006 2284 4006 1522 
Q 4006 766 3489 337 
Q 2972 -91 2053 -91 
Q 1656 -91 1267 -14 
Q 878 63 494 219 
L 494 1166 
Q 875 947 1217 837 
Q 1559 728 1863 728 
Q 2300 728 2551 942 
Q 2803 1156 2803 1522 
Q 2803 1891 2551 2103 
Q 2300 2316 1863 2316 
Q 1603 2316 1309 2248 
Q 1016 2181 678 2041 
L 678 4666 
z
" transform="scale(0.015625)"/>
       </defs>
       <use xlink:href="#DejaVuSans-Bold-14"/>
       <use xlink:href="#DejaVuSans-Bold-18" transform="translate(69.578125 0)"/>
      </g>
     </g>
    </g>
    <g id="xtick_2">
     <g id="line2d_3">
      <path d="M 84.969159 237.870437 
L 84.969159 39.198438 
" clip-path="url(#p5814af09e3)" style="fill: none; stroke-dasharray: 0.7,1.155; stroke-dashoffset: 0; stroke: #283d58; stroke-width: 0.7"/>
     </g>
     <g id="line2d_4">
      <g>
       <use xlink:href="#m67c42c6f60" x="84.969159" y="237.870437" style="fill: #58a6ff; stroke: #58a6ff; stroke-width: 0.8"/>
      </g>
     </g>
     <g id="text_2">
      <!-- 16 -->
      <g style="fill: #58a6ff" transform="translate(80.09869 248.688797) scale(0.07 -0.07)">
       <defs>
        <path id="DejaVuSans-Bold-19" d="M 2316 2303 
Q 2000 2303 1842 2098 
Q 1684 1894 1684 1484 
Q 1684 1075 1842 870 
Q 2000 666 2316 666 
Q 2634 666 2792 870 
Q 2950 1075 2950 1484 
Q 2950 1894 2792 2098 
Q 2634 2303 2316 2303 
z
M 3803 4544 
L 3803 3681 
Q 3506 3822 3243 3889 
Q 2981 3956 2731 3956 
Q 2194 3956 1894 3657 
Q 1594 3359 1544 2772 
Q 1750 2925 1990 3001 
Q 2231 3078 2516 3078 
Q 3231 3078 3670 2659 
Q 4109 2241 4109 1563 
Q 4109 813 3618 361 
Q 3128 -91 2303 -91 
Q 1394 -91 895 523 
Q 397 1138 397 2266 
Q 397 3422 980 4083 
Q 1563 4744 2578 4744 
Q 2900 4744 3203 4694 
Q 3506 4644 3803 4544 
z
" transform="scale(0.015625)"/>
       </defs>
       <use xlink:href="#DejaVuSans-Bold-14"/>
       <use xlink:href="#DejaVuSans-Bold-19" transform="translate(69.578125 0)"/>
      </g>
     </g>
    </g>
    <g id="xtick_3">
     <g id="line2d_5">
      <path d="M 106.611406 237.870437 
L 106.611406 39.198438 
" clip-path="url(#p5814af09e3)" style="fill: none; stroke-dasharray: 0.7,1.155; stroke-dashoffset: 0; stroke: #283d58; stroke-width: 0.7"/>
     </g>
     <g id="line2d_6">
      <g>
       <use xlink:href="#m67c42c6f60" x="106.611406" y="237.870437" style="fill: #58a6ff; stroke: #58a6ff; stroke-width: 0.8"/>
      </g>
     </g>
     <g id="text_3">
      <!-- 17 -->
      <g style="fill: #58a6ff" transform="translate(101.740937 248.688797) scale(0.07 -0.07)">
       <defs>
        <path id="DejaVuSans-Bold-1a" d="M 428 4666 
L 3944 4666 
L 3944 3988 
L 2125 0 
L 953 0 
L 2675 3781 
L 428 3781 
L 428 4666 
z
" transform="scale(0.015625)"/>
       </defs>
       <use xlink:href="#DejaVuSans-Bold-14"/>
       <use xlink:href="#DejaVuSans-Bold-1a" transform="translate(69.578125 0)"/>
      </g>
     </g>
    </g>
    <g id="xtick_4">
     <g id="line2d_7">
      <path d="M 128.253654 237.870437 
L 128.253654 39.198438 
" clip-path="url(#p5814af09e3)" style="fill: none; stroke-dasharray: 0.7,1.155; stroke-dashoffset: 0; stroke: #283d58; stroke-width: 0.7"/>
     </g>
     <g id="line2d_8">
      <g>
       <use xlink:href="#m67c42c6f60" x="128.253654" y="237.870437" style="fill: #58a6ff; stroke: #58a6ff; stroke-width: 0.8"/>
      </g>
     </g>
     <g id="text_4">
      <!-- 18 -->
      <g style="fill: #58a6ff" transform="translate(123.383185 248.688797) scale(0.07 -0.07)">
       <defs>
        <path id="DejaVuSans-Bold-1b" d="M 2228 2088 
Q 1891 2088 1709 1903 
Q 1528 1719 1528 1375 
Q 1528 1031 1709 848 
Q 1891 666 2228 666 
Q 2563 666 2741 848 
Q 2919 1031 2919 1375 
Q 2919 1722 2741 1905 
Q 2563 2088 2228 2088 
z
M 1350 2484 
Q 925 2613 709 2878 
Q 494 3144 494 3541 
Q 494 4131 934 4440 
Q 1375 4750 2228 4750 
Q 3075 4750 3515 4442 
Q 3956 4134 3956 3541 
Q 3956 3144 3739 2878 
Q 3522 2613 3097 2484 
Q 3572 2353 3814 2058 
Q 4056 1763 4056 1313 
Q 4056 619 3595 264 
Q 3134 -91 2228 -91 
Q 1319 -91 855 264 
Q 391 619 391 1313 
Q 391 1763 633 2058 
Q 875 2353 1350 2484 
z
M 1631 3419 
Q 1631 3141 1786 2991 
Q 1941 2841 2228 2841 
Q 2509 2841 2662 2991 
Q 2816 3141 2816 3419 
Q 2816 3697 2662 3845 
Q 2509 3994 2228 3994 
Q 1941 3994 1786 3844 
Q 1631 3694 1631 3419 
z
" transform="scale(0.015625)"/>
       </defs>
       <use xlink:href="#DejaVuSans-Bold-14"/>
       <use xlink:href="#DejaVuSans-Bold-1b" transform="translate(69.578125 0)"/>
      </g>
     </g>
    </g>
    <g id="xtick_5">
     <g id="line2d_9">
      <path d="M 149.895901 237.870437 
L 149.895901 39.198438 
" clip-path="url(#p5814af09e3)" style="fill: none; stroke-dasharray: 0.7,1.155; stroke-dashoffset: 0; stroke: #283d58; stroke-width: 0.7"/>
     </g>
     <g id="line2d_10">
      <g>
       <use xlink:href="#m67c42c6f60" x="149.895901" y="237.870437" style="fill: #58a6ff; stroke: #58a6ff; stroke-width: 0.8"/>
      </g>
     </g>
     <g id="text_5">
      <!-- 19 -->
      <g style="fill: #58a6ff" transform="translate(145.025433 248.688797) scale(0.07 -0.07)">
       <defs>
        <path id="DejaVuSans-Bold-1c" d="M 641 103 
L 641 966 
Q 928 831 1190 764 
Q 1453 697 1709 697 
Q 2247 697 2547 995 
Q 2847 1294 2900 1881 
Q 2688 1725 2447 1647 
Q 2206 1569 1925 1569 
Q 1209 1569 770 1986 
Q 331 2403 331 3084 
Q 331 3838 820 4291 
Q 1309 4744 2131 4744 
Q 3044 4744 3544 4128 
Q 4044 3513 4044 2388 
Q 4044 1231 3459 570 
Q 2875 -91 1856 -91 
Q 1528 -91 1228 -42 
Q 928 6 641 103 
z
M 2125 2350 
Q 2441 2350 2600 2554 
Q 2759 2759 2759 3169 
Q 2759 3575 2600 3781 
Q 2441 3988 2125 3988 
Q 1809 3988 1650 3781 
Q 1491 3575 1491 3169 
Q 1491 2759 1650 2554 
Q 1809 2350 2125 2350 
z
" transform="scale(0.015625)"/>
       </defs>
       <use xlink:href="#DejaVuSans-Bold-14"/>
       <use xlink:href="#DejaVuSans-Bold-1c" transform="translate(69.578125 0)"/>
      </g>
     </g>
    </g>
    <g id="xtick_6">
     <g id="line2d_11">
      <path d="M 171.538149 237.870437 
L 171.538149 39.198438 
" clip-path="url(#p5814af09e3)" style="fill: none; stroke-dasharray: 0.7,1.155; stroke-dashoffset: 0; stroke: #283d58; stroke-width: 0.7"/>
     </g>
     <g id="line2d_12">
      <g>
       <use xlink:href="#m67c42c6f60" x="171.538149" y="237.870437" style="fill: #58a6ff; stroke: #58a6ff; stroke-width: 0.8"/>
      </g>
     </g>
     <g id="text_6">
      <!-- 20 -->
      <g style="fill: #58a6ff" transform="translate(166.66768 248.688797) scale(0.07 -0.07)">
       <defs>
        <path id="DejaVuSans-Bold-15" d="M 1844 884 
L 3897 884 
L 3897 0 
L 506 0 
L 506 884 
L 2209 2388 
Q 2438 2594 2547 2791 
Q 2656 2988 2656 3200 
Q 2656 3528 2436 3728 
Q 2216 3928 1850 3928 
Q 1569 3928 1234 3808 
Q 900 3688 519 3450 
L 519 4475 
Q 925 4609 1322 4679 
Q 1719 4750 2100 4750 
Q 2938 4750 3402 4381 
Q 3866 4013 3866 3353 
Q 3866 2972 3669 2642 
Q 3472 2313 2841 1759 
L 1844 884 
z
" transform="scale(0.015625)"/>
        <path id="DejaVuSans-Bold-13" d="M 2944 2338 
Q 2944 3213 2780 3570 
Q 2616 3928 2228 3928 
Q 1841 3928 1675 3570 
Q 1509 3213 1509 2338 
Q 1509 1453 1675 1090 
Q 1841 728 2228 728 
Q 2613 728 2778 1090 
Q 2944 1453 2944 2338 
z
M 4147 2328 
Q 4147 1169 3647 539 
Q 3147 -91 2228 -91 
Q 1306 -91 806 539 
Q 306 1169 306 2328 
Q 306 3491 806 4120 
Q 1306 4750 2228 4750 
Q 3147 4750 3647 4120 
Q 4147 3491 4147 2328 
z
" transform="scale(0.015625)"/>
       </defs>
       <use xlink:href="#DejaVuSans-Bold-15"/>
       <use xlink:href="#DejaVuSans-Bold-13" transform="translate(69.578125 0)"/>
      </g>
     </g>
    </g>
    <g id="xtick_7">
     <g id="line2d_13">
      <path d="M 193.180397 237.870437 
L 193.180397 39.198438 
" clip-path="url(#p5814af09e3)" style="fill: none; stroke-dasharray: 0.7,1.155; stroke-dashoffset: 0; stroke: #283d58; stroke-width: 0.7"/>
     </g>
     <g id="line2d_14">
      <g>
       <use xlink:href="#m67c42c6f60" x="193.180397" y="237.870437" style="fill: #58a6ff; stroke: #58a6ff; stroke-width: 0.8"/>
      </g>
     </g>
     <g id="text_7">
      <!-- 21 -->
      <g style="fill: #58a6ff" transform="translate(188.309928 248.688797) scale(0.07 -0.07)">
       <use xlink:href="#DejaVuSans-Bold-15"/>
       <use xlink:href="#DejaVuSans-Bold-14" transform="translate(69.578125 0)"/>
      </g>
     </g>
    </g>
    <g id="xtick_8">
     <g id="line2d_15">
      <path d="M 214.822644 237.870437 
L 214.822644 39.198438 
" clip-path="url(#p5814af09e3)" style="fill: none; stroke-dasharray: 0.7,1.155; stroke-dashoffset: 0; stroke: #283d58; stroke-width: 0.7"/>
     </g>
     <g id="line2d_16">
      <g>
       <use xlink:href="#m67c42c6f60" x="214.822644" y="237.870437" style="fill: #58a6ff; stroke: #58a6ff; stroke-width: 0.8"/>
      </g>
     </g>
     <g id="text_8">
      <!-- 22 -->
      <g style="fill: #58a6ff" transform="translate(209.952175 248.688797) scale(0.07 -0.07)">
       <use xlink:href="#DejaVuSans-Bold-15"/>
       <use xlink:href="#DejaVuSans-Bold-15" transform="translate(69.578125 0)"/>
      </g>
     </g>
    </g>
    <g id="xtick_9">
     <g id="line2d_17">
      <path d="M 236.464892 237.870437 
L 236.464892 39.198438 
" clip-path="url(#p5814af09e3)" style="fill: none; stroke-dasharray: 0.7,1.155; stroke-dashoffset: 0; stroke: #283d58; stroke-width: 0.7"/>
     </g>
     <g id="line2d_18">
      <g>
       <use xlink:href="#m67c42c6f60" x="236.464892" y="237.870437" style="fill: #58a6ff; stroke: #58a6ff; stroke-width: 0.8"/>
      </g>
     </g>
     <g id="text_9">
      <!-- 23 -->
      <g style="fill: #58a6ff" transform="translate(231.594423 248.688797) scale(0.07 -0.07)">
       <defs>
        <path id="DejaVuSans-Bold-16" d="M 2981 2516 
Q 3453 2394 3698 2092 
Q 3944 1791 3944 1325 
Q 3944 631 3412 270 
Q 2881 -91 1863 -91 
Q 1503 -91 1142 -33 
Q 781 25 428 141 
L 428 1069 
Q 766 900 1098 814 
Q 1431 728 1753 728 
Q 2231 728 2486 893 
Q 2741 1059 2741 1369 
Q 2741 1688 2480 1852 
Q 2219 2016 1709 2016 
L 1228 2016 
L 1228 2791 
L 1734 2791 
Q 2188 2791 2409 2933 
Q 2631 3075 2631 3366 
Q 2631 3634 2415 3781 
Q 2200 3928 1806 3928 
Q 1516 3928 1219 3862 
Q 922 3797 628 3669 
L 628 4550 
Q 984 4650 1334 4700 
Q 1684 4750 2022 4750 
Q 2931 4750 3382 4451 
Q 3834 4153 3834 3553 
Q 3834 3144 3618 2883 
Q 3403 2622 2981 2516 
z
" transform="scale(0.015625)"/>
       </defs>
       <use xlink:href="#DejaVuSans-Bold-15"/>
       <use xlink:href="#DejaVuSans-Bold-16" transform="translate(69.578125 0)"/>
      </g>
     </g>
    </g>
    <g id="xtick_10">
     <g id="line2d_19">
      <path d="M 258.107139 237.870437 
L 258.107139 39.198438 
" clip-path="url(#p5814af09e3)" style="fill: none; stroke-dasharray: 0.7,1.155; stroke-dashoffset: 0; stroke: #283d58; stroke-width: 0.7"/>
     </g>
     <g id="line2d_20">
      <g>
       <use xlink:href="#m67c42c6f60" x="258.107139" y="237.870437" style="fill: #58a6ff; stroke: #58a6ff; stroke-width: 0.8"/>
      </g>
     </g>
     <g id="text_10">
      <!-- 24 -->
      <g style="fill: #58a6ff" transform="translate(253.236671 248.688797) scale(0.07 -0.07)">
       <defs>
        <path id="DejaVuSans-Bold-17" d="M 2356 3675 
L 1038 1722 
L 2356 1722 
L 2356 3675 
z
M 2156 4666 
L 3494 4666 
L 3494 1722 
L 4159 1722 
L 4159 850 
L 3494 850 
L 3494 0 
L 2356 0 
L 2356 850 
L 288 850 
L 288 1881 
L 2156 4666 
z
" transform="scale(0.015625)"/>
       </defs>
       <use xlink:href="#DejaVuSans-Bold-15"/>
       <use xlink:href="#DejaVuSans-Bold-17" transform="translate(69.578125 0)"/>
      </g>
     </g>
    </g>
    <g id="xtick_11">
     <g id="line2d_21">
      <path d="M 279.749387 237.870437 
L 279.749387 39.198438 
" clip-path="url(#p5814af09e3)" style="fill: none; stroke-dasharray: 0.7,1.155; stroke-dashoffset: 0; stroke: #283d58; stroke-width: 0.7"/>
     </g>
     <g id="line2d_22">
      <g>
       <use xlink:href="#m67c42c6f60" x="279.749387" y="237.870437" style="fill: #58a6ff; stroke: #58a6ff; stroke-width: 0.8"/>
      </g>
     </g>
     <g id="text_11">
      <!-- 25 -->
      <g style="fill: #58a6ff" transform="translate(274.878918 248.688797) scale(0.07 -0.07)">
       <use xlink:href="#DejaVuSans-Bold-15"/>
       <use xlink:href="#DejaVuSans-Bold-18" transform="translate(69.578125 0)"/>
      </g>
     </g>
    </g>
    <g id="xtick_12">
     <g id="line2d_23">
      <path d="M 301.391635 237.870437 
L 301.391635 39.198438 
" clip-path="url(#p5814af09e3)" style="fill: none; stroke-dasharray: 0.7,1.155; stroke-dashoffset: 0; stroke: #283d58; stroke-width: 0.7"/>
     </g>
     <g id="line2d_24">
      <g>
       <use xlink:href="#m67c42c6f60" x="301.391635" y="237.870437" style="fill: #58a6ff; stroke: #58a6ff; stroke-width: 0.8"/>
      </g>
     </g>
     <g id="text_12">
      <!-- 26 -->
      <g style="fill: #58a6ff" transform="translate(296.521166 248.688797) scale(0.07 -0.07)">
       <use xlink:href="#DejaVuSans-Bold-15"/>
       <use xlink:href="#DejaVuSans-Bold-19" transform="translate(69.578125 0)"/>
      </g>
     </g>
    </g>
    <g id="xtick_13">
     <g id="line2d_25">
      <path d="M 323.033882 237.870437 
L 323.033882 39.198438 
" clip-path="url(#p5814af09e3)" style="fill: none; stroke-dasharray: 0.7,1.155; stroke-dashoffset: 0; stroke: #283d58; stroke-width: 0.7"/>
     </g>
     <g id="line2d_26">
      <g>
       <use xlink:href="#m67c42c6f60" x="323.033882" y="237.870437" style="fill: #58a6ff; stroke: #58a6ff; stroke-width: 0.8"/>
      </g>
     </g>
     <g id="text_13">
      <!-- 27 -->
      <g style="fill: #58a6ff" transform="translate(318.163413 248.688797) scale(0.07 -0.07)">
       <use xlink:href="#DejaVuSans-Bold-15"/>
       <use xlink:href="#DejaVuSans-Bold-1a" transform="translate(69.578125 0)"/>
      </g>
     </g>
    </g>
    <g id="xtick_14">
     <g id="line2d_27">
      <path d="M 344.67613 237.870437 
L 344.67613 39.198438 
" clip-path="url(#p5814af09e3)" style="fill: none; stroke-dasharray: 0.7,1.155; stroke-dashoffset: 0; stroke: #283d58; stroke-width: 0.7"/>
     </g>
     <g id="line2d_28">
      <g>
       <use xlink:href="#m67c42c6f60" x="344.67613" y="237.870437" style="fill: #58a6ff; stroke: #58a6ff; stroke-width: 0.8"/>
      </g>
     </g>
     <g id="text_14">
      <!-- 28 -->
      <g style="fill: #58a6ff" transform="translate(339.805661 248.688797) scale(0.07 -0.07)">
       <use xlink:href="#DejaVuSans-Bold-15"/>
       <use xlink:href="#DejaVuSans-Bold-1b" transform="translate(69.578125 0)"/>
      </g>
     </g>
    </g>
    <g id="xtick_15">
     <g id="line2d_29">
      <path d="M 366.318377 237.870437 
L 366.318377 39.198438 
" clip-path="url(#p5814af09e3)" style="fill: none; stroke-dasharray: 0.7,1.155; stroke-dashoffset: 0; stroke: #283d58; stroke-width: 0.7"/>
     </g>
     <g id="line2d_30">
      <g>
       <use xlink:href="#m67c42c6f60" x="366.318377" y="237.870437" style="fill: #58a6ff; stroke: #58a6ff; stroke-width: 0.8"/>
      </g>
     </g>
     <g id="text_15">
      <!-- 29 -->
      <g style="fill: #58a6ff" transform="translate(361.447909 248.688797) scale(0.07 -0.07)">
       <use xlink:href="#DejaVuSans-Bold-15"/>
       <use xlink:href="#DejaVuSans-Bold-1c" transform="translate(69.578125 0)"/>
      </g>
     </g>
    </g>
    <g id="xtick_16">
     <g id="line2d_31">
      <path d="M 387.960625 237.870437 
L 387.960625 39.198438 
" clip-path="url(#p5814af09e3)" style="fill: none; stroke-dasharray: 0.7,1.155; stroke-dashoffset: 0; stroke: #283d58; stroke-width: 0.7"/>
     </g>
     <g id="line2d_32">
      <g>
       <use xlink:href="#m67c42c6f60" x="387.960625" y="237.870437" style="fill: #58a6ff; stroke: #58a6ff; stroke-width: 0.8"/>
      </g>
     </g>
     <g id="text_16">
      <!-- 30 -->
      <g style="fill: #58a6ff" transform="translate(383.090156 248.688797) scale(0.07 -0.07)">
       <use xlink:href="#DejaVuSans-Bold-16"/>
       <use xlink:href="#DejaVuSans-Bold-13" transform="translate(69.578125 0)"/>
      </g>
     </g>
    </g>
    <g id="xtick_17">
     <g id="line2d_33">
      <path d="M 409.602873 237.870437 
L 409.602873 39.198438 
" clip-path="url(#p5814af09e3)" style="fill: none; stroke-dasharray: 0.7,1.155; stroke-dashoffset: 0; stroke: #283d58; stroke-width: 0.7"/>
     </g>
     <g id="line2d_34">
      <g>
       <use xlink:href="#m67c42c6f60" x="409.602873" y="237.870437" style="fill: #58a6ff; stroke: #58a6ff; stroke-width: 0.8"/>
      </g>
     </g>
     <g id="text_17">
      <!-- 01 -->
      <g style="fill: #58a6ff" transform="translate(404.732404 248.688797) scale(0.07 -0.07)">
       <use xlink:href="#DejaVuSans-Bold-13"/>
       <use xlink:href="#DejaVuSans-Bold-14" transform="translate(69.578125 0)"/>
      </g>
     </g>
    </g>
    <g id="xtick_18">
     <g id="line2d_35">
      <path d="M 431.24512 237.870437 
L 431.24512 39.198438 
" clip-path="url(#p5814af09e3)" style="fill: none; stroke-dasharray: 0.7,1.155; stroke-dashoffset: 0; stroke: #283d58; stroke-width: 0.7"/>
     </g>
     <g id="line2d_36">
      <g>
       <use xlink:href="#m67c42c6f60" x="431.24512" y="237.870437" style="fill: #58a6ff; stroke: #58a6ff; stroke-width: 0.8"/>
      </g>
     </g>
     <g id="text_18">
      <!-- 02 -->
      <g style="fill: #58a6ff" transform="translate(426.374651 248.688797) scale(0.07 -0.07)">
       <use xlink:href="#DejaVuSans-Bold-13"/>
       <use xlink:href="#DejaVuSans-Bold-15" transform="translate(69.578125 0)"/>
      </g>
     </g>
    </g>
    <g id="xtick_19">
     <g id="line2d_37">
      <path d="M 452.887368 237.870437 
L 452.887368 39.198438 
" clip-path="url(#p5814af09e3)" style="fill: none; stroke-dasharray: 0.7,1.155; stroke-dashoffset: 0; stroke: #283d58; stroke-width: 0.7"/>
     </g>
     <g id="line2d_38">
      <g>
       <use xlink:href="#m67c42c6f60" x="452.887368" y="237.870437" style="fill: #58a6ff; stroke: #58a6ff; stroke-width: 0.8"/>
      </g>
     </g>
     <g id="text_19">
      <!-- 03 -->
      <g style="fill: #58a6ff" transform="translate(448.016899 248.688797) scale(0.07 -0.07)">
       <use xlink:href="#DejaVuSans-Bold-13"/>
       <use xlink:href="#DejaVuSans-Bold-16" transform="translate(69.578125 0)"/>
      </g>
     </g>
    </g>
    <g id="xtick_20">
     <g id="line2d_39">
      <path d="M 474.529615 237.870437 
L 474.529615 39.198438 
" clip-path="url(#p5814af09e3)" style="fill: none; stroke-dasharray: 0.7,1.155; stroke-dashoffset: 0; stroke: #283d58; stroke-width: 0.7"/>
     </g>
     <g id="line2d_40">
      <g>
       <use xlink:href="#m67c42c6f60" x="474.529615" y="237.870437" style="fill: #58a6ff; stroke: #58a6ff; stroke-width: 0.8"/>
      </g>
     </g>
     <g id="text_20">
      <!-- 04 -->
      <g style="fill: #58a6ff" transform="translate(469.659147 248.688797) scale(0.07 -0.07)">
       <use xlink:href="#DejaVuSans-Bold-13"/>
       <use xlink:href="#DejaVuSans-Bold-17" transform="translate(69.578125 0)"/>
      </g>
     </g>
    </g>
    <g id="xtick_21">
     <g id="line2d_41">
      <path d="M 496.171863 237.870437 
L 496.171863 39.198438 
" clip-path="url(#p5814af09e3)" style="fill: none; stroke-dasharray: 0.7,1.155; stroke-dashoffset: 0; stroke: #283d58; stroke-width: 0.7"/>
     </g>
     <g id="line2d_42">
      <g>
       <use xlink:href="#m67c42c6f60" x="496.171863" y="237.870437" style="fill: #58a6ff; stroke: #58a6ff; stroke-width: 0.8"/>
      </g>
     </g>
     <g id="text_21">
      <!-- 05 -->
      <g style="fill: #58a6ff" transform="translate(491.301394 248.688797) scale(0.07 -0.07)">
       <use xlink:href="#DejaVuSans-Bold-13"/>
       <use xlink:href="#DejaVuSans-Bold-18" transform="translate(69.578125 0)"/>
      </g>
     </g>
    </g>
    <g id="xtick_22">
     <g id="line2d_43">
      <path d="M 517.814111 237.870437 
L 517.814111 39.198438 
" clip-path="url(#p5814af09e3)" style="fill: none; stroke-dasharray: 0.7,1.155; stroke-dashoffset: 0; stroke: #283d58; stroke-width: 0.7"/>
     </g>
     <g id="line2d_44">
      <g>
       <use xlink:href="#m67c42c6f60" x="517.814111" y="237.870437" style="fill: #58a6ff; stroke: #58a6ff; stroke-width: 0.8"/>
      </g>
     </g>
     <g id="text_22">
      <!-- 06 -->
      <g style="fill: #58a6ff" transform="translate(512.943642 248.688797) scale(0.07 -0.07)">
       <use xlink:href="#DejaVuSans-Bold-13"/>
       <use xlink:href="#DejaVuSans-Bold-19" transform="translate(69.578125 0)"/>
      </g>
     </g>
    </g>
    <g id="xtick_23">
     <g id="line2d_45">
      <path d="M 539.456358 237.870437 
L 539.456358 39.198438 
" clip-path="url(#p5814af09e3)" style="fill: none; stroke-dasharray: 0.7,1.155; stroke-dashoffset: 0; stroke: #283d58; stroke-width: 0.7"/>
     </g>
     <g id="line2d_46">
      <g>
       <use xlink:href="#m67c42c6f60" x="539.456358" y="237.870437" style="fill: #58a6ff; stroke: #58a6ff; stroke-width: 0.8"/>
      </g>
     </g>
     <g id="text_23">
      <!-- 07 -->
      <g style="fill: #58a6ff" transform="translate(534.585889 248.688797) scale(0.07 -0.07)">
       <use xlink:href="#DejaVuSans-Bold-13"/>
       <use xlink:href="#DejaVuSans-Bold-1a" transform="translate(69.578125 0)"/>
      </g>
     </g>
    </g>
    <g id="xtick_24">
     <g id="line2d_47">
      <path d="M 561.098606 237.870437 
L 561.098606 39.198438 
" clip-path="url(#p5814af09e3)" style="fill: none; stroke-dasharray: 0.7,1.155; stroke-dashoffset: 0; stroke: #283d58; stroke-width: 0.7"/>
     </g>
     <g id="line2d_48">
      <g>
       <use xlink:href="#m67c42c6f60" x="561.098606" y="237.870437" style="fill: #58a6ff; stroke: #58a6ff; stroke-width: 0.8"/>
      </g>
     </g>
     <g id="text_24">
      <!-- 08 -->
      <g style="fill: #58a6ff" transform="translate(556.228137 248.688797) scale(0.07 -0.07)">
       <use xlink:href="#DejaVuSans-Bold-13"/>
       <use xlink:href="#DejaVuSans-Bold-1b" transform="translate(69.578125 0)"/>
      </g>
     </g>
    </g>
    <g id="xtick_25">
     <g id="line2d_49">
      <path d="M 582.740853 237.870437 
L 582.740853 39.198438 
" clip-path="url(#p5814af09e3)" style="fill: none; stroke-dasharray: 0.7,1.155; stroke-dashoffset: 0; stroke: #283d58; stroke-width: 0.7"/>
     </g>
     <g id="line2d_50">
      <g>
       <use xlink:href="#m67c42c6f60" x="582.740853" y="237.870437" style="fill: #58a6ff; stroke: #58a6ff; stroke-width: 0.8"/>
      </g>
     </g>
     <g id="text_25">
      <!-- 09 -->
      <g style="fill: #58a6ff" transform="translate(577.870385 248.688797) scale(0.07 -0.07)">
       <use xlink:href="#DejaVuSans-Bold-13"/>
       <use xlink:href="#DejaVuSans-Bold-1c" transform="translate(69.578125 0)"/>
      </g>
     </g>
    </g>
    <g id="xtick_26">
     <g id="line2d_51">
      <path d="M 604.383101 237.870437 
L 604.383101 39.198438 
" clip-path="url(#p5814af09e3)" style="fill: none; stroke-dasharray: 0.7,1.155; stroke-dashoffset: 0; stroke: #283d58; stroke-width: 0.7"/>
     </g>
     <g id="line2d_52">
      <g>
       <use xlink:href="#m67c42c6f60" x="604.383101" y="237.870437" style="fill: #58a6ff; stroke: #58a6ff; stroke-width: 0.8"/>
      </g>
     </g>
     <g id="text_26">
      <!-- 10 -->
      <g style="fill: #58a6ff" transform="translate(599.512632 248.688797) scale(0.07 -0.07)">
       <use xlink:href="#DejaVuSans-Bold-14"/>
       <use xlink:href="#DejaVuSans-Bold-13" transform="translate(69.578125 0)"/>
      </g>
     </g>
    </g>
    <g id="xtick_27">
     <g id="line2d_53">
      <path d="M 626.025349 237.870437 
L 626.025349 39.198438 
" clip-path="url(#p5814af09e3)" style="fill: none; stroke-dasharray: 0.7,1.155; stroke-dashoffset: 0; stroke: #283d58; stroke-width: 0.7"/>
     </g>
     <g id="line2d_54">
      <g>
       <use xlink:href="#m67c42c6f60" x="626.025349" y="237.870437" style="fill: #58a6ff; stroke: #58a6ff; stroke-width: 0.8"/>
      </g>
     </g>
     <g id="text_27">
      <!-- 11 -->
      <g style="fill: #58a6ff" transform="translate(621.15488 248.688797) scale(0.07 -0.07)">
       <use xlink:href="#DejaVuSans-Bold-14"/>
       <use xlink:href="#DejaVuSans-Bold-14" transform="translate(69.578125 0)"/>
      </g>
     </g>
    </g>
    <g id="xtick_28">
     <g id="line2d_55">
      <path d="M 647.667596 237.870437 
L 647.667596 39.198438 
" clip-path="url(#p5814af09e3)" style="fill: none; stroke-dasharray: 0.7,1.155; stroke-dashoffset: 0; stroke: #283d58; stroke-width: 0.7"/>
     </g>
     <g id="line2d_56">
      <g>
       <use xlink:href="#m67c42c6f60" x="647.667596" y="237.870437" style="fill: #58a6ff; stroke: #58a6ff; stroke-width: 0.8"/>
      </g>
     </g>
     <g id="text_28">
      <!-- 12 -->
      <g style="fill: #58a6ff" transform="translate(642.797127 248.688797) scale(0.07 -0.07)">
       <use xlink:href="#DejaVuSans-Bold-14"/>
       <use xlink:href="#DejaVuSans-Bold-15" transform="translate(69.578125 0)"/>
      </g>
     </g>
    </g>
    <g id="xtick_29">
     <g id="line2d_57">
      <path d="M 669.309844 237.870437 
L 669.309844 39.198438 
" clip-path="url(#p5814af09e3)" style="fill: none; stroke-dasharray: 0.7,1.155; stroke-dashoffset: 0; stroke: #283d58; stroke-width: 0.7"/>
     </g>
     <g id="line2d_58">
      <g>
       <use xlink:href="#m67c42c6f60" x="669.309844" y="237.870437" style="fill: #58a6ff; stroke: #58a6ff; stroke-width: 0.8"/>
      </g>
     </g>
     <g id="text_29">
      <!-- 13 -->
      <g style="fill: #58a6ff" transform="translate(664.439375 248.688797) scale(0.07 -0.07)">
       <use xlink:href="#DejaVuSans-Bold-14"/>
       <use xlink:href="#DejaVuSans-Bold-16" transform="translate(69.578125 0)"/>
      </g>
     </g>
    </g>
    <g id="xtick_30">
     <g id="line2d_59">
      <path d="M 690.952091 237.870437 
L 690.952091 39.198438 
" clip-path="url(#p5814af09e3)" style="fill: none; stroke-dasharray: 0.7,1.155; stroke-dashoffset: 0; stroke: #283d58; stroke-width: 0.7"/>
     </g>
     <g id="line2d_60">
      <g>
       <use xlink:href="#m67c42c6f60" x="690.952091" y="237.870437" style="fill: #58a6ff; stroke: #58a6ff; stroke-width: 0.8"/>
      </g>
     </g>
     <g id="text_30">
      <!-- 14 -->
      <g style="fill: #58a6ff" transform="translate(686.081623 248.688797) scale(0.07 -0.07)">
       <use xlink:href="#DejaVuSans-Bold-14"/>
       <use xlink:href="#DejaVuSans-Bold-17" transform="translate(69.578125 0)"/>
      </g>
     </g>
    </g>
    <g id="xtick_31">
     <g id="line2d_61">
      <path d="M 712.594339 237.870437 
L 712.594339 39.198438 
" clip-path="url(#p5814af09e3)" style="fill: none; stroke-dasharray: 0.7,1.155; stroke-dashoffset: 0; stroke: #283d58; stroke-width: 0.7"/>
     </g>
     <g id="line2d_62">
      <g>
       <use xlink:href="#m67c42c6f60" x="712.594339" y="237.870437" style="fill: #58a6ff; stroke: #58a6ff; stroke-width: 0.8"/>
      </g>
     </g>
     <g id="text_31">
      <!-- 15 -->
      <g style="fill: #58a6ff" transform="translate(707.72387 248.688797) scale(0.07 -0.07)">
       <use xlink:href="#DejaVuSans-Bold-14"/>
       <use xlink:href="#DejaVuSans-Bold-18" transform="translate(69.578125 0)"/>
      </g>
     </g>
    </g>
    <g id="text_32">
     <!-- Last Month -->
     <g style="fill: #58a6ff" transform="translate(362.691875 266.449187) scale(0.08 -0.08)">
      <defs>
       <path id="DejaVuSans-Bold-2f" d="M 588 4666 
L 1791 4666 
L 1791 909 
L 3903 909 
L 3903 0 
L 588 0 
L 588 4666 
z
" transform="scale(0.015625)"/>
       <path id="DejaVuSans-Bold-44" d="M 2106 1575 
Q 1756 1575 1579 1456 
Q 1403 1338 1403 1106 
Q 1403 894 1545 773 
Q 1688 653 1941 653 
Q 2256 653 2472 879 
Q 2688 1106 2688 1447 
L 2688 1575 
L 2106 1575 
z
M 3816 1997 
L 3816 0 
L 2688 0 
L 2688 519 
Q 2463 200 2181 54 
Q 1900 -91 1497 -91 
Q 953 -91 614 226 
Q 275 544 275 1050 
Q 275 1666 698 1953 
Q 1122 2241 2028 2241 
L 2688 2241 
L 2688 2328 
Q 2688 2594 2478 2717 
Q 2269 2841 1825 2841 
Q 1466 2841 1156 2769 
Q 847 2697 581 2553 
L 581 3406 
Q 941 3494 1303 3539 
Q 1666 3584 2028 3584 
Q 2975 3584 3395 3211 
Q 3816 2838 3816 1997 
z
" transform="scale(0.015625)"/>
       <path id="DejaVuSans-Bold-56" d="M 3272 3391 
L 3272 2541 
Q 2913 2691 2578 2766 
Q 2244 2841 1947 2841 
Q 1628 2841 1473 2761 
Q 1319 2681 1319 2516 
Q 1319 2381 1436 2309 
Q 1553 2238 1856 2203 
L 2053 2175 
Q 2913 2066 3209 1816 
Q 3506 1566 3506 1031 
Q 3506 472 3093 190 
Q 2681 -91 1863 -91 
Q 1516 -91 1145 -36 
Q 775 19 384 128 
L 384 978 
Q 719 816 1070 734 
Q 1422 653 1784 653 
Q 2113 653 2278 743 
Q 2444 834 2444 1013 
Q 2444 1163 2330 1236 
Q 2216 1309 1875 1350 
L 1678 1375 
Q 931 1469 631 1722 
Q 331 1975 331 2491 
Q 331 3047 712 3315 
Q 1094 3584 1881 3584 
Q 2191 3584 2531 3537 
Q 2872 3491 3272 3391 
z
" transform="scale(0.015625)"/>
       <path id="DejaVuSans-Bold-57" d="M 1759 4494 
L 1759 3500 
L 2913 3500 
L 2913 2700 
L 1759 2700 
L 1759 1216 
Q 1759 972 1856 886 
Q 1953 800 2241 800 
L 2816 800 
L 2816 0 
L 1856 0 
Q 1194 0 917 276 
Q 641 553 641 1216 
L 641 2700 
L 84 2700 
L 84 3500 
L 641 3500 
L 641 4494 
L 1759 4494 
z
" transform="scale(0.015625)"/>
       <path id="DejaVuSans-Bold-3" transform="scale(0.015625)"/>
       <path id="DejaVuSans-Bold-30" d="M 588 4666 
L 2119 4666 
L 3181 2169 
L 4250 4666 
L 5778 4666 
L 5778 0 
L 4641 0 
L 4641 3413 
L 3566 897 
L 2803 897 
L 1728 3413 
L 1728 0 
L 588 0 
L 588 4666 
z
" transform="scale(0.015625)"/>
       <path id="DejaVuSans-Bold-52" d="M 2203 2784 
Q 1831 2784 1636 2517 
Q 1441 2250 1441 1747 
Q 1441 1244 1636 976 
Q 1831 709 2203 709 
Q 2569 709 2762 976 
Q 2956 1244 2956 1747 
Q 2956 2250 2762 2517 
Q 2569 2784 2203 2784 
z
M 2203 3584 
Q 3106 3584 3614 3096 
Q 4122 2609 4122 1747 
Q 4122 884 3614 396 
Q 3106 -91 2203 -91 
Q 1297 -91 786 396 
Q 275 884 275 1747 
Q 275 2609 786 3096 
Q 1297 3584 2203 3584 
z
" transform="scale(0.015625)"/>
       <path id="DejaVuSans-Bold-51" d="M 4056 2131 
L 4056 0 
L 2931 0 
L 2931 347 
L 2931 1631 
Q 2931 2084 2911 2256 
Q 2891 2428 2841 2509 
Q 2775 2619 2662 2680 
Q 2550 2741 2406 2741 
Q 2056 2741 1856 2470 
Q 1656 2200 1656 1722 
L 1656 0 
L 538 0 
L 538 3500 
L 1656 3500 
L 1656 2988 
Q 1909 3294 2193 3439 
Q 2478 3584 2822 3584 
Q 3428 3584 3742 3212 
Q 4056 2841 4056 2131 
z
" transform="scale(0.015625)"/>
       <path id="DejaVuSans-Bold-4b" d="M 4056 2131 
L 4056 0 
L 2931 0 
L 2931 347 
L 2931 1625 
Q 2931 2084 2911 2256 
Q 2891 2428 2841 2509 
Q 2775 2619 2662 2680 
Q 2550 2741 2406 2741 
Q 2056 2741 1856 2470 
Q 1656 2200 1656 1722 
L 1656 0 
L 538 0 
L 538 4863 
L 1656 4863 
L 1656 2988 
Q 1909 3294 2193 3439 
Q 2478 3584 2822 3584 
Q 3428 3584 3742 3212 
Q 4056 2841 4056 2131 
z
" transform="scale(0.015625)"/>
      </defs>
      <use xlink:href="#DejaVuSans-Bold-2f"/>
      <use xlink:href="#DejaVuSans-Bold-44" transform="translate(63.71875 0)"/>
      <use xlink:href="#DejaVuSans-Bold-56" transform="translate(131.203125 0)"/>
      <use xlink:href="#DejaVuSans-Bold-57" transform="translate(190.71875 0)"/>
      <use xlink:href="#DejaVuSans-Bold-3" transform="translate(238.515625 0)"/>
      <use xlink:href="#DejaVuSans-Bold-30" transform="translate(273.328125 0)"/>
      <use xlink:href="#DejaVuSans-Bold-52" transform="translate(372.84375 0)"/>
      <use xlink:href="#DejaVuSans-Bold-51" transform="translate(441.546875 0)"/>
      <use xlink:href="#DejaVuSans-Bold-57" transform="translate(512.734375 0)"/>
      <use xlink:href="#DejaVuSans-Bold-4b" transform="translate(560.53125 0)"/>
     </g>
    </g>
   </g>
   <g id="matplotlib.axis_2">
    <g id="ytick_1">
     <g id="line2d_63">
      <path d="M 50.341563 237.870437 
L 725.579687 237.870437 
" clip-path="url(#p5814af09e3)" style="fill: none; stroke-dasharray: 0.7,1.155; stroke-dashoffset: 0; stroke: #283d58; stroke-width: 0.7"/>
     </g>
     <g id="line2d_64">
      <defs>
       <path id="m5ff4dbd107" d="M 0 0 
L -3.5 0 
" style="stroke: #58a6ff; stroke-width: 0.8"/>
      </defs>
      <g>
       <use xlink:href="#m5ff4dbd107" x="50.341563" y="237.870437" style="fill: #58a6ff; stroke: #58a6ff; stroke-width: 0.8"/>
      </g>
     </g>
     <g id="text_33">
      <!-- 0 -->
      <g style="fill: #58a6ff" transform="translate(38.471094 240.529617) scale(0.07 -0.07)">
       <use xlink:href="#DejaVuSans-Bold-13"/>
      </g>
     </g>
    </g>
    <g id="ytick_2">
     <g id="line2d_65">
      <path d="M 50.341563 211.380837 
L 725.579687 211.380837 
" clip-path="url(#p5814af09e3)" style="fill: none; stroke-dasharray: 0.7,1.155; stroke-dashoffset: 0; stroke: #283d58; stroke-width: 0.7"/>
     </g>
     <g id="line2d_66">
      <g>
       <use xlink:href="#m5ff4dbd107" x="50.341563" y="211.380837" style="fill: #58a6ff; stroke: #58a6ff; stroke-width: 0.8"/>
      </g>
     </g>
     <g id="text_34">
      <!-- 3 -->
      <g style="fill: #58a6ff" transform="translate(38.471094 214.040017) scale(0.07 -0.07)">
       <use xlink:href="#DejaVuSans-Bold-16"/>
      </g>
     </g>
    </g>
    <g id="ytick_3">
     <g id="line2d_67">
      <path d="M 50.341563 184.891237 
L 725.579687 184.891237 
" clip-path="url(#p5814af09e3)" style="fill: none; stroke-dasharray: 0.7,1.155; stroke-dashoffset: 0; stroke: #283d58; stroke-width: 0.7"/>
     </g>
     <g id="line2d_68">
      <g>
       <use xlink:href="#m5ff4dbd107" x="50.341563" y="184.891237" style="fill: #58a6ff; stroke: #58a6ff; stroke-width: 0.8"/>
      </g>
     </g>
     <g id="text_35">
      <!-- 6 -->
      <g style="fill: #58a6ff" transform="translate(38.471094 187.550417) scale(0.07 -0.07)">
       <use xlink:href="#DejaVuSans-Bold-19"/>
      </g>
     </g>
    </g>
    <g id="ytick_4">
     <g id="line2d_69">
      <path d="M 50.341563 158.401637 
L 725.579687 158.401637 
" clip-path="url(#p5814af09e3)" style="fill: none; stroke-dasharray: 0.7,1.155; stroke-dashoffset: 0; stroke: #283d58; stroke-width: 0.7"/>
     </g>
     <g id="line2d_70">
      <g>
       <use xlink:href="#m5ff4dbd107" x="50.341563" y="158.401637" style="fill: #58a6ff; stroke: #58a6ff; stroke-width: 0.8"/>
      </g>
     </g>
     <g id="text_36">
      <!-- 9 -->
      <g style="fill: #58a6ff" transform="translate(38.471094 161.060817) scale(0.07 -0.07)">
       <use xlink:href="#DejaVuSans-Bold-1c"/>
      </g>
     </g>
    </g>
    <g id="ytick_5">
     <g id="line2d_71">
      <path d="M 50.341563 131.912037 
L 725.579687 131.912037 
" clip-path="url(#p5814af09e3)" style="fill: none; stroke-dasharray: 0.7,1.155; stroke-dashoffset: 0; stroke: #283d58; stroke-width: 0.7"/>
     </g>
     <g id="line2d_72">
      <g>
       <use xlink:href="#m5ff4dbd107" x="50.341563" y="131.912037" style="fill: #58a6ff; stroke: #58a6ff; stroke-width: 0.8"/>
      </g>
     </g>
     <g id="text_37">
      <!-- 12 -->
      <g style="fill: #58a6ff" transform="translate(33.600625 134.571217) scale(0.07 -0.07)">
       <use xlink:href="#DejaVuSans-Bold-14"/>
       <use xlink:href="#DejaVuSans-Bold-15" transform="translate(69.578125 0)"/>
      </g>
     </g>
    </g>
    <g id="ytick_6">
     <g id="line2d_73">
      <path d="M 50.341563 105.422438 
L 725.579687 105.422438 
" clip-path="url(#p5814af09e3)" style="fill: none; stroke-dasharray: 0.7,1.155; stroke-dashoffset: 0; stroke: #283d58; stroke-width: 0.7"/>
     </g>
     <g id="line2d_74">
      <g>
       <use xlink:href="#m5ff4dbd107" x="50.341563" y="105.422438" style="fill: #58a6ff; stroke: #58a6ff; stroke-width: 0.8"/>
      </g>
     </g>
     <g id="text_38">
      <!-- 15 -->
      <g style="fill: #58a6ff" transform="translate(33.600625 108.081617) scale(0.07 -0.07)">
       <use xlink:href="#DejaVuSans-Bold-14"/>
       <use xlink:href="#DejaVuSans-Bold-18" transform="translate(69.578125 0)"/>
      </g>
     </g>
    </g>
    <g id="ytick_7">
     <g id="line2d_75">
      <path d="M 50.341563 78.932838 
L 725.579687 78.932838 
" clip-path="url(#p5814af09e3)" style="fill: none; stroke-dasharray: 0.7,1.155; stroke-dashoffset: 0; stroke: #283d58; stroke-width: 0.7"/>
     </g>
     <g id="line2d_76">
      <g>
       <use xlink:href="#m5ff4dbd107" x="50.341563" y="78.932838" style="fill: #58a6ff; stroke: #58a6ff; stroke-width: 0.8"/>
      </g>
     </g>
     <g id="text_39">
      <!-- 18 -->
      <g style="fill: #58a6ff" transform="translate(33.600625 81.592017) scale(0.07 -0.07)">
       <use xlink:href="#DejaVuSans-Bold-14"/>
       <use xlink:href="#DejaVuSans-Bold-1b" transform="translate(69.578125 0)"/>
      </g>
     </g>
    </g>
    <g id="ytick_8">
     <g id="line2d_77">
      <path d="M 50.341563 52.443238 
L 725.579687 52.443238 
" clip-path="url(#p5814af09e3)" style="fill: none; stroke-dasharray: 0.7,1.155; stroke-dashoffset: 0; stroke: #283d58; stroke-width: 0.7"/>
     </g>
     <g id="line2d_78">
      <g>
       <use xlink:href="#m5ff4dbd107" x="50.341563" y="52.443238" style="fill: #58a6ff; stroke: #58a6ff; stroke-width: 0.8"/>
      </g>
     </g>
     <g id="text_40">
      <!-- 21 -->
      <g style="fill: #58a6ff" transform="translate(33.600625 55.102417) scale(0.07 -0.07)">
       <use xlink:href="#DejaVuSans-Bold-15"/>
       <use xlink:href="#DejaVuSans-Bold-14" transform="translate(69.578125 0)"/>
      </g>
     </g>
    </g>
    <g id="text_41">
     <!-- Views / day -->
     <g style="fill: #58a6ff" transform="translate(27.67875 164.013812) rotate(-90) scale(0.08 -0.08)">
      <defs>
       <path id="DejaVuSans-Bold-39" d="M 31 4666 
L 1241 4666 
L 2478 1222 
L 3713 4666 
L 4922 4666 
L 3194 0 
L 1759 0 
L 31 4666 
z
" transform="scale(0.015625)"/>
       <path id="DejaVuSans-Bold-4c" d="M 538 3500 
L 1656 3500 
L 1656 0 
L 538 0 
L 538 3500 
z
M 538 4863 
L 1656 4863 
L 1656 3950 
L 538 3950 
L 538 4863 
z
" transform="scale(0.015625)"/>
       <path id="DejaVuSans-Bold-48" d="M 4031 1759 
L 4031 1441 
L 1416 1441 
Q 1456 1047 1700 850 
Q 1944 653 2381 653 
Q 2734 653 3104 758 
Q 3475 863 3866 1075 
L 3866 213 
Q 3469 63 3072 -14 
Q 2675 -91 2278 -91 
Q 1328 -91 801 392 
Q 275 875 275 1747 
Q 275 2603 792 3093 
Q 1309 3584 2216 3584 
Q 3041 3584 3536 3087 
Q 4031 2591 4031 1759 
z
M 2881 2131 
Q 2881 2450 2695 2645 
Q 2509 2841 2209 2841 
Q 1884 2841 1681 2658 
Q 1478 2475 1428 2131 
L 2881 2131 
z
" transform="scale(0.015625)"/>
       <path id="DejaVuSans-Bold-5a" d="M 225 3500 
L 1313 3500 
L 1900 1088 
L 2491 3500 
L 3425 3500 
L 4013 1113 
L 4603 3500 
L 5691 3500 
L 4769 0 
L 3547 0 
L 2956 2406 
L 2369 0 
L 1147 0 
L 225 3500 
z
" transform="scale(0.015625)"/>
       <path id="DejaVuSans-Bold-12" d="M 1644 4666 
L 2338 4666 
L 691 -594 
L 0 -594 
L 1644 4666 
z
" transform="scale(0.015625)"/>
       <path id="DejaVuSans-Bold-47" d="M 2919 2988 
L 2919 4863 
L 4044 4863 
L 4044 0 
L 2919 0 
L 2919 506 
Q 2688 197 2409 53 
Q 2131 -91 1766 -91 
Q 1119 -91 703 423 
Q 288 938 288 1747 
Q 288 2556 703 3070 
Q 1119 3584 1766 3584 
Q 2128 3584 2408 3439 
Q 2688 3294 2919 2988 
z
M 2181 722 
Q 2541 722 2730 984 
Q 2919 1247 2919 1747 
Q 2919 2247 2730 2509 
Q 2541 2772 2181 2772 
Q 1825 2772 1636 2509 
Q 1447 2247 1447 1747 
Q 1447 1247 1636 984 
Q 1825 722 2181 722 
z
" transform="scale(0.015625)"/>
       <path id="DejaVuSans-Bold-5c" d="M 78 3500 
L 1197 3500 
L 2138 1125 
L 2938 3500 
L 4056 3500 
L 2584 -331 
Q 2363 -916 2067 -1148 
Q 1772 -1381 1288 -1381 
L 641 -1381 
L 641 -647 
L 991 -647 
Q 1275 -647 1404 -556 
Q 1534 -466 1606 -231 
L 1638 -134 
L 78 3500 
z
" transform="scale(0.015625)"/>
      </defs>
      <use xlink:href="#DejaVuSans-Bold-39"/>
      <use xlink:href="#DejaVuSans-Bold-4c" transform="translate(75.640625 0)"/>
      <use xlink:href="#DejaVuSans-Bold-48" transform="translate(109.921875 0)"/>
      <use xlink:href="#DejaVuSans-Bold-5a" transform="translate(177.75 0)"/>
      <use xlink:href="#DejaVuSans-Bold-56" transform="translate(270.140625 0)"/>
      <use xlink:href="#DejaVuSans-Bold-3" transform="translate(329.65625 0)"/>
      <use xlink:href="#DejaVuSans-Bold-12" transform="translate(364.46875 0)"/>
      <use xlink:href="#DejaVuSans-Bold-3" transform="translate(401 0)"/>
      <use xlink:href="#DejaVuSans-Bold-47" transform="translate(435.8125 0)"/>
      <use xlink:href="#DejaVuSans-Bold-44" transform="translate(507.390625 0)"/>
      <use xlink:href="#DejaVuSans-Bold-5c" transform="translate(571.796875 0)"/>
     </g>
    </g>
   </g>
   <g id="FillBetweenPolyCollection_1">
    <defs>
     <path id="m54ed595084" d="M 63.326911 -59.904 
L 63.326911 -59.904 
L 65.498374 -59.904 
L 67.669837 -59.904 
L 69.8413 -59.904 
L 72.012763 -59.904 
L 74.184226 -59.904 
L 76.355689 -59.904 
L 78.527152 -59.904 
L 80.698615 -59.904 
L 82.870078 -59.904 
L 85.041541 -59.904 
L 87.213004 -59.904 
L 89.384467 -59.904 
L 91.55593 -59.904 
L 93.727393 -59.904 
L 95.898856 -59.904 
L 98.070319 -59.904 
L 100.241782 -59.904 
L 102.413245 -59.904 
L 104.584707 -59.904 
L 106.75617 -59.904 
L 108.927633 -59.904 
L 111.099096 -59.904 
L 113.270559 -59.904 
L 115.442022 -59.904 
L 117.613485 -59.904 
L 119.784948 -59.904 
L 121.956411 -59.904 
L 124.127874 -59.904 
L 126.299337 -59.904 
L 128.4708 -59.904 
L 130.642263 -59.904 
L 132.813726 -59.904 
L 134.985189 -59.904 
L 137.156652 -59.904 
L 139.328115 -59.904 
L 141.499578 -59.904 
L 143.671041 -59.904 
L 145.842504 -59.904 
L 148.013967 -59.904 
L 150.18543 -59.904 
L 152.356893 -59.904 
L 154.528356 -59.904 
L 156.699819 -59.904 
L 158.871282 -59.904 
L 161.042745 -59.904 
L 163.214208 -59.904 
L 165.385671 -59.904 
L 167.557134 -59.904 
L 169.728597 -59.904 
L 171.90006 -59.911325 
L 174.071523 -60.238643 
L 176.242985 -60.974441 
L 178.414448 -62.011692 
L 180.585911 -63.243373 
L 182.757374 -64.562457 
L 184.928837 -65.86192 
L 187.1003 -67.034736 
L 189.271763 -67.973882 
L 191.443226 -68.57233 
L 193.614689 -68.723343 
L 195.786152 -68.380684 
L 197.957615 -67.633114 
L 200.129078 -66.587657 
L 202.300541 -65.351339 
L 204.472004 -64.031184 
L 206.643467 -62.734219 
L 208.81493 -61.567467 
L 210.986393 -60.637954 
L 213.157856 -60.052705 
L 215.329319 -59.904 
L 217.500782 -59.904 
L 219.672245 -59.904 
L 221.843708 -59.904 
L 224.015171 -59.904 
L 226.186634 -59.904 
L 228.358097 -59.904 
L 230.52956 -59.904 
L 232.701023 -59.904 
L 234.872486 -59.904 
L 237.043949 -59.964074 
L 239.215412 -61.207895 
L 241.386875 -63.914393 
L 243.558338 -67.890922 
L 245.7298 -72.944837 
L 247.901263 -78.883493 
L 250.072726 -85.514244 
L 252.244189 -92.644446 
L 254.415652 -100.081452 
L 256.587115 -107.632619 
L 258.758578 -115.312652 
L 260.930041 -125.959269 
L 263.101504 -139.722458 
L 265.272967 -155.553371 
L 267.44443 -172.403163 
L 269.615893 -189.222988 
L 271.787356 -204.964 
L 273.958819 -218.577353 
L 276.130282 -229.014202 
L 278.301745 -235.2257 
L 280.473208 -236.211603 
L 282.644671 -232.1336 
L 284.816134 -223.945774 
L 286.987597 -212.552488 
L 289.15906 -198.858103 
L 291.330523 -183.766981 
L 293.501986 -168.183484 
L 295.673449 -153.011974 
L 297.844912 -139.156814 
L 300.016375 -127.522364 
L 302.187838 -118.725673 
L 304.359301 -110.341607 
L 306.530764 -101.818111 
L 308.702227 -93.417397 
L 310.87369 -85.401676 
L 313.045153 -78.033159 
L 315.216616 -71.574058 
L 317.388078 -66.286585 
L 319.559541 -62.43295 
L 321.731004 -60.275366 
L 323.902467 -59.920173 
L 326.07393 -60.099618 
L 328.245393 -60.471539 
L 330.416856 -61.02829 
L 332.588319 -61.762227 
L 334.759782 -62.665706 
L 336.931245 -63.731081 
L 339.102708 -64.950709 
L 341.274171 -66.316943 
L 343.445634 -67.822141 
L 345.617097 -70.018292 
L 347.78856 -76.90197 
L 349.960023 -88.206973 
L 352.131486 -102.641356 
L 354.302949 -118.913173 
L 356.474412 -135.730478 
L 358.645875 -151.801326 
L 360.817338 -165.83377 
L 362.988801 -176.535865 
L 365.160264 -182.615666 
L 367.331727 -182.824993 
L 369.50319 -177.099281 
L 371.674653 -166.665145 
L 373.846116 -152.81453 
L 376.017579 -136.839382 
L 378.189042 -120.031647 
L 380.360505 -103.683271 
L 382.531968 -89.086198 
L 384.703431 -77.532376 
L 386.874894 -70.313749 
L 389.046356 -67.927241 
L 391.217819 -66.413051 
L 393.389282 -65.037314 
L 395.560745 -63.807675 
L 397.732208 -62.731779 
L 399.903671 -61.817269 
L 402.075134 -61.071791 
L 404.246597 -60.50299 
L 406.41806 -60.118509 
L 408.589523 -59.925994 
L 410.760986 -59.904 
L 412.932449 -59.904 
L 415.103912 -59.904 
L 417.275375 -59.904 
L 419.446838 -59.904 
L 421.618301 -59.904 
L 423.789764 -59.904 
L 425.961227 -59.904 
L 428.13269 -59.904 
L 430.304153 -59.904 
L 432.475616 -59.904 
L 434.647079 -59.904 
L 436.818542 -59.904 
L 438.990005 -59.904 
L 441.161468 -59.904 
L 443.332931 -59.904 
L 445.504394 -59.904 
L 447.675857 -59.904 
L 449.84732 -59.904 
L 452.018783 -59.904 
L 454.190246 -60.180446 
L 456.361709 -61.732845 
L 458.533172 -64.371548 
L 460.704634 -67.775481 
L 462.876097 -71.623568 
L 465.04756 -75.594734 
L 467.219023 -79.367903 
L 469.390486 -82.622001 
L 471.561949 -85.035952 
L 473.733412 -86.288681 
L 475.904875 -86.188734 
L 478.076338 -85.126212 
L 480.247801 -83.346623 
L 482.419264 -81.064016 
L 484.590727 -78.492441 
L 486.76219 -75.845948 
L 488.933653 -73.338588 
L 491.105116 -71.184411 
L 493.276579 -69.597467 
L 495.448042 -68.791806 
L 497.619505 -68.733867 
L 499.790968 -68.733867 
L 501.962431 -68.733867 
L 504.133894 -68.733867 
L 506.305357 -68.733867 
L 508.47682 -68.733867 
L 510.648283 -68.733867 
L 512.819746 -68.733867 
L 514.991209 -68.733867 
L 517.162672 -68.733867 
L 519.334135 -68.609316 
L 521.505598 -68.050824 
L 523.677061 -67.140932 
L 525.848524 -65.986666 
L 528.019987 -64.695052 
L 530.19145 -63.373114 
L 532.362912 -62.127877 
L 534.534375 -61.066366 
L 536.705838 -60.295607 
L 538.877301 -59.922625 
L 541.048764 -59.904 
L 543.220227 -59.904 
L 545.39169 -59.904 
L 547.563153 -59.904 
L 549.734616 -59.904 
L 551.906079 -59.904 
L 554.077542 -59.904 
L 556.249005 -59.904 
L 558.420468 -59.904 
L 560.591931 -59.904 
L 562.763394 -59.904 
L 564.934857 -59.904 
L 567.10632 -59.904 
L 569.277783 -59.904 
L 571.449246 -59.904 
L 573.620709 -59.904 
L 575.792172 -59.904 
L 577.963635 -59.904 
L 580.135098 -59.904 
L 582.306561 -59.904 
L 584.478024 -59.904 
L 586.649487 -59.904 
L 588.82095 -59.904 
L 590.992413 -59.904 
L 593.163876 -59.904 
L 595.335339 -59.904 
L 597.506802 -59.904 
L 599.678265 -59.904 
L 601.849727 -59.904 
L 604.02119 -59.904 
L 606.192653 -60.178307 
L 608.364116 -61.151707 
L 610.535579 -62.693132 
L 612.707042 -64.659883 
L 614.878505 -66.90926 
L 617.049968 -69.298562 
L 619.221431 -71.685089 
L 621.392894 -73.926142 
L 623.564357 -75.879019 
L 625.73582 -77.401022 
L 627.907283 -78.605871 
L 630.078746 -79.83331 
L 632.250209 -81.053416 
L 634.421672 -82.230513 
L 636.593135 -83.328928 
L 638.764598 -84.312984 
L 640.936061 -85.147006 
L 643.107524 -85.795321 
L 645.278987 -86.222252 
L 647.45045 -86.392124 
L 649.621913 -86.074933 
L 651.793376 -85.059225 
L 653.964839 -83.485005 
L 656.136302 -81.494973 
L 658.307765 -79.231828 
L 660.479228 -76.838271 
L 662.650691 -74.457003 
L 664.822154 -72.230722 
L 666.993617 -70.30213 
L 669.16508 -68.813927 
L 671.336543 -67.610387 
L 673.508005 -66.382327 
L 675.679468 -65.163978 
L 677.850931 -63.991016 
L 680.022394 -62.899116 
L 682.193857 -61.923952 
L 684.36532 -61.1012 
L 686.536783 -60.466535 
L 688.708246 -60.055631 
L 690.879709 -59.904164 
L 693.051172 -59.904 
L 695.222635 -59.904 
L 697.394098 -59.904 
L 699.565561 -59.904 
L 701.737024 -59.904 
L 703.908487 -59.904 
L 706.07995 -59.904 
L 708.251413 -59.904 
L 710.422876 -59.904 
L 712.594339 -59.904 
L 712.594339 -59.904 
L 712.594339 -59.904 
L 710.422876 -59.904 
L 708.251413 -59.904 
L 706.07995 -59.904 
L 703.908487 -59.904 
L 701.737024 -59.904 
L 699.565561 -59.904 
L 697.394098 -59.904 
L 695.222635 -59.904 
L 693.051172 -59.904 
L 690.879709 -59.904 
L 688.708246 -59.904 
L 686.536783 -59.904 
L 684.36532 -59.904 
L 682.193857 -59.904 
L 680.022394 -59.904 
L 677.850931 -59.904 
L 675.679468 -59.904 
L 673.508005 -59.904 
L 671.336543 -59.904 
L 669.16508 -59.904 
L 666.993617 -59.904 
L 664.822154 -59.904 
L 662.650691 -59.904 
L 660.479228 -59.904 
L 658.307765 -59.904 
L 656.136302 -59.904 
L 653.964839 -59.904 
L 651.793376 -59.904 
L 649.621913 -59.904 
L 647.45045 -59.904 
L 645.278987 -59.904 
L 643.107524 -59.904 
L 640.936061 -59.904 
L 638.764598 -59.904 
L 636.593135 -59.904 
L 634.421672 -59.904 
L 632.250209 -59.904 
L 630.078746 -59.904 
L 627.907283 -59.904 
L 625.73582 -59.904 
L 623.564357 -59.904 
L 621.392894 -59.904 
L 619.221431 -59.904 
L 617.049968 -59.904 
L 614.878505 -59.904 
L 612.707042 -59.904 
L 610.535579 -59.904 
L 608.364116 -59.904 
L 606.192653 -59.904 
L 604.02119 -59.904 
L 601.849727 -59.904 
L 599.678265 -59.904 
L 597.506802 -59.904 
L 595.335339 -59.904 
L 593.163876 -59.904 
L 590.992413 -59.904 
L 588.82095 -59.904 
L 586.649487 -59.904 
L 584.478024 -59.904 
L 582.306561 -59.904 
L 580.135098 -59.904 
L 577.963635 -59.904 
L 575.792172 -59.904 
L 573.620709 -59.904 
L 571.449246 -59.904 
L 569.277783 -59.904 
L 567.10632 -59.904 
L 564.934857 -59.904 
L 562.763394 -59.904 
L 560.591931 -59.904 
L 558.420468 -59.904 
L 556.249005 -59.904 
L 554.077542 -59.904 
L 551.906079 -59.904 
L 549.734616 -59.904 
L 547.563153 -59.904 
L 545.39169 -59.904 
L 543.220227 -59.904 
L 541.048764 -59.904 
L 538.877301 -59.904 
L 536.705838 -59.904 
L 534.534375 -59.904 
L 532.362912 -59.904 
L 530.19145 -59.904 
L 528.019987 -59.904 
L 525.848524 -59.904 
L 523.677061 -59.904 
L 521.505598 -59.904 
L 519.334135 -59.904 
L 517.162672 -59.904 
L 514.991209 -59.904 
L 512.819746 -59.904 
L 510.648283 -59.904 
L 508.47682 -59.904 
L 506.305357 -59.904 
L 504.133894 -59.904 
L 501.962431 -59.904 
L 499.790968 -59.904 
L 497.619505 -59.904 
L 495.448042 -59.904 
L 493.276579 -59.904 
L 491.105116 -59.904 
L 488.933653 -59.904 
L 486.76219 -59.904 
L 484.590727 -59.904 
L 482.419264 -59.904 
L 480.247801 -59.904 
L 478.076338 -59.904 
L 475.904875 -59.904 
L 473.733412 -59.904 
L 471.561949 -59.904 
L 469.390486 -59.904 
L 467.219023 -59.904 
L 465.04756 -59.904 
L 462.876097 -59.904 
L 460.704634 -59.904 
L 458.533172 -59.904 
L 456.361709 -59.904 
L 454.190246 -59.904 
L 452.018783 -59.904 
L 449.84732 -59.904 
L 447.675857 -59.904 
L 445.504394 -59.904 
L 443.332931 -59.904 
L 441.161468 -59.904 
L 438.990005 -59.904 
L 436.818542 -59.904 
L 434.647079 -59.904 
L 432.475616 -59.904 
L 430.304153 -59.904 
L 428.13269 -59.904 
L 425.961227 -59.904 
L 423.789764 -59.904 
L 421.618301 -59.904 
L 419.446838 -59.904 
L 417.275375 -59.904 
L 415.103912 -59.904 
L 412.932449 -59.904 
L 410.760986 -59.904 
L 408.589523 -59.904 
L 406.41806 -59.904 
L 404.246597 -59.904 
L 402.075134 -59.904 
L 399.903671 -59.904 
L 397.732208 -59.904 
L 395.560745 -59.904 
L 393.389282 -59.904 
L 391.217819 -59.904 
L 389.046356 -59.904 
L 386.874894 -59.904 
L 384.703431 -59.904 
L 382.531968 -59.904 
L 380.360505 -59.904 
L 378.189042 -59.904 
L 376.017579 -59.904 
L 373.846116 -59.904 
L 371.674653 -59.904 
L 369.50319 -59.904 
L 367.331727 -59.904 
L 365.160264 -59.904 
L 362.988801 -59.904 
L 360.817338 -59.904 
L 358.645875 -59.904 
L 356.474412 -59.904 
L 354.302949 -59.904 
L 352.131486 -59.904 
L 349.960023 -59.904 
L 347.78856 -59.904 
L 345.617097 -59.904 
L 343.445634 -59.904 
L 341.274171 -59.904 
L 339.102708 -59.904 
L 336.931245 -59.904 
L 334.759782 -59.904 
L 332.588319 -59.904 
L 330.416856 -59.904 
L 328.245393 -59.904 
L 326.07393 -59.904 
L 323.902467 -59.904 
L 321.731004 -59.904 
L 319.559541 -59.904 
L 317.388078 -59.904 
L 315.216616 -59.904 
L 313.045153 -59.904 
L 310.87369 -59.904 
L 308.702227 -59.904 
L 306.530764 -59.904 
L 304.359301 -59.904 
L 302.187838 -59.904 
L 300.016375 -59.904 
L 297.844912 -59.904 
L 295.673449 -59.904 
L 293.501986 -59.904 
L 291.330523 -59.904 
L 289.15906 -59.904 
L 286.987597 -59.904 
L 284.816134 -59.904 
L 282.644671 -59.904 
L 280.473208 -59.904 
L 278.301745 -59.904 
L 276.130282 -59.904 
L 273.958819 -59.904 
L 271.787356 -59.904 
L 269.615893 -59.904 
L 267.44443 -59.904 
L 265.272967 -59.904 
L 263.101504 -59.904 
L 260.930041 -59.904 
L 258.758578 -59.904 
L 256.587115 -59.904 
L 254.415652 -59.904 
L 252.244189 -59.904 
L 250.072726 -59.904 
L 247.901263 -59.904 
L 245.7298 -59.904 
L 243.558338 -59.904 
L 241.386875 -59.904 
L 239.215412 -59.904 
L 237.043949 -59.904 
L 234.872486 -59.904 
L 232.701023 -59.904 
L 230.52956 -59.904 
L 228.358097 -59.904 
L 226.186634 -59.904 
L 224.015171 -59.904 
L 221.843708 -59.904 
L 219.672245 -59.904 
L 217.500782 -59.904 
L 215.329319 -59.904 
L 213.157856 -59.904 
L 210.986393 -59.904 
L 208.81493 -59.904 
L 206.643467 -59.904 
L 204.472004 -59.904 
L 202.300541 -59.904 
L 200.129078 -59.904 
L 197.957615 -59.904 
L 195.786152 -59.904 
L 193.614689 -59.904 
L 191.443226 -59.904 
L 189.271763 -59.904 
L 187.1003 -59.904 
L 184.928837 -59.904 
L 182.757374 -59.904 
L 180.585911 -59.904 
L 178.414448 -59.904 
L 176.242985 -59.904 
L 174.071523 -59.904 
L 171.90006 -59.904 
L 169.728597 -59.904 
L 167.557134 -59.904 
L 165.385671 -59.904 
L 163.214208 -59.904 
L 161.042745 -59.904 
L 158.871282 -59.904 
L 156.699819 -59.904 
L 154.528356 -59.904 
L 152.356893 -59.904 
L 150.18543 -59.904 
L 148.013967 -59.904 
L 145.842504 -59.904 
L 143.671041 -59.904 
L 141.499578 -59.904 
L 139.328115 -59.904 
L 137.156652 -59.904 
L 134.985189 -59.904 
L 132.813726 -59.904 
L 130.642263 -59.904 
L 128.4708 -59.904 
L 126.299337 -59.904 
L 124.127874 -59.904 
L 121.956411 -59.904 
L 119.784948 -59.904 
L 117.613485 -59.904 
L 115.442022 -59.904 
L 113.270559 -59.904 
L 111.099096 -59.904 
L 108.927633 -59.904 
L 106.75617 -59.904 
L 104.584707 -59.904 
L 102.413245 -59.904 
L 100.241782 -59.904 
L 98.070319 -59.904 
L 95.898856 -59.904 
L 93.727393 -59.904 
L 91.55593 -59.904 
L 89.384467 -59.904 
L 87.213004 -59.904 
L 85.041541 -59.904 
L 82.870078 -59.904 
L 80.698615 -59.904 
L 78.527152 -59.904 
L 76.355689 -59.904 
L 74.184226 -59.904 
L 72.012763 -59.904 
L 69.8413 -59.904 
L 67.669837 -59.904 
L 65.498374 -59.904 
L 63.326911 -59.904 
z
" style="stroke: #1f6feb; stroke-opacity: 0.15"/>
    </defs>
    <g clip-path="url(#p5814af09e3)">
     <use xlink:href="#m54ed595084" x="0" y="297.774437" style="fill: #1f6feb; fill-opacity: 0.15; stroke: #1f6feb; stroke-opacity: 0.15"/>
    </g>
   </g>
   <g id="patch_3">
    <path d="M 50.341563 237.870437 
L 50.341563 39.198438 
" style="fill: none; stroke: #283d58; stroke-width: 0.8; stroke-linejoin: miter; stroke-linecap: square"/>
   </g>
   <g id="patch_4">
    <path d="M 725.579687 237.870437 
L 725.579687 39.198438 
" style="fill: none; stroke: #283d58; stroke-width: 0.8; stroke-linejoin: miter; stroke-linecap: square"/>
   </g>
   <g id="patch_5">
    <path d="M 50.341562 237.870437 
L 725.579687 237.870437 
" style="fill: none; stroke: #283d58; stroke-width: 0.8; stroke-linejoin: miter; stroke-linecap: square"/>
   </g>
   <g id="patch_6">
    <path d="M 50.341562 39.198438 
L 725.579687 39.198438 
" style="fill: none; stroke: #283d58; stroke-width: 0.8; stroke-linejoin: miter; stroke-linecap: square"/>
   </g>
   <g id="line2d_79">
    <path d="M 63.326911 237.870437 
L 171.90006 237.863113 
L 174.071523 237.535794 
L 176.242985 236.799997 
L 178.414448 235.762745 
L 182.757374 233.211981 
L 187.1003 230.739701 
L 189.271763 229.800556 
L 191.443226 229.202107 
L 193.614689 229.051095 
L 195.786152 229.393754 
L 197.957615 230.141324 
L 200.129078 231.186781 
L 204.472004 233.743253 
L 206.643467 235.040219 
L 208.81493 236.206971 
L 210.986393 237.136484 
L 213.157856 237.721732 
L 215.329319 237.870437 
L 237.043949 237.810364 
L 239.215412 236.566542 
L 241.386875 233.860044 
L 243.558338 229.883515 
L 245.7298 224.8296 
L 247.901263 218.890945 
L 250.072726 212.260193 
L 254.415652 197.692985 
L 258.758578 182.461786 
L 260.930041 171.815168 
L 263.101504 158.05198 
L 265.272967 142.221067 
L 269.615893 108.55145 
L 271.787356 92.810438 
L 273.958819 79.197084 
L 276.130282 68.760236 
L 278.301745 62.548738 
L 280.473208 61.562835 
L 282.644671 65.640838 
L 284.816134 73.828663 
L 286.987597 85.221949 
L 289.15906 98.916335 
L 297.844912 158.617624 
L 300.016375 170.252073 
L 304.359301 187.43283 
L 308.702227 204.35704 
L 310.87369 212.372762 
L 313.045153 219.741278 
L 315.216616 226.200379 
L 317.388078 231.487853 
L 319.559541 235.341487 
L 321.731004 237.499071 
L 323.902467 237.854265 
L 326.07393 237.674819 
L 328.245393 237.302899 
L 330.416856 236.746147 
L 332.588319 236.01221 
L 334.759782 235.108732 
L 336.931245 234.043356 
L 339.102708 232.823729 
L 341.274171 231.457494 
L 343.445634 229.952297 
L 345.617097 227.756146 
L 347.78856 220.872467 
L 349.960023 209.567464 
L 352.131486 195.133081 
L 358.645875 145.973112 
L 360.817338 131.940668 
L 362.988801 121.238572 
L 365.160264 115.158772 
L 367.331727 114.949444 
L 369.50319 120.675156 
L 371.674653 131.109293 
L 373.846116 144.959907 
L 376.017579 160.935055 
L 380.360505 194.091167 
L 382.531968 208.688239 
L 384.703431 220.242062 
L 386.874894 227.460689 
L 389.046356 229.847197 
L 391.217819 231.361386 
L 393.389282 232.737123 
L 395.560745 233.966762 
L 397.732208 235.042659 
L 399.903671 235.957168 
L 402.075134 236.702646 
L 404.246597 237.271448 
L 406.41806 237.655928 
L 408.589523 237.848443 
L 421.618301 237.870437 
L 452.018783 237.870437 
L 454.190246 237.593992 
L 456.361709 236.041593 
L 458.533172 233.402889 
L 460.704634 229.998956 
L 467.219023 218.406534 
L 469.390486 215.152436 
L 471.561949 212.738485 
L 473.733412 211.485757 
L 475.904875 211.585704 
L 478.076338 212.648225 
L 480.247801 214.427815 
L 482.419264 216.710422 
L 488.933653 224.435849 
L 491.105116 226.590027 
L 493.276579 228.176971 
L 495.448042 228.982632 
L 499.790968 229.040571 
L 517.162672 229.040571 
L 519.334135 229.165121 
L 521.505598 229.723614 
L 523.677061 230.633505 
L 525.848524 231.787771 
L 532.362912 235.646561 
L 534.534375 236.708071 
L 536.705838 237.47883 
L 538.877301 237.851812 
L 551.906079 237.870437 
L 604.02119 237.870437 
L 606.192653 237.596131 
L 608.364116 236.622731 
L 610.535579 235.081305 
L 612.707042 233.114554 
L 617.049968 228.475876 
L 621.392894 223.848296 
L 623.564357 221.895418 
L 625.73582 220.373416 
L 636.593135 214.44551 
L 638.764598 213.461454 
L 640.936061 212.627431 
L 643.107524 211.979117 
L 645.278987 211.552186 
L 647.45045 211.382313 
L 649.621913 211.699505 
L 651.793376 212.715212 
L 653.964839 214.289433 
L 656.136302 216.279465 
L 660.479228 220.936166 
L 664.822154 225.543715 
L 666.993617 227.472307 
L 669.16508 228.960511 
L 680.022394 234.875321 
L 682.193857 235.850485 
L 684.36532 236.673237 
L 686.536783 237.307903 
L 688.708246 237.718806 
L 690.879709 237.870273 
L 712.594339 237.870437 
L 712.594339 237.870437 
" clip-path="url(#p5814af09e3)" style="fill: none; stroke: #1f6feb; stroke-width: 2.5; stroke-linecap: square"/>
   </g>
   <g id="text_42">
    <!-- Marcin Grygiel aka FirstEver — Profile Views -->
    <g style="fill: #58a6ff" transform="translate(262.809844 29.198438) scale(0.1 -0.1)">
     <defs>
      <path id="DejaVuSans-Bold-55" d="M 3138 2547 
Q 2991 2616 2845 2648 
Q 2700 2681 2553 2681 
Q 2122 2681 1889 2404 
Q 1656 2128 1656 1613 
L 1656 0 
L 538 0 
L 538 3500 
L 1656 3500 
L 1656 2925 
Q 1872 3269 2151 3426 
Q 2431 3584 2822 3584 
Q 2878 3584 2943 3579 
Q 3009 3575 3134 3559 
L 3138 2547 
z
" transform="scale(0.015625)"/>
      <path id="DejaVuSans-Bold-46" d="M 3366 3391 
L 3366 2478 
Q 3138 2634 2908 2709 
Q 2678 2784 2431 2784 
Q 1963 2784 1702 2511 
Q 1441 2238 1441 1747 
Q 1441 1256 1702 982 
Q 1963 709 2431 709 
Q 2694 709 2930 787 
Q 3166 866 3366 1019 
L 3366 103 
Q 3103 6 2833 -42 
Q 2563 -91 2291 -91 
Q 1344 -91 809 395 
Q 275 881 275 1747 
Q 275 2613 809 3098 
Q 1344 3584 2291 3584 
Q 2566 3584 2833 3536 
Q 3100 3488 3366 3391 
z
" transform="scale(0.015625)"/>
      <path id="DejaVuSans-Bold-2a" d="M 4781 347 
Q 4331 128 3847 18 
Q 3363 -91 2847 -91 
Q 1681 -91 1000 561 
Q 319 1213 319 2328 
Q 319 3456 1012 4103 
Q 1706 4750 2913 4750 
Q 3378 4750 3804 4662 
Q 4231 4575 4609 4403 
L 4609 3438 
Q 4219 3659 3833 3768 
Q 3447 3878 3059 3878 
Q 2341 3878 1952 3476 
Q 1563 3075 1563 2328 
Q 1563 1588 1938 1184 
Q 2313 781 3003 781 
Q 3191 781 3352 804 
Q 3513 828 3641 878 
L 3641 1784 
L 2906 1784 
L 2906 2591 
L 4781 2591 
L 4781 347 
z
" transform="scale(0.015625)"/>
      <path id="DejaVuSans-Bold-4a" d="M 2919 594 
Q 2688 288 2409 144 
Q 2131 0 1766 0 
Q 1125 0 706 504 
Q 288 1009 288 1791 
Q 288 2575 706 3076 
Q 1125 3578 1766 3578 
Q 2131 3578 2409 3434 
Q 2688 3291 2919 2981 
L 2919 3500 
L 4044 3500 
L 4044 353 
Q 4044 -491 3511 -936 
Q 2978 -1381 1966 -1381 
Q 1638 -1381 1331 -1331 
Q 1025 -1281 716 -1178 
L 716 -306 
Q 1009 -475 1290 -558 
Q 1572 -641 1856 -641 
Q 2406 -641 2662 -400 
Q 2919 -159 2919 353 
L 2919 594 
z
M 2181 2772 
Q 1834 2772 1640 2515 
Q 1447 2259 1447 1791 
Q 1447 1309 1634 1061 
Q 1822 813 2181 813 
Q 2531 813 2725 1069 
Q 2919 1325 2919 1791 
Q 2919 2259 2725 2515 
Q 2531 2772 2181 2772 
z
" transform="scale(0.015625)"/>
      <path id="DejaVuSans-Bold-4f" d="M 538 4863 
L 1656 4863 
L 1656 0 
L 538 0 
L 538 4863 
z
" transform="scale(0.015625)"/>
      <path id="DejaVuSans-Bold-4e" d="M 538 4863 
L 1656 4863 
L 1656 2216 
L 2944 3500 
L 4244 3500 
L 2534 1894 
L 4378 0 
L 3022 0 
L 1656 1459 
L 1656 0 
L 538 0 
L 538 4863 
z
" transform="scale(0.015625)"/>
      <path id="DejaVuSans-Bold-29" d="M 588 4666 
L 3834 4666 
L 3834 3756 
L 1791 3756 
L 1791 2888 
L 3713 2888 
L 3713 1978 
L 1791 1978 
L 1791 0 
L 588 0 
L 588 4666 
z
" transform="scale(0.015625)"/>
      <path id="DejaVuSans-Bold-28" d="M 588 4666 
L 3834 4666 
L 3834 3756 
L 1791 3756 
L 1791 2888 
L 3713 2888 
L 3713 1978 
L 1791 1978 
L 1791 909 
L 3903 909 
L 3903 0 
L 588 0 
L 588 4666 
z
" transform="scale(0.015625)"/>
      <path id="DejaVuSans-Bold-59" d="M 97 3500 
L 1216 3500 
L 2088 1081 
L 2956 3500 
L 4078 3500 
L 2700 0 
L 1472 0 
L 97 3500 
z
" transform="scale(0.015625)"/>
      <path id="DejaVuSans-Bold-af6" d="M 344 2156 
L 6056 2156 
L 6056 1350 
L 344 1350 
L 344 2156 
z
" transform="scale(0.015625)"/>
      <path id="DejaVuSans-Bold-33" d="M 588 4666 
L 2584 4666 
Q 3475 4666 3951 4270 
Q 4428 3875 4428 3144 
Q 4428 2409 3951 2014 
Q 3475 1619 2584 1619 
L 1791 1619 
L 1791 0 
L 588 0 
L 588 4666 
z
M 1791 3794 
L 1791 2491 
L 2456 2491 
Q 2806 2491 2997 2661 
Q 3188 2831 3188 3144 
Q 3188 3456 2997 3625 
Q 2806 3794 2456 3794 
L 1791 3794 
z
" transform="scale(0.015625)"/>
      <path id="DejaVuSans-Bold-13ab" d="M 3078 4863 
L 4206 4863 
L 4206 3950 
L 3078 3950 
L 3078 4863 
z
M 2847 4863 
L 2847 4128 
L 2228 4128 
Q 1994 4128 1903 4042 
Q 1813 3956 1813 3744 
L 1813 3500 
L 4206 3500 
L 4206 0 
L 3078 0 
L 3078 2700 
L 1813 2700 
L 1813 0 
L 684 0 
L 684 2700 
L 134 2700 
L 134 3500 
L 684 3500 
L 684 3744 
Q 684 4316 1003 4589 
Q 1322 4863 1991 4863 
L 2847 4863 
z
" transform="scale(0.015625)"/>
     </defs>
     <use xlink:href="#DejaVuSans-Bold-30"/>
     <use xlink:href="#DejaVuSans-Bold-44" transform="translate(99.515625 0)"/>
     <use xlink:href="#DejaVuSans-Bold-55" transform="translate(167 0)"/>
     <use xlink:href="#DejaVuSans-Bold-46" transform="translate(216.3125 0)"/>
     <use xlink:href="#DejaVuSans-Bold-4c" transform="translate(275.59375 0)"/>
     <use xlink:href="#DejaVuSans-Bold-51" transform="translate(309.875 0)"/>
     <use xlink:href="#DejaVuSans-Bold-3" transform="translate(381.0625 0)"/>
     <use xlink:href="#DejaVuSans-Bold-2a" transform="translate(415.875 0)"/>
     <use xlink:href="#DejaVuSans-Bold-55" transform="translate(497.953125 0)"/>
     <use xlink:href="#DejaVuSans-Bold-5c" transform="translate(547.265625 0)"/>
     <use xlink:href="#DejaVuSans-Bold-4a" transform="translate(612.453125 0)"/>
     <use xlink:href="#DejaVuSans-Bold-4c" transform="translate(684.03125 0)"/>
     <use xlink:href="#DejaVuSans-Bold-48" transform="translate(718.3125 0)"/>
     <use xlink:href="#DejaVuSans-Bold-4f" transform="translate(786.140625 0)"/>
     <use xlink:href="#DejaVuSans-Bold-3" transform="translate(820.421875 0)"/>
     <use xlink:href="#DejaVuSans-Bold-44" transform="translate(855.234375 0)"/>
     <use xlink:href="#DejaVuSans-Bold-4e" transform="translate(922.71875 0)"/>
     <use xlink:href="#DejaVuSans-Bold-44" transform="translate(989.21875 0)"/>
     <use xlink:href="#DejaVuSans-Bold-3" transform="translate(1056.703125 0)"/>
     <use xlink:href="#DejaVuSans-Bold-29" transform="translate(1091.515625 0)"/>
     <use xlink:href="#DejaVuSans-Bold-4c" transform="translate(1159.828125 0)"/>
     <use xlink:href="#DejaVuSans-Bold-55" transform="translate(1194.109375 0)"/>
     <use xlink:href="#DejaVuSans-Bold-56" transform="translate(1243.421875 0)"/>
     <use xlink:href="#DejaVuSans-Bold-57" transform="translate(1302.9375 0)"/>
     <use xlink:href="#DejaVuSans-Bold-28" transform="translate(1350.734375 0)"/>
     <use xlink:href="#DejaVuSans-Bold-59" transform="translate(1419.046875 0)"/>
     <use xlink:href="#DejaVuSans-Bold-48" transform="translate(1484.234375 0)"/>
     <use xlink:href="#DejaVuSans-Bold-55" transform="translate(1552.0625 0)"/>
     <use xlink:href="#DejaVuSans-Bold-3" transform="translate(1601.375 0)"/>
     <use xlink:href="#DejaVuSans-Bold-af6" transform="translate(1636.1875 0)"/>
     <use xlink:href="#DejaVuSans-Bold-3" transform="translate(1736.1875 0)"/>
     <use xlink:href="#DejaVuSans-Bold-33" transform="translate(1771 0)"/>
     <use xlink:href="#DejaVuSans-Bold-55" transform="translate(1844.296875 0)"/>
     <use xlink:href="#DejaVuSans-Bold-52" transform="translate(1893.609375 0)"/>
     <use xlink:href="#DejaVuSans-Bold-13ab" transform="translate(1962.3125 0)"/>
     <use xlink:href="#DejaVuSans-Bold-4f" transform="translate(2036.4375 0)"/>
     <use xlink:href="#DejaVuSans-Bold-48" transform="translate(2070.71875 0)"/>
     <use xlink:href="#DejaVuSans-Bold-3" transform="translate(2138.546875 0)"/>
     <use xlink:href="#DejaVuSans-Bold-39" transform="translate(2173.359375 0)"/>
     <use xlink:href="#DejaVuSans-Bold-4c" transform="translate(2249 0)"/>
     <use xlink:href="#DejaVuSans-Bold-48" transform="translate(2283.28125 0)"/>
     <use xlink:href="#DejaVuSans-Bold-5a" transform="translate(2351.109375 0)"/>
     <use xlink:href="#DejaVuSans-Bold-56" transform="translate(2443.5 0)"/>
    </g>
   </g>
   <g id="PathCollection_1">
    <defs>
     <path id="m19abe2cdc0" d="M 0 2.738613 
C 0.726289 2.738613 1.422928 2.450055 1.936492 1.936492 
C 2.450055 1.422928 2.738613 0.726289 2.738613 0 
C 2.738613 -0.726289 2.450055 -1.422928 1.936492 -1.936492 
C 1.422928 -2.450055 0.726289 -2.738613 0 -2.738613 
C -0.726289 -2.738613 -1.422928 -2.450055 -1.936492 -1.936492 
C -2.450055 -1.422928 -2.738613 -0.726289 -2.738613 0 
C -2.738613 0.726289 -2.450055 1.422928 -1.936492 1.936492 
C -1.422928 2.450055 -0.726289 2.738613 0 2.738613 
z
"/>
    </defs>
    <g clip-path="url(#p5814af09e3)">
     <use xlink:href="#m19abe2cdc0" x="63.326911" y="237.870437" style="fill: #58a6ff"/>
     <use xlink:href="#m19abe2cdc0" x="84.969159" y="237.870437" style="fill: #58a6ff"/>
     <use xlink:href="#m19abe2cdc0" x="106.611406" y="237.870437" style="fill: #58a6ff"/>
     <use xlink:href="#m19abe2cdc0" x="128.253654" y="237.870437" style="fill: #58a6ff"/>
     <use xlink:href="#m19abe2cdc0" x="149.895901" y="237.870437" style="fill: #58a6ff"/>
     <use xlink:href="#m19abe2cdc0" x="171.538149" y="237.870437" style="fill: #58a6ff"/>
     <use xlink:href="#m19abe2cdc0" x="193.180397" y="229.040571" style="fill: #58a6ff"/>
     <use xlink:href="#m19abe2cdc0" x="214.822644" y="237.870437" style="fill: #58a6ff"/>
     <use xlink:href="#m19abe2cdc0" x="236.464892" y="237.870437" style="fill: #58a6ff"/>
     <use xlink:href="#m19abe2cdc0" x="258.107139" y="184.891237" style="fill: #58a6ff"/>
     <use xlink:href="#m19abe2cdc0" x="279.749387" y="61.273104" style="fill: #58a6ff"/>
     <use xlink:href="#m19abe2cdc0" x="301.391635" y="176.061371" style="fill: #58a6ff"/>
     <use xlink:href="#m19abe2cdc0" x="323.033882" y="237.870437" style="fill: #58a6ff"/>
     <use xlink:href="#m19abe2cdc0" x="344.67613" y="229.040571" style="fill: #58a6ff"/>
     <use xlink:href="#m19abe2cdc0" x="366.318377" y="114.252304" style="fill: #58a6ff"/>
     <use xlink:href="#m19abe2cdc0" x="387.960625" y="229.040571" style="fill: #58a6ff"/>
     <use xlink:href="#m19abe2cdc0" x="409.602873" y="237.870437" style="fill: #58a6ff"/>
     <use xlink:href="#m19abe2cdc0" x="431.24512" y="237.870437" style="fill: #58a6ff"/>
     <use xlink:href="#m19abe2cdc0" x="452.887368" y="237.870437" style="fill: #58a6ff"/>
     <use xlink:href="#m19abe2cdc0" x="474.529615" y="211.380837" style="fill: #58a6ff"/>
     <use xlink:href="#m19abe2cdc0" x="496.171863" y="229.040571" style="fill: #58a6ff"/>
     <use xlink:href="#m19abe2cdc0" x="517.814111" y="229.040571" style="fill: #58a6ff"/>
     <use xlink:href="#m19abe2cdc0" x="539.456358" y="237.870437" style="fill: #58a6ff"/>
     <use xlink:href="#m19abe2cdc0" x="561.098606" y="237.870437" style="fill: #58a6ff"/>
     <use xlink:href="#m19abe2cdc0" x="582.740853" y="237.870437" style="fill: #58a6ff"/>
     <use xlink:href="#m19abe2cdc0" x="604.383101" y="237.870437" style="fill: #58a6ff"/>
     <use xlink:href="#m19abe2cdc0" x="626.025349" y="220.210704" style="fill: #58a6ff"/>
     <use xlink:href="#m19abe2cdc0" x="647.667596" y="211.380837" style="fill: #58a6ff"/>
     <use xlink:href="#m19abe2cdc0" x="669.309844" y="229.040571" style="fill: #58a6ff"/>
     <use xlink:href="#m19abe2cdc0" x="690.952091" y="237.870437" style="fill: #58a6ff"/>
     <use xlink:href="#m19abe2cdc0" x="712.594339" y="237.870437" style="fill: #58a6ff"/>
    </g>
   </g>
  </g>
  <g id="text_43">
   <!-- ▲ vs yesterday: -1 / day   │   ⌀ last 7 days: 0.9 / day   │   ⌀ last 31 days: 2.0 / day   │   vs last month: +61 / month   │   Peak (all-time): 14 / day -->
   <g style="fill: #58a6ff" transform="translate(77.95957 274.299437) scale(0.075 -0.075)">
    <defs>
     <path id="DejaVuSans-Bold-e89" d="M 19 -788 
L 2459 4113 
L 4903 -788 
L 19 -788 
z
" transform="scale(0.015625)"/>
     <path id="DejaVuSans-Bold-1d" d="M 716 3500 
L 1844 3500 
L 1844 2291 
L 716 2291 
L 716 3500 
z
M 716 1209 
L 1844 1209 
L 1844 0 
L 716 0 
L 716 1209 
z
" transform="scale(0.015625)"/>
     <path id="DejaVuSans-Bold-10" d="M 347 2297 
L 2309 2297 
L 2309 1388 
L 347 1388 
L 347 2297 
z
" transform="scale(0.015625)"/>
     <path id="DejaVuSans-Bold-dd9" d="M 1675 -1600 
L 1675 6003 
L 2175 6003 
L 2175 -1600 
L 1675 -1600 
z
" transform="scale(0.015625)"/>
     <path id="DejaVuSans-Bold-d8a" d="M 1925 3272 
Q 2484 3272 2916 2947 
L 3288 3319 
L 3659 2947 
L 3288 2572 
Q 3603 2147 3603 1588 
Q 3603 897 3113 403 
Q 2616 -91 1925 -91 
Q 1375 -91 944 228 
L 572 -144 
L 200 228 
L 572 600 
Q 250 1028 250 1588 
Q 250 2284 741 2778 
Q 1238 3272 1925 3272 
z
M 2531 2559 
Q 2263 2731 1978 2731 
Q 1459 2731 1122 2397 
Q 788 2063 788 1588 
Q 788 1253 959 988 
L 2531 2559 
z
M 1331 616 
Q 1597 450 1878 450 
Q 2394 450 2731 784 
Q 3066 1119 3066 1588 
Q 3066 1922 2900 2184 
L 1331 616 
z
" transform="scale(0.015625)"/>
     <path id="DejaVuSans-Bold-11" d="M 653 1209 
L 1778 1209 
L 1778 0 
L 653 0 
L 653 1209 
z
" transform="scale(0.015625)"/>
     <path id="DejaVuSans-Bold-50" d="M 3781 2919 
Q 3994 3244 4286 3414 
Q 4578 3584 4928 3584 
Q 5531 3584 5847 3212 
Q 6163 2841 6163 2131 
L 6163 0 
L 5038 0 
L 5038 1825 
Q 5041 1866 5042 1909 
Q 5044 1953 5044 2034 
Q 5044 2406 4934 2573 
Q 4825 2741 4581 2741 
Q 4263 2741 4089 2478 
Q 3916 2216 3909 1719 
L 3909 0 
L 2784 0 
L 2784 1825 
Q 2784 2406 2684 2573 
Q 2584 2741 2328 2741 
Q 2006 2741 1831 2477 
Q 1656 2213 1656 1722 
L 1656 0 
L 531 0 
L 531 3500 
L 1656 3500 
L 1656 2988 
Q 1863 3284 2130 3434 
Q 2397 3584 2719 3584 
Q 3081 3584 3359 3409 
Q 3638 3234 3781 2919 
z
" transform="scale(0.015625)"/>
     <path id="DejaVuSans-Bold-e" d="M 3053 4013 
L 3053 2375 
L 4684 2375 
L 4684 1638 
L 3053 1638 
L 3053 0 
L 2309 0 
L 2309 1638 
L 678 1638 
L 678 2375 
L 2309 2375 
L 2309 4013 
L 3053 4013 
z
" transform="scale(0.015625)"/>
     <path id="DejaVuSans-Bold-b" d="M 2413 -844 
L 1484 -844 
Q 1006 -72 778 623 
Q 550 1319 550 2003 
Q 550 2688 779 3389 
Q 1009 4091 1484 4856 
L 2413 4856 
Q 2013 4116 1813 3408 
Q 1613 2700 1613 2009 
Q 1613 1319 1811 609 
Q 2009 -100 2413 -844 
z
" transform="scale(0.015625)"/>
     <path id="DejaVuSans-Bold-c" d="M 513 -844 
Q 913 -100 1113 609 
Q 1313 1319 1313 2009 
Q 1313 2700 1113 3408 
Q 913 4116 513 4856 
L 1441 4856 
Q 1916 4091 2145 3389 
Q 2375 2688 2375 2003 
Q 2375 1319 2147 623 
Q 1919 -72 1441 -844 
L 513 -844 
z
" transform="scale(0.015625)"/>
    </defs>
    <use xlink:href="#DejaVuSans-Bold-e89"/>
    <use xlink:href="#DejaVuSans-Bold-3" transform="translate(76.90625 0)"/>
    <use xlink:href="#DejaVuSans-Bold-59" transform="translate(111.71875 0)"/>
    <use xlink:href="#DejaVuSans-Bold-56" transform="translate(176.90625 0)"/>
    <use xlink:href="#DejaVuSans-Bold-3" transform="translate(236.421875 0)"/>
    <use xlink:href="#DejaVuSans-Bold-5c" transform="translate(271.234375 0)"/>
    <use xlink:href="#DejaVuSans-Bold-48" transform="translate(336.421875 0)"/>
    <use xlink:href="#DejaVuSans-Bold-56" transform="translate(404.25 0)"/>
    <use xlink:href="#DejaVuSans-Bold-57" transform="translate(463.765625 0)"/>
    <use xlink:href="#DejaVuSans-Bold-48" transform="translate(511.5625 0)"/>
    <use xlink:href="#DejaVuSans-Bold-55" transform="translate(579.390625 0)"/>
    <use xlink:href="#DejaVuSans-Bold-47" transform="translate(628.703125 0)"/>
    <use xlink:href="#DejaVuSans-Bold-44" transform="translate(700.28125 0)"/>
    <use xlink:href="#DejaVuSans-Bold-5c" transform="translate(764.6875 0)"/>
    <use xlink:href="#DejaVuSans-Bold-1d" transform="translate(829.875 0)"/>
    <use xlink:href="#DejaVuSans-Bold-3" transform="translate(869.859375 0)"/>
    <use xlink:href="#DejaVuSans-Bold-10" transform="translate(904.671875 0)"/>
    <use xlink:href="#DejaVuSans-Bold-14" transform="translate(946.171875 0)"/>
    <use xlink:href="#DejaVuSans-Bold-3" transform="translate(1015.75 0)"/>
    <use xlink:href="#DejaVuSans-Bold-12" transform="translate(1050.5625 0)"/>
    <use xlink:href="#DejaVuSans-Bold-3" transform="translate(1087.09375 0)"/>
    <use xlink:href="#DejaVuSans-Bold-47" transform="translate(1121.90625 0)"/>
    <use xlink:href="#DejaVuSans-Bold-44" transform="translate(1193.484375 0)"/>
    <use xlink:href="#DejaVuSans-Bold-5c" transform="translate(1257.890625 0)"/>
    <use xlink:href="#DejaVuSans-Bold-3" transform="translate(1323.078125 0)"/>
    <use xlink:href="#DejaVuSans-Bold-3" transform="translate(1357.890625 0)"/>
    <use xlink:href="#DejaVuSans-Bold-3" transform="translate(1392.703125 0)"/>
    <use xlink:href="#DejaVuSans-Bold-dd9" transform="translate(1427.515625 0)"/>
    <use xlink:href="#DejaVuSans-Bold-3" transform="translate(1487.71875 0)"/>
    <use xlink:href="#DejaVuSans-Bold-3" transform="translate(1522.53125 0)"/>
    <use xlink:href="#DejaVuSans-Bold-3" transform="translate(1557.34375 0)"/>
    <use xlink:href="#DejaVuSans-Bold-d8a" transform="translate(1592.15625 0)"/>
    <use xlink:href="#DejaVuSans-Bold-3" transform="translate(1652.359375 0)"/>
    <use xlink:href="#DejaVuSans-Bold-4f" transform="translate(1687.171875 0)"/>
    <use xlink:href="#DejaVuSans-Bold-44" transform="translate(1721.453125 0)"/>
    <use xlink:href="#DejaVuSans-Bold-56" transform="translate(1788.9375 0)"/>
    <use xlink:href="#DejaVuSans-Bold-57" transform="translate(1848.453125 0)"/>
    <use xlink:href="#DejaVuSans-Bold-3" transform="translate(1896.25 0)"/>
    <use xlink:href="#DejaVuSans-Bold-1a" transform="translate(1931.0625 0)"/>
    <use xlink:href="#DejaVuSans-Bold-3" transform="translate(2000.640625 0)"/>
    <use xlink:href="#DejaVuSans-Bold-47" transform="translate(2035.453125 0)"/>
    <use xlink:href="#DejaVuSans-Bold-44" transform="translate(2107.03125 0)"/>
    <use xlink:href="#DejaVuSans-Bold-5c" transform="translate(2171.4375 0)"/>
    <use xlink:href="#DejaVuSans-Bold-56" transform="translate(2236.625 0)"/>
    <use xlink:href="#DejaVuSans-Bold-1d" transform="translate(2296.140625 0)"/>
    <use xlink:href="#DejaVuSans-Bold-3" transform="translate(2336.125 0)"/>
    <use xlink:href="#DejaVuSans-Bold-13" transform="translate(2370.9375 0)"/>
    <use xlink:href="#DejaVuSans-Bold-11" transform="translate(2440.515625 0)"/>
    <use xlink:href="#DejaVuSans-Bold-1c" transform="translate(2478.5 0)"/>
    <use xlink:href="#DejaVuSans-Bold-3" transform="translate(2548.078125 0)"/>
    <use xlink:href="#DejaVuSans-Bold-12" transform="translate(2582.890625 0)"/>
    <use xlink:href="#DejaVuSans-Bold-3" transform="translate(2619.421875 0)"/>
    <use xlink:href="#DejaVuSans-Bold-47" transform="translate(2654.234375 0)"/>
    <use xlink:href="#DejaVuSans-Bold-44" transform="translate(2725.8125 0)"/>
    <use xlink:href="#DejaVuSans-Bold-5c" transform="translate(2790.21875 0)"/>
    <use xlink:href="#DejaVuSans-Bold-3" transform="translate(2855.40625 0)"/>
    <use xlink:href="#DejaVuSans-Bold-3" transform="translate(2890.21875 0)"/>
    <use xlink:href="#DejaVuSans-Bold-3" transform="translate(2925.03125 0)"/>
    <use xlink:href="#DejaVuSans-Bold-dd9" transform="translate(2959.84375 0)"/>
    <use xlink:href="#DejaVuSans-Bold-3" transform="translate(3020.046875 0)"/>
    <use xlink:href="#DejaVuSans-Bold-3" transform="translate(3054.859375 0)"/>
    <use xlink:href="#DejaVuSans-Bold-3" transform="translate(3089.671875 0)"/>
    <use xlink:href="#DejaVuSans-Bold-d8a" transform="translate(3124.484375 0)"/>
    <use xlink:href="#DejaVuSans-Bold-3" transform="translate(3184.6875 0)"/>
    <use xlink:href="#DejaVuSans-Bold-4f" transform="translate(3219.5 0)"/>
    <use xlink:href="#DejaVuSans-Bold-44" transform="translate(3253.78125 0)"/>
    <use xlink:href="#DejaVuSans-Bold-56" transform="translate(3321.265625 0)"/>
    <use xlink:href="#DejaVuSans-Bold-57" transform="translate(3380.78125 0)"/>
    <use xlink:href="#DejaVuSans-Bold-3" transform="translate(3428.578125 0)"/>
    <use xlink:href="#DejaVuSans-Bold-16" transform="translate(3463.390625 0)"/>
    <use xlink:href="#DejaVuSans-Bold-14" transform="translate(3532.96875 0)"/>
    <use xlink:href="#DejaVuSans-Bold-3" transform="translate(3602.546875 0)"/>
    <use xlink:href="#DejaVuSans-Bold-47" transform="translate(3637.359375 0)"/>
    <use xlink:href="#DejaVuSans-Bold-44" transform="translate(3708.9375 0)"/>
    <use xlink:href="#DejaVuSans-Bold-5c" transform="translate(3773.34375 0)"/>
    <use xlink:href="#DejaVuSans-Bold-56" transform="translate(3838.53125 0)"/>
    <use xlink:href="#DejaVuSans-Bold-1d" transform="translate(3898.046875 0)"/>
    <use xlink:href="#DejaVuSans-Bold-3" transform="translate(3938.03125 0)"/>
    <use xlink:href="#DejaVuSans-Bold-15" transform="translate(3972.84375 0)"/>
    <use xlink:href="#DejaVuSans-Bold-11" transform="translate(4042.421875 0)"/>
    <use xlink:href="#DejaVuSans-Bold-13" transform="translate(4080.40625 0)"/>
    <use xlink:href="#DejaVuSans-Bold-3" transform="translate(4149.984375 0)"/>
    <use xlink:href="#DejaVuSans-Bold-12" transform="translate(4184.796875 0)"/>
    <use xlink:href="#DejaVuSans-Bold-3" transform="translate(4221.328125 0)"/>
    <use xlink:href="#DejaVuSans-Bold-47" transform="translate(4256.140625 0)"/>
    <use xlink:href="#DejaVuSans-Bold-44" transform="translate(4327.71875 0)"/>
    <use xlink:href="#DejaVuSans-Bold-5c" transform="translate(4392.125 0)"/>
    <use xlink:href="#DejaVuSans-Bold-3" transform="translate(4457.3125 0)"/>
    <use xlink:href="#DejaVuSans-Bold-3" transform="translate(4492.125 0)"/>
    <use xlink:href="#DejaVuSans-Bold-3" transform="translate(4526.9375 0)"/>
    <use xlink:href="#DejaVuSans-Bold-dd9" transform="translate(4561.75 0)"/>
    <use xlink:href="#DejaVuSans-Bold-3" transform="translate(4621.953125 0)"/>
    <use xlink:href="#DejaVuSans-Bold-3" transform="translate(4656.765625 0)"/>
    <use xlink:href="#DejaVuSans-Bold-3" transform="translate(4691.578125 0)"/>
    <use xlink:href="#DejaVuSans-Bold-59" transform="translate(4726.390625 0)"/>
    <use xlink:href="#DejaVuSans-Bold-56" transform="translate(4791.578125 0)"/>
    <use xlink:href="#DejaVuSans-Bold-3" transform="translate(4851.09375 0)"/>
    <use xlink:href="#DejaVuSans-Bold-4f" transform="translate(4885.90625 0)"/>
    <use xlink:href="#DejaVuSans-Bold-44" transform="translate(4920.1875 0)"/>
    <use xlink:href="#DejaVuSans-Bold-56" transform="translate(4987.671875 0)"/>
    <use xlink:href="#DejaVuSans-Bold-57" transform="translate(5047.1875 0)"/>
    <use xlink:href="#DejaVuSans-Bold-3" transform="translate(5094.984375 0)"/>
    <use xlink:href="#DejaVuSans-Bold-50" transform="translate(5129.796875 0)"/>
    <use xlink:href="#DejaVuSans-Bold-52" transform="translate(5234 0)"/>
    <use xlink:href="#DejaVuSans-Bold-51" transform="translate(5302.703125 0)"/>
    <use xlink:href="#DejaVuSans-Bold-57" transform="translate(5373.890625 0)"/>
    <use xlink:href="#DejaVuSans-Bold-4b" transform="translate(5421.6875 0)"/>
    <use xlink:href="#DejaVuSans-Bold-1d" transform="translate(5492.875 0)"/>
    <use xlink:href="#DejaVuSans-Bold-3" transform="translate(5532.859375 0)"/>
    <use xlink:href="#DejaVuSans-Bold-e" transform="translate(5567.671875 0)"/>
    <use xlink:href="#DejaVuSans-Bold-19" transform="translate(5651.46875 0)"/>
    <use xlink:href="#DejaVuSans-Bold-14" transform="translate(5721.046875 0)"/>
    <use xlink:href="#DejaVuSans-Bold-3" transform="translate(5790.625 0)"/>
    <use xlink:href="#DejaVuSans-Bold-12" transform="translate(5825.4375 0)"/>
    <use xlink:href="#DejaVuSans-Bold-3" transform="translate(5861.96875 0)"/>
    <use xlink:href="#DejaVuSans-Bold-50" transform="translate(5896.78125 0)"/>
    <use xlink:href="#DejaVuSans-Bold-52" transform="translate(6000.984375 0)"/>
    <use xlink:href="#DejaVuSans-Bold-51" transform="translate(6069.6875 0)"/>
    <use xlink:href="#DejaVuSans-Bold-57" transform="translate(6140.875 0)"/>
    <use xlink:href="#DejaVuSans-Bold-4b" transform="translate(6188.671875 0)"/>
    <use xlink:href="#DejaVuSans-Bold-3" transform="translate(6259.859375 0)"/>
    <use xlink:href="#DejaVuSans-Bold-3" transform="translate(6294.671875 0)"/>
    <use xlink:href="#DejaVuSans-Bold-3" transform="translate(6329.484375 0)"/>
    <use xlink:href="#DejaVuSans-Bold-dd9" transform="translate(6364.296875 0)"/>
    <use xlink:href="#DejaVuSans-Bold-3" transform="translate(6424.5 0)"/>
    <use xlink:href="#DejaVuSans-Bold-3" transform="translate(6459.3125 0)"/>
    <use xlink:href="#DejaVuSans-Bold-3" transform="translate(6494.125 0)"/>
    <use xlink:href="#DejaVuSans-Bold-33" transform="translate(6528.9375 0)"/>
    <use xlink:href="#DejaVuSans-Bold-48" transform="translate(6602.234375 0)"/>
    <use xlink:href="#DejaVuSans-Bold-44" transform="translate(6670.0625 0)"/>
    <use xlink:href="#DejaVuSans-Bold-4e" transform="translate(6737.546875 0)"/>
    <use xlink:href="#DejaVuSans-Bold-3" transform="translate(6804.046875 0)"/>
    <use xlink:href="#DejaVuSans-Bold-b" transform="translate(6838.859375 0)"/>
    <use xlink:href="#DejaVuSans-Bold-44" transform="translate(6884.5625 0)"/>
    <use xlink:href="#DejaVuSans-Bold-4f" transform="translate(6952.046875 0)"/>
    <use xlink:href="#DejaVuSans-Bold-4f" transform="translate(6986.328125 0)"/>
    <use xlink:href="#DejaVuSans-Bold-10" transform="translate(7020.609375 0)"/>
    <use xlink:href="#DejaVuSans-Bold-57" transform="translate(7062.109375 0)"/>
    <use xlink:href="#DejaVuSans-Bold-4c" transform="translate(7109.90625 0)"/>
    <use xlink:href="#DejaVuSans-Bold-50" transform="translate(7144.1875 0)"/>
    <use xlink:href="#DejaVuSans-Bold-48" transform="translate(7248.390625 0)"/>
    <use xlink:href="#DejaVuSans-Bold-c" transform="translate(7316.21875 0)"/>
    <use xlink:href="#DejaVuSans-Bold-1d" transform="translate(7361.921875 0)"/>
    <use xlink:href="#DejaVuSans-Bold-3" transform="translate(7401.90625 0)"/>
    <use xlink:href="#DejaVuSans-Bold-14" transform="translate(7436.71875 0)"/>
    <use xlink:href="#DejaVuSans-Bold-17" transform="translate(7506.296875 0)"/>
    <use xlink:href="#DejaVuSans-Bold-3" transform="translate(7575.875 0)"/>
    <use xlink:href="#DejaVuSans-Bold-12" transform="translate(7610.6875 0)"/>
    <use xlink:href="#DejaVuSans-Bold-3" transform="translate(7647.21875 0)"/>
    <use xlink:href="#DejaVuSans-Bold-47" transform="translate(7682.03125 0)"/>
    <use xlink:href="#DejaVuSans-Bold-44" transform="translate(7753.609375 0)"/>
    <use xlink:href="#DejaVuSans-Bold-5c" transform="translate(7818.015625 0)"/>
   </g>
  </g>
 </g>
 <defs>
  <clipPath id="p5814af09e3">
   <rect x="50.341563" y="39.198438" width="675.238125" height="198.672"/>
  </clipPath>
 </defs>
</svg>
