<?xml version="1.0" encoding="utf-8" standalone="no"?>
<!DOCTYPE svg PUBLIC "-//W3C//DTD SVG 1.1//EN"
  "http://www.w3.org/Graphics/SVG/1.1/DTD/svg11.dtd">
<svg xmlns:xlink="http://www.w3.org/1999/xlink" width="747.250156pt" height="313.758437pt" viewBox="0 0 747.250156 313.758437" xmlns="http://www.w3.org/2000/svg" version="1.1">
<style>
.draw-line{stroke-dasharray:3000;stroke-dashoffset:3000;animation:draw 3s ease-out forwards}
@keyframes draw{to{stroke-dashoffset:0}}
</style>
 <metadata>
  <rdf:RDF xmlns:dc="http://purl.org/dc/elements/1.1/" xmlns:cc="http://creativecommons.org/ns#" xmlns:rdf="http://www.w3.org/1999/02/22-rdf-syntax-ns#">
   <cc:Work>
    <dc:type rdf:resource="http://purl.org/dc/dcmitype/StillImage"/>
    <dc:date>2026-07-09T18:06:06.100103</dc:date>
    <dc:format>image/svg+xml</dc:format>
    <dc:creator>
     <cc:Agent>
      <dc:title>Matplotlib v3.11.0, https://matplotlib.org/</dc:title>
     </cc:Agent>
    </dc:creator>
   </cc:Work>
  </rdf:RDF>
 </metadata>
 <defs>
  <style type="text/css">*{stroke-linejoin: round; stroke-linecap: butt}</style>
 </defs>
 <g id="figure_1">
  <g id="patch_1">
   <path d="M 0 313.758437 
L 747.250156 313.758437 
L 747.250156 0 
L 0 0 
L 0 313.758437 
z
" style="fill: none"/>
  </g>
  <g id="axes_1">
   <g id="patch_2">
    <path d="M 55.212031 236.430437 
L 725.650156 236.430437 
L 725.650156 39.198438 
L 55.212031 39.198438 
L 55.212031 236.430437 
z
" style="fill: none"/>
   </g>
   <g id="matplotlib.axis_1">
    <g id="xtick_1">
     <g id="line2d_1">
      <path d="M 68.105072 236.430437 
L 68.105072 39.198438 
" clip-path="url(#p1ca37bf4c5)" style="fill: none; stroke-dasharray: 0.7,1.155; stroke-dashoffset: 0; stroke: #283d58; stroke-width: 0.7"/>
     </g>
     <g id="line2d_2">
      <defs>
       <path id="m2cb32855da" d="M 0 0 
L 0 3.5 
" style="stroke: #58a6ff; stroke-width: 0.8"/>
      </defs>
      <g>
       <use xlink:href="#m2cb32855da" x="68.105072" y="236.430437" style="fill: #58a6ff; stroke: #58a6ff; stroke-width: 0.8"/>
      </g>
     </g>
     <g id="text_1">
      <!-- 09 -->
      <g style="fill: #58a6ff" transform="translate(63.234603 247.248797) scale(0.07 -0.07)">
       <defs>
        <path id="DejaVuSans-Bold-13" d="M 2944 2338 
Q 2944 3213 2780 3570 
Q 2616 3928 2228 3928 
Q 1841 3928 1675 3570 
Q 1509 3213 1509 2338 
Q 1509 1453 1675 1090 
Q 1841 728 2228 728 
Q 2613 728 2778 1090 
Q 2944 1453 2944 2338 
z
M 4147 2328 
Q 4147 1169 3647 539 
Q 3147 -91 2228 -91 
Q 1306 -91 806 539 
Q 306 1169 306 2328 
Q 306 3491 806 4120 
Q 1306 4750 2228 4750 
Q 3147 4750 3647 4120 
Q 4147 3491 4147 2328 
z
" transform="scale(0.015625)"/>
        <path id="DejaVuSans-Bold-1c" d="M 641 103 
L 641 966 
Q 928 831 1190 764 
Q 1453 697 1709 697 
Q 2247 697 2547 995 
Q 2847 1294 2900 1881 
Q 2688 1725 2447 1647 
Q 2206 1569 1925 1569 
Q 1209 1569 770 1986 
Q 331 2403 331 3084 
Q 331 3838 820 4291 
Q 1309 4744 2131 4744 
Q 3044 4744 3544 4128 
Q 4044 3513 4044 2388 
Q 4044 1231 3459 570 
Q 2875 -91 1856 -91 
Q 1528 -91 1228 -42 
Q 928 6 641 103 
z
M 2125 2350 
Q 2441 2350 2600 2554 
Q 2759 2759 2759 3169 
Q 2759 3575 2600 3781 
Q 2441 3988 2125 3988 
Q 1809 3988 1650 3781 
Q 1491 3575 1491 3169 
Q 1491 2759 1650 2554 
Q 1809 2350 2125 2350 
z
" transform="scale(0.015625)"/>
       </defs>
       <use xlink:href="#DejaVuSans-Bold-13"/>
       <use xlink:href="#DejaVuSans-Bold-1c" transform="translate(69.578125 0)"/>
      </g>
     </g>
    </g>
    <g id="xtick_2">
     <g id="line2d_3">
      <path d="M 89.593474 236.430437 
L 89.593474 39.198438 
" clip-path="url(#p1ca37bf4c5)" style="fill: none; stroke-dasharray: 0.7,1.155; stroke-dashoffset: 0; stroke: #283d58; stroke-width: 0.7"/>
     </g>
     <g id="line2d_4">
      <g>
       <use xlink:href="#m2cb32855da" x="89.593474" y="236.430437" style="fill: #58a6ff; stroke: #58a6ff; stroke-width: 0.8"/>
      </g>
     </g>
     <g id="text_2">
      <!-- 10 -->
      <g style="fill: #58a6ff" transform="translate(84.723005 247.248797) scale(0.07 -0.07)">
       <defs>
        <path id="DejaVuSans-Bold-14" d="M 750 831 
L 1813 831 
L 1813 3847 
L 722 3622 
L 722 4441 
L 1806 4666 
L 2950 4666 
L 2950 831 
L 4013 831 
L 4013 0 
L 750 0 
L 750 831 
z
" transform="scale(0.015625)"/>
       </defs>
       <use xlink:href="#DejaVuSans-Bold-14"/>
       <use xlink:href="#DejaVuSans-Bold-13" transform="translate(69.578125 0)"/>
      </g>
     </g>
    </g>
    <g id="xtick_3">
     <g id="line2d_5">
      <path d="M 111.081875 236.430437 
L 111.081875 39.198438 
" clip-path="url(#p1ca37bf4c5)" style="fill: none; stroke-dasharray: 0.7,1.155; stroke-dashoffset: 0; stroke: #283d58; stroke-width: 0.7"/>
     </g>
     <g id="line2d_6">
      <g>
       <use xlink:href="#m2cb32855da" x="111.081875" y="236.430437" style="fill: #58a6ff; stroke: #58a6ff; stroke-width: 0.8"/>
      </g>
     </g>
     <g id="text_3">
      <!-- 11 -->
      <g style="fill: #58a6ff" transform="translate(106.211406 247.248797) scale(0.07 -0.07)">
       <use xlink:href="#DejaVuSans-Bold-14"/>
       <use xlink:href="#DejaVuSans-Bold-14" transform="translate(69.578125 0)"/>
      </g>
     </g>
    </g>
    <g id="xtick_4">
     <g id="line2d_7">
      <path d="M 132.570276 236.430437 
L 132.570276 39.198438 
" clip-path="url(#p1ca37bf4c5)" style="fill: none; stroke-dasharray: 0.7,1.155; stroke-dashoffset: 0; stroke: #283d58; stroke-width: 0.7"/>
     </g>
     <g id="line2d_8">
      <g>
       <use xlink:href="#m2cb32855da" x="132.570276" y="236.430437" style="fill: #58a6ff; stroke: #58a6ff; stroke-width: 0.8"/>
      </g>
     </g>
     <g id="text_4">
      <!-- 12 -->
      <g style="fill: #58a6ff" transform="translate(127.699808 247.248797) scale(0.07 -0.07)">
       <defs>
        <path id="DejaVuSans-Bold-15" d="M 1844 884 
L 3897 884 
L 3897 0 
L 506 0 
L 506 884 
L 2209 2388 
Q 2438 2594 2547 2791 
Q 2656 2988 2656 3200 
Q 2656 3528 2436 3728 
Q 2216 3928 1850 3928 
Q 1569 3928 1234 3808 
Q 900 3688 519 3450 
L 519 4475 
Q 925 4609 1322 4679 
Q 1719 4750 2100 4750 
Q 2938 4750 3402 4381 
Q 3866 4013 3866 3353 
Q 3866 2972 3669 2642 
Q 3472 2313 2841 1759 
L 1844 884 
z
" transform="scale(0.015625)"/>
       </defs>
       <use xlink:href="#DejaVuSans-Bold-14"/>
       <use xlink:href="#DejaVuSans-Bold-15" transform="translate(69.578125 0)"/>
      </g>
     </g>
    </g>
    <g id="xtick_5">
     <g id="line2d_9">
      <path d="M 154.058678 236.430437 
L 154.058678 39.198438 
" clip-path="url(#p1ca37bf4c5)" style="fill: none; stroke-dasharray: 0.7,1.155; stroke-dashoffset: 0; stroke: #283d58; stroke-width: 0.7"/>
     </g>
     <g id="line2d_10">
      <g>
       <use xlink:href="#m2cb32855da" x="154.058678" y="236.430437" style="fill: #58a6ff; stroke: #58a6ff; stroke-width: 0.8"/>
      </g>
     </g>
     <g id="text_5">
      <!-- 13 -->
      <g style="fill: #58a6ff" transform="translate(149.188209 247.248797) scale(0.07 -0.07)">
       <defs>
        <path id="DejaVuSans-Bold-16" d="M 2981 2516 
Q 3453 2394 3698 2092 
Q 3944 1791 3944 1325 
Q 3944 631 3412 270 
Q 2881 -91 1863 -91 
Q 1503 -91 1142 -33 
Q 781 25 428 141 
L 428 1069 
Q 766 900 1098 814 
Q 1431 728 1753 728 
Q 2231 728 2486 893 
Q 2741 1059 2741 1369 
Q 2741 1688 2480 1852 
Q 2219 2016 1709 2016 
L 1228 2016 
L 1228 2791 
L 1734 2791 
Q 2188 2791 2409 2933 
Q 2631 3075 2631 3366 
Q 2631 3634 2415 3781 
Q 2200 3928 1806 3928 
Q 1516 3928 1219 3862 
Q 922 3797 628 3669 
L 628 4550 
Q 984 4650 1334 4700 
Q 1684 4750 2022 4750 
Q 2931 4750 3382 4451 
Q 3834 4153 3834 3553 
Q 3834 3144 3618 2883 
Q 3403 2622 2981 2516 
z
" transform="scale(0.015625)"/>
       </defs>
       <use xlink:href="#DejaVuSans-Bold-14"/>
       <use xlink:href="#DejaVuSans-Bold-16" transform="translate(69.578125 0)"/>
      </g>
     </g>
    </g>
    <g id="xtick_6">
     <g id="line2d_11">
      <path d="M 175.547079 236.430437 
L 175.547079 39.198438 
" clip-path="url(#p1ca37bf4c5)" style="fill: none; stroke-dasharray: 0.7,1.155; stroke-dashoffset: 0; stroke: #283d58; stroke-width: 0.7"/>
     </g>
     <g id="line2d_12">
      <g>
       <use xlink:href="#m2cb32855da" x="175.547079" y="236.430437" style="fill: #58a6ff; stroke: #58a6ff; stroke-width: 0.8"/>
      </g>
     </g>
     <g id="text_6">
      <!-- 14 -->
      <g style="fill: #58a6ff" transform="translate(170.676611 247.248797) scale(0.07 -0.07)">
       <defs>
        <path id="DejaVuSans-Bold-17" d="M 2356 3675 
L 1038 1722 
L 2356 1722 
L 2356 3675 
z
M 2156 4666 
L 3494 4666 
L 3494 1722 
L 4159 1722 
L 4159 850 
L 3494 850 
L 3494 0 
L 2356 0 
L 2356 850 
L 288 850 
L 288 1881 
L 2156 4666 
z
" transform="scale(0.015625)"/>
       </defs>
       <use xlink:href="#DejaVuSans-Bold-14"/>
       <use xlink:href="#DejaVuSans-Bold-17" transform="translate(69.578125 0)"/>
      </g>
     </g>
    </g>
    <g id="xtick_7">
     <g id="line2d_13">
      <path d="M 197.035481 236.430437 
L 197.035481 39.198438 
" clip-path="url(#p1ca37bf4c5)" style="fill: none; stroke-dasharray: 0.7,1.155; stroke-dashoffset: 0; stroke: #283d58; stroke-width: 0.7"/>
     </g>
     <g id="line2d_14">
      <g>
       <use xlink:href="#m2cb32855da" x="197.035481" y="236.430437" style="fill: #58a6ff; stroke: #58a6ff; stroke-width: 0.8"/>
      </g>
     </g>
     <g id="text_7">
      <!-- 15 -->
      <g style="fill: #58a6ff" transform="translate(192.165012 247.248797) scale(0.07 -0.07)">
       <defs>
        <path id="DejaVuSans-Bold-18" d="M 678 4666 
L 3669 4666 
L 3669 3781 
L 1638 3781 
L 1638 3059 
Q 1775 3097 1914 3117 
Q 2053 3138 2203 3138 
Q 3056 3138 3531 2711 
Q 4006 2284 4006 1522 
Q 4006 766 3489 337 
Q 2972 -91 2053 -91 
Q 1656 -91 1267 -14 
Q 878 63 494 219 
L 494 1166 
Q 875 947 1217 837 
Q 1559 728 1863 728 
Q 2300 728 2551 942 
Q 2803 1156 2803 1522 
Q 2803 1891 2551 2103 
Q 2300 2316 1863 2316 
Q 1603 2316 1309 2248 
Q 1016 2181 678 2041 
L 678 4666 
z
" transform="scale(0.015625)"/>
       </defs>
       <use xlink:href="#DejaVuSans-Bold-14"/>
       <use xlink:href="#DejaVuSans-Bold-18" transform="translate(69.578125 0)"/>
      </g>
     </g>
    </g>
    <g id="xtick_8">
     <g id="line2d_15">
      <path d="M 218.523882 236.430437 
L 218.523882 39.198438 
" clip-path="url(#p1ca37bf4c5)" style="fill: none; stroke-dasharray: 0.7,1.155; stroke-dashoffset: 0; stroke: #283d58; stroke-width: 0.7"/>
     </g>
     <g id="line2d_16">
      <g>
       <use xlink:href="#m2cb32855da" x="218.523882" y="236.430437" style="fill: #58a6ff; stroke: #58a6ff; stroke-width: 0.8"/>
      </g>
     </g>
     <g id="text_8">
      <!-- 16 -->
      <g style="fill: #58a6ff" transform="translate(213.653413 247.248797) scale(0.07 -0.07)">
       <defs>
        <path id="DejaVuSans-Bold-19" d="M 2316 2303 
Q 2000 2303 1842 2098 
Q 1684 1894 1684 1484 
Q 1684 1075 1842 870 
Q 2000 666 2316 666 
Q 2634 666 2792 870 
Q 2950 1075 2950 1484 
Q 2950 1894 2792 2098 
Q 2634 2303 2316 2303 
z
M 3803 4544 
L 3803 3681 
Q 3506 3822 3243 3889 
Q 2981 3956 2731 3956 
Q 2194 3956 1894 3657 
Q 1594 3359 1544 2772 
Q 1750 2925 1990 3001 
Q 2231 3078 2516 3078 
Q 3231 3078 3670 2659 
Q 4109 2241 4109 1563 
Q 4109 813 3618 361 
Q 3128 -91 2303 -91 
Q 1394 -91 895 523 
Q 397 1138 397 2266 
Q 397 3422 980 4083 
Q 1563 4744 2578 4744 
Q 2900 4744 3203 4694 
Q 3506 4644 3803 4544 
z
" transform="scale(0.015625)"/>
       </defs>
       <use xlink:href="#DejaVuSans-Bold-14"/>
       <use xlink:href="#DejaVuSans-Bold-19" transform="translate(69.578125 0)"/>
      </g>
     </g>
    </g>
    <g id="xtick_9">
     <g id="line2d_17">
      <path d="M 240.012284 236.430437 
L 240.012284 39.198438 
" clip-path="url(#p1ca37bf4c5)" style="fill: none; stroke-dasharray: 0.7,1.155; stroke-dashoffset: 0; stroke: #283d58; stroke-width: 0.7"/>
     </g>
     <g id="line2d_18">
      <g>
       <use xlink:href="#m2cb32855da" x="240.012284" y="236.430437" style="fill: #58a6ff; stroke: #58a6ff; stroke-width: 0.8"/>
      </g>
     </g>
     <g id="text_9">
      <!-- 17 -->
      <g style="fill: #58a6ff" transform="translate(235.141815 247.248797) scale(0.07 -0.07)">
       <defs>
        <path id="DejaVuSans-Bold-1a" d="M 428 4666 
L 3944 4666 
L 3944 3988 
L 2125 0 
L 953 0 
L 2675 3781 
L 428 3781 
L 428 4666 
z
" transform="scale(0.015625)"/>
       </defs>
       <use xlink:href="#DejaVuSans-Bold-14"/>
       <use xlink:href="#DejaVuSans-Bold-1a" transform="translate(69.578125 0)"/>
      </g>
     </g>
    </g>
    <g id="xtick_10">
     <g id="line2d_19">
      <path d="M 261.500685 236.430437 
L 261.500685 39.198438 
" clip-path="url(#p1ca37bf4c5)" style="fill: none; stroke-dasharray: 0.7,1.155; stroke-dashoffset: 0; stroke: #283d58; stroke-width: 0.7"/>
     </g>
     <g id="line2d_20">
      <g>
       <use xlink:href="#m2cb32855da" x="261.500685" y="236.430437" style="fill: #58a6ff; stroke: #58a6ff; stroke-width: 0.8"/>
      </g>
     </g>
     <g id="text_10">
      <!-- 18 -->
      <g style="fill: #58a6ff" transform="translate(256.630216 247.248797) scale(0.07 -0.07)">
       <defs>
        <path id="DejaVuSans-Bold-1b" d="M 2228 2088 
Q 1891 2088 1709 1903 
Q 1528 1719 1528 1375 
Q 1528 1031 1709 848 
Q 1891 666 2228 666 
Q 2563 666 2741 848 
Q 2919 1031 2919 1375 
Q 2919 1722 2741 1905 
Q 2563 2088 2228 2088 
z
M 1350 2484 
Q 925 2613 709 2878 
Q 494 3144 494 3541 
Q 494 4131 934 4440 
Q 1375 4750 2228 4750 
Q 3075 4750 3515 4442 
Q 3956 4134 3956 3541 
Q 3956 3144 3739 2878 
Q 3522 2613 3097 2484 
Q 3572 2353 3814 2058 
Q 4056 1763 4056 1313 
Q 4056 619 3595 264 
Q 3134 -91 2228 -91 
Q 1319 -91 855 264 
Q 391 619 391 1313 
Q 391 1763 633 2058 
Q 875 2353 1350 2484 
z
M 1631 3419 
Q 1631 3141 1786 2991 
Q 1941 2841 2228 2841 
Q 2509 2841 2662 2991 
Q 2816 3141 2816 3419 
Q 2816 3697 2662 3845 
Q 2509 3994 2228 3994 
Q 1941 3994 1786 3844 
Q 1631 3694 1631 3419 
z
" transform="scale(0.015625)"/>
       </defs>
       <use xlink:href="#DejaVuSans-Bold-14"/>
       <use xlink:href="#DejaVuSans-Bold-1b" transform="translate(69.578125 0)"/>
      </g>
     </g>
    </g>
    <g id="xtick_11">
     <g id="line2d_21">
      <path d="M 282.989087 236.430437 
L 282.989087 39.198438 
" clip-path="url(#p1ca37bf4c5)" style="fill: none; stroke-dasharray: 0.7,1.155; stroke-dashoffset: 0; stroke: #283d58; stroke-width: 0.7"/>
     </g>
     <g id="line2d_22">
      <g>
       <use xlink:href="#m2cb32855da" x="282.989087" y="236.430437" style="fill: #58a6ff; stroke: #58a6ff; stroke-width: 0.8"/>
      </g>
     </g>
     <g id="text_11">
      <!-- 19 -->
      <g style="fill: #58a6ff" transform="translate(278.118618 247.248797) scale(0.07 -0.07)">
       <use xlink:href="#DejaVuSans-Bold-14"/>
       <use xlink:href="#DejaVuSans-Bold-1c" transform="translate(69.578125 0)"/>
      </g>
     </g>
    </g>
    <g id="xtick_12">
     <g id="line2d_23">
      <path d="M 304.477488 236.430437 
L 304.477488 39.198438 
" clip-path="url(#p1ca37bf4c5)" style="fill: none; stroke-dasharray: 0.7,1.155; stroke-dashoffset: 0; stroke: #283d58; stroke-width: 0.7"/>
     </g>
     <g id="line2d_24">
      <g>
       <use xlink:href="#m2cb32855da" x="304.477488" y="236.430437" style="fill: #58a6ff; stroke: #58a6ff; stroke-width: 0.8"/>
      </g>
     </g>
     <g id="text_12">
      <!-- 20 -->
      <g style="fill: #58a6ff" transform="translate(299.607019 247.248797) scale(0.07 -0.07)">
       <use xlink:href="#DejaVuSans-Bold-15"/>
       <use xlink:href="#DejaVuSans-Bold-13" transform="translate(69.578125 0)"/>
      </g>
     </g>
    </g>
    <g id="xtick_13">
     <g id="line2d_25">
      <path d="M 325.965889 236.430437 
L 325.965889 39.198438 
" clip-path="url(#p1ca37bf4c5)" style="fill: none; stroke-dasharray: 0.7,1.155; stroke-dashoffset: 0; stroke: #283d58; stroke-width: 0.7"/>
     </g>
     <g id="line2d_26">
      <g>
       <use xlink:href="#m2cb32855da" x="325.965889" y="236.430437" style="fill: #58a6ff; stroke: #58a6ff; stroke-width: 0.8"/>
      </g>
     </g>
     <g id="text_13">
      <!-- 21 -->
      <g style="fill: #58a6ff" transform="translate(321.095421 247.248797) scale(0.07 -0.07)">
       <use xlink:href="#DejaVuSans-Bold-15"/>
       <use xlink:href="#DejaVuSans-Bold-14" transform="translate(69.578125 0)"/>
      </g>
     </g>
    </g>
    <g id="xtick_14">
     <g id="line2d_27">
      <path d="M 347.454291 236.430437 
L 347.454291 39.198438 
" clip-path="url(#p1ca37bf4c5)" style="fill: none; stroke-dasharray: 0.7,1.155; stroke-dashoffset: 0; stroke: #283d58; stroke-width: 0.7"/>
     </g>
     <g id="line2d_28">
      <g>
       <use xlink:href="#m2cb32855da" x="347.454291" y="236.430437" style="fill: #58a6ff; stroke: #58a6ff; stroke-width: 0.8"/>
      </g>
     </g>
     <g id="text_14">
      <!-- 22 -->
      <g style="fill: #3fb950" transform="translate(341.888041 248.008562) scale(0.08 -0.08)">
       <use xlink:href="#DejaVuSans-Bold-15"/>
       <use xlink:href="#DejaVuSans-Bold-15" transform="translate(69.578125 0)"/>
      </g>
     </g>
    </g>
    <g id="xtick_15">
     <g id="line2d_29">
      <path d="M 368.942692 236.430437 
L 368.942692 39.198438 
" clip-path="url(#p1ca37bf4c5)" style="fill: none; stroke-dasharray: 0.7,1.155; stroke-dashoffset: 0; stroke: #283d58; stroke-width: 0.7"/>
     </g>
     <g id="line2d_30">
      <g>
       <use xlink:href="#m2cb32855da" x="368.942692" y="236.430437" style="fill: #58a6ff; stroke: #58a6ff; stroke-width: 0.8"/>
      </g>
     </g>
     <g id="text_15">
      <!-- 23 -->
      <g style="fill: #58a6ff" transform="translate(364.072224 247.248797) scale(0.07 -0.07)">
       <use xlink:href="#DejaVuSans-Bold-15"/>
       <use xlink:href="#DejaVuSans-Bold-16" transform="translate(69.578125 0)"/>
      </g>
     </g>
    </g>
    <g id="xtick_16">
     <g id="line2d_31">
      <path d="M 390.431094 236.430437 
L 390.431094 39.198438 
" clip-path="url(#p1ca37bf4c5)" style="fill: none; stroke-dasharray: 0.7,1.155; stroke-dashoffset: 0; stroke: #283d58; stroke-width: 0.7"/>
     </g>
     <g id="line2d_32">
      <g>
       <use xlink:href="#m2cb32855da" x="390.431094" y="236.430437" style="fill: #58a6ff; stroke: #58a6ff; stroke-width: 0.8"/>
      </g>
     </g>
     <g id="text_16">
      <!-- 24 -->
      <g style="fill: #1a73e8" transform="translate(384.864844 248.008562) scale(0.08 -0.08)">
       <use xlink:href="#DejaVuSans-Bold-15"/>
       <use xlink:href="#DejaVuSans-Bold-17" transform="translate(69.578125 0)"/>
      </g>
     </g>
    </g>
    <g id="xtick_17">
     <g id="line2d_33">
      <path d="M 411.919495 236.430437 
L 411.919495 39.198438 
" clip-path="url(#p1ca37bf4c5)" style="fill: none; stroke-dasharray: 0.7,1.155; stroke-dashoffset: 0; stroke: #283d58; stroke-width: 0.7"/>
     </g>
     <g id="line2d_34">
      <g>
       <use xlink:href="#m2cb32855da" x="411.919495" y="236.430437" style="fill: #58a6ff; stroke: #58a6ff; stroke-width: 0.8"/>
      </g>
     </g>
     <g id="text_17">
      <!-- 25 -->
      <g style="fill: #58a6ff" transform="translate(407.049026 247.248797) scale(0.07 -0.07)">
       <use xlink:href="#DejaVuSans-Bold-15"/>
       <use xlink:href="#DejaVuSans-Bold-18" transform="translate(69.578125 0)"/>
      </g>
     </g>
    </g>
    <g id="xtick_18">
     <g id="line2d_35">
      <path d="M 433.407897 236.430437 
L 433.407897 39.198438 
" clip-path="url(#p1ca37bf4c5)" style="fill: none; stroke-dasharray: 0.7,1.155; stroke-dashoffset: 0; stroke: #283d58; stroke-width: 0.7"/>
     </g>
     <g id="line2d_36">
      <g>
       <use xlink:href="#m2cb32855da" x="433.407897" y="236.430437" style="fill: #58a6ff; stroke: #58a6ff; stroke-width: 0.8"/>
      </g>
     </g>
     <g id="text_18">
      <!-- 26 -->
      <g style="fill: #58a6ff" transform="translate(428.537428 247.248797) scale(0.07 -0.07)">
       <use xlink:href="#DejaVuSans-Bold-15"/>
       <use xlink:href="#DejaVuSans-Bold-19" transform="translate(69.578125 0)"/>
      </g>
     </g>
    </g>
    <g id="xtick_19">
     <g id="line2d_37">
      <path d="M 454.896298 236.430437 
L 454.896298 39.198438 
" clip-path="url(#p1ca37bf4c5)" style="fill: none; stroke-dasharray: 0.7,1.155; stroke-dashoffset: 0; stroke: #283d58; stroke-width: 0.7"/>
     </g>
     <g id="line2d_38">
      <g>
       <use xlink:href="#m2cb32855da" x="454.896298" y="236.430437" style="fill: #58a6ff; stroke: #58a6ff; stroke-width: 0.8"/>
      </g>
     </g>
     <g id="text_19">
      <!-- 27 -->
      <g style="fill: #3fb950" transform="translate(449.330048 248.008562) scale(0.08 -0.08)">
       <use xlink:href="#DejaVuSans-Bold-15"/>
       <use xlink:href="#DejaVuSans-Bold-1a" transform="translate(69.578125 0)"/>
      </g>
     </g>
    </g>
    <g id="xtick_20">
     <g id="line2d_39">
      <path d="M 476.3847 236.430437 
L 476.3847 39.198438 
" clip-path="url(#p1ca37bf4c5)" style="fill: none; stroke-dasharray: 0.7,1.155; stroke-dashoffset: 0; stroke: #283d58; stroke-width: 0.7"/>
     </g>
     <g id="line2d_40">
      <g>
       <use xlink:href="#m2cb32855da" x="476.3847" y="236.430437" style="fill: #58a6ff; stroke: #58a6ff; stroke-width: 0.8"/>
      </g>
     </g>
     <g id="text_20">
      <!-- 28 -->
      <g style="fill: #58a6ff" transform="translate(471.514231 247.248797) scale(0.07 -0.07)">
       <use xlink:href="#DejaVuSans-Bold-15"/>
       <use xlink:href="#DejaVuSans-Bold-1b" transform="translate(69.578125 0)"/>
      </g>
     </g>
    </g>
    <g id="xtick_21">
     <g id="line2d_41">
      <path d="M 497.873101 236.430437 
L 497.873101 39.198438 
" clip-path="url(#p1ca37bf4c5)" style="fill: none; stroke-dasharray: 0.7,1.155; stroke-dashoffset: 0; stroke: #283d58; stroke-width: 0.7"/>
     </g>
     <g id="line2d_42">
      <g>
       <use xlink:href="#m2cb32855da" x="497.873101" y="236.430437" style="fill: #58a6ff; stroke: #58a6ff; stroke-width: 0.8"/>
      </g>
     </g>
     <g id="text_21">
      <!-- 29 -->
      <g style="fill: #58a6ff" transform="translate(493.002632 247.248797) scale(0.07 -0.07)">
       <use xlink:href="#DejaVuSans-Bold-15"/>
       <use xlink:href="#DejaVuSans-Bold-1c" transform="translate(69.578125 0)"/>
      </g>
     </g>
    </g>
    <g id="xtick_22">
     <g id="line2d_43">
      <path d="M 519.361502 236.430437 
L 519.361502 39.198438 
" clip-path="url(#p1ca37bf4c5)" style="fill: none; stroke-dasharray: 0.7,1.155; stroke-dashoffset: 0; stroke: #283d58; stroke-width: 0.7"/>
     </g>
     <g id="line2d_44">
      <g>
       <use xlink:href="#m2cb32855da" x="519.361502" y="236.430437" style="fill: #58a6ff; stroke: #58a6ff; stroke-width: 0.8"/>
      </g>
     </g>
     <g id="text_22">
      <!-- 30 -->
      <g style="fill: #58a6ff" transform="translate(514.491034 247.248797) scale(0.07 -0.07)">
       <use xlink:href="#DejaVuSans-Bold-16"/>
       <use xlink:href="#DejaVuSans-Bold-13" transform="translate(69.578125 0)"/>
      </g>
     </g>
    </g>
    <g id="xtick_23">
     <g id="line2d_45">
      <path d="M 540.849904 236.430437 
L 540.849904 39.198438 
" clip-path="url(#p1ca37bf4c5)" style="fill: none; stroke-dasharray: 0.7,1.155; stroke-dashoffset: 0; stroke: #283d58; stroke-width: 0.7"/>
     </g>
     <g id="line2d_46">
      <g>
       <use xlink:href="#m2cb32855da" x="540.849904" y="236.430437" style="fill: #58a6ff; stroke: #58a6ff; stroke-width: 0.8"/>
      </g>
     </g>
     <g id="text_23">
      <!-- 01 -->
      <g style="fill: #58a6ff" transform="translate(535.979435 247.248797) scale(0.07 -0.07)">
       <use xlink:href="#DejaVuSans-Bold-13"/>
       <use xlink:href="#DejaVuSans-Bold-14" transform="translate(69.578125 0)"/>
      </g>
     </g>
    </g>
    <g id="xtick_24">
     <g id="line2d_47">
      <path d="M 562.338305 236.430437 
L 562.338305 39.198438 
" clip-path="url(#p1ca37bf4c5)" style="fill: none; stroke-dasharray: 0.7,1.155; stroke-dashoffset: 0; stroke: #283d58; stroke-width: 0.7"/>
     </g>
     <g id="line2d_48">
      <g>
       <use xlink:href="#m2cb32855da" x="562.338305" y="236.430437" style="fill: #58a6ff; stroke: #58a6ff; stroke-width: 0.8"/>
      </g>
     </g>
     <g id="text_24">
      <!-- 02 -->
      <g style="fill: #58a6ff" transform="translate(557.467837 247.248797) scale(0.07 -0.07)">
       <use xlink:href="#DejaVuSans-Bold-13"/>
       <use xlink:href="#DejaVuSans-Bold-15" transform="translate(69.578125 0)"/>
      </g>
     </g>
    </g>
    <g id="xtick_25">
     <g id="line2d_49">
      <path d="M 583.826707 236.430437 
L 583.826707 39.198438 
" clip-path="url(#p1ca37bf4c5)" style="fill: none; stroke-dasharray: 0.7,1.155; stroke-dashoffset: 0; stroke: #283d58; stroke-width: 0.7"/>
     </g>
     <g id="line2d_50">
      <g>
       <use xlink:href="#m2cb32855da" x="583.826707" y="236.430437" style="fill: #58a6ff; stroke: #58a6ff; stroke-width: 0.8"/>
      </g>
     </g>
     <g id="text_25">
      <!-- 03 -->
      <g style="fill: #58a6ff" transform="translate(578.956238 247.248797) scale(0.07 -0.07)">
       <use xlink:href="#DejaVuSans-Bold-13"/>
       <use xlink:href="#DejaVuSans-Bold-16" transform="translate(69.578125 0)"/>
      </g>
     </g>
    </g>
    <g id="xtick_26">
     <g id="line2d_51">
      <path d="M 605.315108 236.430437 
L 605.315108 39.198438 
" clip-path="url(#p1ca37bf4c5)" style="fill: none; stroke-dasharray: 0.7,1.155; stroke-dashoffset: 0; stroke: #283d58; stroke-width: 0.7"/>
     </g>
     <g id="line2d_52">
      <g>
       <use xlink:href="#m2cb32855da" x="605.315108" y="236.430437" style="fill: #58a6ff; stroke: #58a6ff; stroke-width: 0.8"/>
      </g>
     </g>
     <g id="text_26">
      <!-- 04 -->
      <g style="fill: #1a73e8" transform="translate(599.748858 248.008562) scale(0.08 -0.08)">
       <use xlink:href="#DejaVuSans-Bold-13"/>
       <use xlink:href="#DejaVuSans-Bold-17" transform="translate(69.578125 0)"/>
      </g>
     </g>
    </g>
    <g id="xtick_27">
     <g id="line2d_53">
      <path d="M 626.80351 236.430437 
L 626.80351 39.198438 
" clip-path="url(#p1ca37bf4c5)" style="fill: none; stroke-dasharray: 0.7,1.155; stroke-dashoffset: 0; stroke: #283d58; stroke-width: 0.7"/>
     </g>
     <g id="line2d_54">
      <g>
       <use xlink:href="#m2cb32855da" x="626.80351" y="236.430437" style="fill: #58a6ff; stroke: #58a6ff; stroke-width: 0.8"/>
      </g>
     </g>
     <g id="text_27">
      <!-- 05 -->
      <g style="fill: #58a6ff" transform="translate(621.933041 247.248797) scale(0.07 -0.07)">
       <use xlink:href="#DejaVuSans-Bold-13"/>
       <use xlink:href="#DejaVuSans-Bold-18" transform="translate(69.578125 0)"/>
      </g>
     </g>
    </g>
    <g id="xtick_28">
     <g id="line2d_55">
      <path d="M 648.291911 236.430437 
L 648.291911 39.198438 
" clip-path="url(#p1ca37bf4c5)" style="fill: none; stroke-dasharray: 0.7,1.155; stroke-dashoffset: 0; stroke: #283d58; stroke-width: 0.7"/>
     </g>
     <g id="line2d_56">
      <g>
       <use xlink:href="#m2cb32855da" x="648.291911" y="236.430437" style="fill: #58a6ff; stroke: #58a6ff; stroke-width: 0.8"/>
      </g>
     </g>
     <g id="text_28">
      <!-- 06 -->
      <g style="fill: #58a6ff" transform="translate(643.421442 247.248797) scale(0.07 -0.07)">
       <use xlink:href="#DejaVuSans-Bold-13"/>
       <use xlink:href="#DejaVuSans-Bold-19" transform="translate(69.578125 0)"/>
      </g>
     </g>
    </g>
    <g id="xtick_29">
     <g id="line2d_57">
      <path d="M 669.780312 236.430437 
L 669.780312 39.198438 
" clip-path="url(#p1ca37bf4c5)" style="fill: none; stroke-dasharray: 0.7,1.155; stroke-dashoffset: 0; stroke: #283d58; stroke-width: 0.7"/>
     </g>
     <g id="line2d_58">
      <g>
       <use xlink:href="#m2cb32855da" x="669.780312" y="236.430437" style="fill: #58a6ff; stroke: #58a6ff; stroke-width: 0.8"/>
      </g>
     </g>
     <g id="text_29">
      <!-- 07 -->
      <g style="fill: #58a6ff" transform="translate(664.909844 247.248797) scale(0.07 -0.07)">
       <use xlink:href="#DejaVuSans-Bold-13"/>
       <use xlink:href="#DejaVuSans-Bold-1a" transform="translate(69.578125 0)"/>
      </g>
     </g>
    </g>
    <g id="xtick_30">
     <g id="line2d_59">
      <path d="M 691.268714 236.430437 
L 691.268714 39.198438 
" clip-path="url(#p1ca37bf4c5)" style="fill: none; stroke-dasharray: 0.7,1.155; stroke-dashoffset: 0; stroke: #283d58; stroke-width: 0.7"/>
     </g>
     <g id="line2d_60">
      <g>
       <use xlink:href="#m2cb32855da" x="691.268714" y="236.430437" style="fill: #58a6ff; stroke: #58a6ff; stroke-width: 0.8"/>
      </g>
     </g>
     <g id="text_30">
      <!-- 08 -->
      <g style="fill: #58a6ff" transform="translate(686.398245 247.248797) scale(0.07 -0.07)">
       <use xlink:href="#DejaVuSans-Bold-13"/>
       <use xlink:href="#DejaVuSans-Bold-1b" transform="translate(69.578125 0)"/>
      </g>
     </g>
    </g>
    <g id="xtick_31">
     <g id="line2d_61">
      <path d="M 712.757115 236.430437 
L 712.757115 39.198438 
" clip-path="url(#p1ca37bf4c5)" style="fill: none; stroke-dasharray: 0.7,1.155; stroke-dashoffset: 0; stroke: #283d58; stroke-width: 0.7"/>
     </g>
     <g id="line2d_62">
      <g>
       <use xlink:href="#m2cb32855da" x="712.757115" y="236.430437" style="fill: #58a6ff; stroke: #58a6ff; stroke-width: 0.8"/>
      </g>
     </g>
     <g id="text_31">
      <!-- 09 -->
      <g style="fill: #58a6ff" transform="translate(707.886647 247.248797) scale(0.07 -0.07)">
       <use xlink:href="#DejaVuSans-Bold-13"/>
       <use xlink:href="#DejaVuSans-Bold-1c" transform="translate(69.578125 0)"/>
      </g>
     </g>
    </g>
    <g id="text_32">
     <!-- Last Month -->
     <g style="fill: #58a6ff" transform="translate(365.162344 276.009187) scale(0.08 -0.08)">
      <defs>
       <path id="DejaVuSans-Bold-2f" d="M 588 4666 
L 1791 4666 
L 1791 909 
L 3903 909 
L 3903 0 
L 588 0 
L 588 4666 
z
" transform="scale(0.015625)"/>
       <path id="DejaVuSans-Bold-44" d="M 2106 1575 
Q 1756 1575 1579 1456 
Q 1403 1338 1403 1106 
Q 1403 894 1545 773 
Q 1688 653 1941 653 
Q 2256 653 2472 879 
Q 2688 1106 2688 1447 
L 2688 1575 
L 2106 1575 
z
M 3816 1997 
L 3816 0 
L 2688 0 
L 2688 519 
Q 2463 200 2181 54 
Q 1900 -91 1497 -91 
Q 953 -91 614 226 
Q 275 544 275 1050 
Q 275 1666 698 1953 
Q 1122 2241 2028 2241 
L 2688 2241 
L 2688 2328 
Q 2688 2594 2478 2717 
Q 2269 2841 1825 2841 
Q 1466 2841 1156 2769 
Q 847 2697 581 2553 
L 581 3406 
Q 941 3494 1303 3539 
Q 1666 3584 2028 3584 
Q 2975 3584 3395 3211 
Q 3816 2838 3816 1997 
z
" transform="scale(0.015625)"/>
       <path id="DejaVuSans-Bold-56" d="M 3272 3391 
L 3272 2541 
Q 2913 2691 2578 2766 
Q 2244 2841 1947 2841 
Q 1628 2841 1473 2761 
Q 1319 2681 1319 2516 
Q 1319 2381 1436 2309 
Q 1553 2238 1856 2203 
L 2053 2175 
Q 2913 2066 3209 1816 
Q 3506 1566 3506 1031 
Q 3506 472 3093 190 
Q 2681 -91 1863 -91 
Q 1516 -91 1145 -36 
Q 775 19 384 128 
L 384 978 
Q 719 816 1070 734 
Q 1422 653 1784 653 
Q 2113 653 2278 743 
Q 2444 834 2444 1013 
Q 2444 1163 2330 1236 
Q 2216 1309 1875 1350 
L 1678 1375 
Q 931 1469 631 1722 
Q 331 1975 331 2491 
Q 331 3047 712 3315 
Q 1094 3584 1881 3584 
Q 2191 3584 2531 3537 
Q 2872 3491 3272 3391 
z
" transform="scale(0.015625)"/>
       <path id="DejaVuSans-Bold-57" d="M 1759 4494 
L 1759 3500 
L 2913 3500 
L 2913 2700 
L 1759 2700 
L 1759 1216 
Q 1759 972 1856 886 
Q 1953 800 2241 800 
L 2816 800 
L 2816 0 
L 1856 0 
Q 1194 0 917 276 
Q 641 553 641 1216 
L 641 2700 
L 84 2700 
L 84 3500 
L 641 3500 
L 641 4494 
L 1759 4494 
z
" transform="scale(0.015625)"/>
       <path id="DejaVuSans-Bold-3" transform="scale(0.015625)"/>
       <path id="DejaVuSans-Bold-30" d="M 588 4666 
L 2119 4666 
L 3181 2169 
L 4250 4666 
L 5778 4666 
L 5778 0 
L 4641 0 
L 4641 3413 
L 3566 897 
L 2803 897 
L 1728 3413 
L 1728 0 
L 588 0 
L 588 4666 
z
" transform="scale(0.015625)"/>
       <path id="DejaVuSans-Bold-52" d="M 2203 2784 
Q 1831 2784 1636 2517 
Q 1441 2250 1441 1747 
Q 1441 1244 1636 976 
Q 1831 709 2203 709 
Q 2569 709 2762 976 
Q 2956 1244 2956 1747 
Q 2956 2250 2762 2517 
Q 2569 2784 2203 2784 
z
M 2203 3584 
Q 3106 3584 3614 3096 
Q 4122 2609 4122 1747 
Q 4122 884 3614 396 
Q 3106 -91 2203 -91 
Q 1297 -91 786 396 
Q 275 884 275 1747 
Q 275 2609 786 3096 
Q 1297 3584 2203 3584 
z
" transform="scale(0.015625)"/>
       <path id="DejaVuSans-Bold-51" d="M 4056 2131 
L 4056 0 
L 2931 0 
L 2931 347 
L 2931 1631 
Q 2931 2084 2911 2256 
Q 2891 2428 2841 2509 
Q 2775 2619 2662 2680 
Q 2550 2741 2406 2741 
Q 2056 2741 1856 2470 
Q 1656 2200 1656 1722 
L 1656 0 
L 538 0 
L 538 3500 
L 1656 3500 
L 1656 2988 
Q 1909 3294 2193 3439 
Q 2478 3584 2822 3584 
Q 3428 3584 3742 3212 
Q 4056 2841 4056 2131 
z
" transform="scale(0.015625)"/>
       <path id="DejaVuSans-Bold-4b" d="M 4056 2131 
L 4056 0 
L 2931 0 
L 2931 347 
L 2931 1625 
Q 2931 2084 2911 2256 
Q 2891 2428 2841 2509 
Q 2775 2619 2662 2680 
Q 2550 2741 2406 2741 
Q 2056 2741 1856 2470 
Q 1656 2200 1656 1722 
L 1656 0 
L 538 0 
L 538 4863 
L 1656 4863 
L 1656 2988 
Q 1909 3294 2193 3439 
Q 2478 3584 2822 3584 
Q 3428 3584 3742 3212 
Q 4056 2841 4056 2131 
z
" transform="scale(0.015625)"/>
      </defs>
      <use xlink:href="#DejaVuSans-Bold-2f"/>
      <use xlink:href="#DejaVuSans-Bold-44" transform="translate(63.71875 0)"/>
      <use xlink:href="#DejaVuSans-Bold-56" transform="translate(131.203125 0)"/>
      <use xlink:href="#DejaVuSans-Bold-57" transform="translate(190.71875 0)"/>
      <use xlink:href="#DejaVuSans-Bold-3" transform="translate(238.515625 0)"/>
      <use xlink:href="#DejaVuSans-Bold-30" transform="translate(273.328125 0)"/>
      <use xlink:href="#DejaVuSans-Bold-52" transform="translate(372.84375 0)"/>
      <use xlink:href="#DejaVuSans-Bold-51" transform="translate(441.546875 0)"/>
      <use xlink:href="#DejaVuSans-Bold-57" transform="translate(512.734375 0)"/>
      <use xlink:href="#DejaVuSans-Bold-4b" transform="translate(560.53125 0)"/>
     </g>
    </g>
   </g>
   <g id="matplotlib.axis_2">
    <g id="ytick_1">
     <g id="line2d_63">
      <path d="M 55.212031 236.430437 
L 725.650156 236.430437 
" clip-path="url(#p1ca37bf4c5)" style="fill: none; stroke-dasharray: 0.7,1.155; stroke-dashoffset: 0; stroke: #283d58; stroke-width: 0.7"/>
     </g>
     <g id="line2d_64">
      <defs>
       <path id="mc0183c7cea" d="M 0 0 
L -3.5 0 
" style="stroke: #58a6ff; stroke-width: 0.8"/>
      </defs>
      <g>
       <use xlink:href="#mc0183c7cea" x="55.212031" y="236.430437" style="fill: #58a6ff; stroke: #58a6ff; stroke-width: 0.8"/>
      </g>
     </g>
     <g id="text_33">
      <!-- 0 -->
      <g style="fill: #58a6ff" transform="translate(43.341563 239.089617) scale(0.07 -0.07)">
       <use xlink:href="#DejaVuSans-Bold-13"/>
      </g>
     </g>
    </g>
    <g id="ytick_2">
     <g id="line2d_65">
      <path d="M 55.212031 210.132837 
L 725.650156 210.132837 
" clip-path="url(#p1ca37bf4c5)" style="fill: none; stroke-dasharray: 0.7,1.155; stroke-dashoffset: 0; stroke: #283d58; stroke-width: 0.7"/>
     </g>
     <g id="line2d_66">
      <g>
       <use xlink:href="#mc0183c7cea" x="55.212031" y="210.132837" style="fill: #58a6ff; stroke: #58a6ff; stroke-width: 0.8"/>
      </g>
     </g>
     <g id="text_34">
      <!-- 100 -->
      <g style="fill: #58a6ff" transform="translate(33.600625 212.792017) scale(0.07 -0.07)">
       <use xlink:href="#DejaVuSans-Bold-14"/>
       <use xlink:href="#DejaVuSans-Bold-13" transform="translate(69.578125 0)"/>
       <use xlink:href="#DejaVuSans-Bold-13" transform="translate(139.15625 0)"/>
      </g>
     </g>
    </g>
    <g id="ytick_3">
     <g id="line2d_67">
      <path d="M 55.212031 183.835237 
L 725.650156 183.835237 
" clip-path="url(#p1ca37bf4c5)" style="fill: none; stroke-dasharray: 0.7,1.155; stroke-dashoffset: 0; stroke: #283d58; stroke-width: 0.7"/>
     </g>
     <g id="line2d_68">
      <g>
       <use xlink:href="#mc0183c7cea" x="55.212031" y="183.835237" style="fill: #58a6ff; stroke: #58a6ff; stroke-width: 0.8"/>
      </g>
     </g>
     <g id="text_35">
      <!-- 200 -->
      <g style="fill: #58a6ff" transform="translate(33.600625 186.494417) scale(0.07 -0.07)">
       <use xlink:href="#DejaVuSans-Bold-15"/>
       <use xlink:href="#DejaVuSans-Bold-13" transform="translate(69.578125 0)"/>
       <use xlink:href="#DejaVuSans-Bold-13" transform="translate(139.15625 0)"/>
      </g>
     </g>
    </g>
    <g id="ytick_4">
     <g id="line2d_69">
      <path d="M 55.212031 157.537637 
L 725.650156 157.537637 
" clip-path="url(#p1ca37bf4c5)" style="fill: none; stroke-dasharray: 0.7,1.155; stroke-dashoffset: 0; stroke: #283d58; stroke-width: 0.7"/>
     </g>
     <g id="line2d_70">
      <g>
       <use xlink:href="#mc0183c7cea" x="55.212031" y="157.537637" style="fill: #58a6ff; stroke: #58a6ff; stroke-width: 0.8"/>
      </g>
     </g>
     <g id="text_36">
      <!-- 300 -->
      <g style="fill: #58a6ff" transform="translate(33.600625 160.196817) scale(0.07 -0.07)">
       <use xlink:href="#DejaVuSans-Bold-16"/>
       <use xlink:href="#DejaVuSans-Bold-13" transform="translate(69.578125 0)"/>
       <use xlink:href="#DejaVuSans-Bold-13" transform="translate(139.15625 0)"/>
      </g>
     </g>
    </g>
    <g id="ytick_5">
     <g id="line2d_71">
      <path d="M 55.212031 131.240037 
L 725.650156 131.240037 
" clip-path="url(#p1ca37bf4c5)" style="fill: none; stroke-dasharray: 0.7,1.155; stroke-dashoffset: 0; stroke: #283d58; stroke-width: 0.7"/>
     </g>
     <g id="line2d_72">
      <g>
       <use xlink:href="#mc0183c7cea" x="55.212031" y="131.240037" style="fill: #58a6ff; stroke: #58a6ff; stroke-width: 0.8"/>
      </g>
     </g>
     <g id="text_37">
      <!-- 400 -->
      <g style="fill: #58a6ff" transform="translate(33.600625 133.899217) scale(0.07 -0.07)">
       <use xlink:href="#DejaVuSans-Bold-17"/>
       <use xlink:href="#DejaVuSans-Bold-13" transform="translate(69.578125 0)"/>
       <use xlink:href="#DejaVuSans-Bold-13" transform="translate(139.15625 0)"/>
      </g>
     </g>
    </g>
    <g id="ytick_6">
     <g id="line2d_73">
      <path d="M 55.212031 104.942437 
L 725.650156 104.942437 
" clip-path="url(#p1ca37bf4c5)" style="fill: none; stroke-dasharray: 0.7,1.155; stroke-dashoffset: 0; stroke: #283d58; stroke-width: 0.7"/>
     </g>
     <g id="line2d_74">
      <g>
       <use xlink:href="#mc0183c7cea" x="55.212031" y="104.942437" style="fill: #58a6ff; stroke: #58a6ff; stroke-width: 0.8"/>
      </g>
     </g>
     <g id="text_38">
      <!-- 500 -->
      <g style="fill: #58a6ff" transform="translate(33.600625 107.601617) scale(0.07 -0.07)">
       <use xlink:href="#DejaVuSans-Bold-18"/>
       <use xlink:href="#DejaVuSans-Bold-13" transform="translate(69.578125 0)"/>
       <use xlink:href="#DejaVuSans-Bold-13" transform="translate(139.15625 0)"/>
      </g>
     </g>
    </g>
    <g id="ytick_7">
     <g id="line2d_75">
      <path d="M 55.212031 78.644837 
L 725.650156 78.644837 
" clip-path="url(#p1ca37bf4c5)" style="fill: none; stroke-dasharray: 0.7,1.155; stroke-dashoffset: 0; stroke: #283d58; stroke-width: 0.7"/>
     </g>
     <g id="line2d_76">
      <g>
       <use xlink:href="#mc0183c7cea" x="55.212031" y="78.644837" style="fill: #58a6ff; stroke: #58a6ff; stroke-width: 0.8"/>
      </g>
     </g>
     <g id="text_39">
      <!-- 600 -->
      <g style="fill: #58a6ff" transform="translate(33.600625 81.304017) scale(0.07 -0.07)">
       <use xlink:href="#DejaVuSans-Bold-19"/>
       <use xlink:href="#DejaVuSans-Bold-13" transform="translate(69.578125 0)"/>
       <use xlink:href="#DejaVuSans-Bold-13" transform="translate(139.15625 0)"/>
      </g>
     </g>
    </g>
    <g id="ytick_8">
     <g id="line2d_77">
      <path d="M 55.212031 52.347238 
L 725.650156 52.347238 
" clip-path="url(#p1ca37bf4c5)" style="fill: none; stroke-dasharray: 0.7,1.155; stroke-dashoffset: 0; stroke: #283d58; stroke-width: 0.7"/>
     </g>
     <g id="line2d_78">
      <g>
       <use xlink:href="#mc0183c7cea" x="55.212031" y="52.347238" style="fill: #58a6ff; stroke: #58a6ff; stroke-width: 0.8"/>
      </g>
     </g>
     <g id="text_40">
      <!-- 700 -->
      <g style="fill: #58a6ff" transform="translate(33.600625 55.006417) scale(0.07 -0.07)">
       <use xlink:href="#DejaVuSans-Bold-1a"/>
       <use xlink:href="#DejaVuSans-Bold-13" transform="translate(69.578125 0)"/>
       <use xlink:href="#DejaVuSans-Bold-13" transform="translate(139.15625 0)"/>
      </g>
     </g>
    </g>
    <g id="text_41">
     <!-- Downloads / day -->
     <g style="fill: #58a6ff" transform="translate(27.67875 174.781937) rotate(-90) scale(0.08 -0.08)">
      <defs>
       <path id="DejaVuSans-Bold-27" d="M 1791 3756 
L 1791 909 
L 2222 909 
Q 2959 909 3348 1275 
Q 3738 1641 3738 2338 
Q 3738 3031 3350 3393 
Q 2963 3756 2222 3756 
L 1791 3756 
z
M 588 4666 
L 1856 4666 
Q 2919 4666 3439 4514 
Q 3959 4363 4331 4000 
Q 4659 3684 4818 3271 
Q 4978 2859 4978 2338 
Q 4978 1809 4818 1395 
Q 4659 981 4331 666 
Q 3956 303 3431 151 
Q 2906 0 1856 0 
L 588 0 
L 588 4666 
z
" transform="scale(0.015625)"/>
       <path id="DejaVuSans-Bold-5a" d="M 225 3500 
L 1313 3500 
L 1900 1088 
L 2491 3500 
L 3425 3500 
L 4013 1113 
L 4603 3500 
L 5691 3500 
L 4769 0 
L 3547 0 
L 2956 2406 
L 2369 0 
L 1147 0 
L 225 3500 
z
" transform="scale(0.015625)"/>
       <path id="DejaVuSans-Bold-4f" d="M 538 4863 
L 1656 4863 
L 1656 0 
L 538 0 
L 538 4863 
z
" transform="scale(0.015625)"/>
       <path id="DejaVuSans-Bold-47" d="M 2919 2988 
L 2919 4863 
L 4044 4863 
L 4044 0 
L 2919 0 
L 2919 506 
Q 2688 197 2409 53 
Q 2131 -91 1766 -91 
Q 1119 -91 703 423 
Q 288 938 288 1747 
Q 288 2556 703 3070 
Q 1119 3584 1766 3584 
Q 2128 3584 2408 3439 
Q 2688 3294 2919 2988 
z
M 2181 722 
Q 2541 722 2730 984 
Q 2919 1247 2919 1747 
Q 2919 2247 2730 2509 
Q 2541 2772 2181 2772 
Q 1825 2772 1636 2509 
Q 1447 2247 1447 1747 
Q 1447 1247 1636 984 
Q 1825 722 2181 722 
z
" transform="scale(0.015625)"/>
       <path id="DejaVuSans-Bold-12" d="M 1644 4666 
L 2338 4666 
L 691 -594 
L 0 -594 
L 1644 4666 
z
" transform="scale(0.015625)"/>
       <path id="DejaVuSans-Bold-5c" d="M 78 3500 
L 1197 3500 
L 2138 1125 
L 2938 3500 
L 4056 3500 
L 2584 -331 
Q 2363 -916 2067 -1148 
Q 1772 -1381 1288 -1381 
L 641 -1381 
L 641 -647 
L 991 -647 
Q 1275 -647 1404 -556 
Q 1534 -466 1606 -231 
L 1638 -134 
L 78 3500 
z
" transform="scale(0.015625)"/>
      </defs>
      <use xlink:href="#DejaVuSans-Bold-27"/>
      <use xlink:href="#DejaVuSans-Bold-52" transform="translate(83.015625 0)"/>
      <use xlink:href="#DejaVuSans-Bold-5a" transform="translate(151.71875 0)"/>
      <use xlink:href="#DejaVuSans-Bold-51" transform="translate(244.109375 0)"/>
      <use xlink:href="#DejaVuSans-Bold-4f" transform="translate(315.296875 0)"/>
      <use xlink:href="#DejaVuSans-Bold-52" transform="translate(349.578125 0)"/>
      <use xlink:href="#DejaVuSans-Bold-44" transform="translate(418.28125 0)"/>
      <use xlink:href="#DejaVuSans-Bold-47" transform="translate(485.765625 0)"/>
      <use xlink:href="#DejaVuSans-Bold-56" transform="translate(557.34375 0)"/>
      <use xlink:href="#DejaVuSans-Bold-3" transform="translate(616.859375 0)"/>
      <use xlink:href="#DejaVuSans-Bold-12" transform="translate(651.671875 0)"/>
      <use xlink:href="#DejaVuSans-Bold-3" transform="translate(688.203125 0)"/>
      <use xlink:href="#DejaVuSans-Bold-47" transform="translate(723.015625 0)"/>
      <use xlink:href="#DejaVuSans-Bold-44" transform="translate(794.59375 0)"/>
      <use xlink:href="#DejaVuSans-Bold-5c" transform="translate(859 0)"/>
     </g>
    </g>
   </g>
   <g id="line2d_79">
    <path d="M 55.212031 229.356383 
L 725.650156 229.356383 
" clip-path="url(#p1ca37bf4c5)" style="fill: none; stroke-dasharray: 1.5,2.475; stroke-dashoffset: 0; stroke: #ff6b6b; stroke-width: 1.5"/>
   </g>
   <g id="patch_3">
    <path d="M 55.212031 236.430437 
L 55.212031 39.198438 
" style="fill: none; stroke: #283d58; stroke-width: 0.8; stroke-linejoin: miter; stroke-linecap: square"/>
   </g>
   <g id="patch_4">
    <path d="M 725.650156 236.430437 
L 725.650156 39.198438 
" style="fill: none; stroke: #283d58; stroke-width: 0.8; stroke-linejoin: miter; stroke-linecap: square"/>
   </g>
   <g id="patch_5">
    <path d="M 55.212031 236.430437 
L 725.650156 236.430437 
" style="fill: none; stroke: #283d58; stroke-width: 0.8; stroke-linejoin: miter; stroke-linecap: square"/>
   </g>
   <g id="patch_6">
    <path d="M 55.212031 39.198438 
L 725.650156 39.198438 
" style="fill: none; stroke: #283d58; stroke-width: 0.8; stroke-linejoin: miter; stroke-linecap: square"/>
   </g>
   <g id="line2d_80">
    <path d="M 68.105072 236.430437 
L 410.913349 236.430437 
L 413.069376 235.657068 
L 415.225403 230.481458 
L 417.38143 221.401982 
L 419.537457 209.550194 
L 426.005538 168.676518 
L 428.161565 157.051041 
L 430.317591 148.311031 
L 432.473618 143.588043 
L 434.629645 143.928844 
L 436.785672 149.155849 
L 438.941699 158.183309 
L 441.097726 169.905025 
L 447.565807 210.173712 
L 449.721834 221.610456 
L 451.87786 230.210459 
L 454.033887 234.867521 
L 456.189914 235.500112 
L 462.657995 235.997703 
L 469.126076 236.30862 
L 475.594156 236.428983 
L 488.530318 236.331813 
L 501.466479 236.061254 
L 512.246614 235.487867 
L 523.026748 234.967766 
L 553.211125 233.928242 
L 561.835232 233.564979 
L 566.147286 233.198979 
L 572.615367 232.277375 
L 579.083448 231.421034 
L 583.395501 231.173271 
L 585.551528 231.247893 
L 587.707555 231.533066 
L 592.019609 232.53946 
L 598.48769 234.374174 
L 600.643717 234.868446 
L 602.799743 235.219069 
L 604.95577 235.375043 
L 613.579878 235.291753 
L 628.672066 235.118756 
L 643.764255 235.302402 
L 663.168497 235.731163 
L 691.196846 236.430426 
L 706.289035 236.321286 
L 712.757115 236.167461 
L 712.757115 236.167461 
" clip-path="url(#p1ca37bf4c5)" style="fill: none; stroke: #1a73e8; stroke-width: 2; stroke-linecap: square"/>
   </g>
   <g id="line2d_81">
    <path d="M 68.105072 236.430437 
L 410.913349 236.430437 
L 413.069376 235.685389 
L 415.225403 230.699308 
L 417.38143 221.952319 
L 419.537457 210.534541 
L 426.005538 171.157647 
L 428.161565 159.957892 
L 430.317591 151.537939 
L 432.473618 146.987906 
L 434.629645 147.317208 
L 436.785672 152.358426 
L 438.941699 161.064012 
L 441.097726 172.366078 
L 447.565807 211.172248 
L 449.721834 222.181328 
L 451.87786 230.447437 
L 454.033887 234.902683 
L 456.189914 235.469924 
L 464.814022 235.936861 
L 473.438129 236.152402 
L 492.842372 236.167461 
L 501.466479 236.117842 
L 510.090587 235.747385 
L 518.714694 235.391804 
L 533.806883 235.218222 
L 542.43099 235.07134 
L 548.899071 234.702011 
L 561.835232 233.819348 
L 579.083448 233.311764 
L 585.551528 233.322835 
L 589.863582 233.78077 
L 602.799743 235.80482 
L 607.111797 235.89407 
L 615.735905 235.653379 
L 624.360012 235.397389 
L 630.828093 235.451189 
L 641.608228 235.985969 
L 648.076308 236.167225 
L 658.856443 236.039271 
L 669.636577 235.904521 
L 676.104658 236.014344 
L 691.196846 236.43042 
L 701.976981 236.299828 
L 712.757115 235.904485 
L 712.757115 235.904485 
" clip-path="url(#p1ca37bf4c5)" style="fill: none; stroke: #3fb950; stroke-width: 2; stroke-linecap: square"/>
   </g>
   <g id="line2d_82">
    <path d="M 68.105072 236.430437 
L 410.913349 236.430437 
L 413.069376 234.912019 
L 415.225403 224.750329 
L 417.38143 206.923864 
L 419.537457 183.654297 
L 426.005538 103.403728 
L 428.161565 80.578496 
L 430.317591 63.418532 
L 432.473618 54.145512 
L 434.629645 54.815613 
L 436.785672 65.083825 
L 438.941699 82.816856 
L 441.097726 105.840619 
L 447.565807 184.91544 
L 449.721834 207.361269 
L 451.87786 224.2274 
L 454.033887 233.339746 
L 456.189914 234.539628 
L 462.657995 235.410833 
L 469.126076 235.954618 
L 473.438129 236.132248 
L 479.90621 236.158923 
L 494.998398 235.963541 
L 501.466479 235.745077 
L 507.93456 235.16683 
L 518.714694 234.106061 
L 527.338802 233.661427 
L 540.274963 233.04858 
L 548.899071 232.355599 
L 559.679205 231.209251 
L 566.147286 230.375206 
L 579.083448 228.283329 
L 583.395501 228.017692 
L 585.551528 228.140291 
L 587.707555 228.603697 
L 589.863582 229.330921 
L 594.175636 231.245322 
L 598.48769 233.220497 
L 600.643717 234.023689 
L 602.799743 234.593452 
L 604.95577 234.846909 
L 609.267824 234.782319 
L 620.047959 234.248549 
L 626.516039 234.064073 
L 630.828093 234.148533 
L 637.296174 234.519803 
L 645.920281 235.043192 
L 654.544389 235.205684 
L 671.792604 235.436848 
L 678.260685 235.801567 
L 686.884793 236.330896 
L 691.196846 236.430407 
L 699.820954 236.318011 
L 708.445062 235.943226 
L 712.757115 235.641509 
L 712.757115 235.641509 
" clip-path="url(#p1ca37bf4c5)" style="fill: none; stroke-dasharray: 9.25,4; stroke-dashoffset: 0; stroke: #e3b341; stroke-width: 2.5"/>
   </g>
   <g id="text_42">
    <!-- R1 -->
    <g style="fill: #1a73e8" transform="translate(530.7293 253.989031) scale(0.06 -0.06)">
     <defs>
      <path id="DejaVuSans-Bold-35" d="M 2297 2597 
Q 2675 2597 2839 2737 
Q 3003 2878 3003 3200 
Q 3003 3519 2839 3656 
Q 2675 3794 2297 3794 
L 1791 3794 
L 1791 2597 
L 2297 2597 
z
M 1791 1766 
L 1791 0 
L 588 0 
L 588 4666 
L 2425 4666 
Q 3347 4666 3776 4356 
Q 4206 4047 4206 3378 
Q 4206 2916 3982 2619 
Q 3759 2322 3309 2181 
Q 3556 2125 3751 1926 
Q 3947 1728 4147 1325 
L 4800 0 
L 3519 0 
L 2950 1159 
Q 2778 1509 2601 1637 
Q 2425 1766 2131 1766 
L 1791 1766 
z
" transform="scale(0.015625)"/>
     </defs>
     <use xlink:href="#DejaVuSans-Bold-35"/>
     <use xlink:href="#DejaVuSans-Bold-14" transform="translate(77 0)"/>
    </g>
   </g>
   <g id="text_43">
    <!-- R2 -->
    <g style="fill: #3fb950" transform="translate(542.17582 253.989031) scale(0.06 -0.06)">
     <use xlink:href="#DejaVuSans-Bold-35"/>
     <use xlink:href="#DejaVuSans-Bold-15" transform="translate(77 0)"/>
    </g>
   </g>
   <g id="text_44">
    <!-- M1 -->
    <g style="fill: #1a73e8" transform="translate(100.285802 259.989031) scale(0.06 -0.06)">
     <use xlink:href="#DejaVuSans-Bold-30"/>
     <use xlink:href="#DejaVuSans-Bold-14" transform="translate(99.515625 0)"/>
    </g>
   </g>
   <g id="text_45">
    <!-- M2 -->
    <g style="fill: #3fb950" transform="translate(111.732323 259.989031) scale(0.06 -0.06)">
     <use xlink:href="#DejaVuSans-Bold-30"/>
     <use xlink:href="#DejaVuSans-Bold-15" transform="translate(99.515625 0)"/>
    </g>
   </g>
   <g id="text_46">
    <!-- M2 -->
    <g style="fill: #3fb950" transform="translate(342.381478 259.989031) scale(0.06 -0.06)">
     <use xlink:href="#DejaVuSans-Bold-30"/>
     <use xlink:href="#DejaVuSans-Bold-15" transform="translate(99.515625 0)"/>
    </g>
   </g>
   <g id="text_47">
    <!-- M1 -->
    <g style="fill: #1a73e8" transform="translate(385.358281 259.989031) scale(0.06 -0.06)">
     <use xlink:href="#DejaVuSans-Bold-30"/>
     <use xlink:href="#DejaVuSans-Bold-14" transform="translate(99.515625 0)"/>
    </g>
   </g>
   <g id="text_48">
    <!-- M2 -->
    <g style="fill: #3fb950" transform="translate(449.823486 259.989031) scale(0.06 -0.06)">
     <use xlink:href="#DejaVuSans-Bold-30"/>
     <use xlink:href="#DejaVuSans-Bold-15" transform="translate(99.515625 0)"/>
    </g>
   </g>
   <g id="text_49">
    <!-- M1 -->
    <g style="fill: #1a73e8" transform="translate(487.077028 259.989031) scale(0.06 -0.06)">
     <use xlink:href="#DejaVuSans-Bold-30"/>
     <use xlink:href="#DejaVuSans-Bold-14" transform="translate(99.515625 0)"/>
    </g>
   </g>
   <g id="text_50">
    <!-- M2 -->
    <g style="fill: #3fb950" transform="translate(498.523549 259.989031) scale(0.06 -0.06)">
     <use xlink:href="#DejaVuSans-Bold-30"/>
     <use xlink:href="#DejaVuSans-Bold-15" transform="translate(99.515625 0)"/>
    </g>
   </g>
   <g id="text_51">
    <!-- M1 -->
    <g style="fill: #1a73e8" transform="translate(551.542233 259.989031) scale(0.06 -0.06)">
     <use xlink:href="#DejaVuSans-Bold-30"/>
     <use xlink:href="#DejaVuSans-Bold-14" transform="translate(99.515625 0)"/>
    </g>
   </g>
   <g id="text_52">
    <!-- M2 -->
    <g style="fill: #3fb950" transform="translate(562.988753 259.989031) scale(0.06 -0.06)">
     <use xlink:href="#DejaVuSans-Bold-30"/>
     <use xlink:href="#DejaVuSans-Bold-15" transform="translate(99.515625 0)"/>
    </g>
   </g>
   <g id="text_53">
    <!-- M1 -->
    <g style="fill: #1a73e8" transform="translate(600.242296 259.989031) scale(0.06 -0.06)">
     <use xlink:href="#DejaVuSans-Bold-30"/>
     <use xlink:href="#DejaVuSans-Bold-14" transform="translate(99.515625 0)"/>
    </g>
   </g>
   <g id="text_54">
    <!-- Marcin Grygiel aka FirstEver — PSGallery Downloads / day -->
    <g style="fill: #58a6ff" transform="translate(226.642812 29.198438) scale(0.1 -0.1)">
     <defs>
      <path id="DejaVuSans-Bold-55" d="M 3138 2547 
Q 2991 2616 2845 2648 
Q 2700 2681 2553 2681 
Q 2122 2681 1889 2404 
Q 1656 2128 1656 1613 
L 1656 0 
L 538 0 
L 538 3500 
L 1656 3500 
L 1656 2925 
Q 1872 3269 2151 3426 
Q 2431 3584 2822 3584 
Q 2878 3584 2943 3579 
Q 3009 3575 3134 3559 
L 3138 2547 
z
" transform="scale(0.015625)"/>
      <path id="DejaVuSans-Bold-46" d="M 3366 3391 
L 3366 2478 
Q 3138 2634 2908 2709 
Q 2678 2784 2431 2784 
Q 1963 2784 1702 2511 
Q 1441 2238 1441 1747 
Q 1441 1256 1702 982 
Q 1963 709 2431 709 
Q 2694 709 2930 787 
Q 3166 866 3366 1019 
L 3366 103 
Q 3103 6 2833 -42 
Q 2563 -91 2291 -91 
Q 1344 -91 809 395 
Q 275 881 275 1747 
Q 275 2613 809 3098 
Q 1344 3584 2291 3584 
Q 2566 3584 2833 3536 
Q 3100 3488 3366 3391 
z
" transform="scale(0.015625)"/>
      <path id="DejaVuSans-Bold-4c" d="M 538 3500 
L 1656 3500 
L 1656 0 
L 538 0 
L 538 3500 
z
M 538 4863 
L 1656 4863 
L 1656 3950 
L 538 3950 
L 538 4863 
z
" transform="scale(0.015625)"/>
      <path id="DejaVuSans-Bold-2a" d="M 4781 347 
Q 4331 128 3847 18 
Q 3363 -91 2847 -91 
Q 1681 -91 1000 561 
Q 319 1213 319 2328 
Q 319 3456 1012 4103 
Q 1706 4750 2913 4750 
Q 3378 4750 3804 4662 
Q 4231 4575 4609 4403 
L 4609 3438 
Q 4219 3659 3833 3768 
Q 3447 3878 3059 3878 
Q 2341 3878 1952 3476 
Q 1563 3075 1563 2328 
Q 1563 1588 1938 1184 
Q 2313 781 3003 781 
Q 3191 781 3352 804 
Q 3513 828 3641 878 
L 3641 1784 
L 2906 1784 
L 2906 2591 
L 4781 2591 
L 4781 347 
z
" transform="scale(0.015625)"/>
      <path id="DejaVuSans-Bold-4a" d="M 2919 594 
Q 2688 288 2409 144 
Q 2131 0 1766 0 
Q 1125 0 706 504 
Q 288 1009 288 1791 
Q 288 2575 706 3076 
Q 1125 3578 1766 3578 
Q 2131 3578 2409 3434 
Q 2688 3291 2919 2981 
L 2919 3500 
L 4044 3500 
L 4044 353 
Q 4044 -491 3511 -936 
Q 2978 -1381 1966 -1381 
Q 1638 -1381 1331 -1331 
Q 1025 -1281 716 -1178 
L 716 -306 
Q 1009 -475 1290 -558 
Q 1572 -641 1856 -641 
Q 2406 -641 2662 -400 
Q 2919 -159 2919 353 
L 2919 594 
z
M 2181 2772 
Q 1834 2772 1640 2515 
Q 1447 2259 1447 1791 
Q 1447 1309 1634 1061 
Q 1822 813 2181 813 
Q 2531 813 2725 1069 
Q 2919 1325 2919 1791 
Q 2919 2259 2725 2515 
Q 2531 2772 2181 2772 
z
" transform="scale(0.015625)"/>
      <path id="DejaVuSans-Bold-48" d="M 4031 1759 
L 4031 1441 
L 1416 1441 
Q 1456 1047 1700 850 
Q 1944 653 2381 653 
Q 2734 653 3104 758 
Q 3475 863 3866 1075 
L 3866 213 
Q 3469 63 3072 -14 
Q 2675 -91 2278 -91 
Q 1328 -91 801 392 
Q 275 875 275 1747 
Q 275 2603 792 3093 
Q 1309 3584 2216 3584 
Q 3041 3584 3536 3087 
Q 4031 2591 4031 1759 
z
M 2881 2131 
Q 2881 2450 2695 2645 
Q 2509 2841 2209 2841 
Q 1884 2841 1681 2658 
Q 1478 2475 1428 2131 
L 2881 2131 
z
" transform="scale(0.015625)"/>
      <path id="DejaVuSans-Bold-4e" d="M 538 4863 
L 1656 4863 
L 1656 2216 
L 2944 3500 
L 4244 3500 
L 2534 1894 
L 4378 0 
L 3022 0 
L 1656 1459 
L 1656 0 
L 538 0 
L 538 4863 
z
" transform="scale(0.015625)"/>
      <path id="DejaVuSans-Bold-29" d="M 588 4666 
L 3834 4666 
L 3834 3756 
L 1791 3756 
L 1791 2888 
L 3713 2888 
L 3713 1978 
L 1791 1978 
L 1791 0 
L 588 0 
L 588 4666 
z
" transform="scale(0.015625)"/>
      <path id="DejaVuSans-Bold-28" d="M 588 4666 
L 3834 4666 
L 3834 3756 
L 1791 3756 
L 1791 2888 
L 3713 2888 
L 3713 1978 
L 1791 1978 
L 1791 909 
L 3903 909 
L 3903 0 
L 588 0 
L 588 4666 
z
" transform="scale(0.015625)"/>
      <path id="DejaVuSans-Bold-59" d="M 97 3500 
L 1216 3500 
L 2088 1081 
L 2956 3500 
L 4078 3500 
L 2700 0 
L 1472 0 
L 97 3500 
z
" transform="scale(0.015625)"/>
      <path id="DejaVuSans-Bold-af6" d="M 344 2156 
L 6056 2156 
L 6056 1350 
L 344 1350 
L 344 2156 
z
" transform="scale(0.015625)"/>
      <path id="DejaVuSans-Bold-33" d="M 588 4666 
L 2584 4666 
Q 3475 4666 3951 4270 
Q 4428 3875 4428 3144 
Q 4428 2409 3951 2014 
Q 3475 1619 2584 1619 
L 1791 1619 
L 1791 0 
L 588 0 
L 588 4666 
z
M 1791 3794 
L 1791 2491 
L 2456 2491 
Q 2806 2491 2997 2661 
Q 3188 2831 3188 3144 
Q 3188 3456 2997 3625 
Q 2806 3794 2456 3794 
L 1791 3794 
z
" transform="scale(0.015625)"/>
      <path id="DejaVuSans-Bold-36" d="M 3834 4519 
L 3834 3531 
Q 3450 3703 3084 3790 
Q 2719 3878 2394 3878 
Q 1963 3878 1756 3759 
Q 1550 3641 1550 3391 
Q 1550 3203 1689 3098 
Q 1828 2994 2194 2919 
L 2706 2816 
Q 3484 2659 3812 2340 
Q 4141 2022 4141 1434 
Q 4141 663 3683 286 
Q 3225 -91 2284 -91 
Q 1841 -91 1394 -6 
Q 947 78 500 244 
L 500 1259 
Q 947 1022 1364 901 
Q 1781 781 2169 781 
Q 2563 781 2772 912 
Q 2981 1044 2981 1288 
Q 2981 1506 2839 1625 
Q 2697 1744 2272 1838 
L 1806 1941 
Q 1106 2091 782 2419 
Q 459 2747 459 3303 
Q 459 4000 909 4375 
Q 1359 4750 2203 4750 
Q 2588 4750 2994 4692 
Q 3400 4634 3834 4519 
z
" transform="scale(0.015625)"/>
     </defs>
     <use xlink:href="#DejaVuSans-Bold-30"/>
     <use xlink:href="#DejaVuSans-Bold-44" transform="translate(99.515625 0)"/>
     <use xlink:href="#DejaVuSans-Bold-55" transform="translate(167 0)"/>
     <use xlink:href="#DejaVuSans-Bold-46" transform="translate(216.3125 0)"/>
     <use xlink:href="#DejaVuSans-Bold-4c" transform="translate(275.59375 0)"/>
     <use xlink:href="#DejaVuSans-Bold-51" transform="translate(309.875 0)"/>
     <use xlink:href="#DejaVuSans-Bold-3" transform="translate(381.0625 0)"/>
     <use xlink:href="#DejaVuSans-Bold-2a" transform="translate(415.875 0)"/>
     <use xlink:href="#DejaVuSans-Bold-55" transform="translate(497.953125 0)"/>
     <use xlink:href="#DejaVuSans-Bold-5c" transform="translate(547.265625 0)"/>
     <use xlink:href="#DejaVuSans-Bold-4a" transform="translate(612.453125 0)"/>
     <use xlink:href="#DejaVuSans-Bold-4c" transform="translate(684.03125 0)"/>
     <use xlink:href="#DejaVuSans-Bold-48" transform="translate(718.3125 0)"/>
     <use xlink:href="#DejaVuSans-Bold-4f" transform="translate(786.140625 0)"/>
     <use xlink:href="#DejaVuSans-Bold-3" transform="translate(820.421875 0)"/>
     <use xlink:href="#DejaVuSans-Bold-44" transform="translate(855.234375 0)"/>
     <use xlink:href="#DejaVuSans-Bold-4e" transform="translate(922.71875 0)"/>
     <use xlink:href="#DejaVuSans-Bold-44" transform="translate(989.21875 0)"/>
     <use xlink:href="#DejaVuSans-Bold-3" transform="translate(1056.703125 0)"/>
     <use xlink:href="#DejaVuSans-Bold-29" transform="translate(1091.515625 0)"/>
     <use xlink:href="#DejaVuSans-Bold-4c" transform="translate(1159.828125 0)"/>
     <use xlink:href="#DejaVuSans-Bold-55" transform="translate(1194.109375 0)"/>
     <use xlink:href="#DejaVuSans-Bold-56" transform="translate(1243.421875 0)"/>
     <use xlink:href="#DejaVuSans-Bold-57" transform="translate(1302.9375 0)"/>
     <use xlink:href="#DejaVuSans-Bold-28" transform="translate(1350.734375 0)"/>
     <use xlink:href="#DejaVuSans-Bold-59" transform="translate(1419.046875 0)"/>
     <use xlink:href="#DejaVuSans-Bold-48" transform="translate(1484.234375 0)"/>
     <use xlink:href="#DejaVuSans-Bold-55" transform="translate(1552.0625 0)"/>
     <use xlink:href="#DejaVuSans-Bold-3" transform="translate(1601.375 0)"/>
     <use xlink:href="#DejaVuSans-Bold-af6" transform="translate(1636.1875 0)"/>
     <use xlink:href="#DejaVuSans-Bold-3" transform="translate(1736.1875 0)"/>
     <use xlink:href="#DejaVuSans-Bold-33" transform="translate(1771 0)"/>
     <use xlink:href="#DejaVuSans-Bold-36" transform="translate(1844.296875 0)"/>
     <use xlink:href="#DejaVuSans-Bold-2a" transform="translate(1916.3125 0)"/>
     <use xlink:href="#DejaVuSans-Bold-44" transform="translate(1998.390625 0)"/>
     <use xlink:href="#DejaVuSans-Bold-4f" transform="translate(2065.875 0)"/>
     <use xlink:href="#DejaVuSans-Bold-4f" transform="translate(2100.15625 0)"/>
     <use xlink:href="#DejaVuSans-Bold-48" transform="translate(2134.4375 0)"/>
     <use xlink:href="#DejaVuSans-Bold-55" transform="translate(2202.265625 0)"/>
     <use xlink:href="#DejaVuSans-Bold-5c" transform="translate(2251.578125 0)"/>
     <use xlink:href="#DejaVuSans-Bold-3" transform="translate(2316.765625 0)"/>
     <use xlink:href="#DejaVuSans-Bold-27" transform="translate(2351.578125 0)"/>
     <use xlink:href="#DejaVuSans-Bold-52" transform="translate(2434.59375 0)"/>
     <use xlink:href="#DejaVuSans-Bold-5a" transform="translate(2503.296875 0)"/>
     <use xlink:href="#DejaVuSans-Bold-51" transform="translate(2595.6875 0)"/>
     <use xlink:href="#DejaVuSans-Bold-4f" transform="translate(2666.875 0)"/>
     <use xlink:href="#DejaVuSans-Bold-52" transform="translate(2701.15625 0)"/>
     <use xlink:href="#DejaVuSans-Bold-44" transform="translate(2769.859375 0)"/>
     <use xlink:href="#DejaVuSans-Bold-47" transform="translate(2837.34375 0)"/>
     <use xlink:href="#DejaVuSans-Bold-56" transform="translate(2908.921875 0)"/>
     <use xlink:href="#DejaVuSans-Bold-3" transform="translate(2968.4375 0)"/>
     <use xlink:href="#DejaVuSans-Bold-12" transform="translate(3003.25 0)"/>
     <use xlink:href="#DejaVuSans-Bold-3" transform="translate(3039.78125 0)"/>
     <use xlink:href="#DejaVuSans-Bold-47" transform="translate(3074.59375 0)"/>
     <use xlink:href="#DejaVuSans-Bold-44" transform="translate(3146.171875 0)"/>
     <use xlink:href="#DejaVuSans-Bold-5c" transform="translate(3210.578125 0)"/>
    </g>
   </g>
   <g id="PathCollection_1">
    <defs>
     <path id="m31b86faf5b" d="M 0 2.12132 
C 0.562581 2.12132 1.102195 1.897805 1.5 1.5 
C 1.897805 1.102195 2.12132 0.562581 2.12132 0 
C 2.12132 -0.562581 1.897805 -1.102195 1.5 -1.5 
C 1.102195 -1.897805 0.562581 -2.12132 0 -2.12132 
C -0.562581 -2.12132 -1.102195 -1.897805 -1.5 -1.5 
C -1.897805 -1.102195 -2.12132 -0.562581 -2.12132 0 
C -2.12132 0.562581 -1.897805 1.102195 -1.5 1.5 
C -1.102195 1.897805 -0.562581 2.12132 0 2.12132 
z
"/>
    </defs>
    <g clip-path="url(#p1ca37bf4c5)">
     <use xlink:href="#m31b86faf5b" x="68.105072" y="236.430437" style="fill: #1a73e8"/>
     <use xlink:href="#m31b86faf5b" x="89.593474" y="236.430437" style="fill: #1a73e8"/>
     <use xlink:href="#m31b86faf5b" x="111.081875" y="236.430437" style="fill: #1a73e8"/>
     <use xlink:href="#m31b86faf5b" x="132.570276" y="236.430437" style="fill: #1a73e8"/>
     <use xlink:href="#m31b86faf5b" x="154.058678" y="236.430437" style="fill: #1a73e8"/>
     <use xlink:href="#m31b86faf5b" x="175.547079" y="236.430437" style="fill: #1a73e8"/>
     <use xlink:href="#m31b86faf5b" x="197.035481" y="236.430437" style="fill: #1a73e8"/>
     <use xlink:href="#m31b86faf5b" x="218.523882" y="236.430437" style="fill: #1a73e8"/>
     <use xlink:href="#m31b86faf5b" x="240.012284" y="236.430437" style="fill: #1a73e8"/>
     <use xlink:href="#m31b86faf5b" x="261.500685" y="236.430437" style="fill: #1a73e8"/>
     <use xlink:href="#m31b86faf5b" x="282.989087" y="236.430437" style="fill: #1a73e8"/>
     <use xlink:href="#m31b86faf5b" x="304.477488" y="236.430437" style="fill: #1a73e8"/>
     <use xlink:href="#m31b86faf5b" x="325.965889" y="236.430437" style="fill: #1a73e8"/>
     <use xlink:href="#m31b86faf5b" x="347.454291" y="236.430437" style="fill: #1a73e8"/>
     <use xlink:href="#m31b86faf5b" x="368.942692" y="236.430437" style="fill: #1a73e8"/>
     <use xlink:href="#m31b86faf5b" x="390.431094" y="236.430437" style="fill: #1a73e8"/>
     <use xlink:href="#m31b86faf5b" x="411.919495" y="236.430437" style="fill: #1a73e8"/>
     <use xlink:href="#m31b86faf5b" x="433.407897" y="143.073957" style="fill: #1a73e8"/>
     <use xlink:href="#m31b86faf5b" x="454.896298" y="235.378533" style="fill: #1a73e8"/>
     <use xlink:href="#m31b86faf5b" x="476.3847" y="236.430437" style="fill: #1a73e8"/>
     <use xlink:href="#m31b86faf5b" x="497.873101" y="236.167461" style="fill: #1a73e8"/>
     <use xlink:href="#m31b86faf5b" x="519.361502" y="235.115557" style="fill: #1a73e8"/>
     <use xlink:href="#m31b86faf5b" x="540.849904" y="234.326629" style="fill: #1a73e8"/>
     <use xlink:href="#m31b86faf5b" x="562.338305" y="233.537701" style="fill: #1a73e8"/>
     <use xlink:href="#m31b86faf5b" x="583.826707" y="231.170917" style="fill: #1a73e8"/>
     <use xlink:href="#m31b86faf5b" x="605.315108" y="235.378533" style="fill: #1a73e8"/>
     <use xlink:href="#m31b86faf5b" x="626.80351" y="235.115557" style="fill: #1a73e8"/>
     <use xlink:href="#m31b86faf5b" x="648.291911" y="235.378533" style="fill: #1a73e8"/>
     <use xlink:href="#m31b86faf5b" x="669.780312" y="235.904485" style="fill: #1a73e8"/>
     <use xlink:href="#m31b86faf5b" x="691.268714" y="236.430437" style="fill: #1a73e8"/>
     <use xlink:href="#m31b86faf5b" x="712.757115" y="236.167461" style="fill: #1a73e8"/>
    </g>
   </g>
   <g id="PathCollection_2">
    <defs>
     <path id="mabc965da5b" d="M 0 2.12132 
C 0.562581 2.12132 1.102195 1.897805 1.5 1.5 
C 1.897805 1.102195 2.12132 0.562581 2.12132 0 
C 2.12132 -0.562581 1.897805 -1.102195 1.5 -1.5 
C 1.102195 -1.897805 0.562581 -2.12132 0 -2.12132 
C -0.562581 -2.12132 -1.102195 -1.897805 -1.5 -1.5 
C -1.897805 -1.102195 -2.12132 -0.562581 -2.12132 0 
C -2.12132 0.562581 -1.897805 1.102195 -1.5 1.5 
C -1.102195 1.897805 -0.562581 2.12132 0 2.12132 
z
"/>
    </defs>
    <g clip-path="url(#p1ca37bf4c5)">
     <use xlink:href="#mabc965da5b" x="68.105072" y="236.430437" style="fill: #3fb950"/>
     <use xlink:href="#mabc965da5b" x="89.593474" y="236.430437" style="fill: #3fb950"/>
     <use xlink:href="#mabc965da5b" x="111.081875" y="236.430437" style="fill: #3fb950"/>
     <use xlink:href="#mabc965da5b" x="132.570276" y="236.430437" style="fill: #3fb950"/>
     <use xlink:href="#mabc965da5b" x="154.058678" y="236.430437" style="fill: #3fb950"/>
     <use xlink:href="#mabc965da5b" x="175.547079" y="236.430437" style="fill: #3fb950"/>
     <use xlink:href="#mabc965da5b" x="197.035481" y="236.430437" style="fill: #3fb950"/>
     <use xlink:href="#mabc965da5b" x="218.523882" y="236.430437" style="fill: #3fb950"/>
     <use xlink:href="#mabc965da5b" x="240.012284" y="236.430437" style="fill: #3fb950"/>
     <use xlink:href="#mabc965da5b" x="261.500685" y="236.430437" style="fill: #3fb950"/>
     <use xlink:href="#mabc965da5b" x="282.989087" y="236.430437" style="fill: #3fb950"/>
     <use xlink:href="#mabc965da5b" x="304.477488" y="236.430437" style="fill: #3fb950"/>
     <use xlink:href="#mabc965da5b" x="325.965889" y="236.430437" style="fill: #3fb950"/>
     <use xlink:href="#mabc965da5b" x="347.454291" y="236.430437" style="fill: #3fb950"/>
     <use xlink:href="#mabc965da5b" x="368.942692" y="236.430437" style="fill: #3fb950"/>
     <use xlink:href="#mabc965da5b" x="390.431094" y="236.430437" style="fill: #3fb950"/>
     <use xlink:href="#mabc965da5b" x="411.919495" y="236.430437" style="fill: #3fb950"/>
     <use xlink:href="#mabc965da5b" x="433.407897" y="146.492645" style="fill: #3fb950"/>
     <use xlink:href="#mabc965da5b" x="454.896298" y="235.378533" style="fill: #3fb950"/>
     <use xlink:href="#mabc965da5b" x="476.3847" y="236.167461" style="fill: #3fb950"/>
     <use xlink:href="#mabc965da5b" x="497.873101" y="236.167461" style="fill: #3fb950"/>
     <use xlink:href="#mabc965da5b" x="519.361502" y="235.378533" style="fill: #3fb950"/>
     <use xlink:href="#mabc965da5b" x="540.849904" y="235.115557" style="fill: #3fb950"/>
     <use xlink:href="#mabc965da5b" x="562.338305" y="233.800677" style="fill: #3fb950"/>
     <use xlink:href="#mabc965da5b" x="583.826707" y="233.274725" style="fill: #3fb950"/>
     <use xlink:href="#mabc965da5b" x="605.315108" y="235.904485" style="fill: #3fb950"/>
     <use xlink:href="#mabc965da5b" x="626.80351" y="235.378533" style="fill: #3fb950"/>
     <use xlink:href="#mabc965da5b" x="648.291911" y="236.167461" style="fill: #3fb950"/>
     <use xlink:href="#mabc965da5b" x="669.780312" y="235.904485" style="fill: #3fb950"/>
     <use xlink:href="#mabc965da5b" x="691.268714" y="236.430437" style="fill: #3fb950"/>
     <use xlink:href="#mabc965da5b" x="712.757115" y="235.904485" style="fill: #3fb950"/>
    </g>
   </g>
   <g id="PathCollection_3">
    <defs>
     <path id="m0584210d05" d="M -0 3.316625 
L 3.316625 0 
L 0 -3.316625 
L -3.316625 -0 
z
"/>
    </defs>
    <g clip-path="url(#p1ca37bf4c5)">
     <use xlink:href="#m0584210d05" x="68.105072" y="236.430437" style="fill: #e3b341"/>
     <use xlink:href="#m0584210d05" x="89.593474" y="236.430437" style="fill: #e3b341"/>
     <use xlink:href="#m0584210d05" x="111.081875" y="236.430437" style="fill: #e3b341"/>
     <use xlink:href="#m0584210d05" x="132.570276" y="236.430437" style="fill: #e3b341"/>
     <use xlink:href="#m0584210d05" x="154.058678" y="236.430437" style="fill: #e3b341"/>
     <use xlink:href="#m0584210d05" x="175.547079" y="236.430437" style="fill: #e3b341"/>
     <use xlink:href="#m0584210d05" x="197.035481" y="236.430437" style="fill: #e3b341"/>
     <use xlink:href="#m0584210d05" x="218.523882" y="236.430437" style="fill: #e3b341"/>
     <use xlink:href="#m0584210d05" x="240.012284" y="236.430437" style="fill: #e3b341"/>
     <use xlink:href="#m0584210d05" x="261.500685" y="236.430437" style="fill: #e3b341"/>
     <use xlink:href="#m0584210d05" x="282.989087" y="236.430437" style="fill: #e3b341"/>
     <use xlink:href="#m0584210d05" x="304.477488" y="236.430437" style="fill: #e3b341"/>
     <use xlink:href="#m0584210d05" x="325.965889" y="236.430437" style="fill: #e3b341"/>
     <use xlink:href="#m0584210d05" x="347.454291" y="236.430437" style="fill: #e3b341"/>
     <use xlink:href="#m0584210d05" x="368.942692" y="236.430437" style="fill: #e3b341"/>
     <use xlink:href="#m0584210d05" x="390.431094" y="236.430437" style="fill: #e3b341"/>
     <use xlink:href="#m0584210d05" x="411.919495" y="236.430437" style="fill: #e3b341"/>
     <use xlink:href="#m0584210d05" x="433.407897" y="53.136166" style="fill: #e3b341"/>
     <use xlink:href="#m0584210d05" x="454.896298" y="234.326629" style="fill: #e3b341"/>
     <use xlink:href="#m0584210d05" x="476.3847" y="236.167461" style="fill: #e3b341"/>
     <use xlink:href="#m0584210d05" x="497.873101" y="235.904485" style="fill: #e3b341"/>
     <use xlink:href="#m0584210d05" x="519.361502" y="234.063653" style="fill: #e3b341"/>
     <use xlink:href="#m0584210d05" x="540.849904" y="233.011749" style="fill: #e3b341"/>
     <use xlink:href="#m0584210d05" x="562.338305" y="230.907941" style="fill: #e3b341"/>
     <use xlink:href="#m0584210d05" x="583.826707" y="228.015205" style="fill: #e3b341"/>
     <use xlink:href="#m0584210d05" x="605.315108" y="234.852581" style="fill: #e3b341"/>
     <use xlink:href="#m0584210d05" x="626.80351" y="234.063653" style="fill: #e3b341"/>
     <use xlink:href="#m0584210d05" x="648.291911" y="235.115557" style="fill: #e3b341"/>
     <use xlink:href="#m0584210d05" x="669.780312" y="235.378533" style="fill: #e3b341"/>
     <use xlink:href="#m0584210d05" x="691.268714" y="236.430437" style="fill: #e3b341"/>
     <use xlink:href="#m0584210d05" x="712.757115" y="235.641509" style="fill: #e3b341"/>
    </g>
   </g>
   <g id="legend_1">
    <g id="patch_7">
     <path d="M 60.112031 55.298984 
L 263.917031 55.298984 
Q 265.317031 55.298984 265.317031 53.898984 
L 265.317031 44.098437 
Q 265.317031 42.698437 263.917031 42.698437 
L 60.112031 42.698437 
Q 58.712031 42.698437 58.712031 44.098437 
L 58.712031 53.898984 
Q 58.712031 55.298984 60.112031 55.298984 
L 60.112031 55.298984 
z
" style="fill: none; opacity: 0"/>
    </g>
    <g id="line2d_83">
     <path d="M 61.512031 48.367344 
L 68.512031 48.367344 
L 75.512031 48.367344 
" style="fill: none; stroke: #1a73e8; stroke-width: 2; stroke-linecap: square"/>
    </g>
    <g id="text_55">
     <!-- Rep1 -->
     <g style="fill: #1a73e8" transform="translate(81.112031 50.817344) scale(0.07 -0.07)">
      <defs>
       <path id="DejaVuSans-35" d="M 2841 2188 
Q 3044 2119 3236 1894 
Q 3428 1669 3622 1275 
L 4263 0 
L 3584 0 
L 2988 1197 
Q 2756 1666 2539 1819 
Q 2322 1972 1947 1972 
L 1259 1972 
L 1259 0 
L 628 0 
L 628 4666 
L 2053 4666 
Q 2853 4666 3247 4331 
Q 3641 3997 3641 3322 
Q 3641 2881 3436 2590 
Q 3231 2300 2841 2188 
z
M 1259 4147 
L 1259 2491 
L 2053 2491 
Q 2509 2491 2742 2702 
Q 2975 2913 2975 3322 
Q 2975 3731 2742 3939 
Q 2509 4147 2053 4147 
L 1259 4147 
z
" transform="scale(0.015625)"/>
       <path id="DejaVuSans-48" d="M 3597 1894 
L 3597 1613 
L 953 1613 
Q 991 1019 1311 708 
Q 1631 397 2203 397 
Q 2534 397 2845 478 
Q 3156 559 3463 722 
L 3463 178 
Q 3153 47 2828 -22 
Q 2503 -91 2169 -91 
Q 1331 -91 842 396 
Q 353 884 353 1716 
Q 353 2575 817 3079 
Q 1281 3584 2069 3584 
Q 2775 3584 3186 3129 
Q 3597 2675 3597 1894 
z
M 3022 2063 
Q 3016 2534 2758 2815 
Q 2500 3097 2075 3097 
Q 1594 3097 1305 2825 
Q 1016 2553 972 2059 
L 3022 2063 
z
" transform="scale(0.015625)"/>
       <path id="DejaVuSans-53" d="M 1159 525 
L 1159 -1331 
L 581 -1331 
L 581 3500 
L 1159 3500 
L 1159 2969 
Q 1341 3281 1617 3432 
Q 1894 3584 2278 3584 
Q 2916 3584 3314 3078 
Q 3713 2572 3713 1747 
Q 3713 922 3314 415 
Q 2916 -91 2278 -91 
Q 1894 -91 1617 61 
Q 1341 213 1159 525 
z
M 3116 1747 
Q 3116 2381 2855 2742 
Q 2594 3103 2138 3103 
Q 1681 3103 1420 2742 
Q 1159 2381 1159 1747 
Q 1159 1113 1420 752 
Q 1681 391 2138 391 
Q 2594 391 2855 752 
Q 3116 1113 3116 1747 
z
" transform="scale(0.015625)"/>
       <path id="DejaVuSans-14" d="M 794 531 
L 1825 531 
L 1825 4091 
L 703 3866 
L 703 4441 
L 1819 4666 
L 2450 4666 
L 2450 531 
L 3481 531 
L 3481 0 
L 794 0 
L 794 531 
z
" transform="scale(0.015625)"/>
      </defs>
      <use xlink:href="#DejaVuSans-35"/>
      <use xlink:href="#DejaVuSans-48" transform="translate(65 0)"/>
      <use xlink:href="#DejaVuSans-53" transform="translate(126.53125 0)"/>
      <use xlink:href="#DejaVuSans-14" transform="translate(190.015625 0)"/>
     </g>
    </g>
    <g id="line2d_84">
     <path d="M 112.866875 48.367344 
L 119.866875 48.367344 
L 126.866875 48.367344 
" style="fill: none; stroke: #3fb950; stroke-width: 2; stroke-linecap: square"/>
    </g>
    <g id="text_56">
     <!-- Rep2 -->
     <g style="fill: #3fb950" transform="translate(132.466875 50.817344) scale(0.07 -0.07)">
      <defs>
       <path id="DejaVuSans-15" d="M 1228 531 
L 3431 531 
L 3431 0 
L 469 0 
L 469 531 
Q 828 903 1448 1529 
Q 2069 2156 2228 2338 
Q 2531 2678 2651 2914 
Q 2772 3150 2772 3378 
Q 2772 3750 2511 3984 
Q 2250 4219 1831 4219 
Q 1534 4219 1204 4116 
Q 875 4013 500 3803 
L 500 4441 
Q 881 4594 1212 4672 
Q 1544 4750 1819 4750 
Q 2544 4750 2975 4387 
Q 3406 4025 3406 3419 
Q 3406 3131 3298 2873 
Q 3191 2616 2906 2266 
Q 2828 2175 2409 1742 
Q 1991 1309 1228 531 
z
" transform="scale(0.015625)"/>
      </defs>
      <use xlink:href="#DejaVuSans-35"/>
      <use xlink:href="#DejaVuSans-48" transform="translate(65 0)"/>
      <use xlink:href="#DejaVuSans-53" transform="translate(126.53125 0)"/>
      <use xlink:href="#DejaVuSans-15" transform="translate(190.015625 0)"/>
     </g>
    </g>
    <g id="line2d_85">
     <path d="M 164.221719 48.367344 
L 171.221719 48.367344 
L 178.221719 48.367344 
" style="fill: none; stroke-dasharray: 9.25,4; stroke-dashoffset: 0; stroke: #e3b341; stroke-width: 2.5"/>
    </g>
    <g id="text_57">
     <!-- Total -->
     <g style="fill: #e3b341" transform="translate(183.821719 50.817344) scale(0.07 -0.07)">
      <defs>
       <path id="DejaVuSans-37" d="M -19 4666 
L 3928 4666 
L 3928 4134 
L 2272 4134 
L 2272 0 
L 1638 0 
L 1638 4134 
L -19 4134 
L -19 4666 
z
" transform="scale(0.015625)"/>
       <path id="DejaVuSans-52" d="M 1959 3097 
Q 1497 3097 1228 2736 
Q 959 2375 959 1747 
Q 959 1119 1226 758 
Q 1494 397 1959 397 
Q 2419 397 2687 759 
Q 2956 1122 2956 1747 
Q 2956 2369 2687 2733 
Q 2419 3097 1959 3097 
z
M 1959 3584 
Q 2709 3584 3137 3096 
Q 3566 2609 3566 1747 
Q 3566 888 3137 398 
Q 2709 -91 1959 -91 
Q 1206 -91 779 398 
Q 353 888 353 1747 
Q 353 2609 779 3096 
Q 1206 3584 1959 3584 
z
" transform="scale(0.015625)"/>
       <path id="DejaVuSans-57" d="M 1172 4494 
L 1172 3500 
L 2356 3500 
L 2356 3053 
L 1172 3053 
L 1172 1153 
Q 1172 725 1289 603 
Q 1406 481 1766 481 
L 2356 481 
L 2356 0 
L 1766 0 
Q 1100 0 847 248 
Q 594 497 594 1153 
L 594 3053 
L 172 3053 
L 172 3500 
L 594 3500 
L 594 4494 
L 1172 4494 
z
" transform="scale(0.015625)"/>
       <path id="DejaVuSans-44" d="M 2194 1759 
Q 1497 1759 1228 1600 
Q 959 1441 959 1056 
Q 959 750 1161 570 
Q 1363 391 1709 391 
Q 2188 391 2477 730 
Q 2766 1069 2766 1631 
L 2766 1759 
L 2194 1759 
z
M 3341 1997 
L 3341 0 
L 2766 0 
L 2766 531 
Q 2569 213 2275 61 
Q 1981 -91 1556 -91 
Q 1019 -91 701 211 
Q 384 513 384 1019 
Q 384 1609 779 1909 
Q 1175 2209 1959 2209 
L 2766 2209 
L 2766 2266 
Q 2766 2663 2505 2880 
Q 2244 3097 1772 3097 
Q 1472 3097 1187 3025 
Q 903 2953 641 2809 
L 641 3341 
Q 956 3463 1253 3523 
Q 1550 3584 1831 3584 
Q 2591 3584 2966 3190 
Q 3341 2797 3341 1997 
z
" transform="scale(0.015625)"/>
       <path id="DejaVuSans-4f" d="M 603 4863 
L 1178 4863 
L 1178 0 
L 603 0 
L 603 4863 
z
" transform="scale(0.015625)"/>
      </defs>
      <use xlink:href="#DejaVuSans-37"/>
      <use xlink:href="#DejaVuSans-52" transform="translate(44.09375 0)"/>
      <use xlink:href="#DejaVuSans-57" transform="translate(105.28125 0)"/>
      <use xlink:href="#DejaVuSans-44" transform="translate(144.484375 0)"/>
      <use xlink:href="#DejaVuSans-4f" transform="translate(205.765625 0)"/>
     </g>
    </g>
    <g id="line2d_86">
     <path d="M 214.17 48.367344 
L 221.17 48.367344 
L 228.17 48.367344 
" style="fill: none; stroke-dasharray: 1.5,2.475; stroke-dashoffset: 0; stroke: #ff6b6b; stroke-width: 1.5"/>
    </g>
    <g id="text_58">
     <!-- Average -->
     <g style="fill: #ff6b6b" transform="translate(233.77 50.817344) scale(0.07 -0.07)">
      <defs>
       <path id="DejaVuSans-24" d="M 2188 4044 
L 1331 1722 
L 3047 1722 
L 2188 4044 
z
M 1831 4666 
L 2547 4666 
L 4325 0 
L 3669 0 
L 3244 1197 
L 1141 1197 
L 716 0 
L 50 0 
L 1831 4666 
z
" transform="scale(0.015625)"/>
       <path id="DejaVuSans-59" d="M 191 3500 
L 800 3500 
L 1894 563 
L 2988 3500 
L 3597 3500 
L 2284 0 
L 1503 0 
L 191 3500 
z
" transform="scale(0.015625)"/>
       <path id="DejaVuSans-55" d="M 2631 2963 
Q 2534 3019 2420 3045 
Q 2306 3072 2169 3072 
Q 1681 3072 1420 2755 
Q 1159 2438 1159 1844 
L 1159 0 
L 581 0 
L 581 3500 
L 1159 3500 
L 1159 2956 
Q 1341 3275 1631 3429 
Q 1922 3584 2338 3584 
Q 2397 3584 2469 3576 
Q 2541 3569 2628 3553 
L 2631 2963 
z
" transform="scale(0.015625)"/>
       <path id="DejaVuSans-4a" d="M 2906 1791 
Q 2906 2416 2648 2759 
Q 2391 3103 1925 3103 
Q 1463 3103 1205 2759 
Q 947 2416 947 1791 
Q 947 1169 1205 825 
Q 1463 481 1925 481 
Q 2391 481 2648 825 
Q 2906 1169 2906 1791 
z
M 3481 434 
Q 3481 -459 3084 -895 
Q 2688 -1331 1869 -1331 
Q 1566 -1331 1297 -1286 
Q 1028 -1241 775 -1147 
L 775 -588 
Q 1028 -725 1275 -790 
Q 1522 -856 1778 -856 
Q 2344 -856 2625 -561 
Q 2906 -266 2906 331 
L 2906 616 
Q 2728 306 2450 153 
Q 2172 0 1784 0 
Q 1141 0 747 490 
Q 353 981 353 1791 
Q 353 2603 747 3093 
Q 1141 3584 1784 3584 
Q 2172 3584 2450 3431 
Q 2728 3278 2906 2969 
L 2906 3500 
L 3481 3500 
L 3481 434 
z
" transform="scale(0.015625)"/>
      </defs>
      <use xlink:href="#DejaVuSans-24"/>
      <use xlink:href="#DejaVuSans-59" transform="translate(62.546875 0)"/>
      <use xlink:href="#DejaVuSans-48" transform="translate(121.734375 0)"/>
      <use xlink:href="#DejaVuSans-55" transform="translate(183.265625 0)"/>
      <use xlink:href="#DejaVuSans-44" transform="translate(224.375 0)"/>
      <use xlink:href="#DejaVuSans-4a" transform="translate(285.65625 0)"/>
      <use xlink:href="#DejaVuSans-48" transform="translate(349.140625 0)"/>
     </g>
    </g>
   </g>
   <g id="line2d_87">
    <defs>
     <path id="mc658d6e6bc" d="M -0 2.5 
L 2.5 -2.5 
L -2.5 -2.5 
z
" style="stroke: #1a73e8; stroke-linejoin: miter"/>
    </defs>
    <g>
     <use xlink:href="#mc658d6e6bc" x="537.626644" y="236.430437" style="fill: #1a73e8; stroke: #1a73e8; stroke-linejoin: miter"/>
    </g>
   </g>
   <g id="line2d_88">
    <defs>
     <path id="m782dc9a351" d="M -0 2.5 
L 2.5 -2.5 
L -2.5 -2.5 
z
" style="stroke: #3fb950; stroke-linejoin: miter"/>
    </defs>
    <g>
     <use xlink:href="#m782dc9a351" x="544.073164" y="236.430437" style="fill: #3fb950; stroke: #3fb950; stroke-linejoin: miter"/>
    </g>
   </g>
   <g id="line2d_89">
    <defs>
     <path id="m8f1d85935b" d="M 0 -2.5 
L -0.561285 -0.772542 
L -2.377641 -0.772542 
L -0.908178 0.295085 
L -1.469463 2.022542 
L -0 0.954915 
L 1.469463 2.022542 
L 0.908178 0.295085 
L 2.377641 -0.772542 
L 0.561285 -0.772542 
z
" style="stroke: #1a73e8; stroke-linejoin: bevel"/>
    </defs>
    <g>
     <use xlink:href="#m8f1d85935b" x="107.858615" y="236.430437" style="fill: #1a73e8; stroke: #1a73e8; stroke-linejoin: bevel"/>
    </g>
   </g>
   <g id="line2d_90">
    <defs>
     <path id="mf918904c88" d="M 0 -2.5 
L -0.561285 -0.772542 
L -2.377641 -0.772542 
L -0.908178 0.295085 
L -1.469463 2.022542 
L -0 0.954915 
L 1.469463 2.022542 
L 0.908178 0.295085 
L 2.377641 -0.772542 
L 0.561285 -0.772542 
z
" style="stroke: #3fb950; stroke-linejoin: bevel"/>
    </defs>
    <g>
     <use xlink:href="#mf918904c88" x="114.305135" y="236.430437" style="fill: #3fb950; stroke: #3fb950; stroke-linejoin: bevel"/>
    </g>
   </g>
   <g id="line2d_91">
    <g>
     <use xlink:href="#mf918904c88" x="347.454291" y="236.430437" style="fill: #3fb950; stroke: #3fb950; stroke-linejoin: bevel"/>
    </g>
   </g>
   <g id="line2d_92">
    <g>
     <use xlink:href="#m8f1d85935b" x="390.431094" y="236.430437" style="fill: #1a73e8; stroke: #1a73e8; stroke-linejoin: bevel"/>
    </g>
   </g>
   <g id="line2d_93">
    <g>
     <use xlink:href="#mf918904c88" x="454.896298" y="236.430437" style="fill: #3fb950; stroke: #3fb950; stroke-linejoin: bevel"/>
    </g>
   </g>
   <g id="line2d_94">
    <g>
     <use xlink:href="#m8f1d85935b" x="494.649841" y="236.430437" style="fill: #1a73e8; stroke: #1a73e8; stroke-linejoin: bevel"/>
    </g>
   </g>
   <g id="line2d_95">
    <g>
     <use xlink:href="#mf918904c88" x="501.096361" y="236.430437" style="fill: #3fb950; stroke: #3fb950; stroke-linejoin: bevel"/>
    </g>
   </g>
   <g id="line2d_96">
    <g>
     <use xlink:href="#m8f1d85935b" x="559.115045" y="236.430437" style="fill: #1a73e8; stroke: #1a73e8; stroke-linejoin: bevel"/>
    </g>
   </g>
   <g id="line2d_97">
    <g>
     <use xlink:href="#mf918904c88" x="565.561566" y="236.430437" style="fill: #3fb950; stroke: #3fb950; stroke-linejoin: bevel"/>
    </g>
   </g>
   <g id="line2d_98">
    <g>
     <use xlink:href="#m8f1d85935b" x="605.315108" y="236.430437" style="fill: #1a73e8; stroke: #1a73e8; stroke-linejoin: bevel"/>
    </g>
   </g>
  </g>
  <g id="text_59">
   <!-- ▲ vs yesterday: -4 / day   │   ⌀ last 7 days: 11.0 / day   │   ⌀ last 31 days: 26.9 / day   │   vs last month: +807 / month   │   Peak (all-time): 697 / day -->
   <g style="fill: #58a6ff" transform="translate(67.59332 290.283437) scale(0.075 -0.075)">
    <defs>
     <path id="DejaVuSans-Bold-e89" d="M 19 -788 
L 2459 4113 
L 4903 -788 
L 19 -788 
z
" transform="scale(0.015625)"/>
     <path id="DejaVuSans-Bold-1d" d="M 716 3500 
L 1844 3500 
L 1844 2291 
L 716 2291 
L 716 3500 
z
M 716 1209 
L 1844 1209 
L 1844 0 
L 716 0 
L 716 1209 
z
" transform="scale(0.015625)"/>
     <path id="DejaVuSans-Bold-10" d="M 347 2297 
L 2309 2297 
L 2309 1388 
L 347 1388 
L 347 2297 
z
" transform="scale(0.015625)"/>
     <path id="DejaVuSans-Bold-dd9" d="M 1675 -1600 
L 1675 6003 
L 2175 6003 
L 2175 -1600 
L 1675 -1600 
z
" transform="scale(0.015625)"/>
     <path id="DejaVuSans-Bold-d8a" d="M 1925 3272 
Q 2484 3272 2916 2947 
L 3288 3319 
L 3659 2947 
L 3288 2572 
Q 3603 2147 3603 1588 
Q 3603 897 3113 403 
Q 2616 -91 1925 -91 
Q 1375 -91 944 228 
L 572 -144 
L 200 228 
L 572 600 
Q 250 1028 250 1588 
Q 250 2284 741 2778 
Q 1238 3272 1925 3272 
z
M 2531 2559 
Q 2263 2731 1978 2731 
Q 1459 2731 1122 2397 
Q 788 2063 788 1588 
Q 788 1253 959 988 
L 2531 2559 
z
M 1331 616 
Q 1597 450 1878 450 
Q 2394 450 2731 784 
Q 3066 1119 3066 1588 
Q 3066 1922 2900 2184 
L 1331 616 
z
" transform="scale(0.015625)"/>
     <path id="DejaVuSans-Bold-11" d="M 653 1209 
L 1778 1209 
L 1778 0 
L 653 0 
L 653 1209 
z
" transform="scale(0.015625)"/>
     <path id="DejaVuSans-Bold-50" d="M 3781 2919 
Q 3994 3244 4286 3414 
Q 4578 3584 4928 3584 
Q 5531 3584 5847 3212 
Q 6163 2841 6163 2131 
L 6163 0 
L 5038 0 
L 5038 1825 
Q 5041 1866 5042 1909 
Q 5044 1953 5044 2034 
Q 5044 2406 4934 2573 
Q 4825 2741 4581 2741 
Q 4263 2741 4089 2478 
Q 3916 2216 3909 1719 
L 3909 0 
L 2784 0 
L 2784 1825 
Q 2784 2406 2684 2573 
Q 2584 2741 2328 2741 
Q 2006 2741 1831 2477 
Q 1656 2213 1656 1722 
L 1656 0 
L 531 0 
L 531 3500 
L 1656 3500 
L 1656 2988 
Q 1863 3284 2130 3434 
Q 2397 3584 2719 3584 
Q 3081 3584 3359 3409 
Q 3638 3234 3781 2919 
z
" transform="scale(0.015625)"/>
     <path id="DejaVuSans-Bold-e" d="M 3053 4013 
L 3053 2375 
L 4684 2375 
L 4684 1638 
L 3053 1638 
L 3053 0 
L 2309 0 
L 2309 1638 
L 678 1638 
L 678 2375 
L 2309 2375 
L 2309 4013 
L 3053 4013 
z
" transform="scale(0.015625)"/>
     <path id="DejaVuSans-Bold-b" d="M 2413 -844 
L 1484 -844 
Q 1006 -72 778 623 
Q 550 1319 550 2003 
Q 550 2688 779 3389 
Q 1009 4091 1484 4856 
L 2413 4856 
Q 2013 4116 1813 3408 
Q 1613 2700 1613 2009 
Q 1613 1319 1811 609 
Q 2009 -100 2413 -844 
z
" transform="scale(0.015625)"/>
     <path id="DejaVuSans-Bold-c" d="M 513 -844 
Q 913 -100 1113 609 
Q 1313 1319 1313 2009 
Q 1313 2700 1113 3408 
Q 913 4116 513 4856 
L 1441 4856 
Q 1916 4091 2145 3389 
Q 2375 2688 2375 2003 
Q 2375 1319 2147 623 
Q 1919 -72 1441 -844 
L 513 -844 
z
" transform="scale(0.015625)"/>
    </defs>
    <use xlink:href="#DejaVuSans-Bold-e89"/>
    <use xlink:href="#DejaVuSans-Bold-3" transform="translate(76.90625 0)"/>
    <use xlink:href="#DejaVuSans-Bold-59" transform="translate(111.71875 0)"/>
    <use xlink:href="#DejaVuSans-Bold-56" transform="translate(176.90625 0)"/>
    <use xlink:href="#DejaVuSans-Bold-3" transform="translate(236.421875 0)"/>
    <use xlink:href="#DejaVuSans-Bold-5c" transform="translate(271.234375 0)"/>
    <use xlink:href="#DejaVuSans-Bold-48" transform="translate(336.421875 0)"/>
    <use xlink:href="#DejaVuSans-Bold-56" transform="translate(404.25 0)"/>
    <use xlink:href="#DejaVuSans-Bold-57" transform="translate(463.765625 0)"/>
    <use xlink:href="#DejaVuSans-Bold-48" transform="translate(511.5625 0)"/>
    <use xlink:href="#DejaVuSans-Bold-55" transform="translate(579.390625 0)"/>
    <use xlink:href="#DejaVuSans-Bold-47" transform="translate(628.703125 0)"/>
    <use xlink:href="#DejaVuSans-Bold-44" transform="translate(700.28125 0)"/>
    <use xlink:href="#DejaVuSans-Bold-5c" transform="translate(764.6875 0)"/>
    <use xlink:href="#DejaVuSans-Bold-1d" transform="translate(829.875 0)"/>
    <use xlink:href="#DejaVuSans-Bold-3" transform="translate(869.859375 0)"/>
    <use xlink:href="#DejaVuSans-Bold-10" transform="translate(904.671875 0)"/>
    <use xlink:href="#DejaVuSans-Bold-17" transform="translate(946.171875 0)"/>
    <use xlink:href="#DejaVuSans-Bold-3" transform="translate(1015.75 0)"/>
    <use xlink:href="#DejaVuSans-Bold-12" transform="translate(1050.5625 0)"/>
    <use xlink:href="#DejaVuSans-Bold-3" transform="translate(1087.09375 0)"/>
    <use xlink:href="#DejaVuSans-Bold-47" transform="translate(1121.90625 0)"/>
    <use xlink:href="#DejaVuSans-Bold-44" transform="translate(1193.484375 0)"/>
    <use xlink:href="#DejaVuSans-Bold-5c" transform="translate(1257.890625 0)"/>
    <use xlink:href="#DejaVuSans-Bold-3" transform="translate(1323.078125 0)"/>
    <use xlink:href="#DejaVuSans-Bold-3" transform="translate(1357.890625 0)"/>
    <use xlink:href="#DejaVuSans-Bold-3" transform="translate(1392.703125 0)"/>
    <use xlink:href="#DejaVuSans-Bold-dd9" transform="translate(1427.515625 0)"/>
    <use xlink:href="#DejaVuSans-Bold-3" transform="translate(1487.71875 0)"/>
    <use xlink:href="#DejaVuSans-Bold-3" transform="translate(1522.53125 0)"/>
    <use xlink:href="#DejaVuSans-Bold-3" transform="translate(1557.34375 0)"/>
    <use xlink:href="#DejaVuSans-Bold-d8a" transform="translate(1592.15625 0)"/>
    <use xlink:href="#DejaVuSans-Bold-3" transform="translate(1652.359375 0)"/>
    <use xlink:href="#DejaVuSans-Bold-4f" transform="translate(1687.171875 0)"/>
    <use xlink:href="#DejaVuSans-Bold-44" transform="translate(1721.453125 0)"/>
    <use xlink:href="#DejaVuSans-Bold-56" transform="translate(1788.9375 0)"/>
    <use xlink:href="#DejaVuSans-Bold-57" transform="translate(1848.453125 0)"/>
    <use xlink:href="#DejaVuSans-Bold-3" transform="translate(1896.25 0)"/>
    <use xlink:href="#DejaVuSans-Bold-1a" transform="translate(1931.0625 0)"/>
    <use xlink:href="#DejaVuSans-Bold-3" transform="translate(2000.640625 0)"/>
    <use xlink:href="#DejaVuSans-Bold-47" transform="translate(2035.453125 0)"/>
    <use xlink:href="#DejaVuSans-Bold-44" transform="translate(2107.03125 0)"/>
    <use xlink:href="#DejaVuSans-Bold-5c" transform="translate(2171.4375 0)"/>
    <use xlink:href="#DejaVuSans-Bold-56" transform="translate(2236.625 0)"/>
    <use xlink:href="#DejaVuSans-Bold-1d" transform="translate(2296.140625 0)"/>
    <use xlink:href="#DejaVuSans-Bold-3" transform="translate(2336.125 0)"/>
    <use xlink:href="#DejaVuSans-Bold-14" transform="translate(2370.9375 0)"/>
    <use xlink:href="#DejaVuSans-Bold-14" transform="translate(2440.515625 0)"/>
    <use xlink:href="#DejaVuSans-Bold-11" transform="translate(2510.09375 0)"/>
    <use xlink:href="#DejaVuSans-Bold-13" transform="translate(2548.078125 0)"/>
    <use xlink:href="#DejaVuSans-Bold-3" transform="translate(2617.65625 0)"/>
    <use xlink:href="#DejaVuSans-Bold-12" transform="translate(2652.46875 0)"/>
    <use xlink:href="#DejaVuSans-Bold-3" transform="translate(2689 0)"/>
    <use xlink:href="#DejaVuSans-Bold-47" transform="translate(2723.8125 0)"/>
    <use xlink:href="#DejaVuSans-Bold-44" transform="translate(2795.390625 0)"/>
    <use xlink:href="#DejaVuSans-Bold-5c" transform="translate(2859.796875 0)"/>
    <use xlink:href="#DejaVuSans-Bold-3" transform="translate(2924.984375 0)"/>
    <use xlink:href="#DejaVuSans-Bold-3" transform="translate(2959.796875 0)"/>
    <use xlink:href="#DejaVuSans-Bold-3" transform="translate(2994.609375 0)"/>
    <use xlink:href="#DejaVuSans-Bold-dd9" transform="translate(3029.421875 0)"/>
    <use xlink:href="#DejaVuSans-Bold-3" transform="translate(3089.625 0)"/>
    <use xlink:href="#DejaVuSans-Bold-3" transform="translate(3124.4375 0)"/>
    <use xlink:href="#DejaVuSans-Bold-3" transform="translate(3159.25 0)"/>
    <use xlink:href="#DejaVuSans-Bold-d8a" transform="translate(3194.0625 0)"/>
    <use xlink:href="#DejaVuSans-Bold-3" transform="translate(3254.265625 0)"/>
    <use xlink:href="#DejaVuSans-Bold-4f" transform="translate(3289.078125 0)"/>
    <use xlink:href="#DejaVuSans-Bold-44" transform="translate(3323.359375 0)"/>
    <use xlink:href="#DejaVuSans-Bold-56" transform="translate(3390.84375 0)"/>
    <use xlink:href="#DejaVuSans-Bold-57" transform="translate(3450.359375 0)"/>
    <use xlink:href="#DejaVuSans-Bold-3" transform="translate(3498.15625 0)"/>
    <use xlink:href="#DejaVuSans-Bold-16" transform="translate(3532.96875 0)"/>
    <use xlink:href="#DejaVuSans-Bold-14" transform="translate(3602.546875 0)"/>
    <use xlink:href="#DejaVuSans-Bold-3" transform="translate(3672.125 0)"/>
    <use xlink:href="#DejaVuSans-Bold-47" transform="translate(3706.9375 0)"/>
    <use xlink:href="#DejaVuSans-Bold-44" transform="translate(3778.515625 0)"/>
    <use xlink:href="#DejaVuSans-Bold-5c" transform="translate(3842.921875 0)"/>
    <use xlink:href="#DejaVuSans-Bold-56" transform="translate(3908.109375 0)"/>
    <use xlink:href="#DejaVuSans-Bold-1d" transform="translate(3967.625 0)"/>
    <use xlink:href="#DejaVuSans-Bold-3" transform="translate(4007.609375 0)"/>
    <use xlink:href="#DejaVuSans-Bold-15" transform="translate(4042.421875 0)"/>
    <use xlink:href="#DejaVuSans-Bold-19" transform="translate(4112 0)"/>
    <use xlink:href="#DejaVuSans-Bold-11" transform="translate(4181.578125 0)"/>
    <use xlink:href="#DejaVuSans-Bold-1c" transform="translate(4219.5625 0)"/>
    <use xlink:href="#DejaVuSans-Bold-3" transform="translate(4289.140625 0)"/>
    <use xlink:href="#DejaVuSans-Bold-12" transform="translate(4323.953125 0)"/>
    <use xlink:href="#DejaVuSans-Bold-3" transform="translate(4360.484375 0)"/>
    <use xlink:href="#DejaVuSans-Bold-47" transform="translate(4395.296875 0)"/>
    <use xlink:href="#DejaVuSans-Bold-44" transform="translate(4466.875 0)"/>
    <use xlink:href="#DejaVuSans-Bold-5c" transform="translate(4531.28125 0)"/>
    <use xlink:href="#DejaVuSans-Bold-3" transform="translate(4596.46875 0)"/>
    <use xlink:href="#DejaVuSans-Bold-3" transform="translate(4631.28125 0)"/>
    <use xlink:href="#DejaVuSans-Bold-3" transform="translate(4666.09375 0)"/>
    <use xlink:href="#DejaVuSans-Bold-dd9" transform="translate(4700.90625 0)"/>
    <use xlink:href="#DejaVuSans-Bold-3" transform="translate(4761.109375 0)"/>
    <use xlink:href="#DejaVuSans-Bold-3" transform="translate(4795.921875 0)"/>
    <use xlink:href="#DejaVuSans-Bold-3" transform="translate(4830.734375 0)"/>
    <use xlink:href="#DejaVuSans-Bold-59" transform="translate(4865.546875 0)"/>
    <use xlink:href="#DejaVuSans-Bold-56" transform="translate(4930.734375 0)"/>
    <use xlink:href="#DejaVuSans-Bold-3" transform="translate(4990.25 0)"/>
    <use xlink:href="#DejaVuSans-Bold-4f" transform="translate(5025.0625 0)"/>
    <use xlink:href="#DejaVuSans-Bold-44" transform="translate(5059.34375 0)"/>
    <use xlink:href="#DejaVuSans-Bold-56" transform="translate(5126.828125 0)"/>
    <use xlink:href="#DejaVuSans-Bold-57" transform="translate(5186.34375 0)"/>
    <use xlink:href="#DejaVuSans-Bold-3" transform="translate(5234.140625 0)"/>
    <use xlink:href="#DejaVuSans-Bold-50" transform="translate(5268.953125 0)"/>
    <use xlink:href="#DejaVuSans-Bold-52" transform="translate(5373.15625 0)"/>
    <use xlink:href="#DejaVuSans-Bold-51" transform="translate(5441.859375 0)"/>
    <use xlink:href="#DejaVuSans-Bold-57" transform="translate(5513.046875 0)"/>
    <use xlink:href="#DejaVuSans-Bold-4b" transform="translate(5560.84375 0)"/>
    <use xlink:href="#DejaVuSans-Bold-1d" transform="translate(5632.03125 0)"/>
    <use xlink:href="#DejaVuSans-Bold-3" transform="translate(5672.015625 0)"/>
    <use xlink:href="#DejaVuSans-Bold-e" transform="translate(5706.828125 0)"/>
    <use xlink:href="#DejaVuSans-Bold-1b" transform="translate(5790.625 0)"/>
    <use xlink:href="#DejaVuSans-Bold-13" transform="translate(5860.203125 0)"/>
    <use xlink:href="#DejaVuSans-Bold-1a" transform="translate(5929.78125 0)"/>
    <use xlink:href="#DejaVuSans-Bold-3" transform="translate(5999.359375 0)"/>
    <use xlink:href="#DejaVuSans-Bold-12" transform="translate(6034.171875 0)"/>
    <use xlink:href="#DejaVuSans-Bold-3" transform="translate(6070.703125 0)"/>
    <use xlink:href="#DejaVuSans-Bold-50" transform="translate(6105.515625 0)"/>
    <use xlink:href="#DejaVuSans-Bold-52" transform="translate(6209.71875 0)"/>
    <use xlink:href="#DejaVuSans-Bold-51" transform="translate(6278.421875 0)"/>
    <use xlink:href="#DejaVuSans-Bold-57" transform="translate(6349.609375 0)"/>
    <use xlink:href="#DejaVuSans-Bold-4b" transform="translate(6397.40625 0)"/>
    <use xlink:href="#DejaVuSans-Bold-3" transform="translate(6468.59375 0)"/>
    <use xlink:href="#DejaVuSans-Bold-3" transform="translate(6503.40625 0)"/>
    <use xlink:href="#DejaVuSans-Bold-3" transform="translate(6538.21875 0)"/>
    <use xlink:href="#DejaVuSans-Bold-dd9" transform="translate(6573.03125 0)"/>
    <use xlink:href="#DejaVuSans-Bold-3" transform="translate(6633.234375 0)"/>
    <use xlink:href="#DejaVuSans-Bold-3" transform="translate(6668.046875 0)"/>
    <use xlink:href="#DejaVuSans-Bold-3" transform="translate(6702.859375 0)"/>
    <use xlink:href="#DejaVuSans-Bold-33" transform="translate(6737.671875 0)"/>
    <use xlink:href="#DejaVuSans-Bold-48" transform="translate(6810.96875 0)"/>
    <use xlink:href="#DejaVuSans-Bold-44" transform="translate(6878.796875 0)"/>
    <use xlink:href="#DejaVuSans-Bold-4e" transform="translate(6946.28125 0)"/>
    <use xlink:href="#DejaVuSans-Bold-3" transform="translate(7012.78125 0)"/>
    <use xlink:href="#DejaVuSans-Bold-b" transform="translate(7047.59375 0)"/>
    <use xlink:href="#DejaVuSans-Bold-44" transform="translate(7093.296875 0)"/>
    <use xlink:href="#DejaVuSans-Bold-4f" transform="translate(7160.78125 0)"/>
    <use xlink:href="#DejaVuSans-Bold-4f" transform="translate(7195.0625 0)"/>
    <use xlink:href="#DejaVuSans-Bold-10" transform="translate(7229.34375 0)"/>
    <use xlink:href="#DejaVuSans-Bold-57" transform="translate(7270.84375 0)"/>
    <use xlink:href="#DejaVuSans-Bold-4c" transform="translate(7318.640625 0)"/>
    <use xlink:href="#DejaVuSans-Bold-50" transform="translate(7352.921875 0)"/>
    <use xlink:href="#DejaVuSans-Bold-48" transform="translate(7457.125 0)"/>
    <use xlink:href="#DejaVuSans-Bold-c" transform="translate(7524.953125 0)"/>
    <use xlink:href="#DejaVuSans-Bold-1d" transform="translate(7570.65625 0)"/>
    <use xlink:href="#DejaVuSans-Bold-3" transform="translate(7610.640625 0)"/>
    <use xlink:href="#DejaVuSans-Bold-19" transform="translate(7645.453125 0)"/>
    <use xlink:href="#DejaVuSans-Bold-1c" transform="translate(7715.03125 0)"/>
    <use xlink:href="#DejaVuSans-Bold-1a" transform="translate(7784.609375 0)"/>
    <use xlink:href="#DejaVuSans-Bold-3" transform="translate(7854.1875 0)"/>
    <use xlink:href="#DejaVuSans-Bold-12" transform="translate(7889 0)"/>
    <use xlink:href="#DejaVuSans-Bold-3" transform="translate(7925.53125 0)"/>
    <use xlink:href="#DejaVuSans-Bold-47" transform="translate(7960.34375 0)"/>
    <use xlink:href="#DejaVuSans-Bold-44" transform="translate(8031.921875 0)"/>
    <use xlink:href="#DejaVuSans-Bold-5c" transform="translate(8096.328125 0)"/>
   </g>
  </g>
 </g>
 <defs>
  <clipPath id="p1ca37bf4c5">
   <rect x="55.212031" y="39.198438" width="670.438125" height="197.232"/>
  </clipPath>
 </defs>
</svg>
