<?xml version="1.0" encoding="utf-8" standalone="no"?>
<!DOCTYPE svg PUBLIC "-//W3C//DTD SVG 1.1//EN"
  "http://www.w3.org/Graphics/SVG/1.1/DTD/svg11.dtd">
<svg xmlns:xlink="http://www.w3.org/1999/xlink" width="747.250156pt" height="313.758437pt" viewBox="0 0 747.250156 313.758437" xmlns="http://www.w3.org/2000/svg" version="1.1">
<style>
.draw-line{stroke-dasharray:3000;stroke-dashoffset:3000;animation:draw 3s ease-out forwards}
@keyframes draw{to{stroke-dashoffset:0}}
</style>
 <metadata>
  <rdf:RDF xmlns:dc="http://purl.org/dc/elements/1.1/" xmlns:cc="http://creativecommons.org/ns#" xmlns:rdf="http://www.w3.org/1999/02/22-rdf-syntax-ns#">
   <cc:Work>
    <dc:type rdf:resource="http://purl.org/dc/dcmitype/StillImage"/>
    <dc:date>2026-07-06T22:16:19.248737</dc:date>
    <dc:format>image/svg+xml</dc:format>
    <dc:creator>
     <cc:Agent>
      <dc:title>Matplotlib v3.11.0, https://matplotlib.org/</dc:title>
     </cc:Agent>
    </dc:creator>
   </cc:Work>
  </rdf:RDF>
 </metadata>
 <defs>
  <style type="text/css">*{stroke-linejoin: round; stroke-linecap: butt}</style>
 </defs>
 <g id="figure_1">
  <g id="patch_1">
   <path d="M 0 313.758437 
L 747.250156 313.758437 
L 747.250156 0 
L 0 0 
L 0 313.758437 
z
" style="fill: none"/>
  </g>
  <g id="axes_1">
   <g id="patch_2">
    <path d="M 55.212031 236.430437 
L 725.650156 236.430437 
L 725.650156 39.198438 
L 55.212031 39.198438 
L 55.212031 236.430437 
z
" style="fill: none"/>
   </g>
   <g id="matplotlib.axis_1">
    <g id="xtick_1">
     <g id="line2d_1">
      <path d="M 68.105072 236.430437 
L 68.105072 39.198438 
" clip-path="url(#pf4372a6d64)" style="fill: none; stroke-dasharray: 0.7,1.155; stroke-dashoffset: 0; stroke: #283d58; stroke-width: 0.7"/>
     </g>
     <g id="line2d_2">
      <defs>
       <path id="m4cb2c8eed9" d="M 0 0 
L 0 3.5 
" style="stroke: #58a6ff; stroke-width: 0.8"/>
      </defs>
      <g>
       <use xlink:href="#m4cb2c8eed9" x="68.105072" y="236.430437" style="fill: #58a6ff; stroke: #58a6ff; stroke-width: 0.8"/>
      </g>
     </g>
     <g id="text_1">
      <!-- 06 -->
      <g style="fill: #58a6ff" transform="translate(63.234603 247.248797) scale(0.07 -0.07)">
       <defs>
        <path id="DejaVuSans-Bold-13" d="M 2944 2338 
Q 2944 3213 2780 3570 
Q 2616 3928 2228 3928 
Q 1841 3928 1675 3570 
Q 1509 3213 1509 2338 
Q 1509 1453 1675 1090 
Q 1841 728 2228 728 
Q 2613 728 2778 1090 
Q 2944 1453 2944 2338 
z
M 4147 2328 
Q 4147 1169 3647 539 
Q 3147 -91 2228 -91 
Q 1306 -91 806 539 
Q 306 1169 306 2328 
Q 306 3491 806 4120 
Q 1306 4750 2228 4750 
Q 3147 4750 3647 4120 
Q 4147 3491 4147 2328 
z
" transform="scale(0.015625)"/>
        <path id="DejaVuSans-Bold-19" d="M 2316 2303 
Q 2000 2303 1842 2098 
Q 1684 1894 1684 1484 
Q 1684 1075 1842 870 
Q 2000 666 2316 666 
Q 2634 666 2792 870 
Q 2950 1075 2950 1484 
Q 2950 1894 2792 2098 
Q 2634 2303 2316 2303 
z
M 3803 4544 
L 3803 3681 
Q 3506 3822 3243 3889 
Q 2981 3956 2731 3956 
Q 2194 3956 1894 3657 
Q 1594 3359 1544 2772 
Q 1750 2925 1990 3001 
Q 2231 3078 2516 3078 
Q 3231 3078 3670 2659 
Q 4109 2241 4109 1563 
Q 4109 813 3618 361 
Q 3128 -91 2303 -91 
Q 1394 -91 895 523 
Q 397 1138 397 2266 
Q 397 3422 980 4083 
Q 1563 4744 2578 4744 
Q 2900 4744 3203 4694 
Q 3506 4644 3803 4544 
z
" transform="scale(0.015625)"/>
       </defs>
       <use xlink:href="#DejaVuSans-Bold-13"/>
       <use xlink:href="#DejaVuSans-Bold-19" transform="translate(69.578125 0)"/>
      </g>
     </g>
    </g>
    <g id="xtick_2">
     <g id="line2d_3">
      <path d="M 89.593474 236.430437 
L 89.593474 39.198438 
" clip-path="url(#pf4372a6d64)" style="fill: none; stroke-dasharray: 0.7,1.155; stroke-dashoffset: 0; stroke: #283d58; stroke-width: 0.7"/>
     </g>
     <g id="line2d_4">
      <g>
       <use xlink:href="#m4cb2c8eed9" x="89.593474" y="236.430437" style="fill: #58a6ff; stroke: #58a6ff; stroke-width: 0.8"/>
      </g>
     </g>
     <g id="text_2">
      <!-- 07 -->
      <g style="fill: #58a6ff" transform="translate(84.723005 247.248797) scale(0.07 -0.07)">
       <defs>
        <path id="DejaVuSans-Bold-1a" d="M 428 4666 
L 3944 4666 
L 3944 3988 
L 2125 0 
L 953 0 
L 2675 3781 
L 428 3781 
L 428 4666 
z
" transform="scale(0.015625)"/>
       </defs>
       <use xlink:href="#DejaVuSans-Bold-13"/>
       <use xlink:href="#DejaVuSans-Bold-1a" transform="translate(69.578125 0)"/>
      </g>
     </g>
    </g>
    <g id="xtick_3">
     <g id="line2d_5">
      <path d="M 111.081875 236.430437 
L 111.081875 39.198438 
" clip-path="url(#pf4372a6d64)" style="fill: none; stroke-dasharray: 0.7,1.155; stroke-dashoffset: 0; stroke: #283d58; stroke-width: 0.7"/>
     </g>
     <g id="line2d_6">
      <g>
       <use xlink:href="#m4cb2c8eed9" x="111.081875" y="236.430437" style="fill: #58a6ff; stroke: #58a6ff; stroke-width: 0.8"/>
      </g>
     </g>
     <g id="text_3">
      <!-- 08 -->
      <g style="fill: #58a6ff" transform="translate(106.211406 247.248797) scale(0.07 -0.07)">
       <defs>
        <path id="DejaVuSans-Bold-1b" d="M 2228 2088 
Q 1891 2088 1709 1903 
Q 1528 1719 1528 1375 
Q 1528 1031 1709 848 
Q 1891 666 2228 666 
Q 2563 666 2741 848 
Q 2919 1031 2919 1375 
Q 2919 1722 2741 1905 
Q 2563 2088 2228 2088 
z
M 1350 2484 
Q 925 2613 709 2878 
Q 494 3144 494 3541 
Q 494 4131 934 4440 
Q 1375 4750 2228 4750 
Q 3075 4750 3515 4442 
Q 3956 4134 3956 3541 
Q 3956 3144 3739 2878 
Q 3522 2613 3097 2484 
Q 3572 2353 3814 2058 
Q 4056 1763 4056 1313 
Q 4056 619 3595 264 
Q 3134 -91 2228 -91 
Q 1319 -91 855 264 
Q 391 619 391 1313 
Q 391 1763 633 2058 
Q 875 2353 1350 2484 
z
M 1631 3419 
Q 1631 3141 1786 2991 
Q 1941 2841 2228 2841 
Q 2509 2841 2662 2991 
Q 2816 3141 2816 3419 
Q 2816 3697 2662 3845 
Q 2509 3994 2228 3994 
Q 1941 3994 1786 3844 
Q 1631 3694 1631 3419 
z
" transform="scale(0.015625)"/>
       </defs>
       <use xlink:href="#DejaVuSans-Bold-13"/>
       <use xlink:href="#DejaVuSans-Bold-1b" transform="translate(69.578125 0)"/>
      </g>
     </g>
    </g>
    <g id="xtick_4">
     <g id="line2d_7">
      <path d="M 132.570276 236.430437 
L 132.570276 39.198438 
" clip-path="url(#pf4372a6d64)" style="fill: none; stroke-dasharray: 0.7,1.155; stroke-dashoffset: 0; stroke: #283d58; stroke-width: 0.7"/>
     </g>
     <g id="line2d_8">
      <g>
       <use xlink:href="#m4cb2c8eed9" x="132.570276" y="236.430437" style="fill: #58a6ff; stroke: #58a6ff; stroke-width: 0.8"/>
      </g>
     </g>
     <g id="text_4">
      <!-- 09 -->
      <g style="fill: #58a6ff" transform="translate(127.699808 247.248797) scale(0.07 -0.07)">
       <defs>
        <path id="DejaVuSans-Bold-1c" d="M 641 103 
L 641 966 
Q 928 831 1190 764 
Q 1453 697 1709 697 
Q 2247 697 2547 995 
Q 2847 1294 2900 1881 
Q 2688 1725 2447 1647 
Q 2206 1569 1925 1569 
Q 1209 1569 770 1986 
Q 331 2403 331 3084 
Q 331 3838 820 4291 
Q 1309 4744 2131 4744 
Q 3044 4744 3544 4128 
Q 4044 3513 4044 2388 
Q 4044 1231 3459 570 
Q 2875 -91 1856 -91 
Q 1528 -91 1228 -42 
Q 928 6 641 103 
z
M 2125 2350 
Q 2441 2350 2600 2554 
Q 2759 2759 2759 3169 
Q 2759 3575 2600 3781 
Q 2441 3988 2125 3988 
Q 1809 3988 1650 3781 
Q 1491 3575 1491 3169 
Q 1491 2759 1650 2554 
Q 1809 2350 2125 2350 
z
" transform="scale(0.015625)"/>
       </defs>
       <use xlink:href="#DejaVuSans-Bold-13"/>
       <use xlink:href="#DejaVuSans-Bold-1c" transform="translate(69.578125 0)"/>
      </g>
     </g>
    </g>
    <g id="xtick_5">
     <g id="line2d_9">
      <path d="M 154.058678 236.430437 
L 154.058678 39.198438 
" clip-path="url(#pf4372a6d64)" style="fill: none; stroke-dasharray: 0.7,1.155; stroke-dashoffset: 0; stroke: #283d58; stroke-width: 0.7"/>
     </g>
     <g id="line2d_10">
      <g>
       <use xlink:href="#m4cb2c8eed9" x="154.058678" y="236.430437" style="fill: #58a6ff; stroke: #58a6ff; stroke-width: 0.8"/>
      </g>
     </g>
     <g id="text_5">
      <!-- 10 -->
      <g style="fill: #58a6ff" transform="translate(149.188209 247.248797) scale(0.07 -0.07)">
       <defs>
        <path id="DejaVuSans-Bold-14" d="M 750 831 
L 1813 831 
L 1813 3847 
L 722 3622 
L 722 4441 
L 1806 4666 
L 2950 4666 
L 2950 831 
L 4013 831 
L 4013 0 
L 750 0 
L 750 831 
z
" transform="scale(0.015625)"/>
       </defs>
       <use xlink:href="#DejaVuSans-Bold-14"/>
       <use xlink:href="#DejaVuSans-Bold-13" transform="translate(69.578125 0)"/>
      </g>
     </g>
    </g>
    <g id="xtick_6">
     <g id="line2d_11">
      <path d="M 175.547079 236.430437 
L 175.547079 39.198438 
" clip-path="url(#pf4372a6d64)" style="fill: none; stroke-dasharray: 0.7,1.155; stroke-dashoffset: 0; stroke: #283d58; stroke-width: 0.7"/>
     </g>
     <g id="line2d_12">
      <g>
       <use xlink:href="#m4cb2c8eed9" x="175.547079" y="236.430437" style="fill: #58a6ff; stroke: #58a6ff; stroke-width: 0.8"/>
      </g>
     </g>
     <g id="text_6">
      <!-- 11 -->
      <g style="fill: #58a6ff" transform="translate(170.676611 247.248797) scale(0.07 -0.07)">
       <use xlink:href="#DejaVuSans-Bold-14"/>
       <use xlink:href="#DejaVuSans-Bold-14" transform="translate(69.578125 0)"/>
      </g>
     </g>
    </g>
    <g id="xtick_7">
     <g id="line2d_13">
      <path d="M 197.035481 236.430437 
L 197.035481 39.198438 
" clip-path="url(#pf4372a6d64)" style="fill: none; stroke-dasharray: 0.7,1.155; stroke-dashoffset: 0; stroke: #283d58; stroke-width: 0.7"/>
     </g>
     <g id="line2d_14">
      <g>
       <use xlink:href="#m4cb2c8eed9" x="197.035481" y="236.430437" style="fill: #58a6ff; stroke: #58a6ff; stroke-width: 0.8"/>
      </g>
     </g>
     <g id="text_7">
      <!-- 12 -->
      <g style="fill: #58a6ff" transform="translate(192.165012 247.248797) scale(0.07 -0.07)">
       <defs>
        <path id="DejaVuSans-Bold-15" d="M 1844 884 
L 3897 884 
L 3897 0 
L 506 0 
L 506 884 
L 2209 2388 
Q 2438 2594 2547 2791 
Q 2656 2988 2656 3200 
Q 2656 3528 2436 3728 
Q 2216 3928 1850 3928 
Q 1569 3928 1234 3808 
Q 900 3688 519 3450 
L 519 4475 
Q 925 4609 1322 4679 
Q 1719 4750 2100 4750 
Q 2938 4750 3402 4381 
Q 3866 4013 3866 3353 
Q 3866 2972 3669 2642 
Q 3472 2313 2841 1759 
L 1844 884 
z
" transform="scale(0.015625)"/>
       </defs>
       <use xlink:href="#DejaVuSans-Bold-14"/>
       <use xlink:href="#DejaVuSans-Bold-15" transform="translate(69.578125 0)"/>
      </g>
     </g>
    </g>
    <g id="xtick_8">
     <g id="line2d_15">
      <path d="M 218.523882 236.430437 
L 218.523882 39.198438 
" clip-path="url(#pf4372a6d64)" style="fill: none; stroke-dasharray: 0.7,1.155; stroke-dashoffset: 0; stroke: #283d58; stroke-width: 0.7"/>
     </g>
     <g id="line2d_16">
      <g>
       <use xlink:href="#m4cb2c8eed9" x="218.523882" y="236.430437" style="fill: #58a6ff; stroke: #58a6ff; stroke-width: 0.8"/>
      </g>
     </g>
     <g id="text_8">
      <!-- 13 -->
      <g style="fill: #58a6ff" transform="translate(213.653413 247.248797) scale(0.07 -0.07)">
       <defs>
        <path id="DejaVuSans-Bold-16" d="M 2981 2516 
Q 3453 2394 3698 2092 
Q 3944 1791 3944 1325 
Q 3944 631 3412 270 
Q 2881 -91 1863 -91 
Q 1503 -91 1142 -33 
Q 781 25 428 141 
L 428 1069 
Q 766 900 1098 814 
Q 1431 728 1753 728 
Q 2231 728 2486 893 
Q 2741 1059 2741 1369 
Q 2741 1688 2480 1852 
Q 2219 2016 1709 2016 
L 1228 2016 
L 1228 2791 
L 1734 2791 
Q 2188 2791 2409 2933 
Q 2631 3075 2631 3366 
Q 2631 3634 2415 3781 
Q 2200 3928 1806 3928 
Q 1516 3928 1219 3862 
Q 922 3797 628 3669 
L 628 4550 
Q 984 4650 1334 4700 
Q 1684 4750 2022 4750 
Q 2931 4750 3382 4451 
Q 3834 4153 3834 3553 
Q 3834 3144 3618 2883 
Q 3403 2622 2981 2516 
z
" transform="scale(0.015625)"/>
       </defs>
       <use xlink:href="#DejaVuSans-Bold-14"/>
       <use xlink:href="#DejaVuSans-Bold-16" transform="translate(69.578125 0)"/>
      </g>
     </g>
    </g>
    <g id="xtick_9">
     <g id="line2d_17">
      <path d="M 240.012284 236.430437 
L 240.012284 39.198438 
" clip-path="url(#pf4372a6d64)" style="fill: none; stroke-dasharray: 0.7,1.155; stroke-dashoffset: 0; stroke: #283d58; stroke-width: 0.7"/>
     </g>
     <g id="line2d_18">
      <g>
       <use xlink:href="#m4cb2c8eed9" x="240.012284" y="236.430437" style="fill: #58a6ff; stroke: #58a6ff; stroke-width: 0.8"/>
      </g>
     </g>
     <g id="text_9">
      <!-- 14 -->
      <g style="fill: #58a6ff" transform="translate(235.141815 247.248797) scale(0.07 -0.07)">
       <defs>
        <path id="DejaVuSans-Bold-17" d="M 2356 3675 
L 1038 1722 
L 2356 1722 
L 2356 3675 
z
M 2156 4666 
L 3494 4666 
L 3494 1722 
L 4159 1722 
L 4159 850 
L 3494 850 
L 3494 0 
L 2356 0 
L 2356 850 
L 288 850 
L 288 1881 
L 2156 4666 
z
" transform="scale(0.015625)"/>
       </defs>
       <use xlink:href="#DejaVuSans-Bold-14"/>
       <use xlink:href="#DejaVuSans-Bold-17" transform="translate(69.578125 0)"/>
      </g>
     </g>
    </g>
    <g id="xtick_10">
     <g id="line2d_19">
      <path d="M 261.500685 236.430437 
L 261.500685 39.198438 
" clip-path="url(#pf4372a6d64)" style="fill: none; stroke-dasharray: 0.7,1.155; stroke-dashoffset: 0; stroke: #283d58; stroke-width: 0.7"/>
     </g>
     <g id="line2d_20">
      <g>
       <use xlink:href="#m4cb2c8eed9" x="261.500685" y="236.430437" style="fill: #58a6ff; stroke: #58a6ff; stroke-width: 0.8"/>
      </g>
     </g>
     <g id="text_10">
      <!-- 15 -->
      <g style="fill: #58a6ff" transform="translate(256.630216 247.248797) scale(0.07 -0.07)">
       <defs>
        <path id="DejaVuSans-Bold-18" d="M 678 4666 
L 3669 4666 
L 3669 3781 
L 1638 3781 
L 1638 3059 
Q 1775 3097 1914 3117 
Q 2053 3138 2203 3138 
Q 3056 3138 3531 2711 
Q 4006 2284 4006 1522 
Q 4006 766 3489 337 
Q 2972 -91 2053 -91 
Q 1656 -91 1267 -14 
Q 878 63 494 219 
L 494 1166 
Q 875 947 1217 837 
Q 1559 728 1863 728 
Q 2300 728 2551 942 
Q 2803 1156 2803 1522 
Q 2803 1891 2551 2103 
Q 2300 2316 1863 2316 
Q 1603 2316 1309 2248 
Q 1016 2181 678 2041 
L 678 4666 
z
" transform="scale(0.015625)"/>
       </defs>
       <use xlink:href="#DejaVuSans-Bold-14"/>
       <use xlink:href="#DejaVuSans-Bold-18" transform="translate(69.578125 0)"/>
      </g>
     </g>
    </g>
    <g id="xtick_11">
     <g id="line2d_21">
      <path d="M 282.989087 236.430437 
L 282.989087 39.198438 
" clip-path="url(#pf4372a6d64)" style="fill: none; stroke-dasharray: 0.7,1.155; stroke-dashoffset: 0; stroke: #283d58; stroke-width: 0.7"/>
     </g>
     <g id="line2d_22">
      <g>
       <use xlink:href="#m4cb2c8eed9" x="282.989087" y="236.430437" style="fill: #58a6ff; stroke: #58a6ff; stroke-width: 0.8"/>
      </g>
     </g>
     <g id="text_11">
      <!-- 16 -->
      <g style="fill: #58a6ff" transform="translate(278.118618 247.248797) scale(0.07 -0.07)">
       <use xlink:href="#DejaVuSans-Bold-14"/>
       <use xlink:href="#DejaVuSans-Bold-19" transform="translate(69.578125 0)"/>
      </g>
     </g>
    </g>
    <g id="xtick_12">
     <g id="line2d_23">
      <path d="M 304.477488 236.430437 
L 304.477488 39.198438 
" clip-path="url(#pf4372a6d64)" style="fill: none; stroke-dasharray: 0.7,1.155; stroke-dashoffset: 0; stroke: #283d58; stroke-width: 0.7"/>
     </g>
     <g id="line2d_24">
      <g>
       <use xlink:href="#m4cb2c8eed9" x="304.477488" y="236.430437" style="fill: #58a6ff; stroke: #58a6ff; stroke-width: 0.8"/>
      </g>
     </g>
     <g id="text_12">
      <!-- 17 -->
      <g style="fill: #58a6ff" transform="translate(299.607019 247.248797) scale(0.07 -0.07)">
       <use xlink:href="#DejaVuSans-Bold-14"/>
       <use xlink:href="#DejaVuSans-Bold-1a" transform="translate(69.578125 0)"/>
      </g>
     </g>
    </g>
    <g id="xtick_13">
     <g id="line2d_25">
      <path d="M 325.965889 236.430437 
L 325.965889 39.198438 
" clip-path="url(#pf4372a6d64)" style="fill: none; stroke-dasharray: 0.7,1.155; stroke-dashoffset: 0; stroke: #283d58; stroke-width: 0.7"/>
     </g>
     <g id="line2d_26">
      <g>
       <use xlink:href="#m4cb2c8eed9" x="325.965889" y="236.430437" style="fill: #58a6ff; stroke: #58a6ff; stroke-width: 0.8"/>
      </g>
     </g>
     <g id="text_13">
      <!-- 18 -->
      <g style="fill: #58a6ff" transform="translate(321.095421 247.248797) scale(0.07 -0.07)">
       <use xlink:href="#DejaVuSans-Bold-14"/>
       <use xlink:href="#DejaVuSans-Bold-1b" transform="translate(69.578125 0)"/>
      </g>
     </g>
    </g>
    <g id="xtick_14">
     <g id="line2d_27">
      <path d="M 347.454291 236.430437 
L 347.454291 39.198438 
" clip-path="url(#pf4372a6d64)" style="fill: none; stroke-dasharray: 0.7,1.155; stroke-dashoffset: 0; stroke: #283d58; stroke-width: 0.7"/>
     </g>
     <g id="line2d_28">
      <g>
       <use xlink:href="#m4cb2c8eed9" x="347.454291" y="236.430437" style="fill: #58a6ff; stroke: #58a6ff; stroke-width: 0.8"/>
      </g>
     </g>
     <g id="text_14">
      <!-- 19 -->
      <g style="fill: #58a6ff" transform="translate(342.583822 247.248797) scale(0.07 -0.07)">
       <use xlink:href="#DejaVuSans-Bold-14"/>
       <use xlink:href="#DejaVuSans-Bold-1c" transform="translate(69.578125 0)"/>
      </g>
     </g>
    </g>
    <g id="xtick_15">
     <g id="line2d_29">
      <path d="M 368.942692 236.430437 
L 368.942692 39.198438 
" clip-path="url(#pf4372a6d64)" style="fill: none; stroke-dasharray: 0.7,1.155; stroke-dashoffset: 0; stroke: #283d58; stroke-width: 0.7"/>
     </g>
     <g id="line2d_30">
      <g>
       <use xlink:href="#m4cb2c8eed9" x="368.942692" y="236.430437" style="fill: #58a6ff; stroke: #58a6ff; stroke-width: 0.8"/>
      </g>
     </g>
     <g id="text_15">
      <!-- 20 -->
      <g style="fill: #58a6ff" transform="translate(364.072224 247.248797) scale(0.07 -0.07)">
       <use xlink:href="#DejaVuSans-Bold-15"/>
       <use xlink:href="#DejaVuSans-Bold-13" transform="translate(69.578125 0)"/>
      </g>
     </g>
    </g>
    <g id="xtick_16">
     <g id="line2d_31">
      <path d="M 390.431094 236.430437 
L 390.431094 39.198438 
" clip-path="url(#pf4372a6d64)" style="fill: none; stroke-dasharray: 0.7,1.155; stroke-dashoffset: 0; stroke: #283d58; stroke-width: 0.7"/>
     </g>
     <g id="line2d_32">
      <g>
       <use xlink:href="#m4cb2c8eed9" x="390.431094" y="236.430437" style="fill: #58a6ff; stroke: #58a6ff; stroke-width: 0.8"/>
      </g>
     </g>
     <g id="text_16">
      <!-- 21 -->
      <g style="fill: #58a6ff" transform="translate(385.560625 247.248797) scale(0.07 -0.07)">
       <use xlink:href="#DejaVuSans-Bold-15"/>
       <use xlink:href="#DejaVuSans-Bold-14" transform="translate(69.578125 0)"/>
      </g>
     </g>
    </g>
    <g id="xtick_17">
     <g id="line2d_33">
      <path d="M 411.919495 236.430437 
L 411.919495 39.198438 
" clip-path="url(#pf4372a6d64)" style="fill: none; stroke-dasharray: 0.7,1.155; stroke-dashoffset: 0; stroke: #283d58; stroke-width: 0.7"/>
     </g>
     <g id="line2d_34">
      <g>
       <use xlink:href="#m4cb2c8eed9" x="411.919495" y="236.430437" style="fill: #58a6ff; stroke: #58a6ff; stroke-width: 0.8"/>
      </g>
     </g>
     <g id="text_17">
      <!-- 22 -->
      <g style="fill: #3fb950" transform="translate(406.353245 248.008562) scale(0.08 -0.08)">
       <use xlink:href="#DejaVuSans-Bold-15"/>
       <use xlink:href="#DejaVuSans-Bold-15" transform="translate(69.578125 0)"/>
      </g>
     </g>
    </g>
    <g id="xtick_18">
     <g id="line2d_35">
      <path d="M 433.407897 236.430437 
L 433.407897 39.198438 
" clip-path="url(#pf4372a6d64)" style="fill: none; stroke-dasharray: 0.7,1.155; stroke-dashoffset: 0; stroke: #283d58; stroke-width: 0.7"/>
     </g>
     <g id="line2d_36">
      <g>
       <use xlink:href="#m4cb2c8eed9" x="433.407897" y="236.430437" style="fill: #58a6ff; stroke: #58a6ff; stroke-width: 0.8"/>
      </g>
     </g>
     <g id="text_18">
      <!-- 23 -->
      <g style="fill: #58a6ff" transform="translate(428.537428 247.248797) scale(0.07 -0.07)">
       <use xlink:href="#DejaVuSans-Bold-15"/>
       <use xlink:href="#DejaVuSans-Bold-16" transform="translate(69.578125 0)"/>
      </g>
     </g>
    </g>
    <g id="xtick_19">
     <g id="line2d_37">
      <path d="M 454.896298 236.430437 
L 454.896298 39.198438 
" clip-path="url(#pf4372a6d64)" style="fill: none; stroke-dasharray: 0.7,1.155; stroke-dashoffset: 0; stroke: #283d58; stroke-width: 0.7"/>
     </g>
     <g id="line2d_38">
      <g>
       <use xlink:href="#m4cb2c8eed9" x="454.896298" y="236.430437" style="fill: #58a6ff; stroke: #58a6ff; stroke-width: 0.8"/>
      </g>
     </g>
     <g id="text_19">
      <!-- 24 -->
      <g style="fill: #1a73e8" transform="translate(449.330048 248.008562) scale(0.08 -0.08)">
       <use xlink:href="#DejaVuSans-Bold-15"/>
       <use xlink:href="#DejaVuSans-Bold-17" transform="translate(69.578125 0)"/>
      </g>
     </g>
    </g>
    <g id="xtick_20">
     <g id="line2d_39">
      <path d="M 476.3847 236.430437 
L 476.3847 39.198438 
" clip-path="url(#pf4372a6d64)" style="fill: none; stroke-dasharray: 0.7,1.155; stroke-dashoffset: 0; stroke: #283d58; stroke-width: 0.7"/>
     </g>
     <g id="line2d_40">
      <g>
       <use xlink:href="#m4cb2c8eed9" x="476.3847" y="236.430437" style="fill: #58a6ff; stroke: #58a6ff; stroke-width: 0.8"/>
      </g>
     </g>
     <g id="text_20">
      <!-- 25 -->
      <g style="fill: #58a6ff" transform="translate(471.514231 247.248797) scale(0.07 -0.07)">
       <use xlink:href="#DejaVuSans-Bold-15"/>
       <use xlink:href="#DejaVuSans-Bold-18" transform="translate(69.578125 0)"/>
      </g>
     </g>
    </g>
    <g id="xtick_21">
     <g id="line2d_41">
      <path d="M 497.873101 236.430437 
L 497.873101 39.198438 
" clip-path="url(#pf4372a6d64)" style="fill: none; stroke-dasharray: 0.7,1.155; stroke-dashoffset: 0; stroke: #283d58; stroke-width: 0.7"/>
     </g>
     <g id="line2d_42">
      <g>
       <use xlink:href="#m4cb2c8eed9" x="497.873101" y="236.430437" style="fill: #58a6ff; stroke: #58a6ff; stroke-width: 0.8"/>
      </g>
     </g>
     <g id="text_21">
      <!-- 26 -->
      <g style="fill: #58a6ff" transform="translate(493.002632 247.248797) scale(0.07 -0.07)">
       <use xlink:href="#DejaVuSans-Bold-15"/>
       <use xlink:href="#DejaVuSans-Bold-19" transform="translate(69.578125 0)"/>
      </g>
     </g>
    </g>
    <g id="xtick_22">
     <g id="line2d_43">
      <path d="M 519.361502 236.430437 
L 519.361502 39.198438 
" clip-path="url(#pf4372a6d64)" style="fill: none; stroke-dasharray: 0.7,1.155; stroke-dashoffset: 0; stroke: #283d58; stroke-width: 0.7"/>
     </g>
     <g id="line2d_44">
      <g>
       <use xlink:href="#m4cb2c8eed9" x="519.361502" y="236.430437" style="fill: #58a6ff; stroke: #58a6ff; stroke-width: 0.8"/>
      </g>
     </g>
     <g id="text_22">
      <!-- 27 -->
      <g style="fill: #3fb950" transform="translate(513.795252 248.008562) scale(0.08 -0.08)">
       <use xlink:href="#DejaVuSans-Bold-15"/>
       <use xlink:href="#DejaVuSans-Bold-1a" transform="translate(69.578125 0)"/>
      </g>
     </g>
    </g>
    <g id="xtick_23">
     <g id="line2d_45">
      <path d="M 540.849904 236.430437 
L 540.849904 39.198438 
" clip-path="url(#pf4372a6d64)" style="fill: none; stroke-dasharray: 0.7,1.155; stroke-dashoffset: 0; stroke: #283d58; stroke-width: 0.7"/>
     </g>
     <g id="line2d_46">
      <g>
       <use xlink:href="#m4cb2c8eed9" x="540.849904" y="236.430437" style="fill: #58a6ff; stroke: #58a6ff; stroke-width: 0.8"/>
      </g>
     </g>
     <g id="text_23">
      <!-- 28 -->
      <g style="fill: #58a6ff" transform="translate(535.979435 247.248797) scale(0.07 -0.07)">
       <use xlink:href="#DejaVuSans-Bold-15"/>
       <use xlink:href="#DejaVuSans-Bold-1b" transform="translate(69.578125 0)"/>
      </g>
     </g>
    </g>
    <g id="xtick_24">
     <g id="line2d_47">
      <path d="M 562.338305 236.430437 
L 562.338305 39.198438 
" clip-path="url(#pf4372a6d64)" style="fill: none; stroke-dasharray: 0.7,1.155; stroke-dashoffset: 0; stroke: #283d58; stroke-width: 0.7"/>
     </g>
     <g id="line2d_48">
      <g>
       <use xlink:href="#m4cb2c8eed9" x="562.338305" y="236.430437" style="fill: #58a6ff; stroke: #58a6ff; stroke-width: 0.8"/>
      </g>
     </g>
     <g id="text_24">
      <!-- 29 -->
      <g style="fill: #58a6ff" transform="translate(557.467837 247.248797) scale(0.07 -0.07)">
       <use xlink:href="#DejaVuSans-Bold-15"/>
       <use xlink:href="#DejaVuSans-Bold-1c" transform="translate(69.578125 0)"/>
      </g>
     </g>
    </g>
    <g id="xtick_25">
     <g id="line2d_49">
      <path d="M 583.826707 236.430437 
L 583.826707 39.198438 
" clip-path="url(#pf4372a6d64)" style="fill: none; stroke-dasharray: 0.7,1.155; stroke-dashoffset: 0; stroke: #283d58; stroke-width: 0.7"/>
     </g>
     <g id="line2d_50">
      <g>
       <use xlink:href="#m4cb2c8eed9" x="583.826707" y="236.430437" style="fill: #58a6ff; stroke: #58a6ff; stroke-width: 0.8"/>
      </g>
     </g>
     <g id="text_25">
      <!-- 30 -->
      <g style="fill: #58a6ff" transform="translate(578.956238 247.248797) scale(0.07 -0.07)">
       <use xlink:href="#DejaVuSans-Bold-16"/>
       <use xlink:href="#DejaVuSans-Bold-13" transform="translate(69.578125 0)"/>
      </g>
     </g>
    </g>
    <g id="xtick_26">
     <g id="line2d_51">
      <path d="M 605.315108 236.430437 
L 605.315108 39.198438 
" clip-path="url(#pf4372a6d64)" style="fill: none; stroke-dasharray: 0.7,1.155; stroke-dashoffset: 0; stroke: #283d58; stroke-width: 0.7"/>
     </g>
     <g id="line2d_52">
      <g>
       <use xlink:href="#m4cb2c8eed9" x="605.315108" y="236.430437" style="fill: #58a6ff; stroke: #58a6ff; stroke-width: 0.8"/>
      </g>
     </g>
     <g id="text_26">
      <!-- 01 -->
      <g style="fill: #58a6ff" transform="translate(600.444639 247.248797) scale(0.07 -0.07)">
       <use xlink:href="#DejaVuSans-Bold-13"/>
       <use xlink:href="#DejaVuSans-Bold-14" transform="translate(69.578125 0)"/>
      </g>
     </g>
    </g>
    <g id="xtick_27">
     <g id="line2d_53">
      <path d="M 626.80351 236.430437 
L 626.80351 39.198438 
" clip-path="url(#pf4372a6d64)" style="fill: none; stroke-dasharray: 0.7,1.155; stroke-dashoffset: 0; stroke: #283d58; stroke-width: 0.7"/>
     </g>
     <g id="line2d_54">
      <g>
       <use xlink:href="#m4cb2c8eed9" x="626.80351" y="236.430437" style="fill: #58a6ff; stroke: #58a6ff; stroke-width: 0.8"/>
      </g>
     </g>
     <g id="text_27">
      <!-- 02 -->
      <g style="fill: #58a6ff" transform="translate(621.933041 247.248797) scale(0.07 -0.07)">
       <use xlink:href="#DejaVuSans-Bold-13"/>
       <use xlink:href="#DejaVuSans-Bold-15" transform="translate(69.578125 0)"/>
      </g>
     </g>
    </g>
    <g id="xtick_28">
     <g id="line2d_55">
      <path d="M 648.291911 236.430437 
L 648.291911 39.198438 
" clip-path="url(#pf4372a6d64)" style="fill: none; stroke-dasharray: 0.7,1.155; stroke-dashoffset: 0; stroke: #283d58; stroke-width: 0.7"/>
     </g>
     <g id="line2d_56">
      <g>
       <use xlink:href="#m4cb2c8eed9" x="648.291911" y="236.430437" style="fill: #58a6ff; stroke: #58a6ff; stroke-width: 0.8"/>
      </g>
     </g>
     <g id="text_28">
      <!-- 03 -->
      <g style="fill: #58a6ff" transform="translate(643.421442 247.248797) scale(0.07 -0.07)">
       <use xlink:href="#DejaVuSans-Bold-13"/>
       <use xlink:href="#DejaVuSans-Bold-16" transform="translate(69.578125 0)"/>
      </g>
     </g>
    </g>
    <g id="xtick_29">
     <g id="line2d_57">
      <path d="M 669.780313 236.430437 
L 669.780313 39.198438 
" clip-path="url(#pf4372a6d64)" style="fill: none; stroke-dasharray: 0.7,1.155; stroke-dashoffset: 0; stroke: #283d58; stroke-width: 0.7"/>
     </g>
     <g id="line2d_58">
      <g>
       <use xlink:href="#m4cb2c8eed9" x="669.780313" y="236.430437" style="fill: #58a6ff; stroke: #58a6ff; stroke-width: 0.8"/>
      </g>
     </g>
     <g id="text_29">
      <!-- 04 -->
      <g style="fill: #1a73e8" transform="translate(664.214063 248.008562) scale(0.08 -0.08)">
       <use xlink:href="#DejaVuSans-Bold-13"/>
       <use xlink:href="#DejaVuSans-Bold-17" transform="translate(69.578125 0)"/>
      </g>
     </g>
    </g>
    <g id="xtick_30">
     <g id="line2d_59">
      <path d="M 691.268714 236.430437 
L 691.268714 39.198438 
" clip-path="url(#pf4372a6d64)" style="fill: none; stroke-dasharray: 0.7,1.155; stroke-dashoffset: 0; stroke: #283d58; stroke-width: 0.7"/>
     </g>
     <g id="line2d_60">
      <g>
       <use xlink:href="#m4cb2c8eed9" x="691.268714" y="236.430437" style="fill: #58a6ff; stroke: #58a6ff; stroke-width: 0.8"/>
      </g>
     </g>
     <g id="text_30">
      <!-- 05 -->
      <g style="fill: #58a6ff" transform="translate(686.398245 247.248797) scale(0.07 -0.07)">
       <use xlink:href="#DejaVuSans-Bold-13"/>
       <use xlink:href="#DejaVuSans-Bold-18" transform="translate(69.578125 0)"/>
      </g>
     </g>
    </g>
    <g id="xtick_31">
     <g id="line2d_61">
      <path d="M 712.757115 236.430437 
L 712.757115 39.198438 
" clip-path="url(#pf4372a6d64)" style="fill: none; stroke-dasharray: 0.7,1.155; stroke-dashoffset: 0; stroke: #283d58; stroke-width: 0.7"/>
     </g>
     <g id="line2d_62">
      <g>
       <use xlink:href="#m4cb2c8eed9" x="712.757115" y="236.430437" style="fill: #58a6ff; stroke: #58a6ff; stroke-width: 0.8"/>
      </g>
     </g>
     <g id="text_31">
      <!-- 06 -->
      <g style="fill: #58a6ff" transform="translate(707.886647 247.248797) scale(0.07 -0.07)">
       <use xlink:href="#DejaVuSans-Bold-13"/>
       <use xlink:href="#DejaVuSans-Bold-19" transform="translate(69.578125 0)"/>
      </g>
     </g>
    </g>
    <g id="text_32">
     <!-- Last Month -->
     <g style="fill: #58a6ff" transform="translate(365.162344 276.009187) scale(0.08 -0.08)">
      <defs>
       <path id="DejaVuSans-Bold-2f" d="M 588 4666 
L 1791 4666 
L 1791 909 
L 3903 909 
L 3903 0 
L 588 0 
L 588 4666 
z
" transform="scale(0.015625)"/>
       <path id="DejaVuSans-Bold-44" d="M 2106 1575 
Q 1756 1575 1579 1456 
Q 1403 1338 1403 1106 
Q 1403 894 1545 773 
Q 1688 653 1941 653 
Q 2256 653 2472 879 
Q 2688 1106 2688 1447 
L 2688 1575 
L 2106 1575 
z
M 3816 1997 
L 3816 0 
L 2688 0 
L 2688 519 
Q 2463 200 2181 54 
Q 1900 -91 1497 -91 
Q 953 -91 614 226 
Q 275 544 275 1050 
Q 275 1666 698 1953 
Q 1122 2241 2028 2241 
L 2688 2241 
L 2688 2328 
Q 2688 2594 2478 2717 
Q 2269 2841 1825 2841 
Q 1466 2841 1156 2769 
Q 847 2697 581 2553 
L 581 3406 
Q 941 3494 1303 3539 
Q 1666 3584 2028 3584 
Q 2975 3584 3395 3211 
Q 3816 2838 3816 1997 
z
" transform="scale(0.015625)"/>
       <path id="DejaVuSans-Bold-56" d="M 3272 3391 
L 3272 2541 
Q 2913 2691 2578 2766 
Q 2244 2841 1947 2841 
Q 1628 2841 1473 2761 
Q 1319 2681 1319 2516 
Q 1319 2381 1436 2309 
Q 1553 2238 1856 2203 
L 2053 2175 
Q 2913 2066 3209 1816 
Q 3506 1566 3506 1031 
Q 3506 472 3093 190 
Q 2681 -91 1863 -91 
Q 1516 -91 1145 -36 
Q 775 19 384 128 
L 384 978 
Q 719 816 1070 734 
Q 1422 653 1784 653 
Q 2113 653 2278 743 
Q 2444 834 2444 1013 
Q 2444 1163 2330 1236 
Q 2216 1309 1875 1350 
L 1678 1375 
Q 931 1469 631 1722 
Q 331 1975 331 2491 
Q 331 3047 712 3315 
Q 1094 3584 1881 3584 
Q 2191 3584 2531 3537 
Q 2872 3491 3272 3391 
z
" transform="scale(0.015625)"/>
       <path id="DejaVuSans-Bold-57" d="M 1759 4494 
L 1759 3500 
L 2913 3500 
L 2913 2700 
L 1759 2700 
L 1759 1216 
Q 1759 972 1856 886 
Q 1953 800 2241 800 
L 2816 800 
L 2816 0 
L 1856 0 
Q 1194 0 917 276 
Q 641 553 641 1216 
L 641 2700 
L 84 2700 
L 84 3500 
L 641 3500 
L 641 4494 
L 1759 4494 
z
" transform="scale(0.015625)"/>
       <path id="DejaVuSans-Bold-3" transform="scale(0.015625)"/>
       <path id="DejaVuSans-Bold-30" d="M 588 4666 
L 2119 4666 
L 3181 2169 
L 4250 4666 
L 5778 4666 
L 5778 0 
L 4641 0 
L 4641 3413 
L 3566 897 
L 2803 897 
L 1728 3413 
L 1728 0 
L 588 0 
L 588 4666 
z
" transform="scale(0.015625)"/>
       <path id="DejaVuSans-Bold-52" d="M 2203 2784 
Q 1831 2784 1636 2517 
Q 1441 2250 1441 1747 
Q 1441 1244 1636 976 
Q 1831 709 2203 709 
Q 2569 709 2762 976 
Q 2956 1244 2956 1747 
Q 2956 2250 2762 2517 
Q 2569 2784 2203 2784 
z
M 2203 3584 
Q 3106 3584 3614 3096 
Q 4122 2609 4122 1747 
Q 4122 884 3614 396 
Q 3106 -91 2203 -91 
Q 1297 -91 786 396 
Q 275 884 275 1747 
Q 275 2609 786 3096 
Q 1297 3584 2203 3584 
z
" transform="scale(0.015625)"/>
       <path id="DejaVuSans-Bold-51" d="M 4056 2131 
L 4056 0 
L 2931 0 
L 2931 347 
L 2931 1631 
Q 2931 2084 2911 2256 
Q 2891 2428 2841 2509 
Q 2775 2619 2662 2680 
Q 2550 2741 2406 2741 
Q 2056 2741 1856 2470 
Q 1656 2200 1656 1722 
L 1656 0 
L 538 0 
L 538 3500 
L 1656 3500 
L 1656 2988 
Q 1909 3294 2193 3439 
Q 2478 3584 2822 3584 
Q 3428 3584 3742 3212 
Q 4056 2841 4056 2131 
z
" transform="scale(0.015625)"/>
       <path id="DejaVuSans-Bold-4b" d="M 4056 2131 
L 4056 0 
L 2931 0 
L 2931 347 
L 2931 1625 
Q 2931 2084 2911 2256 
Q 2891 2428 2841 2509 
Q 2775 2619 2662 2680 
Q 2550 2741 2406 2741 
Q 2056 2741 1856 2470 
Q 1656 2200 1656 1722 
L 1656 0 
L 538 0 
L 538 4863 
L 1656 4863 
L 1656 2988 
Q 1909 3294 2193 3439 
Q 2478 3584 2822 3584 
Q 3428 3584 3742 3212 
Q 4056 2841 4056 2131 
z
" transform="scale(0.015625)"/>
      </defs>
      <use xlink:href="#DejaVuSans-Bold-2f"/>
      <use xlink:href="#DejaVuSans-Bold-44" transform="translate(63.71875 0)"/>
      <use xlink:href="#DejaVuSans-Bold-56" transform="translate(131.203125 0)"/>
      <use xlink:href="#DejaVuSans-Bold-57" transform="translate(190.71875 0)"/>
      <use xlink:href="#DejaVuSans-Bold-3" transform="translate(238.515625 0)"/>
      <use xlink:href="#DejaVuSans-Bold-30" transform="translate(273.328125 0)"/>
      <use xlink:href="#DejaVuSans-Bold-52" transform="translate(372.84375 0)"/>
      <use xlink:href="#DejaVuSans-Bold-51" transform="translate(441.546875 0)"/>
      <use xlink:href="#DejaVuSans-Bold-57" transform="translate(512.734375 0)"/>
      <use xlink:href="#DejaVuSans-Bold-4b" transform="translate(560.53125 0)"/>
     </g>
    </g>
   </g>
   <g id="matplotlib.axis_2">
    <g id="ytick_1">
     <g id="line2d_63">
      <path d="M 55.212031 236.430437 
L 725.650156 236.430437 
" clip-path="url(#pf4372a6d64)" style="fill: none; stroke-dasharray: 0.7,1.155; stroke-dashoffset: 0; stroke: #283d58; stroke-width: 0.7"/>
     </g>
     <g id="line2d_64">
      <defs>
       <path id="m41a39547ca" d="M 0 0 
L -3.5 0 
" style="stroke: #58a6ff; stroke-width: 0.8"/>
      </defs>
      <g>
       <use xlink:href="#m41a39547ca" x="55.212031" y="236.430437" style="fill: #58a6ff; stroke: #58a6ff; stroke-width: 0.8"/>
      </g>
     </g>
     <g id="text_33">
      <!-- 0 -->
      <g style="fill: #58a6ff" transform="translate(43.341563 239.089617) scale(0.07 -0.07)">
       <use xlink:href="#DejaVuSans-Bold-13"/>
      </g>
     </g>
    </g>
    <g id="ytick_2">
     <g id="line2d_65">
      <path d="M 55.212031 210.132837 
L 725.650156 210.132837 
" clip-path="url(#pf4372a6d64)" style="fill: none; stroke-dasharray: 0.7,1.155; stroke-dashoffset: 0; stroke: #283d58; stroke-width: 0.7"/>
     </g>
     <g id="line2d_66">
      <g>
       <use xlink:href="#m41a39547ca" x="55.212031" y="210.132837" style="fill: #58a6ff; stroke: #58a6ff; stroke-width: 0.8"/>
      </g>
     </g>
     <g id="text_34">
      <!-- 100 -->
      <g style="fill: #58a6ff" transform="translate(33.600625 212.792017) scale(0.07 -0.07)">
       <use xlink:href="#DejaVuSans-Bold-14"/>
       <use xlink:href="#DejaVuSans-Bold-13" transform="translate(69.578125 0)"/>
       <use xlink:href="#DejaVuSans-Bold-13" transform="translate(139.15625 0)"/>
      </g>
     </g>
    </g>
    <g id="ytick_3">
     <g id="line2d_67">
      <path d="M 55.212031 183.835237 
L 725.650156 183.835237 
" clip-path="url(#pf4372a6d64)" style="fill: none; stroke-dasharray: 0.7,1.155; stroke-dashoffset: 0; stroke: #283d58; stroke-width: 0.7"/>
     </g>
     <g id="line2d_68">
      <g>
       <use xlink:href="#m41a39547ca" x="55.212031" y="183.835237" style="fill: #58a6ff; stroke: #58a6ff; stroke-width: 0.8"/>
      </g>
     </g>
     <g id="text_35">
      <!-- 200 -->
      <g style="fill: #58a6ff" transform="translate(33.600625 186.494417) scale(0.07 -0.07)">
       <use xlink:href="#DejaVuSans-Bold-15"/>
       <use xlink:href="#DejaVuSans-Bold-13" transform="translate(69.578125 0)"/>
       <use xlink:href="#DejaVuSans-Bold-13" transform="translate(139.15625 0)"/>
      </g>
     </g>
    </g>
    <g id="ytick_4">
     <g id="line2d_69">
      <path d="M 55.212031 157.537637 
L 725.650156 157.537637 
" clip-path="url(#pf4372a6d64)" style="fill: none; stroke-dasharray: 0.7,1.155; stroke-dashoffset: 0; stroke: #283d58; stroke-width: 0.7"/>
     </g>
     <g id="line2d_70">
      <g>
       <use xlink:href="#m41a39547ca" x="55.212031" y="157.537637" style="fill: #58a6ff; stroke: #58a6ff; stroke-width: 0.8"/>
      </g>
     </g>
     <g id="text_36">
      <!-- 300 -->
      <g style="fill: #58a6ff" transform="translate(33.600625 160.196817) scale(0.07 -0.07)">
       <use xlink:href="#DejaVuSans-Bold-16"/>
       <use xlink:href="#DejaVuSans-Bold-13" transform="translate(69.578125 0)"/>
       <use xlink:href="#DejaVuSans-Bold-13" transform="translate(139.15625 0)"/>
      </g>
     </g>
    </g>
    <g id="ytick_5">
     <g id="line2d_71">
      <path d="M 55.212031 131.240037 
L 725.650156 131.240037 
" clip-path="url(#pf4372a6d64)" style="fill: none; stroke-dasharray: 0.7,1.155; stroke-dashoffset: 0; stroke: #283d58; stroke-width: 0.7"/>
     </g>
     <g id="line2d_72">
      <g>
       <use xlink:href="#m41a39547ca" x="55.212031" y="131.240037" style="fill: #58a6ff; stroke: #58a6ff; stroke-width: 0.8"/>
      </g>
     </g>
     <g id="text_37">
      <!-- 400 -->
      <g style="fill: #58a6ff" transform="translate(33.600625 133.899217) scale(0.07 -0.07)">
       <use xlink:href="#DejaVuSans-Bold-17"/>
       <use xlink:href="#DejaVuSans-Bold-13" transform="translate(69.578125 0)"/>
       <use xlink:href="#DejaVuSans-Bold-13" transform="translate(139.15625 0)"/>
      </g>
     </g>
    </g>
    <g id="ytick_6">
     <g id="line2d_73">
      <path d="M 55.212031 104.942437 
L 725.650156 104.942437 
" clip-path="url(#pf4372a6d64)" style="fill: none; stroke-dasharray: 0.7,1.155; stroke-dashoffset: 0; stroke: #283d58; stroke-width: 0.7"/>
     </g>
     <g id="line2d_74">
      <g>
       <use xlink:href="#m41a39547ca" x="55.212031" y="104.942437" style="fill: #58a6ff; stroke: #58a6ff; stroke-width: 0.8"/>
      </g>
     </g>
     <g id="text_38">
      <!-- 500 -->
      <g style="fill: #58a6ff" transform="translate(33.600625 107.601617) scale(0.07 -0.07)">
       <use xlink:href="#DejaVuSans-Bold-18"/>
       <use xlink:href="#DejaVuSans-Bold-13" transform="translate(69.578125 0)"/>
       <use xlink:href="#DejaVuSans-Bold-13" transform="translate(139.15625 0)"/>
      </g>
     </g>
    </g>
    <g id="ytick_7">
     <g id="line2d_75">
      <path d="M 55.212031 78.644837 
L 725.650156 78.644837 
" clip-path="url(#pf4372a6d64)" style="fill: none; stroke-dasharray: 0.7,1.155; stroke-dashoffset: 0; stroke: #283d58; stroke-width: 0.7"/>
     </g>
     <g id="line2d_76">
      <g>
       <use xlink:href="#m41a39547ca" x="55.212031" y="78.644837" style="fill: #58a6ff; stroke: #58a6ff; stroke-width: 0.8"/>
      </g>
     </g>
     <g id="text_39">
      <!-- 600 -->
      <g style="fill: #58a6ff" transform="translate(33.600625 81.304017) scale(0.07 -0.07)">
       <use xlink:href="#DejaVuSans-Bold-19"/>
       <use xlink:href="#DejaVuSans-Bold-13" transform="translate(69.578125 0)"/>
       <use xlink:href="#DejaVuSans-Bold-13" transform="translate(139.15625 0)"/>
      </g>
     </g>
    </g>
    <g id="ytick_8">
     <g id="line2d_77">
      <path d="M 55.212031 52.347238 
L 725.650156 52.347238 
" clip-path="url(#pf4372a6d64)" style="fill: none; stroke-dasharray: 0.7,1.155; stroke-dashoffset: 0; stroke: #283d58; stroke-width: 0.7"/>
     </g>
     <g id="line2d_78">
      <g>
       <use xlink:href="#m41a39547ca" x="55.212031" y="52.347238" style="fill: #58a6ff; stroke: #58a6ff; stroke-width: 0.8"/>
      </g>
     </g>
     <g id="text_40">
      <!-- 700 -->
      <g style="fill: #58a6ff" transform="translate(33.600625 55.006417) scale(0.07 -0.07)">
       <use xlink:href="#DejaVuSans-Bold-1a"/>
       <use xlink:href="#DejaVuSans-Bold-13" transform="translate(69.578125 0)"/>
       <use xlink:href="#DejaVuSans-Bold-13" transform="translate(139.15625 0)"/>
      </g>
     </g>
    </g>
    <g id="text_41">
     <!-- Downloads / day -->
     <g style="fill: #58a6ff" transform="translate(27.67875 174.781937) rotate(-90) scale(0.08 -0.08)">
      <defs>
       <path id="DejaVuSans-Bold-27" d="M 1791 3756 
L 1791 909 
L 2222 909 
Q 2959 909 3348 1275 
Q 3738 1641 3738 2338 
Q 3738 3031 3350 3393 
Q 2963 3756 2222 3756 
L 1791 3756 
z
M 588 4666 
L 1856 4666 
Q 2919 4666 3439 4514 
Q 3959 4363 4331 4000 
Q 4659 3684 4818 3271 
Q 4978 2859 4978 2338 
Q 4978 1809 4818 1395 
Q 4659 981 4331 666 
Q 3956 303 3431 151 
Q 2906 0 1856 0 
L 588 0 
L 588 4666 
z
" transform="scale(0.015625)"/>
       <path id="DejaVuSans-Bold-5a" d="M 225 3500 
L 1313 3500 
L 1900 1088 
L 2491 3500 
L 3425 3500 
L 4013 1113 
L 4603 3500 
L 5691 3500 
L 4769 0 
L 3547 0 
L 2956 2406 
L 2369 0 
L 1147 0 
L 225 3500 
z
" transform="scale(0.015625)"/>
       <path id="DejaVuSans-Bold-4f" d="M 538 4863 
L 1656 4863 
L 1656 0 
L 538 0 
L 538 4863 
z
" transform="scale(0.015625)"/>
       <path id="DejaVuSans-Bold-47" d="M 2919 2988 
L 2919 4863 
L 4044 4863 
L 4044 0 
L 2919 0 
L 2919 506 
Q 2688 197 2409 53 
Q 2131 -91 1766 -91 
Q 1119 -91 703 423 
Q 288 938 288 1747 
Q 288 2556 703 3070 
Q 1119 3584 1766 3584 
Q 2128 3584 2408 3439 
Q 2688 3294 2919 2988 
z
M 2181 722 
Q 2541 722 2730 984 
Q 2919 1247 2919 1747 
Q 2919 2247 2730 2509 
Q 2541 2772 2181 2772 
Q 1825 2772 1636 2509 
Q 1447 2247 1447 1747 
Q 1447 1247 1636 984 
Q 1825 722 2181 722 
z
" transform="scale(0.015625)"/>
       <path id="DejaVuSans-Bold-12" d="M 1644 4666 
L 2338 4666 
L 691 -594 
L 0 -594 
L 1644 4666 
z
" transform="scale(0.015625)"/>
       <path id="DejaVuSans-Bold-5c" d="M 78 3500 
L 1197 3500 
L 2138 1125 
L 2938 3500 
L 4056 3500 
L 2584 -331 
Q 2363 -916 2067 -1148 
Q 1772 -1381 1288 -1381 
L 641 -1381 
L 641 -647 
L 991 -647 
Q 1275 -647 1404 -556 
Q 1534 -466 1606 -231 
L 1638 -134 
L 78 3500 
z
" transform="scale(0.015625)"/>
      </defs>
      <use xlink:href="#DejaVuSans-Bold-27"/>
      <use xlink:href="#DejaVuSans-Bold-52" transform="translate(83.015625 0)"/>
      <use xlink:href="#DejaVuSans-Bold-5a" transform="translate(151.71875 0)"/>
      <use xlink:href="#DejaVuSans-Bold-51" transform="translate(244.109375 0)"/>
      <use xlink:href="#DejaVuSans-Bold-4f" transform="translate(315.296875 0)"/>
      <use xlink:href="#DejaVuSans-Bold-52" transform="translate(349.578125 0)"/>
      <use xlink:href="#DejaVuSans-Bold-44" transform="translate(418.28125 0)"/>
      <use xlink:href="#DejaVuSans-Bold-47" transform="translate(485.765625 0)"/>
      <use xlink:href="#DejaVuSans-Bold-56" transform="translate(557.34375 0)"/>
      <use xlink:href="#DejaVuSans-Bold-3" transform="translate(616.859375 0)"/>
      <use xlink:href="#DejaVuSans-Bold-12" transform="translate(651.671875 0)"/>
      <use xlink:href="#DejaVuSans-Bold-3" transform="translate(688.203125 0)"/>
      <use xlink:href="#DejaVuSans-Bold-47" transform="translate(723.015625 0)"/>
      <use xlink:href="#DejaVuSans-Bold-44" transform="translate(794.59375 0)"/>
      <use xlink:href="#DejaVuSans-Bold-5c" transform="translate(859 0)"/>
     </g>
    </g>
   </g>
   <g id="line2d_79">
    <path d="M 55.212031 229.435276 
L 725.650156 229.435276 
" clip-path="url(#pf4372a6d64)" style="fill: none; stroke-dasharray: 1.5,2.475; stroke-dashoffset: 0; stroke: #ff6b6b; stroke-width: 1.5"/>
   </g>
   <g id="patch_3">
    <path d="M 55.212031 236.430437 
L 55.212031 39.198438 
" style="fill: none; stroke: #283d58; stroke-width: 0.8; stroke-linejoin: miter; stroke-linecap: square"/>
   </g>
   <g id="patch_4">
    <path d="M 725.650156 236.430437 
L 725.650156 39.198438 
" style="fill: none; stroke: #283d58; stroke-width: 0.8; stroke-linejoin: miter; stroke-linecap: square"/>
   </g>
   <g id="patch_5">
    <path d="M 55.212031 236.430437 
L 725.650156 236.430437 
" style="fill: none; stroke: #283d58; stroke-width: 0.8; stroke-linejoin: miter; stroke-linecap: square"/>
   </g>
   <g id="patch_6">
    <path d="M 55.212031 39.198438 
L 725.650156 39.198438 
" style="fill: none; stroke: #283d58; stroke-width: 0.8; stroke-linejoin: miter; stroke-linecap: square"/>
   </g>
   <g id="line2d_80">
    <path d="M 68.105072 236.430437 
L 475.594156 236.430437 
L 477.750183 235.34743 
L 479.90621 229.730514 
L 482.062237 220.322886 
L 484.218264 208.256103 
L 490.686345 167.416374 
L 492.842372 156.028523 
L 494.998398 147.639296 
L 497.154425 143.380246 
L 499.310452 144.248997 
L 501.466479 149.905827 
L 503.622506 159.252491 
L 505.778533 171.182792 
L 512.246614 211.413513 
L 514.402641 222.616362 
L 516.558667 230.87185 
L 518.714694 235.073777 
L 520.870721 235.519664 
L 527.338802 236.011096 
L 533.806883 236.315724 
L 540.274963 236.429668 
L 553.211125 236.32863 
L 566.147286 236.052848 
L 576.927421 235.475225 
L 587.707555 234.959409 
L 617.891932 233.920921 
L 626.516039 233.553393 
L 630.828093 233.173343 
L 637.296174 232.244555 
L 641.608228 231.636519 
L 645.920281 231.23822 
L 648.076308 231.17151 
L 650.232335 231.267651 
L 652.388362 231.571354 
L 656.700416 232.599508 
L 663.168497 234.428612 
L 665.324524 234.910814 
L 667.48055 235.244267 
L 669.636577 235.377971 
L 680.416712 235.249024 
L 693.352873 235.118031 
L 706.289035 235.244047 
L 712.757115 235.378533 
L 712.757115 235.378533 
" clip-path="url(#pf4372a6d64)" style="fill: none; stroke: #1a73e8; stroke-width: 2; stroke-linecap: square"/>
   </g>
   <g id="line2d_81">
    <path d="M 68.105072 236.430437 
L 475.594156 236.430437 
L 477.750183 235.38709 
L 479.90621 229.975863 
L 482.062237 220.91274 
L 484.218264 209.287839 
L 490.686345 169.943649 
L 492.842372 158.972819 
L 494.998398 150.890802 
L 497.154425 146.787718 
L 499.310452 147.625998 
L 501.466479 153.081708 
L 503.622506 162.094997 
L 505.778533 173.597977 
L 512.246614 212.366154 
L 514.402641 223.148993 
L 516.558667 231.08207 
L 518.714694 235.097497 
L 520.870721 235.484618 
L 529.494829 235.945336 
L 538.118936 236.154523 
L 559.679205 236.167461 
L 566.147286 236.112082 
L 574.771394 235.736403 
L 583.395501 235.387075 
L 600.643717 235.191206 
L 609.267824 234.96551 
L 617.891932 234.354162 
L 624.360012 233.909907 
L 635.140147 233.515421 
L 645.920281 233.284389 
L 650.232335 233.335184 
L 654.544389 233.813094 
L 665.324524 235.612161 
L 667.48055 235.820569 
L 671.792604 235.891512 
L 680.416712 235.645467 
L 689.040819 235.394322 
L 695.5089 235.413361 
L 704.133008 235.680195 
L 712.757115 236.167461 
L 712.757115 236.167461 
" clip-path="url(#pf4372a6d64)" style="fill: none; stroke: #3fb950; stroke-width: 2; stroke-linecap: square"/>
   </g>
   <g id="line2d_82">
    <path d="M 68.105072 236.430437 
L 475.594156 236.430437 
L 477.750183 234.304083 
L 479.90621 223.27594 
L 482.062237 204.805189 
L 484.218264 181.113504 
L 490.686345 100.929585 
L 492.842372 78.570905 
L 494.998398 62.09966 
L 497.154425 53.737526 
L 499.310452 55.444556 
L 501.466479 66.557084 
L 503.622506 84.917022 
L 505.778533 108.350283 
L 512.246614 187.349148 
L 514.402641 209.334841 
L 516.558667 225.523428 
L 518.714694 233.74082 
L 520.870721 234.573879 
L 527.338802 235.434268 
L 533.806883 235.967034 
L 538.118936 236.137206 
L 546.743044 236.144094 
L 561.835232 235.915187 
L 566.147286 235.730862 
L 572.615367 235.143915 
L 581.239474 234.256129 
L 587.707555 233.848262 
L 609.267824 232.719838 
L 617.891932 231.898206 
L 628.672066 230.669538 
L 635.140147 229.585575 
L 641.608228 228.518313 
L 645.920281 228.086739 
L 648.076308 228.015831 
L 650.232335 228.172398 
L 652.388362 228.665915 
L 654.544389 229.414963 
L 658.856443 231.348148 
L 663.168497 233.308959 
L 665.324524 234.092537 
L 667.48055 234.634399 
L 669.636577 234.851668 
L 676.104658 234.687794 
L 689.040819 234.087336 
L 695.5089 234.108721 
L 701.976981 234.341254 
L 710.601088 234.925741 
L 712.757115 235.115557 
L 712.757115 235.115557 
" clip-path="url(#pf4372a6d64)" style="fill: none; stroke-dasharray: 9.25,4; stroke-dashoffset: 0; stroke: #e3b341; stroke-width: 2.5"/>
   </g>
   <g id="text_42">
    <!-- R1 -->
    <g style="fill: #1a73e8" transform="translate(595.194504 253.989031) scale(0.06 -0.06)">
     <defs>
      <path id="DejaVuSans-Bold-35" d="M 2297 2597 
Q 2675 2597 2839 2737 
Q 3003 2878 3003 3200 
Q 3003 3519 2839 3656 
Q 2675 3794 2297 3794 
L 1791 3794 
L 1791 2597 
L 2297 2597 
z
M 1791 1766 
L 1791 0 
L 588 0 
L 588 4666 
L 2425 4666 
Q 3347 4666 3776 4356 
Q 4206 4047 4206 3378 
Q 4206 2916 3982 2619 
Q 3759 2322 3309 2181 
Q 3556 2125 3751 1926 
Q 3947 1728 4147 1325 
L 4800 0 
L 3519 0 
L 2950 1159 
Q 2778 1509 2601 1637 
Q 2425 1766 2131 1766 
L 1791 1766 
z
" transform="scale(0.015625)"/>
     </defs>
     <use xlink:href="#DejaVuSans-Bold-35"/>
     <use xlink:href="#DejaVuSans-Bold-14" transform="translate(77 0)"/>
    </g>
   </g>
   <g id="text_43">
    <!-- R2 -->
    <g style="fill: #3fb950" transform="translate(606.641025 253.989031) scale(0.06 -0.06)">
     <use xlink:href="#DejaVuSans-Bold-35"/>
     <use xlink:href="#DejaVuSans-Bold-15" transform="translate(77 0)"/>
    </g>
   </g>
   <g id="text_44">
    <!-- M1 -->
    <g style="fill: #1a73e8" transform="translate(164.751007 259.989031) scale(0.06 -0.06)">
     <use xlink:href="#DejaVuSans-Bold-30"/>
     <use xlink:href="#DejaVuSans-Bold-14" transform="translate(99.515625 0)"/>
    </g>
   </g>
   <g id="text_45">
    <!-- M2 -->
    <g style="fill: #3fb950" transform="translate(176.197527 259.989031) scale(0.06 -0.06)">
     <use xlink:href="#DejaVuSans-Bold-30"/>
     <use xlink:href="#DejaVuSans-Bold-15" transform="translate(99.515625 0)"/>
    </g>
   </g>
   <g id="text_46">
    <!-- M2 -->
    <g style="fill: #3fb950" transform="translate(406.846683 259.989031) scale(0.06 -0.06)">
     <use xlink:href="#DejaVuSans-Bold-30"/>
     <use xlink:href="#DejaVuSans-Bold-15" transform="translate(99.515625 0)"/>
    </g>
   </g>
   <g id="text_47">
    <!-- M1 -->
    <g style="fill: #1a73e8" transform="translate(449.823486 259.989031) scale(0.06 -0.06)">
     <use xlink:href="#DejaVuSans-Bold-30"/>
     <use xlink:href="#DejaVuSans-Bold-14" transform="translate(99.515625 0)"/>
    </g>
   </g>
   <g id="text_48">
    <!-- M2 -->
    <g style="fill: #3fb950" transform="translate(514.28869 259.989031) scale(0.06 -0.06)">
     <use xlink:href="#DejaVuSans-Bold-30"/>
     <use xlink:href="#DejaVuSans-Bold-15" transform="translate(99.515625 0)"/>
    </g>
   </g>
   <g id="text_49">
    <!-- M1 -->
    <g style="fill: #1a73e8" transform="translate(551.542233 259.989031) scale(0.06 -0.06)">
     <use xlink:href="#DejaVuSans-Bold-30"/>
     <use xlink:href="#DejaVuSans-Bold-14" transform="translate(99.515625 0)"/>
    </g>
   </g>
   <g id="text_50">
    <!-- M2 -->
    <g style="fill: #3fb950" transform="translate(562.988753 259.989031) scale(0.06 -0.06)">
     <use xlink:href="#DejaVuSans-Bold-30"/>
     <use xlink:href="#DejaVuSans-Bold-15" transform="translate(99.515625 0)"/>
    </g>
   </g>
   <g id="text_51">
    <!-- M1 -->
    <g style="fill: #1a73e8" transform="translate(616.007437 259.989031) scale(0.06 -0.06)">
     <use xlink:href="#DejaVuSans-Bold-30"/>
     <use xlink:href="#DejaVuSans-Bold-14" transform="translate(99.515625 0)"/>
    </g>
   </g>
   <g id="text_52">
    <!-- M2 -->
    <g style="fill: #3fb950" transform="translate(627.453957 259.989031) scale(0.06 -0.06)">
     <use xlink:href="#DejaVuSans-Bold-30"/>
     <use xlink:href="#DejaVuSans-Bold-15" transform="translate(99.515625 0)"/>
    </g>
   </g>
   <g id="text_53">
    <!-- M1 -->
    <g style="fill: #1a73e8" transform="translate(664.7075 259.989031) scale(0.06 -0.06)">
     <use xlink:href="#DejaVuSans-Bold-30"/>
     <use xlink:href="#DejaVuSans-Bold-14" transform="translate(99.515625 0)"/>
    </g>
   </g>
   <g id="text_54">
    <!-- Marcin Grygiel aka FirstEver — PSGallery Downloads / day -->
    <g style="fill: #58a6ff" transform="translate(226.642812 29.198438) scale(0.1 -0.1)">
     <defs>
      <path id="DejaVuSans-Bold-55" d="M 3138 2547 
Q 2991 2616 2845 2648 
Q 2700 2681 2553 2681 
Q 2122 2681 1889 2404 
Q 1656 2128 1656 1613 
L 1656 0 
L 538 0 
L 538 3500 
L 1656 3500 
L 1656 2925 
Q 1872 3269 2151 3426 
Q 2431 3584 2822 3584 
Q 2878 3584 2943 3579 
Q 3009 3575 3134 3559 
L 3138 2547 
z
" transform="scale(0.015625)"/>
      <path id="DejaVuSans-Bold-46" d="M 3366 3391 
L 3366 2478 
Q 3138 2634 2908 2709 
Q 2678 2784 2431 2784 
Q 1963 2784 1702 2511 
Q 1441 2238 1441 1747 
Q 1441 1256 1702 982 
Q 1963 709 2431 709 
Q 2694 709 2930 787 
Q 3166 866 3366 1019 
L 3366 103 
Q 3103 6 2833 -42 
Q 2563 -91 2291 -91 
Q 1344 -91 809 395 
Q 275 881 275 1747 
Q 275 2613 809 3098 
Q 1344 3584 2291 3584 
Q 2566 3584 2833 3536 
Q 3100 3488 3366 3391 
z
" transform="scale(0.015625)"/>
      <path id="DejaVuSans-Bold-4c" d="M 538 3500 
L 1656 3500 
L 1656 0 
L 538 0 
L 538 3500 
z
M 538 4863 
L 1656 4863 
L 1656 3950 
L 538 3950 
L 538 4863 
z
" transform="scale(0.015625)"/>
      <path id="DejaVuSans-Bold-2a" d="M 4781 347 
Q 4331 128 3847 18 
Q 3363 -91 2847 -91 
Q 1681 -91 1000 561 
Q 319 1213 319 2328 
Q 319 3456 1012 4103 
Q 1706 4750 2913 4750 
Q 3378 4750 3804 4662 
Q 4231 4575 4609 4403 
L 4609 3438 
Q 4219 3659 3833 3768 
Q 3447 3878 3059 3878 
Q 2341 3878 1952 3476 
Q 1563 3075 1563 2328 
Q 1563 1588 1938 1184 
Q 2313 781 3003 781 
Q 3191 781 3352 804 
Q 3513 828 3641 878 
L 3641 1784 
L 2906 1784 
L 2906 2591 
L 4781 2591 
L 4781 347 
z
" transform="scale(0.015625)"/>
      <path id="DejaVuSans-Bold-4a" d="M 2919 594 
Q 2688 288 2409 144 
Q 2131 0 1766 0 
Q 1125 0 706 504 
Q 288 1009 288 1791 
Q 288 2575 706 3076 
Q 1125 3578 1766 3578 
Q 2131 3578 2409 3434 
Q 2688 3291 2919 2981 
L 2919 3500 
L 4044 3500 
L 4044 353 
Q 4044 -491 3511 -936 
Q 2978 -1381 1966 -1381 
Q 1638 -1381 1331 -1331 
Q 1025 -1281 716 -1178 
L 716 -306 
Q 1009 -475 1290 -558 
Q 1572 -641 1856 -641 
Q 2406 -641 2662 -400 
Q 2919 -159 2919 353 
L 2919 594 
z
M 2181 2772 
Q 1834 2772 1640 2515 
Q 1447 2259 1447 1791 
Q 1447 1309 1634 1061 
Q 1822 813 2181 813 
Q 2531 813 2725 1069 
Q 2919 1325 2919 1791 
Q 2919 2259 2725 2515 
Q 2531 2772 2181 2772 
z
" transform="scale(0.015625)"/>
      <path id="DejaVuSans-Bold-48" d="M 4031 1759 
L 4031 1441 
L 1416 1441 
Q 1456 1047 1700 850 
Q 1944 653 2381 653 
Q 2734 653 3104 758 
Q 3475 863 3866 1075 
L 3866 213 
Q 3469 63 3072 -14 
Q 2675 -91 2278 -91 
Q 1328 -91 801 392 
Q 275 875 275 1747 
Q 275 2603 792 3093 
Q 1309 3584 2216 3584 
Q 3041 3584 3536 3087 
Q 4031 2591 4031 1759 
z
M 2881 2131 
Q 2881 2450 2695 2645 
Q 2509 2841 2209 2841 
Q 1884 2841 1681 2658 
Q 1478 2475 1428 2131 
L 2881 2131 
z
" transform="scale(0.015625)"/>
      <path id="DejaVuSans-Bold-4e" d="M 538 4863 
L 1656 4863 
L 1656 2216 
L 2944 3500 
L 4244 3500 
L 2534 1894 
L 4378 0 
L 3022 0 
L 1656 1459 
L 1656 0 
L 538 0 
L 538 4863 
z
" transform="scale(0.015625)"/>
      <path id="DejaVuSans-Bold-29" d="M 588 4666 
L 3834 4666 
L 3834 3756 
L 1791 3756 
L 1791 2888 
L 3713 2888 
L 3713 1978 
L 1791 1978 
L 1791 0 
L 588 0 
L 588 4666 
z
" transform="scale(0.015625)"/>
      <path id="DejaVuSans-Bold-28" d="M 588 4666 
L 3834 4666 
L 3834 3756 
L 1791 3756 
L 1791 2888 
L 3713 2888 
L 3713 1978 
L 1791 1978 
L 1791 909 
L 3903 909 
L 3903 0 
L 588 0 
L 588 4666 
z
" transform="scale(0.015625)"/>
      <path id="DejaVuSans-Bold-59" d="M 97 3500 
L 1216 3500 
L 2088 1081 
L 2956 3500 
L 4078 3500 
L 2700 0 
L 1472 0 
L 97 3500 
z
" transform="scale(0.015625)"/>
      <path id="DejaVuSans-Bold-af6" d="M 344 2156 
L 6056 2156 
L 6056 1350 
L 344 1350 
L 344 2156 
z
" transform="scale(0.015625)"/>
      <path id="DejaVuSans-Bold-33" d="M 588 4666 
L 2584 4666 
Q 3475 4666 3951 4270 
Q 4428 3875 4428 3144 
Q 4428 2409 3951 2014 
Q 3475 1619 2584 1619 
L 1791 1619 
L 1791 0 
L 588 0 
L 588 4666 
z
M 1791 3794 
L 1791 2491 
L 2456 2491 
Q 2806 2491 2997 2661 
Q 3188 2831 3188 3144 
Q 3188 3456 2997 3625 
Q 2806 3794 2456 3794 
L 1791 3794 
z
" transform="scale(0.015625)"/>
      <path id="DejaVuSans-Bold-36" d="M 3834 4519 
L 3834 3531 
Q 3450 3703 3084 3790 
Q 2719 3878 2394 3878 
Q 1963 3878 1756 3759 
Q 1550 3641 1550 3391 
Q 1550 3203 1689 3098 
Q 1828 2994 2194 2919 
L 2706 2816 
Q 3484 2659 3812 2340 
Q 4141 2022 4141 1434 
Q 4141 663 3683 286 
Q 3225 -91 2284 -91 
Q 1841 -91 1394 -6 
Q 947 78 500 244 
L 500 1259 
Q 947 1022 1364 901 
Q 1781 781 2169 781 
Q 2563 781 2772 912 
Q 2981 1044 2981 1288 
Q 2981 1506 2839 1625 
Q 2697 1744 2272 1838 
L 1806 1941 
Q 1106 2091 782 2419 
Q 459 2747 459 3303 
Q 459 4000 909 4375 
Q 1359 4750 2203 4750 
Q 2588 4750 2994 4692 
Q 3400 4634 3834 4519 
z
" transform="scale(0.015625)"/>
     </defs>
     <use xlink:href="#DejaVuSans-Bold-30"/>
     <use xlink:href="#DejaVuSans-Bold-44" transform="translate(99.515625 0)"/>
     <use xlink:href="#DejaVuSans-Bold-55" transform="translate(167 0)"/>
     <use xlink:href="#DejaVuSans-Bold-46" transform="translate(216.3125 0)"/>
     <use xlink:href="#DejaVuSans-Bold-4c" transform="translate(275.59375 0)"/>
     <use xlink:href="#DejaVuSans-Bold-51" transform="translate(309.875 0)"/>
     <use xlink:href="#DejaVuSans-Bold-3" transform="translate(381.0625 0)"/>
     <use xlink:href="#DejaVuSans-Bold-2a" transform="translate(415.875 0)"/>
     <use xlink:href="#DejaVuSans-Bold-55" transform="translate(497.953125 0)"/>
     <use xlink:href="#DejaVuSans-Bold-5c" transform="translate(547.265625 0)"/>
     <use xlink:href="#DejaVuSans-Bold-4a" transform="translate(612.453125 0)"/>
     <use xlink:href="#DejaVuSans-Bold-4c" transform="translate(684.03125 0)"/>
     <use xlink:href="#DejaVuSans-Bold-48" transform="translate(718.3125 0)"/>
     <use xlink:href="#DejaVuSans-Bold-4f" transform="translate(786.140625 0)"/>
     <use xlink:href="#DejaVuSans-Bold-3" transform="translate(820.421875 0)"/>
     <use xlink:href="#DejaVuSans-Bold-44" transform="translate(855.234375 0)"/>
     <use xlink:href="#DejaVuSans-Bold-4e" transform="translate(922.71875 0)"/>
     <use xlink:href="#DejaVuSans-Bold-44" transform="translate(989.21875 0)"/>
     <use xlink:href="#DejaVuSans-Bold-3" transform="translate(1056.703125 0)"/>
     <use xlink:href="#DejaVuSans-Bold-29" transform="translate(1091.515625 0)"/>
     <use xlink:href="#DejaVuSans-Bold-4c" transform="translate(1159.828125 0)"/>
     <use xlink:href="#DejaVuSans-Bold-55" transform="translate(1194.109375 0)"/>
     <use xlink:href="#DejaVuSans-Bold-56" transform="translate(1243.421875 0)"/>
     <use xlink:href="#DejaVuSans-Bold-57" transform="translate(1302.9375 0)"/>
     <use xlink:href="#DejaVuSans-Bold-28" transform="translate(1350.734375 0)"/>
     <use xlink:href="#DejaVuSans-Bold-59" transform="translate(1419.046875 0)"/>
     <use xlink:href="#DejaVuSans-Bold-48" transform="translate(1484.234375 0)"/>
     <use xlink:href="#DejaVuSans-Bold-55" transform="translate(1552.0625 0)"/>
     <use xlink:href="#DejaVuSans-Bold-3" transform="translate(1601.375 0)"/>
     <use xlink:href="#DejaVuSans-Bold-af6" transform="translate(1636.1875 0)"/>
     <use xlink:href="#DejaVuSans-Bold-3" transform="translate(1736.1875 0)"/>
     <use xlink:href="#DejaVuSans-Bold-33" transform="translate(1771 0)"/>
     <use xlink:href="#DejaVuSans-Bold-36" transform="translate(1844.296875 0)"/>
     <use xlink:href="#DejaVuSans-Bold-2a" transform="translate(1916.3125 0)"/>
     <use xlink:href="#DejaVuSans-Bold-44" transform="translate(1998.390625 0)"/>
     <use xlink:href="#DejaVuSans-Bold-4f" transform="translate(2065.875 0)"/>
     <use xlink:href="#DejaVuSans-Bold-4f" transform="translate(2100.15625 0)"/>
     <use xlink:href="#DejaVuSans-Bold-48" transform="translate(2134.4375 0)"/>
     <use xlink:href="#DejaVuSans-Bold-55" transform="translate(2202.265625 0)"/>
     <use xlink:href="#DejaVuSans-Bold-5c" transform="translate(2251.578125 0)"/>
     <use xlink:href="#DejaVuSans-Bold-3" transform="translate(2316.765625 0)"/>
     <use xlink:href="#DejaVuSans-Bold-27" transform="translate(2351.578125 0)"/>
     <use xlink:href="#DejaVuSans-Bold-52" transform="translate(2434.59375 0)"/>
     <use xlink:href="#DejaVuSans-Bold-5a" transform="translate(2503.296875 0)"/>
     <use xlink:href="#DejaVuSans-Bold-51" transform="translate(2595.6875 0)"/>
     <use xlink:href="#DejaVuSans-Bold-4f" transform="translate(2666.875 0)"/>
     <use xlink:href="#DejaVuSans-Bold-52" transform="translate(2701.15625 0)"/>
     <use xlink:href="#DejaVuSans-Bold-44" transform="translate(2769.859375 0)"/>
     <use xlink:href="#DejaVuSans-Bold-47" transform="translate(2837.34375 0)"/>
     <use xlink:href="#DejaVuSans-Bold-56" transform="translate(2908.921875 0)"/>
     <use xlink:href="#DejaVuSans-Bold-3" transform="translate(2968.4375 0)"/>
     <use xlink:href="#DejaVuSans-Bold-12" transform="translate(3003.25 0)"/>
     <use xlink:href="#DejaVuSans-Bold-3" transform="translate(3039.78125 0)"/>
     <use xlink:href="#DejaVuSans-Bold-47" transform="translate(3074.59375 0)"/>
     <use xlink:href="#DejaVuSans-Bold-44" transform="translate(3146.171875 0)"/>
     <use xlink:href="#DejaVuSans-Bold-5c" transform="translate(3210.578125 0)"/>
    </g>
   </g>
   <g id="PathCollection_1">
    <defs>
     <path id="m9a2d1b9cff" d="M 0 2.12132 
C 0.562581 2.12132 1.102195 1.897805 1.5 1.5 
C 1.897805 1.102195 2.12132 0.562581 2.12132 0 
C 2.12132 -0.562581 1.897805 -1.102195 1.5 -1.5 
C 1.102195 -1.897805 0.562581 -2.12132 0 -2.12132 
C -0.562581 -2.12132 -1.102195 -1.897805 -1.5 -1.5 
C -1.897805 -1.102195 -2.12132 -0.562581 -2.12132 0 
C -2.12132 0.562581 -1.897805 1.102195 -1.5 1.5 
C -1.102195 1.897805 -0.562581 2.12132 0 2.12132 
z
"/>
    </defs>
    <g clip-path="url(#pf4372a6d64)">
     <use xlink:href="#m9a2d1b9cff" x="68.105072" y="236.430437" style="fill: #1a73e8"/>
     <use xlink:href="#m9a2d1b9cff" x="89.593474" y="236.430437" style="fill: #1a73e8"/>
     <use xlink:href="#m9a2d1b9cff" x="111.081875" y="236.430437" style="fill: #1a73e8"/>
     <use xlink:href="#m9a2d1b9cff" x="132.570276" y="236.430437" style="fill: #1a73e8"/>
     <use xlink:href="#m9a2d1b9cff" x="154.058678" y="236.430437" style="fill: #1a73e8"/>
     <use xlink:href="#m9a2d1b9cff" x="175.547079" y="236.430437" style="fill: #1a73e8"/>
     <use xlink:href="#m9a2d1b9cff" x="197.035481" y="236.430437" style="fill: #1a73e8"/>
     <use xlink:href="#m9a2d1b9cff" x="218.523882" y="236.430437" style="fill: #1a73e8"/>
     <use xlink:href="#m9a2d1b9cff" x="240.012284" y="236.430437" style="fill: #1a73e8"/>
     <use xlink:href="#m9a2d1b9cff" x="261.500685" y="236.430437" style="fill: #1a73e8"/>
     <use xlink:href="#m9a2d1b9cff" x="282.989087" y="236.430437" style="fill: #1a73e8"/>
     <use xlink:href="#m9a2d1b9cff" x="304.477488" y="236.430437" style="fill: #1a73e8"/>
     <use xlink:href="#m9a2d1b9cff" x="325.965889" y="236.430437" style="fill: #1a73e8"/>
     <use xlink:href="#m9a2d1b9cff" x="347.454291" y="236.430437" style="fill: #1a73e8"/>
     <use xlink:href="#m9a2d1b9cff" x="368.942692" y="236.430437" style="fill: #1a73e8"/>
     <use xlink:href="#m9a2d1b9cff" x="390.431094" y="236.430437" style="fill: #1a73e8"/>
     <use xlink:href="#m9a2d1b9cff" x="411.919495" y="236.430437" style="fill: #1a73e8"/>
     <use xlink:href="#m9a2d1b9cff" x="433.407897" y="236.430437" style="fill: #1a73e8"/>
     <use xlink:href="#m9a2d1b9cff" x="454.896298" y="236.430437" style="fill: #1a73e8"/>
     <use xlink:href="#m9a2d1b9cff" x="476.3847" y="236.430437" style="fill: #1a73e8"/>
     <use xlink:href="#m9a2d1b9cff" x="497.873101" y="143.073957" style="fill: #1a73e8"/>
     <use xlink:href="#m9a2d1b9cff" x="519.361502" y="235.378533" style="fill: #1a73e8"/>
     <use xlink:href="#m9a2d1b9cff" x="540.849904" y="236.430437" style="fill: #1a73e8"/>
     <use xlink:href="#m9a2d1b9cff" x="562.338305" y="236.167461" style="fill: #1a73e8"/>
     <use xlink:href="#m9a2d1b9cff" x="583.826707" y="235.115557" style="fill: #1a73e8"/>
     <use xlink:href="#m9a2d1b9cff" x="605.315108" y="234.326629" style="fill: #1a73e8"/>
     <use xlink:href="#m9a2d1b9cff" x="626.80351" y="233.537701" style="fill: #1a73e8"/>
     <use xlink:href="#m9a2d1b9cff" x="648.291911" y="231.170917" style="fill: #1a73e8"/>
     <use xlink:href="#m9a2d1b9cff" x="669.780313" y="235.378533" style="fill: #1a73e8"/>
     <use xlink:href="#m9a2d1b9cff" x="691.268714" y="235.115557" style="fill: #1a73e8"/>
     <use xlink:href="#m9a2d1b9cff" x="712.757115" y="235.378533" style="fill: #1a73e8"/>
    </g>
   </g>
   <g id="PathCollection_2">
    <defs>
     <path id="m34fcc774e4" d="M 0 2.12132 
C 0.562581 2.12132 1.102195 1.897805 1.5 1.5 
C 1.897805 1.102195 2.12132 0.562581 2.12132 0 
C 2.12132 -0.562581 1.897805 -1.102195 1.5 -1.5 
C 1.102195 -1.897805 0.562581 -2.12132 0 -2.12132 
C -0.562581 -2.12132 -1.102195 -1.897805 -1.5 -1.5 
C -1.897805 -1.102195 -2.12132 -0.562581 -2.12132 0 
C -2.12132 0.562581 -1.897805 1.102195 -1.5 1.5 
C -1.102195 1.897805 -0.562581 2.12132 0 2.12132 
z
"/>
    </defs>
    <g clip-path="url(#pf4372a6d64)">
     <use xlink:href="#m34fcc774e4" x="68.105072" y="236.430437" style="fill: #3fb950"/>
     <use xlink:href="#m34fcc774e4" x="89.593474" y="236.430437" style="fill: #3fb950"/>
     <use xlink:href="#m34fcc774e4" x="111.081875" y="236.430437" style="fill: #3fb950"/>
     <use xlink:href="#m34fcc774e4" x="132.570276" y="236.430437" style="fill: #3fb950"/>
     <use xlink:href="#m34fcc774e4" x="154.058678" y="236.430437" style="fill: #3fb950"/>
     <use xlink:href="#m34fcc774e4" x="175.547079" y="236.430437" style="fill: #3fb950"/>
     <use xlink:href="#m34fcc774e4" x="197.035481" y="236.430437" style="fill: #3fb950"/>
     <use xlink:href="#m34fcc774e4" x="218.523882" y="236.430437" style="fill: #3fb950"/>
     <use xlink:href="#m34fcc774e4" x="240.012284" y="236.430437" style="fill: #3fb950"/>
     <use xlink:href="#m34fcc774e4" x="261.500685" y="236.430437" style="fill: #3fb950"/>
     <use xlink:href="#m34fcc774e4" x="282.989087" y="236.430437" style="fill: #3fb950"/>
     <use xlink:href="#m34fcc774e4" x="304.477488" y="236.430437" style="fill: #3fb950"/>
     <use xlink:href="#m34fcc774e4" x="325.965889" y="236.430437" style="fill: #3fb950"/>
     <use xlink:href="#m34fcc774e4" x="347.454291" y="236.430437" style="fill: #3fb950"/>
     <use xlink:href="#m34fcc774e4" x="368.942692" y="236.430437" style="fill: #3fb950"/>
     <use xlink:href="#m34fcc774e4" x="390.431094" y="236.430437" style="fill: #3fb950"/>
     <use xlink:href="#m34fcc774e4" x="411.919495" y="236.430437" style="fill: #3fb950"/>
     <use xlink:href="#m34fcc774e4" x="433.407897" y="236.430437" style="fill: #3fb950"/>
     <use xlink:href="#m34fcc774e4" x="454.896298" y="236.430437" style="fill: #3fb950"/>
     <use xlink:href="#m34fcc774e4" x="476.3847" y="236.430437" style="fill: #3fb950"/>
     <use xlink:href="#m34fcc774e4" x="497.873101" y="146.492645" style="fill: #3fb950"/>
     <use xlink:href="#m34fcc774e4" x="519.361502" y="235.378533" style="fill: #3fb950"/>
     <use xlink:href="#m34fcc774e4" x="540.849904" y="236.167461" style="fill: #3fb950"/>
     <use xlink:href="#m34fcc774e4" x="562.338305" y="236.167461" style="fill: #3fb950"/>
     <use xlink:href="#m34fcc774e4" x="583.826707" y="235.378533" style="fill: #3fb950"/>
     <use xlink:href="#m34fcc774e4" x="605.315108" y="235.115557" style="fill: #3fb950"/>
     <use xlink:href="#m34fcc774e4" x="626.80351" y="233.800677" style="fill: #3fb950"/>
     <use xlink:href="#m34fcc774e4" x="648.291911" y="233.274725" style="fill: #3fb950"/>
     <use xlink:href="#m34fcc774e4" x="669.780313" y="235.904485" style="fill: #3fb950"/>
     <use xlink:href="#m34fcc774e4" x="691.268714" y="235.378533" style="fill: #3fb950"/>
     <use xlink:href="#m34fcc774e4" x="712.757115" y="236.167461" style="fill: #3fb950"/>
    </g>
   </g>
   <g id="PathCollection_3">
    <defs>
     <path id="m5c7c2c2884" d="M -0 3.316625 
L 3.316625 0 
L 0 -3.316625 
L -3.316625 -0 
z
"/>
    </defs>
    <g clip-path="url(#pf4372a6d64)">
     <use xlink:href="#m5c7c2c2884" x="68.105072" y="236.430437" style="fill: #e3b341"/>
     <use xlink:href="#m5c7c2c2884" x="89.593474" y="236.430437" style="fill: #e3b341"/>
     <use xlink:href="#m5c7c2c2884" x="111.081875" y="236.430437" style="fill: #e3b341"/>
     <use xlink:href="#m5c7c2c2884" x="132.570276" y="236.430437" style="fill: #e3b341"/>
     <use xlink:href="#m5c7c2c2884" x="154.058678" y="236.430437" style="fill: #e3b341"/>
     <use xlink:href="#m5c7c2c2884" x="175.547079" y="236.430437" style="fill: #e3b341"/>
     <use xlink:href="#m5c7c2c2884" x="197.035481" y="236.430437" style="fill: #e3b341"/>
     <use xlink:href="#m5c7c2c2884" x="218.523882" y="236.430437" style="fill: #e3b341"/>
     <use xlink:href="#m5c7c2c2884" x="240.012284" y="236.430437" style="fill: #e3b341"/>
     <use xlink:href="#m5c7c2c2884" x="261.500685" y="236.430437" style="fill: #e3b341"/>
     <use xlink:href="#m5c7c2c2884" x="282.989087" y="236.430437" style="fill: #e3b341"/>
     <use xlink:href="#m5c7c2c2884" x="304.477488" y="236.430437" style="fill: #e3b341"/>
     <use xlink:href="#m5c7c2c2884" x="325.965889" y="236.430437" style="fill: #e3b341"/>
     <use xlink:href="#m5c7c2c2884" x="347.454291" y="236.430437" style="fill: #e3b341"/>
     <use xlink:href="#m5c7c2c2884" x="368.942692" y="236.430437" style="fill: #e3b341"/>
     <use xlink:href="#m5c7c2c2884" x="390.431094" y="236.430437" style="fill: #e3b341"/>
     <use xlink:href="#m5c7c2c2884" x="411.919495" y="236.430437" style="fill: #e3b341"/>
     <use xlink:href="#m5c7c2c2884" x="433.407897" y="236.430437" style="fill: #e3b341"/>
     <use xlink:href="#m5c7c2c2884" x="454.896298" y="236.430437" style="fill: #e3b341"/>
     <use xlink:href="#m5c7c2c2884" x="476.3847" y="236.430437" style="fill: #e3b341"/>
     <use xlink:href="#m5c7c2c2884" x="497.873101" y="53.136166" style="fill: #e3b341"/>
     <use xlink:href="#m5c7c2c2884" x="519.361502" y="234.326629" style="fill: #e3b341"/>
     <use xlink:href="#m5c7c2c2884" x="540.849904" y="236.167461" style="fill: #e3b341"/>
     <use xlink:href="#m5c7c2c2884" x="562.338305" y="235.904485" style="fill: #e3b341"/>
     <use xlink:href="#m5c7c2c2884" x="583.826707" y="234.063653" style="fill: #e3b341"/>
     <use xlink:href="#m5c7c2c2884" x="605.315108" y="233.011749" style="fill: #e3b341"/>
     <use xlink:href="#m5c7c2c2884" x="626.80351" y="230.907941" style="fill: #e3b341"/>
     <use xlink:href="#m5c7c2c2884" x="648.291911" y="228.015205" style="fill: #e3b341"/>
     <use xlink:href="#m5c7c2c2884" x="669.780313" y="234.852581" style="fill: #e3b341"/>
     <use xlink:href="#m5c7c2c2884" x="691.268714" y="234.063653" style="fill: #e3b341"/>
     <use xlink:href="#m5c7c2c2884" x="712.757115" y="235.115557" style="fill: #e3b341"/>
    </g>
   </g>
   <g id="legend_1">
    <g id="patch_7">
     <path d="M 60.112031 55.298984 
L 263.917031 55.298984 
Q 265.317031 55.298984 265.317031 53.898984 
L 265.317031 44.098437 
Q 265.317031 42.698437 263.917031 42.698437 
L 60.112031 42.698437 
Q 58.712031 42.698437 58.712031 44.098437 
L 58.712031 53.898984 
Q 58.712031 55.298984 60.112031 55.298984 
L 60.112031 55.298984 
z
" style="fill: none; opacity: 0"/>
    </g>
    <g id="line2d_83">
     <path d="M 61.512031 48.367344 
L 68.512031 48.367344 
L 75.512031 48.367344 
" style="fill: none; stroke: #1a73e8; stroke-width: 2; stroke-linecap: square"/>
    </g>
    <g id="text_55">
     <!-- Rep1 -->
     <g style="fill: #1a73e8" transform="translate(81.112031 50.817344) scale(0.07 -0.07)">
      <defs>
       <path id="DejaVuSans-35" d="M 2841 2188 
Q 3044 2119 3236 1894 
Q 3428 1669 3622 1275 
L 4263 0 
L 3584 0 
L 2988 1197 
Q 2756 1666 2539 1819 
Q 2322 1972 1947 1972 
L 1259 1972 
L 1259 0 
L 628 0 
L 628 4666 
L 2053 4666 
Q 2853 4666 3247 4331 
Q 3641 3997 3641 3322 
Q 3641 2881 3436 2590 
Q 3231 2300 2841 2188 
z
M 1259 4147 
L 1259 2491 
L 2053 2491 
Q 2509 2491 2742 2702 
Q 2975 2913 2975 3322 
Q 2975 3731 2742 3939 
Q 2509 4147 2053 4147 
L 1259 4147 
z
" transform="scale(0.015625)"/>
       <path id="DejaVuSans-48" d="M 3597 1894 
L 3597 1613 
L 953 1613 
Q 991 1019 1311 708 
Q 1631 397 2203 397 
Q 2534 397 2845 478 
Q 3156 559 3463 722 
L 3463 178 
Q 3153 47 2828 -22 
Q 2503 -91 2169 -91 
Q 1331 -91 842 396 
Q 353 884 353 1716 
Q 353 2575 817 3079 
Q 1281 3584 2069 3584 
Q 2775 3584 3186 3129 
Q 3597 2675 3597 1894 
z
M 3022 2063 
Q 3016 2534 2758 2815 
Q 2500 3097 2075 3097 
Q 1594 3097 1305 2825 
Q 1016 2553 972 2059 
L 3022 2063 
z
" transform="scale(0.015625)"/>
       <path id="DejaVuSans-53" d="M 1159 525 
L 1159 -1331 
L 581 -1331 
L 581 3500 
L 1159 3500 
L 1159 2969 
Q 1341 3281 1617 3432 
Q 1894 3584 2278 3584 
Q 2916 3584 3314 3078 
Q 3713 2572 3713 1747 
Q 3713 922 3314 415 
Q 2916 -91 2278 -91 
Q 1894 -91 1617 61 
Q 1341 213 1159 525 
z
M 3116 1747 
Q 3116 2381 2855 2742 
Q 2594 3103 2138 3103 
Q 1681 3103 1420 2742 
Q 1159 2381 1159 1747 
Q 1159 1113 1420 752 
Q 1681 391 2138 391 
Q 2594 391 2855 752 
Q 3116 1113 3116 1747 
z
" transform="scale(0.015625)"/>
       <path id="DejaVuSans-14" d="M 794 531 
L 1825 531 
L 1825 4091 
L 703 3866 
L 703 4441 
L 1819 4666 
L 2450 4666 
L 2450 531 
L 3481 531 
L 3481 0 
L 794 0 
L 794 531 
z
" transform="scale(0.015625)"/>
      </defs>
      <use xlink:href="#DejaVuSans-35"/>
      <use xlink:href="#DejaVuSans-48" transform="translate(65 0)"/>
      <use xlink:href="#DejaVuSans-53" transform="translate(126.53125 0)"/>
      <use xlink:href="#DejaVuSans-14" transform="translate(190.015625 0)"/>
     </g>
    </g>
    <g id="line2d_84">
     <path d="M 112.866875 48.367344 
L 119.866875 48.367344 
L 126.866875 48.367344 
" style="fill: none; stroke: #3fb950; stroke-width: 2; stroke-linecap: square"/>
    </g>
    <g id="text_56">
     <!-- Rep2 -->
     <g style="fill: #3fb950" transform="translate(132.466875 50.817344) scale(0.07 -0.07)">
      <defs>
       <path id="DejaVuSans-15" d="M 1228 531 
L 3431 531 
L 3431 0 
L 469 0 
L 469 531 
Q 828 903 1448 1529 
Q 2069 2156 2228 2338 
Q 2531 2678 2651 2914 
Q 2772 3150 2772 3378 
Q 2772 3750 2511 3984 
Q 2250 4219 1831 4219 
Q 1534 4219 1204 4116 
Q 875 4013 500 3803 
L 500 4441 
Q 881 4594 1212 4672 
Q 1544 4750 1819 4750 
Q 2544 4750 2975 4387 
Q 3406 4025 3406 3419 
Q 3406 3131 3298 2873 
Q 3191 2616 2906 2266 
Q 2828 2175 2409 1742 
Q 1991 1309 1228 531 
z
" transform="scale(0.015625)"/>
      </defs>
      <use xlink:href="#DejaVuSans-35"/>
      <use xlink:href="#DejaVuSans-48" transform="translate(65 0)"/>
      <use xlink:href="#DejaVuSans-53" transform="translate(126.53125 0)"/>
      <use xlink:href="#DejaVuSans-15" transform="translate(190.015625 0)"/>
     </g>
    </g>
    <g id="line2d_85">
     <path d="M 164.221719 48.367344 
L 171.221719 48.367344 
L 178.221719 48.367344 
" style="fill: none; stroke-dasharray: 9.25,4; stroke-dashoffset: 0; stroke: #e3b341; stroke-width: 2.5"/>
    </g>
    <g id="text_57">
     <!-- Total -->
     <g style="fill: #e3b341" transform="translate(183.821719 50.817344) scale(0.07 -0.07)">
      <defs>
       <path id="DejaVuSans-37" d="M -19 4666 
L 3928 4666 
L 3928 4134 
L 2272 4134 
L 2272 0 
L 1638 0 
L 1638 4134 
L -19 4134 
L -19 4666 
z
" transform="scale(0.015625)"/>
       <path id="DejaVuSans-52" d="M 1959 3097 
Q 1497 3097 1228 2736 
Q 959 2375 959 1747 
Q 959 1119 1226 758 
Q 1494 397 1959 397 
Q 2419 397 2687 759 
Q 2956 1122 2956 1747 
Q 2956 2369 2687 2733 
Q 2419 3097 1959 3097 
z
M 1959 3584 
Q 2709 3584 3137 3096 
Q 3566 2609 3566 1747 
Q 3566 888 3137 398 
Q 2709 -91 1959 -91 
Q 1206 -91 779 398 
Q 353 888 353 1747 
Q 353 2609 779 3096 
Q 1206 3584 1959 3584 
z
" transform="scale(0.015625)"/>
       <path id="DejaVuSans-57" d="M 1172 4494 
L 1172 3500 
L 2356 3500 
L 2356 3053 
L 1172 3053 
L 1172 1153 
Q 1172 725 1289 603 
Q 1406 481 1766 481 
L 2356 481 
L 2356 0 
L 1766 0 
Q 1100 0 847 248 
Q 594 497 594 1153 
L 594 3053 
L 172 3053 
L 172 3500 
L 594 3500 
L 594 4494 
L 1172 4494 
z
" transform="scale(0.015625)"/>
       <path id="DejaVuSans-44" d="M 2194 1759 
Q 1497 1759 1228 1600 
Q 959 1441 959 1056 
Q 959 750 1161 570 
Q 1363 391 1709 391 
Q 2188 391 2477 730 
Q 2766 1069 2766 1631 
L 2766 1759 
L 2194 1759 
z
M 3341 1997 
L 3341 0 
L 2766 0 
L 2766 531 
Q 2569 213 2275 61 
Q 1981 -91 1556 -91 
Q 1019 -91 701 211 
Q 384 513 384 1019 
Q 384 1609 779 1909 
Q 1175 2209 1959 2209 
L 2766 2209 
L 2766 2266 
Q 2766 2663 2505 2880 
Q 2244 3097 1772 3097 
Q 1472 3097 1187 3025 
Q 903 2953 641 2809 
L 641 3341 
Q 956 3463 1253 3523 
Q 1550 3584 1831 3584 
Q 2591 3584 2966 3190 
Q 3341 2797 3341 1997 
z
" transform="scale(0.015625)"/>
       <path id="DejaVuSans-4f" d="M 603 4863 
L 1178 4863 
L 1178 0 
L 603 0 
L 603 4863 
z
" transform="scale(0.015625)"/>
      </defs>
      <use xlink:href="#DejaVuSans-37"/>
      <use xlink:href="#DejaVuSans-52" transform="translate(44.09375 0)"/>
      <use xlink:href="#DejaVuSans-57" transform="translate(105.28125 0)"/>
      <use xlink:href="#DejaVuSans-44" transform="translate(144.484375 0)"/>
      <use xlink:href="#DejaVuSans-4f" transform="translate(205.765625 0)"/>
     </g>
    </g>
    <g id="line2d_86">
     <path d="M 214.17 48.367344 
L 221.17 48.367344 
L 228.17 48.367344 
" style="fill: none; stroke-dasharray: 1.5,2.475; stroke-dashoffset: 0; stroke: #ff6b6b; stroke-width: 1.5"/>
    </g>
    <g id="text_58">
     <!-- Average -->
     <g style="fill: #ff6b6b" transform="translate(233.77 50.817344) scale(0.07 -0.07)">
      <defs>
       <path id="DejaVuSans-24" d="M 2188 4044 
L 1331 1722 
L 3047 1722 
L 2188 4044 
z
M 1831 4666 
L 2547 4666 
L 4325 0 
L 3669 0 
L 3244 1197 
L 1141 1197 
L 716 0 
L 50 0 
L 1831 4666 
z
" transform="scale(0.015625)"/>
       <path id="DejaVuSans-59" d="M 191 3500 
L 800 3500 
L 1894 563 
L 2988 3500 
L 3597 3500 
L 2284 0 
L 1503 0 
L 191 3500 
z
" transform="scale(0.015625)"/>
       <path id="DejaVuSans-55" d="M 2631 2963 
Q 2534 3019 2420 3045 
Q 2306 3072 2169 3072 
Q 1681 3072 1420 2755 
Q 1159 2438 1159 1844 
L 1159 0 
L 581 0 
L 581 3500 
L 1159 3500 
L 1159 2956 
Q 1341 3275 1631 3429 
Q 1922 3584 2338 3584 
Q 2397 3584 2469 3576 
Q 2541 3569 2628 3553 
L 2631 2963 
z
" transform="scale(0.015625)"/>
       <path id="DejaVuSans-4a" d="M 2906 1791 
Q 2906 2416 2648 2759 
Q 2391 3103 1925 3103 
Q 1463 3103 1205 2759 
Q 947 2416 947 1791 
Q 947 1169 1205 825 
Q 1463 481 1925 481 
Q 2391 481 2648 825 
Q 2906 1169 2906 1791 
z
M 3481 434 
Q 3481 -459 3084 -895 
Q 2688 -1331 1869 -1331 
Q 1566 -1331 1297 -1286 
Q 1028 -1241 775 -1147 
L 775 -588 
Q 1028 -725 1275 -790 
Q 1522 -856 1778 -856 
Q 2344 -856 2625 -561 
Q 2906 -266 2906 331 
L 2906 616 
Q 2728 306 2450 153 
Q 2172 0 1784 0 
Q 1141 0 747 490 
Q 353 981 353 1791 
Q 353 2603 747 3093 
Q 1141 3584 1784 3584 
Q 2172 3584 2450 3431 
Q 2728 3278 2906 2969 
L 2906 3500 
L 3481 3500 
L 3481 434 
z
" transform="scale(0.015625)"/>
      </defs>
      <use xlink:href="#DejaVuSans-24"/>
      <use xlink:href="#DejaVuSans-59" transform="translate(62.546875 0)"/>
      <use xlink:href="#DejaVuSans-48" transform="translate(121.734375 0)"/>
      <use xlink:href="#DejaVuSans-55" transform="translate(183.265625 0)"/>
      <use xlink:href="#DejaVuSans-44" transform="translate(224.375 0)"/>
      <use xlink:href="#DejaVuSans-4a" transform="translate(285.65625 0)"/>
      <use xlink:href="#DejaVuSans-48" transform="translate(349.140625 0)"/>
     </g>
    </g>
   </g>
   <g id="line2d_87">
    <defs>
     <path id="mde6a022b39" d="M -0 2.5 
L 2.5 -2.5 
L -2.5 -2.5 
z
" style="stroke: #1a73e8; stroke-linejoin: miter"/>
    </defs>
    <g>
     <use xlink:href="#mde6a022b39" x="602.091848" y="236.430437" style="fill: #1a73e8; stroke: #1a73e8; stroke-linejoin: miter"/>
    </g>
   </g>
   <g id="line2d_88">
    <defs>
     <path id="md6f7c902ea" d="M -0 2.5 
L 2.5 -2.5 
L -2.5 -2.5 
z
" style="stroke: #3fb950; stroke-linejoin: miter"/>
    </defs>
    <g>
     <use xlink:href="#md6f7c902ea" x="608.538368" y="236.430437" style="fill: #3fb950; stroke: #3fb950; stroke-linejoin: miter"/>
    </g>
   </g>
   <g id="line2d_89">
    <defs>
     <path id="mec66c46e81" d="M 0 -2.5 
L -0.561285 -0.772542 
L -2.377641 -0.772542 
L -0.908178 0.295085 
L -1.469463 2.022542 
L -0 0.954915 
L 1.469463 2.022542 
L 0.908178 0.295085 
L 2.377641 -0.772542 
L 0.561285 -0.772542 
z
" style="stroke: #1a73e8; stroke-linejoin: bevel"/>
    </defs>
    <g>
     <use xlink:href="#mec66c46e81" x="172.323819" y="236.430437" style="fill: #1a73e8; stroke: #1a73e8; stroke-linejoin: bevel"/>
    </g>
   </g>
   <g id="line2d_90">
    <defs>
     <path id="m823c4dba39" d="M 0 -2.5 
L -0.561285 -0.772542 
L -2.377641 -0.772542 
L -0.908178 0.295085 
L -1.469463 2.022542 
L -0 0.954915 
L 1.469463 2.022542 
L 0.908178 0.295085 
L 2.377641 -0.772542 
L 0.561285 -0.772542 
z
" style="stroke: #3fb950; stroke-linejoin: bevel"/>
    </defs>
    <g>
     <use xlink:href="#m823c4dba39" x="178.77034" y="236.430437" style="fill: #3fb950; stroke: #3fb950; stroke-linejoin: bevel"/>
    </g>
   </g>
   <g id="line2d_91">
    <g>
     <use xlink:href="#m823c4dba39" x="411.919495" y="236.430437" style="fill: #3fb950; stroke: #3fb950; stroke-linejoin: bevel"/>
    </g>
   </g>
   <g id="line2d_92">
    <g>
     <use xlink:href="#mec66c46e81" x="454.896298" y="236.430437" style="fill: #1a73e8; stroke: #1a73e8; stroke-linejoin: bevel"/>
    </g>
   </g>
   <g id="line2d_93">
    <g>
     <use xlink:href="#m823c4dba39" x="519.361502" y="236.430437" style="fill: #3fb950; stroke: #3fb950; stroke-linejoin: bevel"/>
    </g>
   </g>
   <g id="line2d_94">
    <g>
     <use xlink:href="#mec66c46e81" x="559.115045" y="236.430437" style="fill: #1a73e8; stroke: #1a73e8; stroke-linejoin: bevel"/>
    </g>
   </g>
   <g id="line2d_95">
    <g>
     <use xlink:href="#m823c4dba39" x="565.561566" y="236.430437" style="fill: #3fb950; stroke: #3fb950; stroke-linejoin: bevel"/>
    </g>
   </g>
   <g id="line2d_96">
    <g>
     <use xlink:href="#mec66c46e81" x="623.580249" y="236.430437" style="fill: #1a73e8; stroke: #1a73e8; stroke-linejoin: bevel"/>
    </g>
   </g>
   <g id="line2d_97">
    <g>
     <use xlink:href="#m823c4dba39" x="630.02677" y="236.430437" style="fill: #3fb950; stroke: #3fb950; stroke-linejoin: bevel"/>
    </g>
   </g>
   <g id="line2d_98">
    <g>
     <use xlink:href="#mec66c46e81" x="669.780313" y="236.430437" style="fill: #1a73e8; stroke: #1a73e8; stroke-linejoin: bevel"/>
    </g>
   </g>
  </g>
  <g id="text_59">
   <!-- ▲ vs yesterday: +3 / day   │   ⌀ last 7 days: 13.1 / day   │   ⌀ last 31 days: 26.6 / day   │   vs last month: +798 / month   │   Peak (all-time): 697 / day -->
   <g style="fill: #58a6ff" transform="translate(66.007188 290.283437) scale(0.075 -0.075)">
    <defs>
     <path id="DejaVuSans-Bold-e89" d="M 19 -788 
L 2459 4113 
L 4903 -788 
L 19 -788 
z
" transform="scale(0.015625)"/>
     <path id="DejaVuSans-Bold-1d" d="M 716 3500 
L 1844 3500 
L 1844 2291 
L 716 2291 
L 716 3500 
z
M 716 1209 
L 1844 1209 
L 1844 0 
L 716 0 
L 716 1209 
z
" transform="scale(0.015625)"/>
     <path id="DejaVuSans-Bold-e" d="M 3053 4013 
L 3053 2375 
L 4684 2375 
L 4684 1638 
L 3053 1638 
L 3053 0 
L 2309 0 
L 2309 1638 
L 678 1638 
L 678 2375 
L 2309 2375 
L 2309 4013 
L 3053 4013 
z
" transform="scale(0.015625)"/>
     <path id="DejaVuSans-Bold-dd9" d="M 1675 -1600 
L 1675 6003 
L 2175 6003 
L 2175 -1600 
L 1675 -1600 
z
" transform="scale(0.015625)"/>
     <path id="DejaVuSans-Bold-d8a" d="M 1925 3272 
Q 2484 3272 2916 2947 
L 3288 3319 
L 3659 2947 
L 3288 2572 
Q 3603 2147 3603 1588 
Q 3603 897 3113 403 
Q 2616 -91 1925 -91 
Q 1375 -91 944 228 
L 572 -144 
L 200 228 
L 572 600 
Q 250 1028 250 1588 
Q 250 2284 741 2778 
Q 1238 3272 1925 3272 
z
M 2531 2559 
Q 2263 2731 1978 2731 
Q 1459 2731 1122 2397 
Q 788 2063 788 1588 
Q 788 1253 959 988 
L 2531 2559 
z
M 1331 616 
Q 1597 450 1878 450 
Q 2394 450 2731 784 
Q 3066 1119 3066 1588 
Q 3066 1922 2900 2184 
L 1331 616 
z
" transform="scale(0.015625)"/>
     <path id="DejaVuSans-Bold-11" d="M 653 1209 
L 1778 1209 
L 1778 0 
L 653 0 
L 653 1209 
z
" transform="scale(0.015625)"/>
     <path id="DejaVuSans-Bold-50" d="M 3781 2919 
Q 3994 3244 4286 3414 
Q 4578 3584 4928 3584 
Q 5531 3584 5847 3212 
Q 6163 2841 6163 2131 
L 6163 0 
L 5038 0 
L 5038 1825 
Q 5041 1866 5042 1909 
Q 5044 1953 5044 2034 
Q 5044 2406 4934 2573 
Q 4825 2741 4581 2741 
Q 4263 2741 4089 2478 
Q 3916 2216 3909 1719 
L 3909 0 
L 2784 0 
L 2784 1825 
Q 2784 2406 2684 2573 
Q 2584 2741 2328 2741 
Q 2006 2741 1831 2477 
Q 1656 2213 1656 1722 
L 1656 0 
L 531 0 
L 531 3500 
L 1656 3500 
L 1656 2988 
Q 1863 3284 2130 3434 
Q 2397 3584 2719 3584 
Q 3081 3584 3359 3409 
Q 3638 3234 3781 2919 
z
" transform="scale(0.015625)"/>
     <path id="DejaVuSans-Bold-b" d="M 2413 -844 
L 1484 -844 
Q 1006 -72 778 623 
Q 550 1319 550 2003 
Q 550 2688 779 3389 
Q 1009 4091 1484 4856 
L 2413 4856 
Q 2013 4116 1813 3408 
Q 1613 2700 1613 2009 
Q 1613 1319 1811 609 
Q 2009 -100 2413 -844 
z
" transform="scale(0.015625)"/>
     <path id="DejaVuSans-Bold-10" d="M 347 2297 
L 2309 2297 
L 2309 1388 
L 347 1388 
L 347 2297 
z
" transform="scale(0.015625)"/>
     <path id="DejaVuSans-Bold-c" d="M 513 -844 
Q 913 -100 1113 609 
Q 1313 1319 1313 2009 
Q 1313 2700 1113 3408 
Q 913 4116 513 4856 
L 1441 4856 
Q 1916 4091 2145 3389 
Q 2375 2688 2375 2003 
Q 2375 1319 2147 623 
Q 1919 -72 1441 -844 
L 513 -844 
z
" transform="scale(0.015625)"/>
    </defs>
    <use xlink:href="#DejaVuSans-Bold-e89"/>
    <use xlink:href="#DejaVuSans-Bold-3" transform="translate(76.90625 0)"/>
    <use xlink:href="#DejaVuSans-Bold-59" transform="translate(111.71875 0)"/>
    <use xlink:href="#DejaVuSans-Bold-56" transform="translate(176.90625 0)"/>
    <use xlink:href="#DejaVuSans-Bold-3" transform="translate(236.421875 0)"/>
    <use xlink:href="#DejaVuSans-Bold-5c" transform="translate(271.234375 0)"/>
    <use xlink:href="#DejaVuSans-Bold-48" transform="translate(336.421875 0)"/>
    <use xlink:href="#DejaVuSans-Bold-56" transform="translate(404.25 0)"/>
    <use xlink:href="#DejaVuSans-Bold-57" transform="translate(463.765625 0)"/>
    <use xlink:href="#DejaVuSans-Bold-48" transform="translate(511.5625 0)"/>
    <use xlink:href="#DejaVuSans-Bold-55" transform="translate(579.390625 0)"/>
    <use xlink:href="#DejaVuSans-Bold-47" transform="translate(628.703125 0)"/>
    <use xlink:href="#DejaVuSans-Bold-44" transform="translate(700.28125 0)"/>
    <use xlink:href="#DejaVuSans-Bold-5c" transform="translate(764.6875 0)"/>
    <use xlink:href="#DejaVuSans-Bold-1d" transform="translate(829.875 0)"/>
    <use xlink:href="#DejaVuSans-Bold-3" transform="translate(869.859375 0)"/>
    <use xlink:href="#DejaVuSans-Bold-e" transform="translate(904.671875 0)"/>
    <use xlink:href="#DejaVuSans-Bold-16" transform="translate(988.46875 0)"/>
    <use xlink:href="#DejaVuSans-Bold-3" transform="translate(1058.046875 0)"/>
    <use xlink:href="#DejaVuSans-Bold-12" transform="translate(1092.859375 0)"/>
    <use xlink:href="#DejaVuSans-Bold-3" transform="translate(1129.390625 0)"/>
    <use xlink:href="#DejaVuSans-Bold-47" transform="translate(1164.203125 0)"/>
    <use xlink:href="#DejaVuSans-Bold-44" transform="translate(1235.78125 0)"/>
    <use xlink:href="#DejaVuSans-Bold-5c" transform="translate(1300.1875 0)"/>
    <use xlink:href="#DejaVuSans-Bold-3" transform="translate(1365.375 0)"/>
    <use xlink:href="#DejaVuSans-Bold-3" transform="translate(1400.1875 0)"/>
    <use xlink:href="#DejaVuSans-Bold-3" transform="translate(1435 0)"/>
    <use xlink:href="#DejaVuSans-Bold-dd9" transform="translate(1469.8125 0)"/>
    <use xlink:href="#DejaVuSans-Bold-3" transform="translate(1530.015625 0)"/>
    <use xlink:href="#DejaVuSans-Bold-3" transform="translate(1564.828125 0)"/>
    <use xlink:href="#DejaVuSans-Bold-3" transform="translate(1599.640625 0)"/>
    <use xlink:href="#DejaVuSans-Bold-d8a" transform="translate(1634.453125 0)"/>
    <use xlink:href="#DejaVuSans-Bold-3" transform="translate(1694.65625 0)"/>
    <use xlink:href="#DejaVuSans-Bold-4f" transform="translate(1729.46875 0)"/>
    <use xlink:href="#DejaVuSans-Bold-44" transform="translate(1763.75 0)"/>
    <use xlink:href="#DejaVuSans-Bold-56" transform="translate(1831.234375 0)"/>
    <use xlink:href="#DejaVuSans-Bold-57" transform="translate(1890.75 0)"/>
    <use xlink:href="#DejaVuSans-Bold-3" transform="translate(1938.546875 0)"/>
    <use xlink:href="#DejaVuSans-Bold-1a" transform="translate(1973.359375 0)"/>
    <use xlink:href="#DejaVuSans-Bold-3" transform="translate(2042.9375 0)"/>
    <use xlink:href="#DejaVuSans-Bold-47" transform="translate(2077.75 0)"/>
    <use xlink:href="#DejaVuSans-Bold-44" transform="translate(2149.328125 0)"/>
    <use xlink:href="#DejaVuSans-Bold-5c" transform="translate(2213.734375 0)"/>
    <use xlink:href="#DejaVuSans-Bold-56" transform="translate(2278.921875 0)"/>
    <use xlink:href="#DejaVuSans-Bold-1d" transform="translate(2338.4375 0)"/>
    <use xlink:href="#DejaVuSans-Bold-3" transform="translate(2378.421875 0)"/>
    <use xlink:href="#DejaVuSans-Bold-14" transform="translate(2413.234375 0)"/>
    <use xlink:href="#DejaVuSans-Bold-16" transform="translate(2482.8125 0)"/>
    <use xlink:href="#DejaVuSans-Bold-11" transform="translate(2552.390625 0)"/>
    <use xlink:href="#DejaVuSans-Bold-14" transform="translate(2590.375 0)"/>
    <use xlink:href="#DejaVuSans-Bold-3" transform="translate(2659.953125 0)"/>
    <use xlink:href="#DejaVuSans-Bold-12" transform="translate(2694.765625 0)"/>
    <use xlink:href="#DejaVuSans-Bold-3" transform="translate(2731.296875 0)"/>
    <use xlink:href="#DejaVuSans-Bold-47" transform="translate(2766.109375 0)"/>
    <use xlink:href="#DejaVuSans-Bold-44" transform="translate(2837.6875 0)"/>
    <use xlink:href="#DejaVuSans-Bold-5c" transform="translate(2902.09375 0)"/>
    <use xlink:href="#DejaVuSans-Bold-3" transform="translate(2967.28125 0)"/>
    <use xlink:href="#DejaVuSans-Bold-3" transform="translate(3002.09375 0)"/>
    <use xlink:href="#DejaVuSans-Bold-3" transform="translate(3036.90625 0)"/>
    <use xlink:href="#DejaVuSans-Bold-dd9" transform="translate(3071.71875 0)"/>
    <use xlink:href="#DejaVuSans-Bold-3" transform="translate(3131.921875 0)"/>
    <use xlink:href="#DejaVuSans-Bold-3" transform="translate(3166.734375 0)"/>
    <use xlink:href="#DejaVuSans-Bold-3" transform="translate(3201.546875 0)"/>
    <use xlink:href="#DejaVuSans-Bold-d8a" transform="translate(3236.359375 0)"/>
    <use xlink:href="#DejaVuSans-Bold-3" transform="translate(3296.5625 0)"/>
    <use xlink:href="#DejaVuSans-Bold-4f" transform="translate(3331.375 0)"/>
    <use xlink:href="#DejaVuSans-Bold-44" transform="translate(3365.65625 0)"/>
    <use xlink:href="#DejaVuSans-Bold-56" transform="translate(3433.140625 0)"/>
    <use xlink:href="#DejaVuSans-Bold-57" transform="translate(3492.65625 0)"/>
    <use xlink:href="#DejaVuSans-Bold-3" transform="translate(3540.453125 0)"/>
    <use xlink:href="#DejaVuSans-Bold-16" transform="translate(3575.265625 0)"/>
    <use xlink:href="#DejaVuSans-Bold-14" transform="translate(3644.84375 0)"/>
    <use xlink:href="#DejaVuSans-Bold-3" transform="translate(3714.421875 0)"/>
    <use xlink:href="#DejaVuSans-Bold-47" transform="translate(3749.234375 0)"/>
    <use xlink:href="#DejaVuSans-Bold-44" transform="translate(3820.8125 0)"/>
    <use xlink:href="#DejaVuSans-Bold-5c" transform="translate(3885.21875 0)"/>
    <use xlink:href="#DejaVuSans-Bold-56" transform="translate(3950.40625 0)"/>
    <use xlink:href="#DejaVuSans-Bold-1d" transform="translate(4009.921875 0)"/>
    <use xlink:href="#DejaVuSans-Bold-3" transform="translate(4049.90625 0)"/>
    <use xlink:href="#DejaVuSans-Bold-15" transform="translate(4084.71875 0)"/>
    <use xlink:href="#DejaVuSans-Bold-19" transform="translate(4154.296875 0)"/>
    <use xlink:href="#DejaVuSans-Bold-11" transform="translate(4223.875 0)"/>
    <use xlink:href="#DejaVuSans-Bold-19" transform="translate(4261.859375 0)"/>
    <use xlink:href="#DejaVuSans-Bold-3" transform="translate(4331.4375 0)"/>
    <use xlink:href="#DejaVuSans-Bold-12" transform="translate(4366.25 0)"/>
    <use xlink:href="#DejaVuSans-Bold-3" transform="translate(4402.78125 0)"/>
    <use xlink:href="#DejaVuSans-Bold-47" transform="translate(4437.59375 0)"/>
    <use xlink:href="#DejaVuSans-Bold-44" transform="translate(4509.171875 0)"/>
    <use xlink:href="#DejaVuSans-Bold-5c" transform="translate(4573.578125 0)"/>
    <use xlink:href="#DejaVuSans-Bold-3" transform="translate(4638.765625 0)"/>
    <use xlink:href="#DejaVuSans-Bold-3" transform="translate(4673.578125 0)"/>
    <use xlink:href="#DejaVuSans-Bold-3" transform="translate(4708.390625 0)"/>
    <use xlink:href="#DejaVuSans-Bold-dd9" transform="translate(4743.203125 0)"/>
    <use xlink:href="#DejaVuSans-Bold-3" transform="translate(4803.40625 0)"/>
    <use xlink:href="#DejaVuSans-Bold-3" transform="translate(4838.21875 0)"/>
    <use xlink:href="#DejaVuSans-Bold-3" transform="translate(4873.03125 0)"/>
    <use xlink:href="#DejaVuSans-Bold-59" transform="translate(4907.84375 0)"/>
    <use xlink:href="#DejaVuSans-Bold-56" transform="translate(4973.03125 0)"/>
    <use xlink:href="#DejaVuSans-Bold-3" transform="translate(5032.546875 0)"/>
    <use xlink:href="#DejaVuSans-Bold-4f" transform="translate(5067.359375 0)"/>
    <use xlink:href="#DejaVuSans-Bold-44" transform="translate(5101.640625 0)"/>
    <use xlink:href="#DejaVuSans-Bold-56" transform="translate(5169.125 0)"/>
    <use xlink:href="#DejaVuSans-Bold-57" transform="translate(5228.640625 0)"/>
    <use xlink:href="#DejaVuSans-Bold-3" transform="translate(5276.4375 0)"/>
    <use xlink:href="#DejaVuSans-Bold-50" transform="translate(5311.25 0)"/>
    <use xlink:href="#DejaVuSans-Bold-52" transform="translate(5415.453125 0)"/>
    <use xlink:href="#DejaVuSans-Bold-51" transform="translate(5484.15625 0)"/>
    <use xlink:href="#DejaVuSans-Bold-57" transform="translate(5555.34375 0)"/>
    <use xlink:href="#DejaVuSans-Bold-4b" transform="translate(5603.140625 0)"/>
    <use xlink:href="#DejaVuSans-Bold-1d" transform="translate(5674.328125 0)"/>
    <use xlink:href="#DejaVuSans-Bold-3" transform="translate(5714.3125 0)"/>
    <use xlink:href="#DejaVuSans-Bold-e" transform="translate(5749.125 0)"/>
    <use xlink:href="#DejaVuSans-Bold-1a" transform="translate(5832.921875 0)"/>
    <use xlink:href="#DejaVuSans-Bold-1c" transform="translate(5902.5 0)"/>
    <use xlink:href="#DejaVuSans-Bold-1b" transform="translate(5972.078125 0)"/>
    <use xlink:href="#DejaVuSans-Bold-3" transform="translate(6041.65625 0)"/>
    <use xlink:href="#DejaVuSans-Bold-12" transform="translate(6076.46875 0)"/>
    <use xlink:href="#DejaVuSans-Bold-3" transform="translate(6113 0)"/>
    <use xlink:href="#DejaVuSans-Bold-50" transform="translate(6147.8125 0)"/>
    <use xlink:href="#DejaVuSans-Bold-52" transform="translate(6252.015625 0)"/>
    <use xlink:href="#DejaVuSans-Bold-51" transform="translate(6320.71875 0)"/>
    <use xlink:href="#DejaVuSans-Bold-57" transform="translate(6391.90625 0)"/>
    <use xlink:href="#DejaVuSans-Bold-4b" transform="translate(6439.703125 0)"/>
    <use xlink:href="#DejaVuSans-Bold-3" transform="translate(6510.890625 0)"/>
    <use xlink:href="#DejaVuSans-Bold-3" transform="translate(6545.703125 0)"/>
    <use xlink:href="#DejaVuSans-Bold-3" transform="translate(6580.515625 0)"/>
    <use xlink:href="#DejaVuSans-Bold-dd9" transform="translate(6615.328125 0)"/>
    <use xlink:href="#DejaVuSans-Bold-3" transform="translate(6675.53125 0)"/>
    <use xlink:href="#DejaVuSans-Bold-3" transform="translate(6710.34375 0)"/>
    <use xlink:href="#DejaVuSans-Bold-3" transform="translate(6745.15625 0)"/>
    <use xlink:href="#DejaVuSans-Bold-33" transform="translate(6779.96875 0)"/>
    <use xlink:href="#DejaVuSans-Bold-48" transform="translate(6853.265625 0)"/>
    <use xlink:href="#DejaVuSans-Bold-44" transform="translate(6921.09375 0)"/>
    <use xlink:href="#DejaVuSans-Bold-4e" transform="translate(6988.578125 0)"/>
    <use xlink:href="#DejaVuSans-Bold-3" transform="translate(7055.078125 0)"/>
    <use xlink:href="#DejaVuSans-Bold-b" transform="translate(7089.890625 0)"/>
    <use xlink:href="#DejaVuSans-Bold-44" transform="translate(7135.59375 0)"/>
    <use xlink:href="#DejaVuSans-Bold-4f" transform="translate(7203.078125 0)"/>
    <use xlink:href="#DejaVuSans-Bold-4f" transform="translate(7237.359375 0)"/>
    <use xlink:href="#DejaVuSans-Bold-10" transform="translate(7271.640625 0)"/>
    <use xlink:href="#DejaVuSans-Bold-57" transform="translate(7313.140625 0)"/>
    <use xlink:href="#DejaVuSans-Bold-4c" transform="translate(7360.9375 0)"/>
    <use xlink:href="#DejaVuSans-Bold-50" transform="translate(7395.21875 0)"/>
    <use xlink:href="#DejaVuSans-Bold-48" transform="translate(7499.421875 0)"/>
    <use xlink:href="#DejaVuSans-Bold-c" transform="translate(7567.25 0)"/>
    <use xlink:href="#DejaVuSans-Bold-1d" transform="translate(7612.953125 0)"/>
    <use xlink:href="#DejaVuSans-Bold-3" transform="translate(7652.9375 0)"/>
    <use xlink:href="#DejaVuSans-Bold-19" transform="translate(7687.75 0)"/>
    <use xlink:href="#DejaVuSans-Bold-1c" transform="translate(7757.328125 0)"/>
    <use xlink:href="#DejaVuSans-Bold-1a" transform="translate(7826.90625 0)"/>
    <use xlink:href="#DejaVuSans-Bold-3" transform="translate(7896.484375 0)"/>
    <use xlink:href="#DejaVuSans-Bold-12" transform="translate(7931.296875 0)"/>
    <use xlink:href="#DejaVuSans-Bold-3" transform="translate(7967.828125 0)"/>
    <use xlink:href="#DejaVuSans-Bold-47" transform="translate(8002.640625 0)"/>
    <use xlink:href="#DejaVuSans-Bold-44" transform="translate(8074.21875 0)"/>
    <use xlink:href="#DejaVuSans-Bold-5c" transform="translate(8138.625 0)"/>
   </g>
  </g>
 </g>
 <defs>
  <clipPath id="pf4372a6d64">
   <rect x="55.212031" y="39.198438" width="670.438125" height="197.232"/>
  </clipPath>
 </defs>
</svg>
