<?xml version="1.0" encoding="utf-8" standalone="no"?>
<!DOCTYPE svg PUBLIC "-//W3C//DTD SVG 1.1//EN"
  "http://www.w3.org/Graphics/SVG/1.1/DTD/svg11.dtd">
<svg xmlns:xlink="http://www.w3.org/1999/xlink" width="747.270469pt" height="313.999062pt" viewBox="0 0 747.270469 313.999062" xmlns="http://www.w3.org/2000/svg" version="1.1">
<style>
.draw-line{stroke-dasharray:3000;stroke-dashoffset:3000;animation:draw 3s ease-out forwards}
@keyframes draw{to{stroke-dashoffset:0}}
</style>
 <metadata>
  <rdf:RDF xmlns:dc="http://purl.org/dc/elements/1.1/" xmlns:cc="http://creativecommons.org/ns#" xmlns:rdf="http://www.w3.org/1999/02/22-rdf-syntax-ns#">
   <cc:Work>
    <dc:type rdf:resource="http://purl.org/dc/dcmitype/StillImage"/>
    <dc:date>2026-06-24T20:57:59.607869</dc:date>
    <dc:format>image/svg+xml</dc:format>
    <dc:creator>
     <cc:Agent>
      <dc:title>Matplotlib v3.11.0, https://matplotlib.org/</dc:title>
     </cc:Agent>
    </dc:creator>
   </cc:Work>
  </rdf:RDF>
 </metadata>
 <defs>
  <style type="text/css">*{stroke-linejoin: round; stroke-linecap: butt}</style>
 </defs>
 <g id="figure_1">
  <g id="patch_1">
   <path d="M 0 313.999062 
L 747.270469 313.999062 
L 747.270469 0 
L 0 0 
L 0 313.999062 
z
" style="fill: none"/>
  </g>
  <g id="axes_1">
   <g id="patch_2">
    <path d="M 45.470469 232.398437 
L 725.670469 232.398437 
L 725.670469 39.198437 
L 45.470469 39.198437 
L 45.470469 232.398437 
z
" style="fill: none"/>
   </g>
   <g id="matplotlib.axis_1">
    <g id="xtick_1">
     <g id="line2d_1">
      <path d="M 58.551238 232.398437 
L 58.551238 39.198437 
" clip-path="url(#pf58da6cf92)" style="fill: none; stroke-dasharray: 0.7,1.155; stroke-dashoffset: 0; stroke: #283d58; stroke-width: 0.7"/>
     </g>
     <g id="line2d_2">
      <defs>
       <path id="md147e43c76" d="M 0 0 
L 0 3.5 
" style="stroke: #58a6ff; stroke-width: 0.8"/>
      </defs>
      <g>
       <use xlink:href="#md147e43c76" x="58.551238" y="232.398437" style="fill: #58a6ff; stroke: #58a6ff; stroke-width: 0.8"/>
      </g>
     </g>
     <g id="text_1">
      <!-- 25 -->
      <g style="fill: #58a6ff" transform="translate(53.680769 244.716797) scale(0.07 -0.07)">
       <defs>
        <path id="DejaVuSans-Bold-15" d="M 1844 884 
L 3897 884 
L 3897 0 
L 506 0 
L 506 884 
L 2209 2388 
Q 2438 2594 2547 2791 
Q 2656 2988 2656 3200 
Q 2656 3528 2436 3728 
Q 2216 3928 1850 3928 
Q 1569 3928 1234 3808 
Q 900 3688 519 3450 
L 519 4475 
Q 925 4609 1322 4679 
Q 1719 4750 2100 4750 
Q 2938 4750 3402 4381 
Q 3866 4013 3866 3353 
Q 3866 2972 3669 2642 
Q 3472 2313 2841 1759 
L 1844 884 
z
" transform="scale(0.015625)"/>
        <path id="DejaVuSans-Bold-18" d="M 678 4666 
L 3669 4666 
L 3669 3781 
L 1638 3781 
L 1638 3059 
Q 1775 3097 1914 3117 
Q 2053 3138 2203 3138 
Q 3056 3138 3531 2711 
Q 4006 2284 4006 1522 
Q 4006 766 3489 337 
Q 2972 -91 2053 -91 
Q 1656 -91 1267 -14 
Q 878 63 494 219 
L 494 1166 
Q 875 947 1217 837 
Q 1559 728 1863 728 
Q 2300 728 2551 942 
Q 2803 1156 2803 1522 
Q 2803 1891 2551 2103 
Q 2300 2316 1863 2316 
Q 1603 2316 1309 2248 
Q 1016 2181 678 2041 
L 678 4666 
z
" transform="scale(0.015625)"/>
       </defs>
       <use xlink:href="#DejaVuSans-Bold-15"/>
       <use xlink:href="#DejaVuSans-Bold-18" transform="translate(69.578125 0)"/>
      </g>
     </g>
    </g>
    <g id="xtick_2">
     <g id="line2d_3">
      <path d="M 80.35252 232.398437 
L 80.35252 39.198437 
" clip-path="url(#pf58da6cf92)" style="fill: none; stroke-dasharray: 0.7,1.155; stroke-dashoffset: 0; stroke: #283d58; stroke-width: 0.7"/>
     </g>
     <g id="line2d_4">
      <g>
       <use xlink:href="#md147e43c76" x="80.35252" y="232.398437" style="fill: #58a6ff; stroke: #58a6ff; stroke-width: 0.8"/>
      </g>
     </g>
     <g id="text_2">
      <!-- 26 -->
      <g style="fill: #58a6ff" transform="translate(75.482051 244.716797) scale(0.07 -0.07)">
       <defs>
        <path id="DejaVuSans-Bold-19" d="M 2316 2303 
Q 2000 2303 1842 2098 
Q 1684 1894 1684 1484 
Q 1684 1075 1842 870 
Q 2000 666 2316 666 
Q 2634 666 2792 870 
Q 2950 1075 2950 1484 
Q 2950 1894 2792 2098 
Q 2634 2303 2316 2303 
z
M 3803 4544 
L 3803 3681 
Q 3506 3822 3243 3889 
Q 2981 3956 2731 3956 
Q 2194 3956 1894 3657 
Q 1594 3359 1544 2772 
Q 1750 2925 1990 3001 
Q 2231 3078 2516 3078 
Q 3231 3078 3670 2659 
Q 4109 2241 4109 1563 
Q 4109 813 3618 361 
Q 3128 -91 2303 -91 
Q 1394 -91 895 523 
Q 397 1138 397 2266 
Q 397 3422 980 4083 
Q 1563 4744 2578 4744 
Q 2900 4744 3203 4694 
Q 3506 4644 3803 4544 
z
" transform="scale(0.015625)"/>
       </defs>
       <use xlink:href="#DejaVuSans-Bold-15"/>
       <use xlink:href="#DejaVuSans-Bold-19" transform="translate(69.578125 0)"/>
      </g>
     </g>
    </g>
    <g id="xtick_3">
     <g id="line2d_5">
      <path d="M 102.153802 232.398437 
L 102.153802 39.198437 
" clip-path="url(#pf58da6cf92)" style="fill: none; stroke-dasharray: 0.7,1.155; stroke-dashoffset: 0; stroke: #283d58; stroke-width: 0.7"/>
     </g>
     <g id="line2d_6">
      <g>
       <use xlink:href="#md147e43c76" x="102.153802" y="232.398437" style="fill: #58a6ff; stroke: #58a6ff; stroke-width: 0.8"/>
      </g>
     </g>
     <g id="text_3">
      <!-- 27 -->
      <g style="fill: #58a6ff" transform="translate(97.283333 244.716797) scale(0.07 -0.07)">
       <defs>
        <path id="DejaVuSans-Bold-1a" d="M 428 4666 
L 3944 4666 
L 3944 3988 
L 2125 0 
L 953 0 
L 2675 3781 
L 428 3781 
L 428 4666 
z
" transform="scale(0.015625)"/>
       </defs>
       <use xlink:href="#DejaVuSans-Bold-15"/>
       <use xlink:href="#DejaVuSans-Bold-1a" transform="translate(69.578125 0)"/>
      </g>
     </g>
    </g>
    <g id="xtick_4">
     <g id="line2d_7">
      <path d="M 123.955084 232.398437 
L 123.955084 39.198437 
" clip-path="url(#pf58da6cf92)" style="fill: none; stroke-dasharray: 0.7,1.155; stroke-dashoffset: 0; stroke: #283d58; stroke-width: 0.7"/>
     </g>
     <g id="line2d_8">
      <g>
       <use xlink:href="#md147e43c76" x="123.955084" y="232.398437" style="fill: #58a6ff; stroke: #58a6ff; stroke-width: 0.8"/>
      </g>
     </g>
     <g id="text_4">
      <!-- 28 -->
      <g style="fill: #58a6ff" transform="translate(119.084615 244.716797) scale(0.07 -0.07)">
       <defs>
        <path id="DejaVuSans-Bold-1b" d="M 2228 2088 
Q 1891 2088 1709 1903 
Q 1528 1719 1528 1375 
Q 1528 1031 1709 848 
Q 1891 666 2228 666 
Q 2563 666 2741 848 
Q 2919 1031 2919 1375 
Q 2919 1722 2741 1905 
Q 2563 2088 2228 2088 
z
M 1350 2484 
Q 925 2613 709 2878 
Q 494 3144 494 3541 
Q 494 4131 934 4440 
Q 1375 4750 2228 4750 
Q 3075 4750 3515 4442 
Q 3956 4134 3956 3541 
Q 3956 3144 3739 2878 
Q 3522 2613 3097 2484 
Q 3572 2353 3814 2058 
Q 4056 1763 4056 1313 
Q 4056 619 3595 264 
Q 3134 -91 2228 -91 
Q 1319 -91 855 264 
Q 391 619 391 1313 
Q 391 1763 633 2058 
Q 875 2353 1350 2484 
z
M 1631 3419 
Q 1631 3141 1786 2991 
Q 1941 2841 2228 2841 
Q 2509 2841 2662 2991 
Q 2816 3141 2816 3419 
Q 2816 3697 2662 3845 
Q 2509 3994 2228 3994 
Q 1941 3994 1786 3844 
Q 1631 3694 1631 3419 
z
" transform="scale(0.015625)"/>
       </defs>
       <use xlink:href="#DejaVuSans-Bold-15"/>
       <use xlink:href="#DejaVuSans-Bold-1b" transform="translate(69.578125 0)"/>
      </g>
     </g>
    </g>
    <g id="xtick_5">
     <g id="line2d_9">
      <path d="M 145.756366 232.398437 
L 145.756366 39.198437 
" clip-path="url(#pf58da6cf92)" style="fill: none; stroke-dasharray: 0.7,1.155; stroke-dashoffset: 0; stroke: #283d58; stroke-width: 0.7"/>
     </g>
     <g id="line2d_10">
      <g>
       <use xlink:href="#md147e43c76" x="145.756366" y="232.398437" style="fill: #58a6ff; stroke: #58a6ff; stroke-width: 0.8"/>
      </g>
     </g>
     <g id="text_5">
      <!-- 29 -->
      <g style="fill: #58a6ff" transform="translate(140.885897 244.716797) scale(0.07 -0.07)">
       <defs>
        <path id="DejaVuSans-Bold-1c" d="M 641 103 
L 641 966 
Q 928 831 1190 764 
Q 1453 697 1709 697 
Q 2247 697 2547 995 
Q 2847 1294 2900 1881 
Q 2688 1725 2447 1647 
Q 2206 1569 1925 1569 
Q 1209 1569 770 1986 
Q 331 2403 331 3084 
Q 331 3838 820 4291 
Q 1309 4744 2131 4744 
Q 3044 4744 3544 4128 
Q 4044 3513 4044 2388 
Q 4044 1231 3459 570 
Q 2875 -91 1856 -91 
Q 1528 -91 1228 -42 
Q 928 6 641 103 
z
M 2125 2350 
Q 2441 2350 2600 2554 
Q 2759 2759 2759 3169 
Q 2759 3575 2600 3781 
Q 2441 3988 2125 3988 
Q 1809 3988 1650 3781 
Q 1491 3575 1491 3169 
Q 1491 2759 1650 2554 
Q 1809 2350 2125 2350 
z
" transform="scale(0.015625)"/>
       </defs>
       <use xlink:href="#DejaVuSans-Bold-15"/>
       <use xlink:href="#DejaVuSans-Bold-1c" transform="translate(69.578125 0)"/>
      </g>
     </g>
    </g>
    <g id="xtick_6">
     <g id="line2d_11">
      <path d="M 167.557648 232.398437 
L 167.557648 39.198437 
" clip-path="url(#pf58da6cf92)" style="fill: none; stroke-dasharray: 0.7,1.155; stroke-dashoffset: 0; stroke: #283d58; stroke-width: 0.7"/>
     </g>
     <g id="line2d_12">
      <g>
       <use xlink:href="#md147e43c76" x="167.557648" y="232.398437" style="fill: #58a6ff; stroke: #58a6ff; stroke-width: 0.8"/>
      </g>
     </g>
     <g id="text_6">
      <!-- 30 -->
      <g style="fill: #58a6ff" transform="translate(162.687179 244.716797) scale(0.07 -0.07)">
       <defs>
        <path id="DejaVuSans-Bold-16" d="M 2981 2516 
Q 3453 2394 3698 2092 
Q 3944 1791 3944 1325 
Q 3944 631 3412 270 
Q 2881 -91 1863 -91 
Q 1503 -91 1142 -33 
Q 781 25 428 141 
L 428 1069 
Q 766 900 1098 814 
Q 1431 728 1753 728 
Q 2231 728 2486 893 
Q 2741 1059 2741 1369 
Q 2741 1688 2480 1852 
Q 2219 2016 1709 2016 
L 1228 2016 
L 1228 2791 
L 1734 2791 
Q 2188 2791 2409 2933 
Q 2631 3075 2631 3366 
Q 2631 3634 2415 3781 
Q 2200 3928 1806 3928 
Q 1516 3928 1219 3862 
Q 922 3797 628 3669 
L 628 4550 
Q 984 4650 1334 4700 
Q 1684 4750 2022 4750 
Q 2931 4750 3382 4451 
Q 3834 4153 3834 3553 
Q 3834 3144 3618 2883 
Q 3403 2622 2981 2516 
z
" transform="scale(0.015625)"/>
        <path id="DejaVuSans-Bold-13" d="M 2944 2338 
Q 2944 3213 2780 3570 
Q 2616 3928 2228 3928 
Q 1841 3928 1675 3570 
Q 1509 3213 1509 2338 
Q 1509 1453 1675 1090 
Q 1841 728 2228 728 
Q 2613 728 2778 1090 
Q 2944 1453 2944 2338 
z
M 4147 2328 
Q 4147 1169 3647 539 
Q 3147 -91 2228 -91 
Q 1306 -91 806 539 
Q 306 1169 306 2328 
Q 306 3491 806 4120 
Q 1306 4750 2228 4750 
Q 3147 4750 3647 4120 
Q 4147 3491 4147 2328 
z
" transform="scale(0.015625)"/>
       </defs>
       <use xlink:href="#DejaVuSans-Bold-16"/>
       <use xlink:href="#DejaVuSans-Bold-13" transform="translate(69.578125 0)"/>
      </g>
     </g>
    </g>
    <g id="xtick_7">
     <g id="line2d_13">
      <path d="M 189.35893 232.398437 
L 189.35893 39.198437 
" clip-path="url(#pf58da6cf92)" style="fill: none; stroke-dasharray: 0.7,1.155; stroke-dashoffset: 0; stroke: #283d58; stroke-width: 0.7"/>
     </g>
     <g id="line2d_14">
      <g>
       <use xlink:href="#md147e43c76" x="189.35893" y="232.398437" style="fill: #58a6ff; stroke: #58a6ff; stroke-width: 0.8"/>
      </g>
     </g>
     <g id="text_7">
      <!-- 31 -->
      <g style="fill: #58a6ff" transform="translate(184.488462 244.716797) scale(0.07 -0.07)">
       <defs>
        <path id="DejaVuSans-Bold-14" d="M 750 831 
L 1813 831 
L 1813 3847 
L 722 3622 
L 722 4441 
L 1806 4666 
L 2950 4666 
L 2950 831 
L 4013 831 
L 4013 0 
L 750 0 
L 750 831 
z
" transform="scale(0.015625)"/>
       </defs>
       <use xlink:href="#DejaVuSans-Bold-16"/>
       <use xlink:href="#DejaVuSans-Bold-14" transform="translate(69.578125 0)"/>
      </g>
     </g>
    </g>
    <g id="xtick_8">
     <g id="line2d_15">
      <path d="M 211.160212 232.398437 
L 211.160212 39.198437 
" clip-path="url(#pf58da6cf92)" style="fill: none; stroke-dasharray: 0.7,1.155; stroke-dashoffset: 0; stroke: #283d58; stroke-width: 0.7"/>
     </g>
     <g id="line2d_16">
      <g>
       <use xlink:href="#md147e43c76" x="211.160212" y="232.398437" style="fill: #58a6ff; stroke: #58a6ff; stroke-width: 0.8"/>
      </g>
     </g>
     <g id="text_8">
      <!-- 01 -->
      <g style="fill: #58a6ff" transform="translate(206.289744 244.716797) scale(0.07 -0.07)">
       <use xlink:href="#DejaVuSans-Bold-13"/>
       <use xlink:href="#DejaVuSans-Bold-14" transform="translate(69.578125 0)"/>
      </g>
     </g>
    </g>
    <g id="xtick_9">
     <g id="line2d_17">
      <path d="M 232.961494 232.398437 
L 232.961494 39.198437 
" clip-path="url(#pf58da6cf92)" style="fill: none; stroke-dasharray: 0.7,1.155; stroke-dashoffset: 0; stroke: #283d58; stroke-width: 0.7"/>
     </g>
     <g id="line2d_18">
      <g>
       <use xlink:href="#md147e43c76" x="232.961494" y="232.398437" style="fill: #58a6ff; stroke: #58a6ff; stroke-width: 0.8"/>
      </g>
     </g>
     <g id="text_9">
      <!-- 02 -->
      <g style="fill: #58a6ff" transform="translate(228.091026 244.716797) scale(0.07 -0.07)">
       <use xlink:href="#DejaVuSans-Bold-13"/>
       <use xlink:href="#DejaVuSans-Bold-15" transform="translate(69.578125 0)"/>
      </g>
     </g>
    </g>
    <g id="xtick_10">
     <g id="line2d_19">
      <path d="M 254.762776 232.398437 
L 254.762776 39.198437 
" clip-path="url(#pf58da6cf92)" style="fill: none; stroke-dasharray: 0.7,1.155; stroke-dashoffset: 0; stroke: #283d58; stroke-width: 0.7"/>
     </g>
     <g id="line2d_20">
      <g>
       <use xlink:href="#md147e43c76" x="254.762776" y="232.398437" style="fill: #58a6ff; stroke: #58a6ff; stroke-width: 0.8"/>
      </g>
     </g>
     <g id="text_10">
      <!-- 03 -->
      <g style="fill: #58a6ff" transform="translate(249.892308 244.716797) scale(0.07 -0.07)">
       <use xlink:href="#DejaVuSans-Bold-13"/>
       <use xlink:href="#DejaVuSans-Bold-16" transform="translate(69.578125 0)"/>
      </g>
     </g>
    </g>
    <g id="xtick_11">
     <g id="line2d_21">
      <path d="M 276.564058 232.398437 
L 276.564058 39.198437 
" clip-path="url(#pf58da6cf92)" style="fill: none; stroke-dasharray: 0.7,1.155; stroke-dashoffset: 0; stroke: #283d58; stroke-width: 0.7"/>
     </g>
     <g id="line2d_22">
      <g>
       <use xlink:href="#md147e43c76" x="276.564058" y="232.398437" style="fill: #58a6ff; stroke: #58a6ff; stroke-width: 0.8"/>
      </g>
     </g>
     <g id="text_11">
      <!-- 04 -->
      <g style="fill: #58a6ff" transform="translate(271.69359 244.716797) scale(0.07 -0.07)">
       <defs>
        <path id="DejaVuSans-Bold-17" d="M 2356 3675 
L 1038 1722 
L 2356 1722 
L 2356 3675 
z
M 2156 4666 
L 3494 4666 
L 3494 1722 
L 4159 1722 
L 4159 850 
L 3494 850 
L 3494 0 
L 2356 0 
L 2356 850 
L 288 850 
L 288 1881 
L 2156 4666 
z
" transform="scale(0.015625)"/>
       </defs>
       <use xlink:href="#DejaVuSans-Bold-13"/>
       <use xlink:href="#DejaVuSans-Bold-17" transform="translate(69.578125 0)"/>
      </g>
     </g>
    </g>
    <g id="xtick_12">
     <g id="line2d_23">
      <path d="M 298.365341 232.398437 
L 298.365341 39.198437 
" clip-path="url(#pf58da6cf92)" style="fill: none; stroke-dasharray: 0.7,1.155; stroke-dashoffset: 0; stroke: #283d58; stroke-width: 0.7"/>
     </g>
     <g id="line2d_24">
      <g>
       <use xlink:href="#md147e43c76" x="298.365341" y="232.398437" style="fill: #58a6ff; stroke: #58a6ff; stroke-width: 0.8"/>
      </g>
     </g>
     <g id="text_12">
      <!-- 05 -->
      <g style="fill: #58a6ff" transform="translate(293.494872 244.716797) scale(0.07 -0.07)">
       <use xlink:href="#DejaVuSans-Bold-13"/>
       <use xlink:href="#DejaVuSans-Bold-18" transform="translate(69.578125 0)"/>
      </g>
     </g>
    </g>
    <g id="xtick_13">
     <g id="line2d_25">
      <path d="M 320.166623 232.398437 
L 320.166623 39.198437 
" clip-path="url(#pf58da6cf92)" style="fill: none; stroke-dasharray: 0.7,1.155; stroke-dashoffset: 0; stroke: #283d58; stroke-width: 0.7"/>
     </g>
     <g id="line2d_26">
      <g>
       <use xlink:href="#md147e43c76" x="320.166623" y="232.398437" style="fill: #58a6ff; stroke: #58a6ff; stroke-width: 0.8"/>
      </g>
     </g>
     <g id="text_13">
      <!-- 06 -->
      <g style="fill: #58a6ff" transform="translate(315.296154 244.716797) scale(0.07 -0.07)">
       <use xlink:href="#DejaVuSans-Bold-13"/>
       <use xlink:href="#DejaVuSans-Bold-19" transform="translate(69.578125 0)"/>
      </g>
     </g>
    </g>
    <g id="xtick_14">
     <g id="line2d_27">
      <path d="M 341.967905 232.398437 
L 341.967905 39.198437 
" clip-path="url(#pf58da6cf92)" style="fill: none; stroke-dasharray: 0.7,1.155; stroke-dashoffset: 0; stroke: #283d58; stroke-width: 0.7"/>
     </g>
     <g id="line2d_28">
      <g>
       <use xlink:href="#md147e43c76" x="341.967905" y="232.398437" style="fill: #58a6ff; stroke: #58a6ff; stroke-width: 0.8"/>
      </g>
     </g>
     <g id="text_14">
      <!-- 07 -->
      <g style="fill: #58a6ff" transform="translate(337.097436 244.716797) scale(0.07 -0.07)">
       <use xlink:href="#DejaVuSans-Bold-13"/>
       <use xlink:href="#DejaVuSans-Bold-1a" transform="translate(69.578125 0)"/>
      </g>
     </g>
    </g>
    <g id="xtick_15">
     <g id="line2d_29">
      <path d="M 363.769187 232.398437 
L 363.769187 39.198437 
" clip-path="url(#pf58da6cf92)" style="fill: none; stroke-dasharray: 0.7,1.155; stroke-dashoffset: 0; stroke: #283d58; stroke-width: 0.7"/>
     </g>
     <g id="line2d_30">
      <g>
       <use xlink:href="#md147e43c76" x="363.769187" y="232.398437" style="fill: #58a6ff; stroke: #58a6ff; stroke-width: 0.8"/>
      </g>
     </g>
     <g id="text_15">
      <!-- 08 -->
      <g style="fill: #58a6ff" transform="translate(358.898718 244.716797) scale(0.07 -0.07)">
       <use xlink:href="#DejaVuSans-Bold-13"/>
       <use xlink:href="#DejaVuSans-Bold-1b" transform="translate(69.578125 0)"/>
      </g>
     </g>
    </g>
    <g id="xtick_16">
     <g id="line2d_31">
      <path d="M 385.570469 232.398437 
L 385.570469 39.198437 
" clip-path="url(#pf58da6cf92)" style="fill: none; stroke-dasharray: 0.7,1.155; stroke-dashoffset: 0; stroke: #283d58; stroke-width: 0.7"/>
     </g>
     <g id="line2d_32">
      <g>
       <use xlink:href="#md147e43c76" x="385.570469" y="232.398437" style="fill: #58a6ff; stroke: #58a6ff; stroke-width: 0.8"/>
      </g>
     </g>
     <g id="text_16">
      <!-- 09 -->
      <g style="fill: #58a6ff" transform="translate(380.7 244.716797) scale(0.07 -0.07)">
       <use xlink:href="#DejaVuSans-Bold-13"/>
       <use xlink:href="#DejaVuSans-Bold-1c" transform="translate(69.578125 0)"/>
      </g>
     </g>
    </g>
    <g id="xtick_17">
     <g id="line2d_33">
      <path d="M 407.371751 232.398437 
L 407.371751 39.198437 
" clip-path="url(#pf58da6cf92)" style="fill: none; stroke-dasharray: 0.7,1.155; stroke-dashoffset: 0; stroke: #283d58; stroke-width: 0.7"/>
     </g>
     <g id="line2d_34">
      <g>
       <use xlink:href="#md147e43c76" x="407.371751" y="232.398437" style="fill: #58a6ff; stroke: #58a6ff; stroke-width: 0.8"/>
      </g>
     </g>
     <g id="text_17">
      <!-- 10 -->
      <g style="fill: #58a6ff" transform="translate(402.501282 244.716797) scale(0.07 -0.07)">
       <use xlink:href="#DejaVuSans-Bold-14"/>
       <use xlink:href="#DejaVuSans-Bold-13" transform="translate(69.578125 0)"/>
      </g>
     </g>
    </g>
    <g id="xtick_18">
     <g id="line2d_35">
      <path d="M 429.173033 232.398437 
L 429.173033 39.198437 
" clip-path="url(#pf58da6cf92)" style="fill: none; stroke-dasharray: 0.7,1.155; stroke-dashoffset: 0; stroke: #283d58; stroke-width: 0.7"/>
     </g>
     <g id="line2d_36">
      <g>
       <use xlink:href="#md147e43c76" x="429.173033" y="232.398437" style="fill: #58a6ff; stroke: #58a6ff; stroke-width: 0.8"/>
      </g>
     </g>
     <g id="text_18">
      <!-- 11 -->
      <g style="fill: #58a6ff" transform="translate(424.302564 244.716797) scale(0.07 -0.07)">
       <use xlink:href="#DejaVuSans-Bold-14"/>
       <use xlink:href="#DejaVuSans-Bold-14" transform="translate(69.578125 0)"/>
      </g>
     </g>
    </g>
    <g id="xtick_19">
     <g id="line2d_37">
      <path d="M 450.974315 232.398437 
L 450.974315 39.198437 
" clip-path="url(#pf58da6cf92)" style="fill: none; stroke-dasharray: 0.7,1.155; stroke-dashoffset: 0; stroke: #283d58; stroke-width: 0.7"/>
     </g>
     <g id="line2d_38">
      <g>
       <use xlink:href="#md147e43c76" x="450.974315" y="232.398437" style="fill: #58a6ff; stroke: #58a6ff; stroke-width: 0.8"/>
      </g>
     </g>
     <g id="text_19">
      <!-- 12 -->
      <g style="fill: #58a6ff" transform="translate(446.103846 244.716797) scale(0.07 -0.07)">
       <use xlink:href="#DejaVuSans-Bold-14"/>
       <use xlink:href="#DejaVuSans-Bold-15" transform="translate(69.578125 0)"/>
      </g>
     </g>
    </g>
    <g id="xtick_20">
     <g id="line2d_39">
      <path d="M 472.775597 232.398437 
L 472.775597 39.198437 
" clip-path="url(#pf58da6cf92)" style="fill: none; stroke-dasharray: 0.7,1.155; stroke-dashoffset: 0; stroke: #283d58; stroke-width: 0.7"/>
     </g>
     <g id="line2d_40">
      <g>
       <use xlink:href="#md147e43c76" x="472.775597" y="232.398437" style="fill: #58a6ff; stroke: #58a6ff; stroke-width: 0.8"/>
      </g>
     </g>
     <g id="text_20">
      <!-- 13 -->
      <g style="fill: #58a6ff" transform="translate(467.905128 244.716797) scale(0.07 -0.07)">
       <use xlink:href="#DejaVuSans-Bold-14"/>
       <use xlink:href="#DejaVuSans-Bold-16" transform="translate(69.578125 0)"/>
      </g>
     </g>
    </g>
    <g id="xtick_21">
     <g id="line2d_41">
      <path d="M 494.576879 232.398437 
L 494.576879 39.198437 
" clip-path="url(#pf58da6cf92)" style="fill: none; stroke-dasharray: 0.7,1.155; stroke-dashoffset: 0; stroke: #283d58; stroke-width: 0.7"/>
     </g>
     <g id="line2d_42">
      <g>
       <use xlink:href="#md147e43c76" x="494.576879" y="232.398437" style="fill: #58a6ff; stroke: #58a6ff; stroke-width: 0.8"/>
      </g>
     </g>
     <g id="text_21">
      <!-- 14 -->
      <g style="fill: #58a6ff" transform="translate(489.70641 244.716797) scale(0.07 -0.07)">
       <use xlink:href="#DejaVuSans-Bold-14"/>
       <use xlink:href="#DejaVuSans-Bold-17" transform="translate(69.578125 0)"/>
      </g>
     </g>
    </g>
    <g id="xtick_22">
     <g id="line2d_43">
      <path d="M 516.378161 232.398437 
L 516.378161 39.198437 
" clip-path="url(#pf58da6cf92)" style="fill: none; stroke-dasharray: 0.7,1.155; stroke-dashoffset: 0; stroke: #283d58; stroke-width: 0.7"/>
     </g>
     <g id="line2d_44">
      <g>
       <use xlink:href="#md147e43c76" x="516.378161" y="232.398437" style="fill: #58a6ff; stroke: #58a6ff; stroke-width: 0.8"/>
      </g>
     </g>
     <g id="text_22">
      <!-- 15 -->
      <g style="fill: #58a6ff" transform="translate(511.507692 244.716797) scale(0.07 -0.07)">
       <use xlink:href="#DejaVuSans-Bold-14"/>
       <use xlink:href="#DejaVuSans-Bold-18" transform="translate(69.578125 0)"/>
      </g>
     </g>
    </g>
    <g id="xtick_23">
     <g id="line2d_45">
      <path d="M 538.179443 232.398437 
L 538.179443 39.198437 
" clip-path="url(#pf58da6cf92)" style="fill: none; stroke-dasharray: 0.7,1.155; stroke-dashoffset: 0; stroke: #283d58; stroke-width: 0.7"/>
     </g>
     <g id="line2d_46">
      <g>
       <use xlink:href="#md147e43c76" x="538.179443" y="232.398437" style="fill: #58a6ff; stroke: #58a6ff; stroke-width: 0.8"/>
      </g>
     </g>
     <g id="text_23">
      <!-- 16 -->
      <g style="fill: #58a6ff" transform="translate(533.308974 244.716797) scale(0.07 -0.07)">
       <use xlink:href="#DejaVuSans-Bold-14"/>
       <use xlink:href="#DejaVuSans-Bold-19" transform="translate(69.578125 0)"/>
      </g>
     </g>
    </g>
    <g id="xtick_24">
     <g id="line2d_47">
      <path d="M 559.980725 232.398437 
L 559.980725 39.198437 
" clip-path="url(#pf58da6cf92)" style="fill: none; stroke-dasharray: 0.7,1.155; stroke-dashoffset: 0; stroke: #283d58; stroke-width: 0.7"/>
     </g>
     <g id="line2d_48">
      <g>
       <use xlink:href="#md147e43c76" x="559.980725" y="232.398437" style="fill: #58a6ff; stroke: #58a6ff; stroke-width: 0.8"/>
      </g>
     </g>
     <g id="text_24">
      <!-- 17 -->
      <g style="fill: #58a6ff" transform="translate(555.110256 244.716797) scale(0.07 -0.07)">
       <use xlink:href="#DejaVuSans-Bold-14"/>
       <use xlink:href="#DejaVuSans-Bold-1a" transform="translate(69.578125 0)"/>
      </g>
     </g>
    </g>
    <g id="xtick_25">
     <g id="line2d_49">
      <path d="M 581.782007 232.398437 
L 581.782007 39.198437 
" clip-path="url(#pf58da6cf92)" style="fill: none; stroke-dasharray: 0.7,1.155; stroke-dashoffset: 0; stroke: #283d58; stroke-width: 0.7"/>
     </g>
     <g id="line2d_50">
      <g>
       <use xlink:href="#md147e43c76" x="581.782007" y="232.398437" style="fill: #58a6ff; stroke: #58a6ff; stroke-width: 0.8"/>
      </g>
     </g>
     <g id="text_25">
      <!-- 18 -->
      <g style="fill: #58a6ff" transform="translate(576.911538 244.716797) scale(0.07 -0.07)">
       <use xlink:href="#DejaVuSans-Bold-14"/>
       <use xlink:href="#DejaVuSans-Bold-1b" transform="translate(69.578125 0)"/>
      </g>
     </g>
    </g>
    <g id="xtick_26">
     <g id="line2d_51">
      <path d="M 603.583289 232.398437 
L 603.583289 39.198437 
" clip-path="url(#pf58da6cf92)" style="fill: none; stroke-dasharray: 0.7,1.155; stroke-dashoffset: 0; stroke: #283d58; stroke-width: 0.7"/>
     </g>
     <g id="line2d_52">
      <g>
       <use xlink:href="#md147e43c76" x="603.583289" y="232.398437" style="fill: #58a6ff; stroke: #58a6ff; stroke-width: 0.8"/>
      </g>
     </g>
     <g id="text_26">
      <!-- 19 -->
      <g style="fill: #58a6ff" transform="translate(598.712821 244.716797) scale(0.07 -0.07)">
       <use xlink:href="#DejaVuSans-Bold-14"/>
       <use xlink:href="#DejaVuSans-Bold-1c" transform="translate(69.578125 0)"/>
      </g>
     </g>
    </g>
    <g id="xtick_27">
     <g id="line2d_53">
      <path d="M 625.384571 232.398437 
L 625.384571 39.198437 
" clip-path="url(#pf58da6cf92)" style="fill: none; stroke-dasharray: 0.7,1.155; stroke-dashoffset: 0; stroke: #283d58; stroke-width: 0.7"/>
     </g>
     <g id="line2d_54">
      <g>
       <use xlink:href="#md147e43c76" x="625.384571" y="232.398437" style="fill: #58a6ff; stroke: #58a6ff; stroke-width: 0.8"/>
      </g>
     </g>
     <g id="text_27">
      <!-- 20 -->
      <g style="fill: #58a6ff" transform="translate(620.514103 244.716797) scale(0.07 -0.07)">
       <use xlink:href="#DejaVuSans-Bold-15"/>
       <use xlink:href="#DejaVuSans-Bold-13" transform="translate(69.578125 0)"/>
      </g>
     </g>
    </g>
    <g id="xtick_28">
     <g id="line2d_55">
      <path d="M 647.185853 232.398437 
L 647.185853 39.198437 
" clip-path="url(#pf58da6cf92)" style="fill: none; stroke-dasharray: 0.7,1.155; stroke-dashoffset: 0; stroke: #283d58; stroke-width: 0.7"/>
     </g>
     <g id="line2d_56">
      <g>
       <use xlink:href="#md147e43c76" x="647.185853" y="232.398437" style="fill: #58a6ff; stroke: #58a6ff; stroke-width: 0.8"/>
      </g>
     </g>
     <g id="text_28">
      <!-- 21 -->
      <g style="fill: #58a6ff" transform="translate(642.315385 244.716797) scale(0.07 -0.07)">
       <use xlink:href="#DejaVuSans-Bold-15"/>
       <use xlink:href="#DejaVuSans-Bold-14" transform="translate(69.578125 0)"/>
      </g>
     </g>
    </g>
    <g id="xtick_29">
     <g id="line2d_57">
      <path d="M 668.987135 232.398437 
L 668.987135 39.198437 
" clip-path="url(#pf58da6cf92)" style="fill: none; stroke-dasharray: 0.7,1.155; stroke-dashoffset: 0; stroke: #283d58; stroke-width: 0.7"/>
     </g>
     <g id="line2d_58">
      <g>
       <use xlink:href="#md147e43c76" x="668.987135" y="232.398437" style="fill: #58a6ff; stroke: #58a6ff; stroke-width: 0.8"/>
      </g>
     </g>
     <g id="text_29">
      <!-- 22 -->
      <g style="fill: #58a6ff" transform="translate(664.116667 244.716797) scale(0.07 -0.07)">
       <use xlink:href="#DejaVuSans-Bold-15"/>
       <use xlink:href="#DejaVuSans-Bold-15" transform="translate(69.578125 0)"/>
      </g>
     </g>
    </g>
    <g id="xtick_30">
     <g id="line2d_59">
      <path d="M 690.788417 232.398437 
L 690.788417 39.198437 
" clip-path="url(#pf58da6cf92)" style="fill: none; stroke-dasharray: 0.7,1.155; stroke-dashoffset: 0; stroke: #283d58; stroke-width: 0.7"/>
     </g>
     <g id="line2d_60">
      <g>
       <use xlink:href="#md147e43c76" x="690.788417" y="232.398437" style="fill: #58a6ff; stroke: #58a6ff; stroke-width: 0.8"/>
      </g>
     </g>
     <g id="text_30">
      <!-- 23 -->
      <g style="fill: #58a6ff" transform="translate(685.917949 244.716797) scale(0.07 -0.07)">
       <use xlink:href="#DejaVuSans-Bold-15"/>
       <use xlink:href="#DejaVuSans-Bold-16" transform="translate(69.578125 0)"/>
      </g>
     </g>
    </g>
    <g id="xtick_31">
     <g id="line2d_61">
      <path d="M 712.5897 232.398437 
L 712.5897 39.198437 
" clip-path="url(#pf58da6cf92)" style="fill: none; stroke-dasharray: 0.7,1.155; stroke-dashoffset: 0; stroke: #283d58; stroke-width: 0.7"/>
     </g>
     <g id="line2d_62">
      <g>
       <use xlink:href="#md147e43c76" x="712.5897" y="232.398437" style="fill: #58a6ff; stroke: #58a6ff; stroke-width: 0.8"/>
      </g>
     </g>
     <g id="text_31">
      <!-- 24 -->
      <g style="fill: #58a6ff" transform="translate(707.719231 244.716797) scale(0.07 -0.07)">
       <use xlink:href="#DejaVuSans-Bold-15"/>
       <use xlink:href="#DejaVuSans-Bold-17" transform="translate(69.578125 0)"/>
      </g>
     </g>
    </g>
    <g id="text_32">
     <!-- Last Month -->
     <g style="fill: #58a6ff" transform="translate(360.301719 290.477187) scale(0.08 -0.08)">
      <defs>
       <path id="DejaVuSans-Bold-2f" d="M 588 4666 
L 1791 4666 
L 1791 909 
L 3903 909 
L 3903 0 
L 588 0 
L 588 4666 
z
" transform="scale(0.015625)"/>
       <path id="DejaVuSans-Bold-44" d="M 2106 1575 
Q 1756 1575 1579 1456 
Q 1403 1338 1403 1106 
Q 1403 894 1545 773 
Q 1688 653 1941 653 
Q 2256 653 2472 879 
Q 2688 1106 2688 1447 
L 2688 1575 
L 2106 1575 
z
M 3816 1997 
L 3816 0 
L 2688 0 
L 2688 519 
Q 2463 200 2181 54 
Q 1900 -91 1497 -91 
Q 953 -91 614 226 
Q 275 544 275 1050 
Q 275 1666 698 1953 
Q 1122 2241 2028 2241 
L 2688 2241 
L 2688 2328 
Q 2688 2594 2478 2717 
Q 2269 2841 1825 2841 
Q 1466 2841 1156 2769 
Q 847 2697 581 2553 
L 581 3406 
Q 941 3494 1303 3539 
Q 1666 3584 2028 3584 
Q 2975 3584 3395 3211 
Q 3816 2838 3816 1997 
z
" transform="scale(0.015625)"/>
       <path id="DejaVuSans-Bold-56" d="M 3272 3391 
L 3272 2541 
Q 2913 2691 2578 2766 
Q 2244 2841 1947 2841 
Q 1628 2841 1473 2761 
Q 1319 2681 1319 2516 
Q 1319 2381 1436 2309 
Q 1553 2238 1856 2203 
L 2053 2175 
Q 2913 2066 3209 1816 
Q 3506 1566 3506 1031 
Q 3506 472 3093 190 
Q 2681 -91 1863 -91 
Q 1516 -91 1145 -36 
Q 775 19 384 128 
L 384 978 
Q 719 816 1070 734 
Q 1422 653 1784 653 
Q 2113 653 2278 743 
Q 2444 834 2444 1013 
Q 2444 1163 2330 1236 
Q 2216 1309 1875 1350 
L 1678 1375 
Q 931 1469 631 1722 
Q 331 1975 331 2491 
Q 331 3047 712 3315 
Q 1094 3584 1881 3584 
Q 2191 3584 2531 3537 
Q 2872 3491 3272 3391 
z
" transform="scale(0.015625)"/>
       <path id="DejaVuSans-Bold-57" d="M 1759 4494 
L 1759 3500 
L 2913 3500 
L 2913 2700 
L 1759 2700 
L 1759 1216 
Q 1759 972 1856 886 
Q 1953 800 2241 800 
L 2816 800 
L 2816 0 
L 1856 0 
Q 1194 0 917 276 
Q 641 553 641 1216 
L 641 2700 
L 84 2700 
L 84 3500 
L 641 3500 
L 641 4494 
L 1759 4494 
z
" transform="scale(0.015625)"/>
       <path id="DejaVuSans-Bold-3" transform="scale(0.015625)"/>
       <path id="DejaVuSans-Bold-30" d="M 588 4666 
L 2119 4666 
L 3181 2169 
L 4250 4666 
L 5778 4666 
L 5778 0 
L 4641 0 
L 4641 3413 
L 3566 897 
L 2803 897 
L 1728 3413 
L 1728 0 
L 588 0 
L 588 4666 
z
" transform="scale(0.015625)"/>
       <path id="DejaVuSans-Bold-52" d="M 2203 2784 
Q 1831 2784 1636 2517 
Q 1441 2250 1441 1747 
Q 1441 1244 1636 976 
Q 1831 709 2203 709 
Q 2569 709 2762 976 
Q 2956 1244 2956 1747 
Q 2956 2250 2762 2517 
Q 2569 2784 2203 2784 
z
M 2203 3584 
Q 3106 3584 3614 3096 
Q 4122 2609 4122 1747 
Q 4122 884 3614 396 
Q 3106 -91 2203 -91 
Q 1297 -91 786 396 
Q 275 884 275 1747 
Q 275 2609 786 3096 
Q 1297 3584 2203 3584 
z
" transform="scale(0.015625)"/>
       <path id="DejaVuSans-Bold-51" d="M 4056 2131 
L 4056 0 
L 2931 0 
L 2931 347 
L 2931 1631 
Q 2931 2084 2911 2256 
Q 2891 2428 2841 2509 
Q 2775 2619 2662 2680 
Q 2550 2741 2406 2741 
Q 2056 2741 1856 2470 
Q 1656 2200 1656 1722 
L 1656 0 
L 538 0 
L 538 3500 
L 1656 3500 
L 1656 2988 
Q 1909 3294 2193 3439 
Q 2478 3584 2822 3584 
Q 3428 3584 3742 3212 
Q 4056 2841 4056 2131 
z
" transform="scale(0.015625)"/>
       <path id="DejaVuSans-Bold-4b" d="M 4056 2131 
L 4056 0 
L 2931 0 
L 2931 347 
L 2931 1625 
Q 2931 2084 2911 2256 
Q 2891 2428 2841 2509 
Q 2775 2619 2662 2680 
Q 2550 2741 2406 2741 
Q 2056 2741 1856 2470 
Q 1656 2200 1656 1722 
L 1656 0 
L 538 0 
L 538 4863 
L 1656 4863 
L 1656 2988 
Q 1909 3294 2193 3439 
Q 2478 3584 2822 3584 
Q 3428 3584 3742 3212 
Q 4056 2841 4056 2131 
z
" transform="scale(0.015625)"/>
      </defs>
      <use xlink:href="#DejaVuSans-Bold-2f"/>
      <use xlink:href="#DejaVuSans-Bold-44" transform="translate(63.71875 0)"/>
      <use xlink:href="#DejaVuSans-Bold-56" transform="translate(131.203125 0)"/>
      <use xlink:href="#DejaVuSans-Bold-57" transform="translate(190.71875 0)"/>
      <use xlink:href="#DejaVuSans-Bold-3" transform="translate(238.515625 0)"/>
      <use xlink:href="#DejaVuSans-Bold-30" transform="translate(273.328125 0)"/>
      <use xlink:href="#DejaVuSans-Bold-52" transform="translate(372.84375 0)"/>
      <use xlink:href="#DejaVuSans-Bold-51" transform="translate(441.546875 0)"/>
      <use xlink:href="#DejaVuSans-Bold-57" transform="translate(512.734375 0)"/>
      <use xlink:href="#DejaVuSans-Bold-4b" transform="translate(560.53125 0)"/>
     </g>
    </g>
   </g>
   <g id="matplotlib.axis_2">
    <g id="ytick_1">
     <g id="line2d_63">
      <path d="M 45.470469 219.518437 
L 725.670469 219.518437 
" clip-path="url(#pf58da6cf92)" style="fill: none; stroke-dasharray: 0.7,1.155; stroke-dashoffset: 0; stroke: #283d58; stroke-width: 0.7"/>
     </g>
     <g id="line2d_64">
      <defs>
       <path id="m0f66f17352" d="M 0 0 
L -3.5 0 
" style="stroke: #58a6ff; stroke-width: 0.8"/>
      </defs>
      <g>
       <use xlink:href="#m0f66f17352" x="45.470469" y="219.518437" style="fill: #58a6ff; stroke: #58a6ff; stroke-width: 0.8"/>
      </g>
     </g>
     <g id="text_33">
      <!-- 0 -->
      <g style="fill: #58a6ff" transform="translate(33.6 222.177617) scale(0.07 -0.07)">
       <use xlink:href="#DejaVuSans-Bold-13"/>
      </g>
     </g>
    </g>
    <g id="ytick_2">
     <g id="line2d_65">
      <path d="M 45.470469 193.758437 
L 725.670469 193.758437 
" clip-path="url(#pf58da6cf92)" style="fill: none; stroke-dasharray: 0.7,1.155; stroke-dashoffset: 0; stroke: #283d58; stroke-width: 0.7"/>
     </g>
     <g id="line2d_66">
      <g>
       <use xlink:href="#m0f66f17352" x="45.470469" y="193.758437" style="fill: #58a6ff; stroke: #58a6ff; stroke-width: 0.8"/>
      </g>
     </g>
     <g id="text_34">
      <!-- 1 -->
      <g style="fill: #58a6ff" transform="translate(33.6 196.417617) scale(0.07 -0.07)">
       <use xlink:href="#DejaVuSans-Bold-14"/>
      </g>
     </g>
    </g>
    <g id="ytick_3">
     <g id="line2d_67">
      <path d="M 45.470469 167.998437 
L 725.670469 167.998437 
" clip-path="url(#pf58da6cf92)" style="fill: none; stroke-dasharray: 0.7,1.155; stroke-dashoffset: 0; stroke: #283d58; stroke-width: 0.7"/>
     </g>
     <g id="line2d_68">
      <g>
       <use xlink:href="#m0f66f17352" x="45.470469" y="167.998437" style="fill: #58a6ff; stroke: #58a6ff; stroke-width: 0.8"/>
      </g>
     </g>
     <g id="text_35">
      <!-- 2 -->
      <g style="fill: #58a6ff" transform="translate(33.6 170.657617) scale(0.07 -0.07)">
       <use xlink:href="#DejaVuSans-Bold-15"/>
      </g>
     </g>
    </g>
    <g id="ytick_4">
     <g id="line2d_69">
      <path d="M 45.470469 142.238437 
L 725.670469 142.238437 
" clip-path="url(#pf58da6cf92)" style="fill: none; stroke-dasharray: 0.7,1.155; stroke-dashoffset: 0; stroke: #283d58; stroke-width: 0.7"/>
     </g>
     <g id="line2d_70">
      <g>
       <use xlink:href="#m0f66f17352" x="45.470469" y="142.238437" style="fill: #58a6ff; stroke: #58a6ff; stroke-width: 0.8"/>
      </g>
     </g>
     <g id="text_36">
      <!-- 3 -->
      <g style="fill: #58a6ff" transform="translate(33.6 144.897617) scale(0.07 -0.07)">
       <use xlink:href="#DejaVuSans-Bold-16"/>
      </g>
     </g>
    </g>
    <g id="ytick_5">
     <g id="line2d_71">
      <path d="M 45.470469 116.478437 
L 725.670469 116.478437 
" clip-path="url(#pf58da6cf92)" style="fill: none; stroke-dasharray: 0.7,1.155; stroke-dashoffset: 0; stroke: #283d58; stroke-width: 0.7"/>
     </g>
     <g id="line2d_72">
      <g>
       <use xlink:href="#m0f66f17352" x="45.470469" y="116.478437" style="fill: #58a6ff; stroke: #58a6ff; stroke-width: 0.8"/>
      </g>
     </g>
     <g id="text_37">
      <!-- 4 -->
      <g style="fill: #58a6ff" transform="translate(33.6 119.137617) scale(0.07 -0.07)">
       <use xlink:href="#DejaVuSans-Bold-17"/>
      </g>
     </g>
    </g>
    <g id="ytick_6">
     <g id="line2d_73">
      <path d="M 45.470469 90.718437 
L 725.670469 90.718437 
" clip-path="url(#pf58da6cf92)" style="fill: none; stroke-dasharray: 0.7,1.155; stroke-dashoffset: 0; stroke: #283d58; stroke-width: 0.7"/>
     </g>
     <g id="line2d_74">
      <g>
       <use xlink:href="#m0f66f17352" x="45.470469" y="90.718437" style="fill: #58a6ff; stroke: #58a6ff; stroke-width: 0.8"/>
      </g>
     </g>
     <g id="text_38">
      <!-- 5 -->
      <g style="fill: #58a6ff" transform="translate(33.6 93.377617) scale(0.07 -0.07)">
       <use xlink:href="#DejaVuSans-Bold-18"/>
      </g>
     </g>
    </g>
    <g id="ytick_7">
     <g id="line2d_75">
      <path d="M 45.470469 64.958437 
L 725.670469 64.958437 
" clip-path="url(#pf58da6cf92)" style="fill: none; stroke-dasharray: 0.7,1.155; stroke-dashoffset: 0; stroke: #283d58; stroke-width: 0.7"/>
     </g>
     <g id="line2d_76">
      <g>
       <use xlink:href="#m0f66f17352" x="45.470469" y="64.958437" style="fill: #58a6ff; stroke: #58a6ff; stroke-width: 0.8"/>
      </g>
     </g>
     <g id="text_39">
      <!-- 6 -->
      <g style="fill: #58a6ff" transform="translate(33.6 67.617617) scale(0.07 -0.07)">
       <use xlink:href="#DejaVuSans-Bold-19"/>
      </g>
     </g>
    </g>
    <g id="ytick_8">
     <g id="line2d_77">
      <path d="M 45.470469 39.198437 
L 725.670469 39.198437 
" clip-path="url(#pf58da6cf92)" style="fill: none; stroke-dasharray: 0.7,1.155; stroke-dashoffset: 0; stroke: #283d58; stroke-width: 0.7"/>
     </g>
     <g id="line2d_78">
      <g>
       <use xlink:href="#m0f66f17352" x="45.470469" y="39.198437" style="fill: #58a6ff; stroke: #58a6ff; stroke-width: 0.8"/>
      </g>
     </g>
     <g id="text_40">
      <!-- 7 -->
      <g style="fill: #58a6ff" transform="translate(33.6 41.857617) scale(0.07 -0.07)">
       <use xlink:href="#DejaVuSans-Bold-1a"/>
      </g>
     </g>
    </g>
    <g id="text_41">
     <!-- New Stars -->
     <g style="fill: #58a6ff" transform="translate(27.678125 158.792187) rotate(-90) scale(0.08 -0.08)">
      <defs>
       <path id="DejaVuSans-Bold-31" d="M 588 4666 
L 1931 4666 
L 3628 1466 
L 3628 4666 
L 4769 4666 
L 4769 0 
L 3425 0 
L 1728 3200 
L 1728 0 
L 588 0 
L 588 4666 
z
" transform="scale(0.015625)"/>
       <path id="DejaVuSans-Bold-48" d="M 4031 1759 
L 4031 1441 
L 1416 1441 
Q 1456 1047 1700 850 
Q 1944 653 2381 653 
Q 2734 653 3104 758 
Q 3475 863 3866 1075 
L 3866 213 
Q 3469 63 3072 -14 
Q 2675 -91 2278 -91 
Q 1328 -91 801 392 
Q 275 875 275 1747 
Q 275 2603 792 3093 
Q 1309 3584 2216 3584 
Q 3041 3584 3536 3087 
Q 4031 2591 4031 1759 
z
M 2881 2131 
Q 2881 2450 2695 2645 
Q 2509 2841 2209 2841 
Q 1884 2841 1681 2658 
Q 1478 2475 1428 2131 
L 2881 2131 
z
" transform="scale(0.015625)"/>
       <path id="DejaVuSans-Bold-5a" d="M 225 3500 
L 1313 3500 
L 1900 1088 
L 2491 3500 
L 3425 3500 
L 4013 1113 
L 4603 3500 
L 5691 3500 
L 4769 0 
L 3547 0 
L 2956 2406 
L 2369 0 
L 1147 0 
L 225 3500 
z
" transform="scale(0.015625)"/>
       <path id="DejaVuSans-Bold-36" d="M 3834 4519 
L 3834 3531 
Q 3450 3703 3084 3790 
Q 2719 3878 2394 3878 
Q 1963 3878 1756 3759 
Q 1550 3641 1550 3391 
Q 1550 3203 1689 3098 
Q 1828 2994 2194 2919 
L 2706 2816 
Q 3484 2659 3812 2340 
Q 4141 2022 4141 1434 
Q 4141 663 3683 286 
Q 3225 -91 2284 -91 
Q 1841 -91 1394 -6 
Q 947 78 500 244 
L 500 1259 
Q 947 1022 1364 901 
Q 1781 781 2169 781 
Q 2563 781 2772 912 
Q 2981 1044 2981 1288 
Q 2981 1506 2839 1625 
Q 2697 1744 2272 1838 
L 1806 1941 
Q 1106 2091 782 2419 
Q 459 2747 459 3303 
Q 459 4000 909 4375 
Q 1359 4750 2203 4750 
Q 2588 4750 2994 4692 
Q 3400 4634 3834 4519 
z
" transform="scale(0.015625)"/>
       <path id="DejaVuSans-Bold-55" d="M 3138 2547 
Q 2991 2616 2845 2648 
Q 2700 2681 2553 2681 
Q 2122 2681 1889 2404 
Q 1656 2128 1656 1613 
L 1656 0 
L 538 0 
L 538 3500 
L 1656 3500 
L 1656 2925 
Q 1872 3269 2151 3426 
Q 2431 3584 2822 3584 
Q 2878 3584 2943 3579 
Q 3009 3575 3134 3559 
L 3138 2547 
z
" transform="scale(0.015625)"/>
      </defs>
      <use xlink:href="#DejaVuSans-Bold-31"/>
      <use xlink:href="#DejaVuSans-Bold-48" transform="translate(83.6875 0)"/>
      <use xlink:href="#DejaVuSans-Bold-5a" transform="translate(151.515625 0)"/>
      <use xlink:href="#DejaVuSans-Bold-3" transform="translate(243.90625 0)"/>
      <use xlink:href="#DejaVuSans-Bold-36" transform="translate(278.71875 0)"/>
      <use xlink:href="#DejaVuSans-Bold-57" transform="translate(350.734375 0)"/>
      <use xlink:href="#DejaVuSans-Bold-44" transform="translate(398.53125 0)"/>
      <use xlink:href="#DejaVuSans-Bold-55" transform="translate(466.015625 0)"/>
      <use xlink:href="#DejaVuSans-Bold-56" transform="translate(515.328125 0)"/>
     </g>
    </g>
   </g>
   <g id="FillBetweenPolyCollection_1">
    <defs>
     <path id="mde214d2c80" d="M 58.551238 -94.480625 
L 58.551238 -94.480625 
L 60.738658 -94.480625 
L 62.926077 -94.480625 
L 65.113497 -94.480625 
L 67.300916 -94.480625 
L 69.488336 -94.480625 
L 71.675756 -94.480625 
L 73.863175 -94.480625 
L 76.050595 -94.480625 
L 78.238014 -94.480625 
L 80.425434 -94.480625 
L 82.612854 -94.480625 
L 84.800273 -94.480625 
L 86.987693 -94.480625 
L 89.175112 -94.480625 
L 91.362532 -94.480625 
L 93.549952 -94.480625 
L 95.737371 -94.480625 
L 97.924791 -94.480625 
L 100.11221 -94.480625 
L 102.29963 -94.480625 
L 104.48705 -94.480625 
L 106.674469 -94.480625 
L 108.861889 -94.480625 
L 111.049308 -94.480625 
L 113.236728 -94.480625 
L 115.424148 -94.480625 
L 117.611567 -94.480625 
L 119.798987 -94.480625 
L 121.986406 -94.480625 
L 124.173826 -94.480625 
L 126.361246 -94.480625 
L 128.548665 -94.480625 
L 130.736085 -94.480625 
L 132.923505 -94.480625 
L 135.110924 -94.480625 
L 137.298344 -94.480625 
L 139.485763 -94.480625 
L 141.673183 -94.480625 
L 143.860603 -94.480625 
L 146.048022 -94.480625 
L 148.235442 -94.480625 
L 150.422861 -94.480625 
L 152.610281 -94.480625 
L 154.797701 -94.480625 
L 156.98512 -94.480625 
L 159.17254 -94.480625 
L 161.359959 -94.480625 
L 163.547379 -94.480625 
L 165.734799 -94.480625 
L 167.922218 -94.480625 
L 170.109638 -94.480625 
L 172.297057 -94.480625 
L 174.484477 -94.480625 
L 176.671897 -94.480625 
L 178.859316 -94.480625 
L 181.046736 -94.480625 
L 183.234155 -94.480625 
L 185.421575 -94.480625 
L 187.608995 -94.480625 
L 189.796414 -94.480625 
L 191.983834 -94.480625 
L 194.171253 -94.480625 
L 196.358673 -94.480625 
L 198.546093 -94.480625 
L 200.733512 -94.480625 
L 202.920932 -94.480625 
L 205.108351 -94.480625 
L 207.295771 -94.480625 
L 209.483191 -94.480625 
L 211.67061 -94.480625 
L 213.85803 -94.480625 
L 216.045449 -94.480625 
L 218.232869 -94.480625 
L 220.420289 -94.480625 
L 222.607708 -94.480625 
L 224.795128 -94.480625 
L 226.982547 -94.480625 
L 229.169967 -94.480625 
L 231.357387 -94.480625 
L 233.544806 -94.480625 
L 235.732226 -94.480625 
L 237.919645 -94.480625 
L 240.107065 -94.480625 
L 242.294485 -94.480625 
L 244.481904 -94.480625 
L 246.669324 -94.480625 
L 248.856744 -94.480625 
L 251.044163 -94.480625 
L 253.231583 -94.480625 
L 255.419002 -94.480625 
L 257.606422 -94.480625 
L 259.793842 -94.480625 
L 261.981261 -94.480625 
L 264.168681 -94.480625 
L 266.3561 -94.480625 
L 268.54352 -94.480625 
L 270.73094 -94.480625 
L 272.918359 -94.480625 
L 275.105779 -94.480625 
L 277.293198 -94.480625 
L 279.480618 -94.480625 
L 281.668038 -94.480625 
L 283.855457 -94.480625 
L 286.042877 -94.480625 
L 288.230296 -94.480625 
L 290.417716 -94.480625 
L 292.605136 -94.480625 
L 294.792555 -94.480625 
L 296.979975 -94.480625 
L 299.167394 -94.480625 
L 301.354814 -94.480625 
L 303.542234 -94.480625 
L 305.729653 -94.480625 
L 307.917073 -94.480625 
L 310.104492 -94.480625 
L 312.291912 -94.480625 
L 314.479332 -94.480625 
L 316.666751 -94.480625 
L 318.854171 -94.480625 
L 321.04159 -94.480625 
L 323.22901 -94.480625 
L 325.41643 -94.480625 
L 327.603849 -94.480625 
L 329.791269 -94.480625 
L 331.978688 -94.480625 
L 334.166108 -94.480625 
L 336.353528 -94.480625 
L 338.540947 -94.480625 
L 340.728367 -94.480625 
L 342.915786 -94.480625 
L 345.103206 -94.480625 
L 347.290626 -94.480625 
L 349.478045 -94.480625 
L 351.665465 -94.480625 
L 353.852884 -94.480625 
L 356.040304 -94.480625 
L 358.227724 -94.480625 
L 360.415143 -94.480625 
L 362.602563 -94.480625 
L 364.789983 -94.480625 
L 366.977402 -94.480625 
L 369.164822 -94.480625 
L 371.352241 -94.480625 
L 373.539661 -94.480625 
L 375.727081 -94.480625 
L 377.9145 -94.480625 
L 380.10192 -94.480625 
L 382.289339 -94.480625 
L 384.476759 -94.480625 
L 386.664179 -94.480625 
L 388.851598 -94.480625 
L 391.039018 -94.480625 
L 393.226437 -94.480625 
L 395.413857 -94.480625 
L 397.601277 -94.480625 
L 399.788696 -94.480625 
L 401.976116 -94.480625 
L 404.163535 -94.480625 
L 406.350955 -94.480625 
L 408.538375 -94.480625 
L 410.725794 -94.480625 
L 412.913214 -94.480625 
L 415.100633 -94.480625 
L 417.288053 -94.480625 
L 419.475473 -94.480625 
L 421.662892 -94.480625 
L 423.850312 -94.480625 
L 426.037731 -94.480625 
L 428.225151 -94.480625 
L 430.412571 -94.480625 
L 432.59999 -94.480625 
L 434.78741 -94.480625 
L 436.974829 -94.480625 
L 439.162249 -94.480625 
L 441.349669 -94.480625 
L 443.537088 -94.480625 
L 445.724508 -94.480625 
L 447.911927 -94.480625 
L 450.099347 -94.480625 
L 452.286767 -94.480625 
L 454.474186 -94.480625 
L 456.661606 -94.480625 
L 458.849025 -94.480625 
L 461.036445 -94.480625 
L 463.223865 -94.480625 
L 465.411284 -94.480625 
L 467.598704 -94.480625 
L 469.786123 -94.480625 
L 471.973543 -94.480625 
L 474.160963 -94.480625 
L 476.348382 -94.480625 
L 478.535802 -94.480625 
L 480.723222 -94.480625 
L 482.910641 -94.480625 
L 485.098061 -94.480625 
L 487.28548 -94.480625 
L 489.4729 -94.480625 
L 491.66032 -94.480625 
L 493.847739 -94.480625 
L 496.035159 -94.480625 
L 498.222578 -94.480625 
L 500.409998 -94.480625 
L 502.597418 -94.480625 
L 504.784837 -94.480625 
L 506.972257 -94.480625 
L 509.159676 -94.480625 
L 511.347096 -94.480625 
L 513.534516 -94.480625 
L 515.721935 -94.480625 
L 517.909355 -94.480625 
L 520.096774 -94.480625 
L 522.284194 -94.480625 
L 524.471614 -94.480625 
L 526.659033 -94.480625 
L 528.846453 -94.480625 
L 531.033872 -94.480625 
L 533.221292 -94.480625 
L 535.408712 -94.480625 
L 537.596131 -94.480625 
L 539.783551 -94.480625 
L 541.97097 -94.480625 
L 544.15839 -94.480625 
L 546.34581 -94.480625 
L 548.533229 -94.480625 
L 550.720649 -94.480625 
L 552.908068 -94.480625 
L 555.095488 -94.480625 
L 557.282908 -94.480625 
L 559.470327 -94.480625 
L 561.657747 -94.480625 
L 563.845166 -94.480625 
L 566.032586 -94.480625 
L 568.220006 -94.480625 
L 570.407425 -94.480625 
L 572.594845 -94.480625 
L 574.782264 -94.480625 
L 576.969684 -94.480625 
L 579.157104 -94.480625 
L 581.344523 -94.480625 
L 583.531943 -94.480625 
L 585.719362 -94.480625 
L 587.906782 -94.480625 
L 590.094202 -94.480625 
L 592.281621 -94.480625 
L 594.469041 -94.480625 
L 596.656461 -94.480625 
L 598.84388 -94.480625 
L 601.0313 -94.480625 
L 603.218719 -94.480625 
L 605.406139 -94.480625 
L 607.593559 -94.480625 
L 609.780978 -94.480625 
L 611.968398 -94.480625 
L 614.155817 -94.480625 
L 616.343237 -94.480625 
L 618.530657 -94.480625 
L 620.718076 -94.480625 
L 622.905496 -94.480625 
L 625.092915 -94.480625 
L 627.280335 -94.480625 
L 629.467755 -94.480625 
L 631.655174 -94.480625 
L 633.842594 -94.480625 
L 636.030013 -94.480625 
L 638.217433 -94.480625 
L 640.404853 -94.480625 
L 642.592272 -94.480625 
L 644.779692 -94.480625 
L 646.967111 -94.480625 
L 649.154531 -94.480625 
L 651.341951 -94.480625 
L 653.52937 -94.480625 
L 655.71679 -94.480625 
L 657.904209 -94.480625 
L 660.091629 -94.480625 
L 662.279049 -94.480625 
L 664.466468 -94.480625 
L 666.653888 -94.480625 
L 668.841307 -94.480625 
L 671.028727 -94.480625 
L 673.216147 -94.480625 
L 675.403566 -94.480625 
L 677.590986 -94.480625 
L 679.778405 -94.480625 
L 681.965825 -94.480625 
L 684.153245 -94.480625 
L 686.340664 -94.480625 
L 688.528084 -94.480625 
L 690.715503 -94.480625 
L 692.902923 -94.480625 
L 695.090343 -94.480625 
L 697.277762 -94.480625 
L 699.465182 -94.480625 
L 701.652602 -94.480625 
L 703.840021 -94.480625 
L 706.027441 -94.480625 
L 708.21486 -94.480625 
L 710.40228 -94.480625 
L 712.5897 -94.480625 
L 712.5897 -94.480625 
L 712.5897 -94.480625 
L 710.40228 -94.480625 
L 708.21486 -94.480625 
L 706.027441 -94.480625 
L 703.840021 -94.480625 
L 701.652602 -94.480625 
L 699.465182 -94.480625 
L 697.277762 -94.480625 
L 695.090343 -94.480625 
L 692.902923 -94.480625 
L 690.715503 -94.480625 
L 688.528084 -94.480625 
L 686.340664 -94.480625 
L 684.153245 -94.480625 
L 681.965825 -94.480625 
L 679.778405 -94.480625 
L 677.590986 -94.480625 
L 675.403566 -94.480625 
L 673.216147 -94.480625 
L 671.028727 -94.480625 
L 668.841307 -94.480625 
L 666.653888 -94.480625 
L 664.466468 -94.480625 
L 662.279049 -94.480625 
L 660.091629 -94.480625 
L 657.904209 -94.480625 
L 655.71679 -94.480625 
L 653.52937 -94.480625 
L 651.341951 -94.480625 
L 649.154531 -94.480625 
L 646.967111 -94.480625 
L 644.779692 -94.480625 
L 642.592272 -94.480625 
L 640.404853 -94.480625 
L 638.217433 -94.480625 
L 636.030013 -94.480625 
L 633.842594 -94.480625 
L 631.655174 -94.480625 
L 629.467755 -94.480625 
L 627.280335 -94.480625 
L 625.092915 -94.480625 
L 622.905496 -94.480625 
L 620.718076 -94.480625 
L 618.530657 -94.480625 
L 616.343237 -94.480625 
L 614.155817 -94.480625 
L 611.968398 -94.480625 
L 609.780978 -94.480625 
L 607.593559 -94.480625 
L 605.406139 -94.480625 
L 603.218719 -94.480625 
L 601.0313 -94.480625 
L 598.84388 -94.480625 
L 596.656461 -94.480625 
L 594.469041 -94.480625 
L 592.281621 -94.480625 
L 590.094202 -94.480625 
L 587.906782 -94.480625 
L 585.719362 -94.480625 
L 583.531943 -94.480625 
L 581.344523 -94.480625 
L 579.157104 -94.480625 
L 576.969684 -94.480625 
L 574.782264 -94.480625 
L 572.594845 -94.480625 
L 570.407425 -94.480625 
L 568.220006 -94.480625 
L 566.032586 -94.480625 
L 563.845166 -94.480625 
L 561.657747 -94.480625 
L 559.470327 -94.480625 
L 557.282908 -94.480625 
L 555.095488 -94.480625 
L 552.908068 -94.480625 
L 550.720649 -94.480625 
L 548.533229 -94.480625 
L 546.34581 -94.480625 
L 544.15839 -94.480625 
L 541.97097 -94.480625 
L 539.783551 -94.480625 
L 537.596131 -94.480625 
L 535.408712 -94.480625 
L 533.221292 -94.480625 
L 531.033872 -94.480625 
L 528.846453 -94.480625 
L 526.659033 -94.480625 
L 524.471614 -94.480625 
L 522.284194 -94.480625 
L 520.096774 -94.480625 
L 517.909355 -94.480625 
L 515.721935 -94.480625 
L 513.534516 -94.480625 
L 511.347096 -94.480625 
L 509.159676 -94.480625 
L 506.972257 -94.480625 
L 504.784837 -94.480625 
L 502.597418 -94.480625 
L 500.409998 -94.480625 
L 498.222578 -94.480625 
L 496.035159 -94.480625 
L 493.847739 -94.480625 
L 491.66032 -94.480625 
L 489.4729 -94.480625 
L 487.28548 -94.480625 
L 485.098061 -94.480625 
L 482.910641 -94.480625 
L 480.723222 -94.480625 
L 478.535802 -94.480625 
L 476.348382 -94.480625 
L 474.160963 -94.480625 
L 471.973543 -94.480625 
L 469.786123 -94.480625 
L 467.598704 -94.480625 
L 465.411284 -94.480625 
L 463.223865 -94.480625 
L 461.036445 -94.480625 
L 458.849025 -94.480625 
L 456.661606 -94.480625 
L 454.474186 -94.480625 
L 452.286767 -94.480625 
L 450.099347 -94.480625 
L 447.911927 -94.480625 
L 445.724508 -94.480625 
L 443.537088 -94.480625 
L 441.349669 -94.480625 
L 439.162249 -94.480625 
L 436.974829 -94.480625 
L 434.78741 -94.480625 
L 432.59999 -94.480625 
L 430.412571 -94.480625 
L 428.225151 -94.480625 
L 426.037731 -94.480625 
L 423.850312 -94.480625 
L 421.662892 -94.480625 
L 419.475473 -94.480625 
L 417.288053 -94.480625 
L 415.100633 -94.480625 
L 412.913214 -94.480625 
L 410.725794 -94.480625 
L 408.538375 -94.480625 
L 406.350955 -94.480625 
L 404.163535 -94.480625 
L 401.976116 -94.480625 
L 399.788696 -94.480625 
L 397.601277 -94.480625 
L 395.413857 -94.480625 
L 393.226437 -94.480625 
L 391.039018 -94.480625 
L 388.851598 -94.480625 
L 386.664179 -94.480625 
L 384.476759 -94.480625 
L 382.289339 -94.480625 
L 380.10192 -94.480625 
L 377.9145 -94.480625 
L 375.727081 -94.480625 
L 373.539661 -94.480625 
L 371.352241 -94.480625 
L 369.164822 -94.480625 
L 366.977402 -94.480625 
L 364.789983 -94.480625 
L 362.602563 -94.480625 
L 360.415143 -94.480625 
L 358.227724 -94.480625 
L 356.040304 -94.480625 
L 353.852884 -94.480625 
L 351.665465 -94.480625 
L 349.478045 -94.480625 
L 347.290626 -94.480625 
L 345.103206 -94.480625 
L 342.915786 -94.480625 
L 340.728367 -94.480625 
L 338.540947 -94.480625 
L 336.353528 -94.480625 
L 334.166108 -94.480625 
L 331.978688 -94.480625 
L 329.791269 -94.480625 
L 327.603849 -94.480625 
L 325.41643 -94.480625 
L 323.22901 -94.480625 
L 321.04159 -94.480625 
L 318.854171 -94.480625 
L 316.666751 -94.480625 
L 314.479332 -94.480625 
L 312.291912 -94.480625 
L 310.104492 -94.480625 
L 307.917073 -94.480625 
L 305.729653 -94.480625 
L 303.542234 -94.480625 
L 301.354814 -94.480625 
L 299.167394 -94.480625 
L 296.979975 -94.480625 
L 294.792555 -94.480625 
L 292.605136 -94.480625 
L 290.417716 -94.480625 
L 288.230296 -94.480625 
L 286.042877 -94.480625 
L 283.855457 -94.480625 
L 281.668038 -94.480625 
L 279.480618 -94.480625 
L 277.293198 -94.480625 
L 275.105779 -94.480625 
L 272.918359 -94.480625 
L 270.73094 -94.480625 
L 268.54352 -94.480625 
L 266.3561 -94.480625 
L 264.168681 -94.480625 
L 261.981261 -94.480625 
L 259.793842 -94.480625 
L 257.606422 -94.480625 
L 255.419002 -94.480625 
L 253.231583 -94.480625 
L 251.044163 -94.480625 
L 248.856744 -94.480625 
L 246.669324 -94.480625 
L 244.481904 -94.480625 
L 242.294485 -94.480625 
L 240.107065 -94.480625 
L 237.919645 -94.480625 
L 235.732226 -94.480625 
L 233.544806 -94.480625 
L 231.357387 -94.480625 
L 229.169967 -94.480625 
L 226.982547 -94.480625 
L 224.795128 -94.480625 
L 222.607708 -94.480625 
L 220.420289 -94.480625 
L 218.232869 -94.480625 
L 216.045449 -94.480625 
L 213.85803 -94.480625 
L 211.67061 -94.480625 
L 209.483191 -94.480625 
L 207.295771 -94.480625 
L 205.108351 -94.480625 
L 202.920932 -94.480625 
L 200.733512 -94.480625 
L 198.546093 -94.480625 
L 196.358673 -94.480625 
L 194.171253 -94.480625 
L 191.983834 -94.480625 
L 189.796414 -94.480625 
L 187.608995 -94.480625 
L 185.421575 -94.480625 
L 183.234155 -94.480625 
L 181.046736 -94.480625 
L 178.859316 -94.480625 
L 176.671897 -94.480625 
L 174.484477 -94.480625 
L 172.297057 -94.480625 
L 170.109638 -94.480625 
L 167.922218 -94.480625 
L 165.734799 -94.480625 
L 163.547379 -94.480625 
L 161.359959 -94.480625 
L 159.17254 -94.480625 
L 156.98512 -94.480625 
L 154.797701 -94.480625 
L 152.610281 -94.480625 
L 150.422861 -94.480625 
L 148.235442 -94.480625 
L 146.048022 -94.480625 
L 143.860603 -94.480625 
L 141.673183 -94.480625 
L 139.485763 -94.480625 
L 137.298344 -94.480625 
L 135.110924 -94.480625 
L 132.923505 -94.480625 
L 130.736085 -94.480625 
L 128.548665 -94.480625 
L 126.361246 -94.480625 
L 124.173826 -94.480625 
L 121.986406 -94.480625 
L 119.798987 -94.480625 
L 117.611567 -94.480625 
L 115.424148 -94.480625 
L 113.236728 -94.480625 
L 111.049308 -94.480625 
L 108.861889 -94.480625 
L 106.674469 -94.480625 
L 104.48705 -94.480625 
L 102.29963 -94.480625 
L 100.11221 -94.480625 
L 97.924791 -94.480625 
L 95.737371 -94.480625 
L 93.549952 -94.480625 
L 91.362532 -94.480625 
L 89.175112 -94.480625 
L 86.987693 -94.480625 
L 84.800273 -94.480625 
L 82.612854 -94.480625 
L 80.425434 -94.480625 
L 78.238014 -94.480625 
L 76.050595 -94.480625 
L 73.863175 -94.480625 
L 71.675756 -94.480625 
L 69.488336 -94.480625 
L 67.300916 -94.480625 
L 65.113497 -94.480625 
L 62.926077 -94.480625 
L 60.738658 -94.480625 
L 58.551238 -94.480625 
z
" style="stroke: #1f6feb; stroke-opacity: 0.15"/>
    </defs>
    <g clip-path="url(#pf58da6cf92)">
     <use xlink:href="#mde214d2c80" x="0" y="313.999062" style="fill: #1f6feb; fill-opacity: 0.15; stroke: #1f6feb; stroke-opacity: 0.15"/>
    </g>
   </g>
   <g id="patch_3">
    <path d="M 45.470469 232.398437 
L 45.470469 39.198437 
" style="fill: none; stroke: #283d58; stroke-width: 0.8; stroke-linejoin: miter; stroke-linecap: square"/>
   </g>
   <g id="patch_4">
    <path d="M 725.670469 232.398437 
L 725.670469 39.198437 
" style="fill: none; stroke: #283d58; stroke-width: 0.8; stroke-linejoin: miter; stroke-linecap: square"/>
   </g>
   <g id="patch_5">
    <path d="M 45.470469 232.398437 
L 725.670469 232.398437 
" style="fill: none; stroke: #283d58; stroke-width: 0.8; stroke-linejoin: miter; stroke-linecap: square"/>
   </g>
   <g id="patch_6">
    <path d="M 45.470469 39.198437 
L 725.670469 39.198437 
" style="fill: none; stroke: #283d58; stroke-width: 0.8; stroke-linejoin: miter; stroke-linecap: square"/>
   </g>
   <g id="line2d_79">
    <path d="M 58.551238 219.518437 
L 712.5897 219.518437 
L 712.5897 219.518437 
" clip-path="url(#pf58da6cf92)" style="fill: none; stroke: #1f6feb; stroke-width: 2.5; stroke-linecap: square"/>
   </g>
   <g id="text_42">
    <!-- Marcin Grygiel aka FirstEver — Daily Stars -->
    <g style="fill: #58a6ff" transform="translate(266.261094 29.198437) scale(0.1 -0.1)">
     <defs>
      <path id="DejaVuSans-Bold-46" d="M 3366 3391 
L 3366 2478 
Q 3138 2634 2908 2709 
Q 2678 2784 2431 2784 
Q 1963 2784 1702 2511 
Q 1441 2238 1441 1747 
Q 1441 1256 1702 982 
Q 1963 709 2431 709 
Q 2694 709 2930 787 
Q 3166 866 3366 1019 
L 3366 103 
Q 3103 6 2833 -42 
Q 2563 -91 2291 -91 
Q 1344 -91 809 395 
Q 275 881 275 1747 
Q 275 2613 809 3098 
Q 1344 3584 2291 3584 
Q 2566 3584 2833 3536 
Q 3100 3488 3366 3391 
z
" transform="scale(0.015625)"/>
      <path id="DejaVuSans-Bold-4c" d="M 538 3500 
L 1656 3500 
L 1656 0 
L 538 0 
L 538 3500 
z
M 538 4863 
L 1656 4863 
L 1656 3950 
L 538 3950 
L 538 4863 
z
" transform="scale(0.015625)"/>
      <path id="DejaVuSans-Bold-2a" d="M 4781 347 
Q 4331 128 3847 18 
Q 3363 -91 2847 -91 
Q 1681 -91 1000 561 
Q 319 1213 319 2328 
Q 319 3456 1012 4103 
Q 1706 4750 2913 4750 
Q 3378 4750 3804 4662 
Q 4231 4575 4609 4403 
L 4609 3438 
Q 4219 3659 3833 3768 
Q 3447 3878 3059 3878 
Q 2341 3878 1952 3476 
Q 1563 3075 1563 2328 
Q 1563 1588 1938 1184 
Q 2313 781 3003 781 
Q 3191 781 3352 804 
Q 3513 828 3641 878 
L 3641 1784 
L 2906 1784 
L 2906 2591 
L 4781 2591 
L 4781 347 
z
" transform="scale(0.015625)"/>
      <path id="DejaVuSans-Bold-5c" d="M 78 3500 
L 1197 3500 
L 2138 1125 
L 2938 3500 
L 4056 3500 
L 2584 -331 
Q 2363 -916 2067 -1148 
Q 1772 -1381 1288 -1381 
L 641 -1381 
L 641 -647 
L 991 -647 
Q 1275 -647 1404 -556 
Q 1534 -466 1606 -231 
L 1638 -134 
L 78 3500 
z
" transform="scale(0.015625)"/>
      <path id="DejaVuSans-Bold-4a" d="M 2919 594 
Q 2688 288 2409 144 
Q 2131 0 1766 0 
Q 1125 0 706 504 
Q 288 1009 288 1791 
Q 288 2575 706 3076 
Q 1125 3578 1766 3578 
Q 2131 3578 2409 3434 
Q 2688 3291 2919 2981 
L 2919 3500 
L 4044 3500 
L 4044 353 
Q 4044 -491 3511 -936 
Q 2978 -1381 1966 -1381 
Q 1638 -1381 1331 -1331 
Q 1025 -1281 716 -1178 
L 716 -306 
Q 1009 -475 1290 -558 
Q 1572 -641 1856 -641 
Q 2406 -641 2662 -400 
Q 2919 -159 2919 353 
L 2919 594 
z
M 2181 2772 
Q 1834 2772 1640 2515 
Q 1447 2259 1447 1791 
Q 1447 1309 1634 1061 
Q 1822 813 2181 813 
Q 2531 813 2725 1069 
Q 2919 1325 2919 1791 
Q 2919 2259 2725 2515 
Q 2531 2772 2181 2772 
z
" transform="scale(0.015625)"/>
      <path id="DejaVuSans-Bold-4f" d="M 538 4863 
L 1656 4863 
L 1656 0 
L 538 0 
L 538 4863 
z
" transform="scale(0.015625)"/>
      <path id="DejaVuSans-Bold-4e" d="M 538 4863 
L 1656 4863 
L 1656 2216 
L 2944 3500 
L 4244 3500 
L 2534 1894 
L 4378 0 
L 3022 0 
L 1656 1459 
L 1656 0 
L 538 0 
L 538 4863 
z
" transform="scale(0.015625)"/>
      <path id="DejaVuSans-Bold-29" d="M 588 4666 
L 3834 4666 
L 3834 3756 
L 1791 3756 
L 1791 2888 
L 3713 2888 
L 3713 1978 
L 1791 1978 
L 1791 0 
L 588 0 
L 588 4666 
z
" transform="scale(0.015625)"/>
      <path id="DejaVuSans-Bold-28" d="M 588 4666 
L 3834 4666 
L 3834 3756 
L 1791 3756 
L 1791 2888 
L 3713 2888 
L 3713 1978 
L 1791 1978 
L 1791 909 
L 3903 909 
L 3903 0 
L 588 0 
L 588 4666 
z
" transform="scale(0.015625)"/>
      <path id="DejaVuSans-Bold-59" d="M 97 3500 
L 1216 3500 
L 2088 1081 
L 2956 3500 
L 4078 3500 
L 2700 0 
L 1472 0 
L 97 3500 
z
" transform="scale(0.015625)"/>
      <path id="DejaVuSans-Bold-af6" d="M 344 2156 
L 6056 2156 
L 6056 1350 
L 344 1350 
L 344 2156 
z
" transform="scale(0.015625)"/>
      <path id="DejaVuSans-Bold-27" d="M 1791 3756 
L 1791 909 
L 2222 909 
Q 2959 909 3348 1275 
Q 3738 1641 3738 2338 
Q 3738 3031 3350 3393 
Q 2963 3756 2222 3756 
L 1791 3756 
z
M 588 4666 
L 1856 4666 
Q 2919 4666 3439 4514 
Q 3959 4363 4331 4000 
Q 4659 3684 4818 3271 
Q 4978 2859 4978 2338 
Q 4978 1809 4818 1395 
Q 4659 981 4331 666 
Q 3956 303 3431 151 
Q 2906 0 1856 0 
L 588 0 
L 588 4666 
z
" transform="scale(0.015625)"/>
     </defs>
     <use xlink:href="#DejaVuSans-Bold-30"/>
     <use xlink:href="#DejaVuSans-Bold-44" transform="translate(99.515625 0)"/>
     <use xlink:href="#DejaVuSans-Bold-55" transform="translate(167 0)"/>
     <use xlink:href="#DejaVuSans-Bold-46" transform="translate(216.3125 0)"/>
     <use xlink:href="#DejaVuSans-Bold-4c" transform="translate(275.59375 0)"/>
     <use xlink:href="#DejaVuSans-Bold-51" transform="translate(309.875 0)"/>
     <use xlink:href="#DejaVuSans-Bold-3" transform="translate(381.0625 0)"/>
     <use xlink:href="#DejaVuSans-Bold-2a" transform="translate(415.875 0)"/>
     <use xlink:href="#DejaVuSans-Bold-55" transform="translate(497.953125 0)"/>
     <use xlink:href="#DejaVuSans-Bold-5c" transform="translate(547.265625 0)"/>
     <use xlink:href="#DejaVuSans-Bold-4a" transform="translate(612.453125 0)"/>
     <use xlink:href="#DejaVuSans-Bold-4c" transform="translate(684.03125 0)"/>
     <use xlink:href="#DejaVuSans-Bold-48" transform="translate(718.3125 0)"/>
     <use xlink:href="#DejaVuSans-Bold-4f" transform="translate(786.140625 0)"/>
     <use xlink:href="#DejaVuSans-Bold-3" transform="translate(820.421875 0)"/>
     <use xlink:href="#DejaVuSans-Bold-44" transform="translate(855.234375 0)"/>
     <use xlink:href="#DejaVuSans-Bold-4e" transform="translate(922.71875 0)"/>
     <use xlink:href="#DejaVuSans-Bold-44" transform="translate(989.21875 0)"/>
     <use xlink:href="#DejaVuSans-Bold-3" transform="translate(1056.703125 0)"/>
     <use xlink:href="#DejaVuSans-Bold-29" transform="translate(1091.515625 0)"/>
     <use xlink:href="#DejaVuSans-Bold-4c" transform="translate(1159.828125 0)"/>
     <use xlink:href="#DejaVuSans-Bold-55" transform="translate(1194.109375 0)"/>
     <use xlink:href="#DejaVuSans-Bold-56" transform="translate(1243.421875 0)"/>
     <use xlink:href="#DejaVuSans-Bold-57" transform="translate(1302.9375 0)"/>
     <use xlink:href="#DejaVuSans-Bold-28" transform="translate(1350.734375 0)"/>
     <use xlink:href="#DejaVuSans-Bold-59" transform="translate(1419.046875 0)"/>
     <use xlink:href="#DejaVuSans-Bold-48" transform="translate(1484.234375 0)"/>
     <use xlink:href="#DejaVuSans-Bold-55" transform="translate(1552.0625 0)"/>
     <use xlink:href="#DejaVuSans-Bold-3" transform="translate(1601.375 0)"/>
     <use xlink:href="#DejaVuSans-Bold-af6" transform="translate(1636.1875 0)"/>
     <use xlink:href="#DejaVuSans-Bold-3" transform="translate(1736.1875 0)"/>
     <use xlink:href="#DejaVuSans-Bold-27" transform="translate(1771 0)"/>
     <use xlink:href="#DejaVuSans-Bold-44" transform="translate(1854.015625 0)"/>
     <use xlink:href="#DejaVuSans-Bold-4c" transform="translate(1921.5 0)"/>
     <use xlink:href="#DejaVuSans-Bold-4f" transform="translate(1955.78125 0)"/>
     <use xlink:href="#DejaVuSans-Bold-5c" transform="translate(1990.0625 0)"/>
     <use xlink:href="#DejaVuSans-Bold-3" transform="translate(2055.25 0)"/>
     <use xlink:href="#DejaVuSans-Bold-36" transform="translate(2090.0625 0)"/>
     <use xlink:href="#DejaVuSans-Bold-57" transform="translate(2162.078125 0)"/>
     <use xlink:href="#DejaVuSans-Bold-44" transform="translate(2209.875 0)"/>
     <use xlink:href="#DejaVuSans-Bold-55" transform="translate(2277.359375 0)"/>
     <use xlink:href="#DejaVuSans-Bold-56" transform="translate(2326.671875 0)"/>
    </g>
   </g>
   <g id="PathCollection_1">
    <defs>
     <path id="m9f24124fa6" d="M 0 2.738613 
C 0.726289 2.738613 1.422928 2.450055 1.936492 1.936492 
C 2.450055 1.422928 2.738613 0.726289 2.738613 0 
C 2.738613 -0.726289 2.450055 -1.422928 1.936492 -1.936492 
C 1.422928 -2.450055 0.726289 -2.738613 0 -2.738613 
C -0.726289 -2.738613 -1.422928 -2.450055 -1.936492 -1.936492 
C -2.450055 -1.422928 -2.738613 -0.726289 -2.738613 0 
C -2.738613 0.726289 -2.450055 1.422928 -1.936492 1.936492 
C -1.422928 2.450055 -0.726289 2.738613 0 2.738613 
z
"/>
    </defs>
    <g clip-path="url(#pf58da6cf92)">
     <use xlink:href="#m9f24124fa6" x="58.551238" y="219.518437" style="fill: #58a6ff"/>
     <use xlink:href="#m9f24124fa6" x="80.35252" y="219.518437" style="fill: #58a6ff"/>
     <use xlink:href="#m9f24124fa6" x="102.153802" y="219.518437" style="fill: #58a6ff"/>
     <use xlink:href="#m9f24124fa6" x="123.955084" y="219.518437" style="fill: #58a6ff"/>
     <use xlink:href="#m9f24124fa6" x="145.756366" y="219.518437" style="fill: #58a6ff"/>
     <use xlink:href="#m9f24124fa6" x="167.557648" y="219.518437" style="fill: #58a6ff"/>
     <use xlink:href="#m9f24124fa6" x="189.35893" y="219.518437" style="fill: #58a6ff"/>
     <use xlink:href="#m9f24124fa6" x="211.160212" y="219.518437" style="fill: #58a6ff"/>
     <use xlink:href="#m9f24124fa6" x="232.961494" y="219.518437" style="fill: #58a6ff"/>
     <use xlink:href="#m9f24124fa6" x="254.762776" y="219.518437" style="fill: #58a6ff"/>
     <use xlink:href="#m9f24124fa6" x="276.564058" y="219.518437" style="fill: #58a6ff"/>
     <use xlink:href="#m9f24124fa6" x="298.365341" y="219.518437" style="fill: #58a6ff"/>
     <use xlink:href="#m9f24124fa6" x="320.166623" y="219.518437" style="fill: #58a6ff"/>
     <use xlink:href="#m9f24124fa6" x="341.967905" y="219.518437" style="fill: #58a6ff"/>
     <use xlink:href="#m9f24124fa6" x="363.769187" y="219.518437" style="fill: #58a6ff"/>
     <use xlink:href="#m9f24124fa6" x="385.570469" y="219.518437" style="fill: #58a6ff"/>
     <use xlink:href="#m9f24124fa6" x="407.371751" y="219.518437" style="fill: #58a6ff"/>
     <use xlink:href="#m9f24124fa6" x="429.173033" y="219.518437" style="fill: #58a6ff"/>
     <use xlink:href="#m9f24124fa6" x="450.974315" y="219.518437" style="fill: #58a6ff"/>
     <use xlink:href="#m9f24124fa6" x="472.775597" y="219.518437" style="fill: #58a6ff"/>
     <use xlink:href="#m9f24124fa6" x="494.576879" y="219.518437" style="fill: #58a6ff"/>
     <use xlink:href="#m9f24124fa6" x="516.378161" y="219.518437" style="fill: #58a6ff"/>
     <use xlink:href="#m9f24124fa6" x="538.179443" y="219.518437" style="fill: #58a6ff"/>
     <use xlink:href="#m9f24124fa6" x="559.980725" y="219.518437" style="fill: #58a6ff"/>
     <use xlink:href="#m9f24124fa6" x="581.782007" y="219.518437" style="fill: #58a6ff"/>
     <use xlink:href="#m9f24124fa6" x="603.583289" y="219.518437" style="fill: #58a6ff"/>
     <use xlink:href="#m9f24124fa6" x="625.384571" y="219.518437" style="fill: #58a6ff"/>
     <use xlink:href="#m9f24124fa6" x="647.185853" y="219.518437" style="fill: #58a6ff"/>
     <use xlink:href="#m9f24124fa6" x="668.987135" y="219.518437" style="fill: #58a6ff"/>
     <use xlink:href="#m9f24124fa6" x="690.788417" y="219.518437" style="fill: #58a6ff"/>
     <use xlink:href="#m9f24124fa6" x="712.5897" y="219.518437" style="fill: #58a6ff"/>
    </g>
   </g>
  </g>
  <g id="text_43">
   <!-- ▲ vs yesterday: +0 / day   │   ⌀ last 7 days: 0.0 / day   │   ⌀ last 31 days: 0.0 / day -->
   <g style="fill: #58a6ff" transform="translate(204.935117 283.875437) scale(0.075 -0.075)">
    <defs>
     <path id="DejaVuSans-Bold-e89" d="M 19 -788 
L 2459 4113 
L 4903 -788 
L 19 -788 
z
" transform="scale(0.015625)"/>
     <path id="DejaVuSans-Bold-47" d="M 2919 2988 
L 2919 4863 
L 4044 4863 
L 4044 0 
L 2919 0 
L 2919 506 
Q 2688 197 2409 53 
Q 2131 -91 1766 -91 
Q 1119 -91 703 423 
Q 288 938 288 1747 
Q 288 2556 703 3070 
Q 1119 3584 1766 3584 
Q 2128 3584 2408 3439 
Q 2688 3294 2919 2988 
z
M 2181 722 
Q 2541 722 2730 984 
Q 2919 1247 2919 1747 
Q 2919 2247 2730 2509 
Q 2541 2772 2181 2772 
Q 1825 2772 1636 2509 
Q 1447 2247 1447 1747 
Q 1447 1247 1636 984 
Q 1825 722 2181 722 
z
" transform="scale(0.015625)"/>
     <path id="DejaVuSans-Bold-1d" d="M 716 3500 
L 1844 3500 
L 1844 2291 
L 716 2291 
L 716 3500 
z
M 716 1209 
L 1844 1209 
L 1844 0 
L 716 0 
L 716 1209 
z
" transform="scale(0.015625)"/>
     <path id="DejaVuSans-Bold-e" d="M 3053 4013 
L 3053 2375 
L 4684 2375 
L 4684 1638 
L 3053 1638 
L 3053 0 
L 2309 0 
L 2309 1638 
L 678 1638 
L 678 2375 
L 2309 2375 
L 2309 4013 
L 3053 4013 
z
" transform="scale(0.015625)"/>
     <path id="DejaVuSans-Bold-12" d="M 1644 4666 
L 2338 4666 
L 691 -594 
L 0 -594 
L 1644 4666 
z
" transform="scale(0.015625)"/>
     <path id="DejaVuSans-Bold-dd9" d="M 1675 -1600 
L 1675 6003 
L 2175 6003 
L 2175 -1600 
L 1675 -1600 
z
" transform="scale(0.015625)"/>
     <path id="DejaVuSans-Bold-d8a" d="M 1925 3272 
Q 2484 3272 2916 2947 
L 3288 3319 
L 3659 2947 
L 3288 2572 
Q 3603 2147 3603 1588 
Q 3603 897 3113 403 
Q 2616 -91 1925 -91 
Q 1375 -91 944 228 
L 572 -144 
L 200 228 
L 572 600 
Q 250 1028 250 1588 
Q 250 2284 741 2778 
Q 1238 3272 1925 3272 
z
M 2531 2559 
Q 2263 2731 1978 2731 
Q 1459 2731 1122 2397 
Q 788 2063 788 1588 
Q 788 1253 959 988 
L 2531 2559 
z
M 1331 616 
Q 1597 450 1878 450 
Q 2394 450 2731 784 
Q 3066 1119 3066 1588 
Q 3066 1922 2900 2184 
L 1331 616 
z
" transform="scale(0.015625)"/>
     <path id="DejaVuSans-Bold-11" d="M 653 1209 
L 1778 1209 
L 1778 0 
L 653 0 
L 653 1209 
z
" transform="scale(0.015625)"/>
    </defs>
    <use xlink:href="#DejaVuSans-Bold-e89"/>
    <use xlink:href="#DejaVuSans-Bold-3" transform="translate(76.90625 0)"/>
    <use xlink:href="#DejaVuSans-Bold-59" transform="translate(111.71875 0)"/>
    <use xlink:href="#DejaVuSans-Bold-56" transform="translate(176.90625 0)"/>
    <use xlink:href="#DejaVuSans-Bold-3" transform="translate(236.421875 0)"/>
    <use xlink:href="#DejaVuSans-Bold-5c" transform="translate(271.234375 0)"/>
    <use xlink:href="#DejaVuSans-Bold-48" transform="translate(336.421875 0)"/>
    <use xlink:href="#DejaVuSans-Bold-56" transform="translate(404.25 0)"/>
    <use xlink:href="#DejaVuSans-Bold-57" transform="translate(463.765625 0)"/>
    <use xlink:href="#DejaVuSans-Bold-48" transform="translate(511.5625 0)"/>
    <use xlink:href="#DejaVuSans-Bold-55" transform="translate(579.390625 0)"/>
    <use xlink:href="#DejaVuSans-Bold-47" transform="translate(628.703125 0)"/>
    <use xlink:href="#DejaVuSans-Bold-44" transform="translate(700.28125 0)"/>
    <use xlink:href="#DejaVuSans-Bold-5c" transform="translate(764.6875 0)"/>
    <use xlink:href="#DejaVuSans-Bold-1d" transform="translate(829.875 0)"/>
    <use xlink:href="#DejaVuSans-Bold-3" transform="translate(869.859375 0)"/>
    <use xlink:href="#DejaVuSans-Bold-e" transform="translate(904.671875 0)"/>
    <use xlink:href="#DejaVuSans-Bold-13" transform="translate(988.46875 0)"/>
    <use xlink:href="#DejaVuSans-Bold-3" transform="translate(1058.046875 0)"/>
    <use xlink:href="#DejaVuSans-Bold-12" transform="translate(1092.859375 0)"/>
    <use xlink:href="#DejaVuSans-Bold-3" transform="translate(1129.390625 0)"/>
    <use xlink:href="#DejaVuSans-Bold-47" transform="translate(1164.203125 0)"/>
    <use xlink:href="#DejaVuSans-Bold-44" transform="translate(1235.78125 0)"/>
    <use xlink:href="#DejaVuSans-Bold-5c" transform="translate(1300.1875 0)"/>
    <use xlink:href="#DejaVuSans-Bold-3" transform="translate(1365.375 0)"/>
    <use xlink:href="#DejaVuSans-Bold-3" transform="translate(1400.1875 0)"/>
    <use xlink:href="#DejaVuSans-Bold-3" transform="translate(1435 0)"/>
    <use xlink:href="#DejaVuSans-Bold-dd9" transform="translate(1469.8125 0)"/>
    <use xlink:href="#DejaVuSans-Bold-3" transform="translate(1530.015625 0)"/>
    <use xlink:href="#DejaVuSans-Bold-3" transform="translate(1564.828125 0)"/>
    <use xlink:href="#DejaVuSans-Bold-3" transform="translate(1599.640625 0)"/>
    <use xlink:href="#DejaVuSans-Bold-d8a" transform="translate(1634.453125 0)"/>
    <use xlink:href="#DejaVuSans-Bold-3" transform="translate(1694.65625 0)"/>
    <use xlink:href="#DejaVuSans-Bold-4f" transform="translate(1729.46875 0)"/>
    <use xlink:href="#DejaVuSans-Bold-44" transform="translate(1763.75 0)"/>
    <use xlink:href="#DejaVuSans-Bold-56" transform="translate(1831.234375 0)"/>
    <use xlink:href="#DejaVuSans-Bold-57" transform="translate(1890.75 0)"/>
    <use xlink:href="#DejaVuSans-Bold-3" transform="translate(1938.546875 0)"/>
    <use xlink:href="#DejaVuSans-Bold-1a" transform="translate(1973.359375 0)"/>
    <use xlink:href="#DejaVuSans-Bold-3" transform="translate(2042.9375 0)"/>
    <use xlink:href="#DejaVuSans-Bold-47" transform="translate(2077.75 0)"/>
    <use xlink:href="#DejaVuSans-Bold-44" transform="translate(2149.328125 0)"/>
    <use xlink:href="#DejaVuSans-Bold-5c" transform="translate(2213.734375 0)"/>
    <use xlink:href="#DejaVuSans-Bold-56" transform="translate(2278.921875 0)"/>
    <use xlink:href="#DejaVuSans-Bold-1d" transform="translate(2338.4375 0)"/>
    <use xlink:href="#DejaVuSans-Bold-3" transform="translate(2378.421875 0)"/>
    <use xlink:href="#DejaVuSans-Bold-13" transform="translate(2413.234375 0)"/>
    <use xlink:href="#DejaVuSans-Bold-11" transform="translate(2482.8125 0)"/>
    <use xlink:href="#DejaVuSans-Bold-13" transform="translate(2520.796875 0)"/>
    <use xlink:href="#DejaVuSans-Bold-3" transform="translate(2590.375 0)"/>
    <use xlink:href="#DejaVuSans-Bold-12" transform="translate(2625.1875 0)"/>
    <use xlink:href="#DejaVuSans-Bold-3" transform="translate(2661.71875 0)"/>
    <use xlink:href="#DejaVuSans-Bold-47" transform="translate(2696.53125 0)"/>
    <use xlink:href="#DejaVuSans-Bold-44" transform="translate(2768.109375 0)"/>
    <use xlink:href="#DejaVuSans-Bold-5c" transform="translate(2832.515625 0)"/>
    <use xlink:href="#DejaVuSans-Bold-3" transform="translate(2897.703125 0)"/>
    <use xlink:href="#DejaVuSans-Bold-3" transform="translate(2932.515625 0)"/>
    <use xlink:href="#DejaVuSans-Bold-3" transform="translate(2967.328125 0)"/>
    <use xlink:href="#DejaVuSans-Bold-dd9" transform="translate(3002.140625 0)"/>
    <use xlink:href="#DejaVuSans-Bold-3" transform="translate(3062.34375 0)"/>
    <use xlink:href="#DejaVuSans-Bold-3" transform="translate(3097.15625 0)"/>
    <use xlink:href="#DejaVuSans-Bold-3" transform="translate(3131.96875 0)"/>
    <use xlink:href="#DejaVuSans-Bold-d8a" transform="translate(3166.78125 0)"/>
    <use xlink:href="#DejaVuSans-Bold-3" transform="translate(3226.984375 0)"/>
    <use xlink:href="#DejaVuSans-Bold-4f" transform="translate(3261.796875 0)"/>
    <use xlink:href="#DejaVuSans-Bold-44" transform="translate(3296.078125 0)"/>
    <use xlink:href="#DejaVuSans-Bold-56" transform="translate(3363.5625 0)"/>
    <use xlink:href="#DejaVuSans-Bold-57" transform="translate(3423.078125 0)"/>
    <use xlink:href="#DejaVuSans-Bold-3" transform="translate(3470.875 0)"/>
    <use xlink:href="#DejaVuSans-Bold-16" transform="translate(3505.6875 0)"/>
    <use xlink:href="#DejaVuSans-Bold-14" transform="translate(3575.265625 0)"/>
    <use xlink:href="#DejaVuSans-Bold-3" transform="translate(3644.84375 0)"/>
    <use xlink:href="#DejaVuSans-Bold-47" transform="translate(3679.65625 0)"/>
    <use xlink:href="#DejaVuSans-Bold-44" transform="translate(3751.234375 0)"/>
    <use xlink:href="#DejaVuSans-Bold-5c" transform="translate(3815.640625 0)"/>
    <use xlink:href="#DejaVuSans-Bold-56" transform="translate(3880.828125 0)"/>
    <use xlink:href="#DejaVuSans-Bold-1d" transform="translate(3940.34375 0)"/>
    <use xlink:href="#DejaVuSans-Bold-3" transform="translate(3980.328125 0)"/>
    <use xlink:href="#DejaVuSans-Bold-13" transform="translate(4015.140625 0)"/>
    <use xlink:href="#DejaVuSans-Bold-11" transform="translate(4084.71875 0)"/>
    <use xlink:href="#DejaVuSans-Bold-13" transform="translate(4122.703125 0)"/>
    <use xlink:href="#DejaVuSans-Bold-3" transform="translate(4192.28125 0)"/>
    <use xlink:href="#DejaVuSans-Bold-12" transform="translate(4227.09375 0)"/>
    <use xlink:href="#DejaVuSans-Bold-3" transform="translate(4263.625 0)"/>
    <use xlink:href="#DejaVuSans-Bold-47" transform="translate(4298.4375 0)"/>
    <use xlink:href="#DejaVuSans-Bold-44" transform="translate(4370.015625 0)"/>
    <use xlink:href="#DejaVuSans-Bold-5c" transform="translate(4434.421875 0)"/>
   </g>
  </g>
 </g>
 <defs>
  <clipPath id="pf58da6cf92">
   <rect x="45.470469" y="39.198437" width="680.2" height="193.2"/>
  </clipPath>
 </defs>
</svg>
